0
SECTION
2
HEADER
9
$INSUNITS
70
4
9
$ACADVER
1
AC1014
9
$HANDSEED
5
FFFF
0
ENDSEC
0
SECTION
2
TABLES
0
TABLE
2
VPORT
5
8
100
AcDbSymbolTable
0
ENDTAB
0
TABLE
2
LTYPE
5
5
100
AcDbSymbolTable
0
LTYPE
5
14
100
AcDbSymbolTableRecord
100
AcDbLinetypeTableRecord
2
BYBLOCK
70
0
0
LTYPE
5
15
100
AcDbSymbolTableRecord
100
AcDbLinetypeTableRecord
2
BYLAYER
70
0
0
ENDTAB
0
TABLE
2
LAYER
5
2
100
AcDbSymbolTable
70
2
0
LAYER
5
50
100
AcDbSymbolTableRecord
100
AcDbLayerTableRecord
2
0
70
0
6
CONTINUOUS
0
ENDTAB
0
TABLE
2
STYLE
5
3
100
AcDbSymbolTable
70
1
0
STYLE
5
11
100
AcDbSymbolTableRecord
100
AcDbTextStyleTableRecord
2
STANDARD
70
0
0
ENDTAB
0
TABLE
2
VIEW
5
6
100
AcDbSymbolTable
70
0
0
ENDTAB
0
TABLE
2
UCS
5
7
100
AcDbSymbolTable
70
0
0
ENDTAB
0
TABLE
2
APPID
5
9
100
AcDbSymbolTable
70
2
0
APPID
5
12
100
AcDbSymbolTableRecord
100
AcDbRegAppTableRecord
2
ACAD
70
0
0
ENDTAB
0
TABLE
2
DIMSTYLE
5
A
100
AcDbSymbolTable
70
1
0
ENDTAB
0
TABLE
2
BLOCK_RECORD
5
1
100
AcDbSymbolTable
70
1
0
BLOCK_RECORD
5
1F
100
AcDbSymbolTableRecord
100
AcDbBlockTableRecord
2
*MODEL_SPACE
0
BLOCK_RECORD
5
1B
100
AcDbSymbolTableRecord
100
AcDbBlockTableRecord
2
*PAPER_SPACE
0
ENDTAB
0
ENDSEC
0
SECTION
2
BLOCKS
0
BLOCK
5
20
100
AcDbEntity
100
AcDbBlockBegin
2
*MODEL_SPACE
0
ENDBLK
5
21
100
AcDbEntity
100
AcDbBlockEnd
0
BLOCK
5
1C
100
AcDbEntity
100
AcDbBlockBegin
2
*PAPER_SPACE
0
ENDBLK
5
1D
100
AcDbEntity
100
AcDbBlockEnd
0
ENDSEC
0
SECTION
2
ENTITIES
0
CIRCLE
5
100
100
AcDbEntity
8
0
100
AcDbCircle
10
-330.48500000745048
20
67.151999999999944
30
0
40
2.5999999999999801
210
0
220
0
230
1
0
CIRCLE
5
101
100
AcDbEntity
8
0
100
AcDbCircle
10
-105.54749999999993
20
67.151999999999944
30
0
40
2.5999999999999979
210
0
220
0
230
1
0
CIRCLE
5
102
100
AcDbEntity
8
0
100
AcDbCircle
10
14.890000007450583
20
67.151999999999944
30
0
40
2.6000000000000001
210
0
220
0
230
1
0
CIRCLE
5
103
100
AcDbEntity
8
0
100
AcDbCircle
10
-210.04750000000001
20
67.151999999999944
30
0
40
2.5999999999999801
210
0
220
0
230
1
0
CIRCLE
5
104
100
AcDbEntity
8
0
100
AcDbCircle
10
-330.48500000745048
20
160.11449999999994
30
0
40
2.6000000000000512
210
0
220
0
230
1
0
CIRCLE
5
105
100
AcDbEntity
8
0
100
AcDbCircle
10
-105.54749999999993
20
160.11449999999994
30
0
40
2.5999999999999979
210
0
220
0
230
1
0
CIRCLE
5
106
100
AcDbEntity
8
0
100
AcDbCircle
10
14.890000007450583
20
160.11449999999994
30
0
40
2.6000000000000001
210
0
220
0
230
1
0
CIRCLE
5
107
100
AcDbEntity
8
0
100
AcDbCircle
10
-210.04749999999999
20
160.11449999999994
30
0
40
2.5999999999999801
210
0
220
0
230
1
0
LWPOLYLINE
5
108
100
AcDbEntity
8
0
100
AcDbPolyline
90
24
70
1
43
0.0
10
-69.583999999999989
20
72.152000000000015
42
-0.41421356237309509
10
-68.584000000000003
20
71.152000000000015
10
-68.583999999999989
20
64.151999999999958
42
-0.41421356237309243
10
-70.583999999999989
20
62.151999999999951
10
-333.485000014901
20
62.151999999999781
42
-0.41421356237307161
10
-335.48500001490106
20
64.151999999999788
10
-335.48500001490095
20
163.11449999999974
42
-0.41421356237307422
10
-333.485000014901
20
165.11449999999971
10
17.890000014901158
20
165.11449999999991
42
-0.41421356237309731
10
19.890000014901151
20
163.11449999999994
10
19.890000014901183
20
64.152000000000001
42
-0.41421356237309409
10
17.89000001490119
20
62.152000000000001
10
-54.384
20
62.151999999999965
42
-0.41421356237309243
10
-56.384
20
64.151999999999973
10
-56.384
20
71.152000000000015
42
-0.4142135623730977
10
-55.383999999999993
20
72.152000000000015
10
8.8900000001773236
20
72.152000000000001
42
0.41421356232116302
10
9.8900000001773254
20
73.151999999822692
10
9.8900000145334346
20
154.11449999964532
42
0.4142135624769695
10
8.8900000143561186
20
155.11449999982264
10
-324.48500001471075
20
155.11449994070921
42
0.41421356237308465
10
-325.48500001453334
20
154.11449994053189
10
-325.48500000017725
20
73.151999999822721
42
0.41421356232116036
10
-324.48500000017725
20
72.152000000000044
0
ENDSEC
0
SECTION
2
OBJECTS
0
DICTIONARY
5
C
100
AcDbDictionary
3
ACAD_GROUP
350
D
3
ACAD_MLINESTYLE
350
17
0
DICTIONARY
5
D
100
AcDbDictionary
0
DICTIONARY
5
1A
330
C
100
AcDbDictionary
0
DICTIONARY
5
17
100
AcDbDictionary
0
ENDSEC
0
EOF
