0
SECTION
2
HEADER
9
$INSUNITS
70
4
9
$ACADVER
1
AC1014
9
$HANDSEED
5
FFFF
0
ENDSEC
0
SECTION
2
TABLES
0
TABLE
2
VPORT
5
8
100
AcDbSymbolTable
0
ENDTAB
0
TABLE
2
LTYPE
5
5
100
AcDbSymbolTable
0
LTYPE
5
14
100
AcDbSymbolTableRecord
100
AcDbLinetypeTableRecord
2
BYBLOCK
70
0
0
LTYPE
5
15
100
AcDbSymbolTableRecord
100
AcDbLinetypeTableRecord
2
BYLAYER
70
0
0
ENDTAB
0
TABLE
2
LAYER
5
2
100
AcDbSymbolTable
70
2
0
LAYER
5
50
100
AcDbSymbolTableRecord
100
AcDbLayerTableRecord
2
0
70
0
6
CONTINUOUS
0
ENDTAB
0
TABLE
2
STYLE
5
3
100
AcDbSymbolTable
70
1
0
STYLE
5
11
100
AcDbSymbolTableRecord
100
AcDbTextStyleTableRecord
2
STANDARD
70
0
0
ENDTAB
0
TABLE
2
VIEW
5
6
100
AcDbSymbolTable
70
0
0
ENDTAB
0
TABLE
2
UCS
5
7
100
AcDbSymbolTable
70
0
0
ENDTAB
0
TABLE
2
APPID
5
9
100
AcDbSymbolTable
70
2
0
APPID
5
12
100
AcDbSymbolTableRecord
100
AcDbRegAppTableRecord
2
ACAD
70
0
0
ENDTAB
0
TABLE
2
DIMSTYLE
5
A
100
AcDbSymbolTable
70
1
0
ENDTAB
0
TABLE
2
BLOCK_RECORD
5
1
100
AcDbSymbolTable
70
1
0
BLOCK_RECORD
5
1F
100
AcDbSymbolTableRecord
100
AcDbBlockTableRecord
2
*MODEL_SPACE
0
BLOCK_RECORD
5
1B
100
AcDbSymbolTableRecord
100
AcDbBlockTableRecord
2
*PAPER_SPACE
0
ENDTAB
0
ENDSEC
0
SECTION
2
BLOCKS
0
BLOCK
5
20
100
AcDbEntity
100
AcDbBlockBegin
2
*MODEL_SPACE
0
ENDBLK
5
21
100
AcDbEntity
100
AcDbBlockEnd
0
BLOCK
5
1C
100
AcDbEntity
100
AcDbBlockBegin
2
*PAPER_SPACE
0
ENDBLK
5
1D
100
AcDbEntity
100
AcDbBlockEnd
0
ENDSEC
0
SECTION
2
ENTITIES
0
LWPOLYLINE
5
100
100
AcDbEntity
8
0
100
AcDbPolyline
90
12
70
1
43
0.0
10
-93.884999999999962
20
131.3070335882675
42
-0.41421356237309509
10
-94.884999999999962
20
132.3070335882675
10
-94.884999999999962
20
149.35200000000003
42
0.41421356237309509
10
-95.884999999999962
20
150.35200000000003
10
-324.48499999999996
20
150.35200000000003
42
0.41421356237309509
10
-325.4849999999999
20
149.35200000000003
10
-325.4849999999999
20
73.152000000000029
42
0.41421356237309509
10
-324.4849999999999
20
72.152000000000044
10
-76.834999999999951
20
72.152000000000001
42
0.4142135623730977
10
-75.834999999999937
20
73.152000000000001
10
-75.834999999999951
20
130.30703358826747
42
0.41421356237309509
10
-76.834999999999937
20
131.3070335882675
0
LWPOLYLINE
5
101
100
AcDbEntity
8
0
100
AcDbPolyline
90
16
70
1
43
0.0
10
-52.022499999999951
20
133.06450000000001
42
-0.4142135623730977
10
-51.022499999999944
20
134.06450000000001
10
-33.972499999999968
20
134.06450000000001
42
0.41421356237309509
10
-32.972499999999968
20
135.06450000000001
10
-32.972499999999968
20
154.11449999999996
42
0.41421356237309509
10
-33.972499999999968
20
155.11449999999996
10
-91.12249999999996
20
155.11449999999996
42
0.41421356237309509
10
-92.122499999999974
20
154.11449999999996
10
-92.122499999999974
20
135.06449999999998
42
0.41421356237309509
10
-91.122499999999974
20
134.06449999999998
10
-74.072499999999934
20
134.06449999999995
42
-0.4142135623730977
10
-73.072499999999948
20
133.06449999999998
10
-73.072499999999948
20
116.01450000000003
42
0.41421356237309509
10
-72.072499999999948
20
115.01450000000004
10
-53.022499999999937
20
115.01450000000004
42
0.41421356237309509
10
-52.022499999999937
20
116.01450000000003
0
LWPOLYLINE
5
102
100
AcDbEntity
8
0
100
AcDbPolyline
90
12
70
1
43
0.0
10
-30.209999999999965
20
132.3070335882675
42
-0.4142135623730937
10
-31.209999999999955
20
131.3070335882675
10
-48.25999999999997
20
131.3070335882675
42
0.41421356237309509
10
-49.259999999999962
20
130.3070335882675
10
-49.259999999999962
20
73.152000000000001
42
0.41421356237309509
10
-48.25999999999997
20
72.152000000000001
10
8.8900000000000077
20
72.152000000000001
42
0.41421356237309509
10
9.8900000000000077
20
73.152000000000001
10
9.8899999999999739
20
149.35200000000003
42
0.41421356237309437
10
8.8899999999999757
20
150.35200000000003
10
-29.209999999999958
20
150.35200000000003
42
0.41421356237309509
10
-30.209999999999955
20
149.35200000000003
0
LWPOLYLINE
5
103
100
AcDbEntity
8
0
100
AcDbPolyline
90
8
70
1
43
0.0
10
17.890000014901151
20
165.11449999999996
42
-0.4142135623730947
10
19.890000014901151
20
163.11449999999996
10
19.890000014901169
20
64.152000000000001
42
-0.41421356237309698
10
17.890000014901162
20
62.152000000000001
10
-333.485000014901
20
62.151999999999752
42
-0.41421356237307289
10
-335.48500001490106
20
64.151999999999774
10
-335.48500001490112
20
163.11449999999977
42
-0.41421356237308982
10
-333.48500001490106
20
165.11449999999971
0
CIRCLE
5
104
100
AcDbEntity
8
0
100
AcDbCircle
10
-105.54749999999993
20
67.151999999999944
30
0
40
1.6000000000000014
210
0
220
0
230
1
0
CIRCLE
5
105
100
AcDbEntity
8
0
100
AcDbCircle
10
-330.48500000745048
20
160.11449999999994
30
0
40
1.6000000000000369
210
0
220
0
230
1
0
CIRCLE
5
106
100
AcDbEntity
8
0
100
AcDbCircle
10
-210.04750000000001
20
67.151999999999944
30
0
40
1.6000000000000014
210
0
220
0
230
1
0
CIRCLE
5
107
100
AcDbEntity
8
0
100
AcDbCircle
10
14.890000007450583
20
67.151999999999944
30
0
40
1.6000000000000014
210
0
220
0
230
1
0
CIRCLE
5
108
100
AcDbEntity
8
0
100
AcDbCircle
10
-105.54749999999993
20
160.11449999999994
30
0
40
1.6000000000000014
210
0
220
0
230
1
0
CIRCLE
5
109
100
AcDbEntity
8
0
100
AcDbCircle
10
-330.48500000745048
20
67.151999999999944
30
0
40
1.5999999999999659
210
0
220
0
230
1
0
CIRCLE
5
110
100
AcDbEntity
8
0
100
AcDbCircle
10
-210.04749999999999
20
160.11449999999994
30
0
40
1.6000000000000014
210
0
220
0
230
1
0
CIRCLE
5
111
100
AcDbEntity
8
0
100
AcDbCircle
10
14.890000007450583
20
160.11449999999994
30
0
40
1.5999999999999992
210
0
220
0
230
1
0
LWPOLYLINE
5
112
100
AcDbEntity
8
0
100
AcDbPolyline
90
8
70
1
43
0.0
10
-73.072499999999948
20
92.202000000000055
10
-73.072499999999948
20
73.152000000000001
42
0.41421356237309509
10
-72.072499999999948
20
72.152000000000001
10
-53.022499999999937
20
72.152000000000001
42
0.41421356237309509
10
-52.022499999999937
20
73.152000000000001
10
-52.022499999999937
20
92.202000000000055
42
0.41421356237309509
10
-53.022499999999937
20
93.202000000000055
10
-72.072499999999948
20
93.202000000000055
42
0.41421356237309509
0
ENDSEC
0
SECTION
2
OBJECTS
0
DICTIONARY
5
C
100
AcDbDictionary
3
ACAD_GROUP
350
D
3
ACAD_MLINESTYLE
350
17
0
DICTIONARY
5
D
100
AcDbDictionary
0
DICTIONARY
5
1A
330
C
100
AcDbDictionary
0
DICTIONARY
5
17
100
AcDbDictionary
0
ENDSEC
0
EOF
