0
SECTION
2
HEADER
9
$INSUNITS
70
4
9
$ACADVER
1
AC1014
9
$HANDSEED
5
FFFF
0
ENDSEC
0
SECTION
2
TABLES
0
TABLE
2
VPORT
5
8
100
AcDbSymbolTable
0
ENDTAB
0
TABLE
2
LTYPE
5
5
100
AcDbSymbolTable
0
LTYPE
5
14
100
AcDbSymbolTableRecord
100
AcDbLinetypeTableRecord
2
BYBLOCK
70
0
0
LTYPE
5
15
100
AcDbSymbolTableRecord
100
AcDbLinetypeTableRecord
2
BYLAYER
70
0
0
ENDTAB
0
TABLE
2
LAYER
5
2
100
AcDbSymbolTable
70
2
0
LAYER
5
50
100
AcDbSymbolTableRecord
100
AcDbLayerTableRecord
2
0
70
0
6
CONTINUOUS
0
ENDTAB
0
TABLE
2
STYLE
5
3
100
AcDbSymbolTable
70
1
0
STYLE
5
11
100
AcDbSymbolTableRecord
100
AcDbTextStyleTableRecord
2
STANDARD
70
0
0
ENDTAB
0
TABLE
2
VIEW
5
6
100
AcDbSymbolTable
70
0
0
ENDTAB
0
TABLE
2
UCS
5
7
100
AcDbSymbolTable
70
0
0
ENDTAB
0
TABLE
2
APPID
5
9
100
AcDbSymbolTable
70
2
0
APPID
5
12
100
AcDbSymbolTableRecord
100
AcDbRegAppTableRecord
2
ACAD
70
0
0
ENDTAB
0
TABLE
2
DIMSTYLE
5
A
100
AcDbSymbolTable
70
1
0
ENDTAB
0
TABLE
2
BLOCK_RECORD
5
1
100
AcDbSymbolTable
70
1
0
BLOCK_RECORD
5
1F
100
AcDbSymbolTableRecord
100
AcDbBlockTableRecord
2
*MODEL_SPACE
0
BLOCK_RECORD
5
1B
100
AcDbSymbolTableRecord
100
AcDbBlockTableRecord
2
*PAPER_SPACE
0
ENDTAB
0
ENDSEC
0
SECTION
2
BLOCKS
0
BLOCK
5
20
100
AcDbEntity
100
AcDbBlockBegin
2
*MODEL_SPACE
0
ENDBLK
5
21
100
AcDbEntity
100
AcDbBlockEnd
0
BLOCK
5
1C
100
AcDbEntity
100
AcDbBlockBegin
2
*PAPER_SPACE
0
ENDBLK
5
1D
100
AcDbEntity
100
AcDbBlockEnd
0
ENDSEC
0
SECTION
2
ENTITIES
0
LWPOLYLINE
5
100
100
AcDbEntity
8
0
100
AcDbPolyline
90
56
70
1
43
0.0
10
8.8899999999999793
20
73.380162708025338
42
-0.41421356237309404
10
7.6399999999999846
20
72.130162708025338
10
-10.047499999999925
20
72.130162708025338
42
0.41421356237309509
10
-11.297499999999925
20
70.880162708025338
10
-11.297499999999927
20
68.380162708025352
42
-0.41421356237309448
10
-12.547499999999925
20
67.130162708025352
10
-94.047499999999928
20
67.130162708025352
42
-0.41421356237310336
10
-95.297499999999928
20
68.380162708025352
10
-95.297499999999928
20
70.880162708025352
42
0.41421356237309509
10
-96.547499999999928
20
72.130162708025352
10
-114.54749999999993
20
72.130162708025352
42
0.41421356237309509
10
-115.79749999999993
20
70.880162708025352
10
-115.79749999999993
20
68.380162708025352
42
-0.41421356237310336
10
-117.04749999999993
20
67.130162708025352
10
-198.54749999999996
20
67.130162708025338
42
-0.4142135623730992
10
-199.79749999999996
20
68.380162708025352
10
-199.79749999999996
20
70.880162708025367
42
0.41421356237309509
10
-201.04749999999996
20
72.130162708025367
10
-219.04749999999996
20
72.130162708025367
42
0.41421356237309509
10
-220.29749999999996
20
70.880162708025367
10
-220.29750000000001
20
68.380162708025352
42
-0.4142135623730992
10
-221.54749999999996
20
67.130162708025352
10
-303.04750000000001
20
67.130162708025338
42
-0.4142135623730992
10
-304.29750000000001
20
68.380162708025352
10
-304.29750000000001
20
70.880162708025381
42
0.41421356237309509
10
-305.54750000000001
20
72.130162708025381
10
-323.2349999999999
20
72.130162708025381
42
-0.41421356237309509
10
-324.4849999999999
20
73.380162708025381
10
-324.4849999999999
20
153.93820409674504
42
-0.4142135623730992
10
-323.2349999999999
20
155.18820409674507
10
-305.54750000000001
20
155.18820409674507
42
0.41421356237309509
10
-304.29750000000001
20
156.43820409674507
10
-304.29750000000001
20
158.93820409674504
42
-0.41421356237310752
10
-303.04750000000001
20
160.18820409674504
10
-221.54750000000001
20
160.18820409674504
42
-0.41421356237310752
10
-220.29749999999996
20
158.93820409674504
10
-220.29749999999996
20
156.43820409674507
42
0.41421356237309509
10
-219.04749999999996
20
155.18820409674507
10
-201.04749999999996
20
155.18820409674507
42
0.41421356237309509
10
-199.79749999999996
20
156.43820409674507
10
-199.79749999999996
20
158.93820409674504
42
-0.41421356237310752
10
-198.54749999999996
20
160.18820409674504
10
-117.04749999999993
20
160.18820409674504
42
-0.41421356237310336
10
-115.79749999999993
20
158.93820409674504
10
-115.79749999999993
20
156.43820409674507
42
0.41421356237309509
10
-114.54749999999993
20
155.18820409674507
10
-96.547499999999928
20
155.18820409674507
42
0.41421356237309509
10
-95.297499999999928
20
156.43820409674507
10
-95.297499999999928
20
158.93820409674504
42
-0.41421356237310336
10
-94.047499999999928
20
160.18820409674504
10
-12.547499999999925
20
160.18820409674504
42
-0.41421356237310181
10
-11.297499999999925
20
158.93820409674504
10
-11.297499999999925
20
156.43820409674507
42
0.41421356237309509
10
-10.047499999999925
20
155.18820409674507
10
7.6399999999999846
20
155.18820409674507
42
-0.41421356237310181
10
8.8899999999999828
20
153.93820409674507
0
LWPOLYLINE
5
101
100
AcDbEntity
8
0
100
AcDbPolyline
90
8
70
1
43
0.0
10
-112.69749999999996
20
114.27700000000002
42
-0.41421356237307422
10
-113.19749999999998
20
113.77700000000002
10
-126.19749999999995
20
113.77700000000002
42
-0.41421356237307422
10
-126.69749999999995
20
114.27700000000002
10
-126.69749999999992
20
127.27700000000002
42
-0.41421356237312629
10
-126.19749999999995
20
127.77700000000002
10
-113.19749999999998
20
127.77700000000003
42
-0.41421356237307422
10
-112.69749999999996
20
127.27700000000002
0
LWPOLYLINE
5
102
100
AcDbEntity
8
0
100
AcDbPolyline
90
8
70
1
43
0.0
10
-81.74124999999998
20
95.227000000000004
42
-0.41421356237312629
10
-82.241249999999951
20
94.727000000000018
10
-95.241249999999965
20
94.727000000000032
42
-0.41421356237309509
10
-95.741249999999937
20
95.227000000000004
10
-95.741249999999965
20
108.227
42
-0.41421356237307422
10
-95.241249999999965
20
108.72700000000002
10
-82.241249999999951
20
108.72700000000002
42
-0.41421356237307422
10
-81.741249999999951
20
108.227
0
LWPOLYLINE
5
103
100
AcDbEntity
8
0
100
AcDbPolyline
90
8
70
1
43
0.0
10
-7.1349999999999723
20
132.827
42
-0.41421356237309437
10
-7.6349999999999794
20
133.327
10
-7.6349999999999607
20
146.327
42
-0.41421356237311519
10
-7.1349999999999723
20
146.827
10
5.8649999999999736
20
146.82700000000006
42
-0.41421356237309437
10
6.3650000000000064
20
146.327
10
6.36499999999997
20
133.327
42
-0.41421356237309437
10
5.8649999999999638
20
132.827
0
LWPOLYLINE
5
104
100
AcDbEntity
8
0
100
AcDbPolyline
90
8
70
1
43
0.0
10
-236.52249999999995
20
95.227000000000032
42
-0.41421356237310542
10
-237.02249999999992
20
94.727000000000032
10
-250.02249999999992
20
94.727000000000032
42
-0.41421356237313667
10
-250.52249999999992
20
95.227000000000032
10
-250.52249999999992
20
108.22700000000003
42
-0.41421356237307422
10
-250.02249999999992
20
108.72700000000002
10
-237.02249999999992
20
108.72700000000002
42
-0.41421356237308465
10
-236.52249999999992
20
108.22700000000003
0
LWPOLYLINE
5
105
100
AcDbEntity
8
0
100
AcDbPolyline
90
8
70
1
43
0.0
10
-31.734999999999985
20
95.227000000000004
42
-0.41421356237309243
10
-32.234999999999985
20
94.727000000000004
10
-45.234999999999985
20
94.727000000000032
42
-0.41421356237310542
10
-45.734999999999964
20
95.227000000000004
10
-45.734999999999985
20
108.227
42
-0.41421356237311585
10
-45.234999999999992
20
108.727
10
-32.234999999999978
20
108.72700000000002
42
-0.41421356237308726
10
-31.734999999999978
20
108.227
0
LWPOLYLINE
5
106
100
AcDbEntity
8
0
100
AcDbPolyline
90
8
70
1
43
0.0
10
-31.734999999999971
20
114.277
10
-31.734999999999971
20
127.27699999999999
42
0.41421356237309243
10
-32.234999999999943
20
127.77699999999999
10
-45.234999999999992
20
127.77699999999999
42
0.4142135623731002
10
-45.734999999999992
20
127.277
10
-45.734999999999964
20
114.27700000000002
42
0.41421356237310542
10
-45.234999999999985
20
113.77700000000004
10
-32.234999999999985
20
113.77700000000002
42
0.4142135623730977
0
LWPOLYLINE
5
107
100
AcDbEntity
8
0
100
AcDbPolyline
90
8
70
1
43
0.0
10
-231.75999999999993
20
76.177000000000035
42
-0.4142135623730222
10
-232.25999999999993
20
75.677000000000035
10
-245.25999999999993
20
75.677000000000035
42
-0.41421356237313145
10
-245.75999999999993
20
76.177000000000035
10
-245.75999999999993
20
89.177000000000035
42
-0.41421356237313667
10
-245.25999999999993
20
89.677000000000049
10
-232.25999999999993
20
89.677000000000064
42
-0.41421356237310542
10
-231.75999999999991
20
89.177000000000035
0
LWPOLYLINE
5
108
100
AcDbEntity
8
0
100
AcDbPolyline
90
8
70
1
43
0.0
10
-203.34124999999989
20
146.82700000000006
42
-0.41421356237309509
10
-202.84124999999986
20
146.32700000000003
10
-202.84124999999989
20
133.32700000000003
42
-0.41421356237313667
10
-203.34124999999989
20
132.82700000000003
10
-204.34124999999992
20
132.82700000000003
42
-0.41421356237313667
10
-204.84124999999992
20
133.32700000000003
10
-204.84124999999992
20
146.32700000000003
42
-0.41421356237307422
10
-204.34124999999992
20
146.827
0
LWPOLYLINE
5
109
100
AcDbEntity
8
0
100
AcDbPolyline
90
8
70
1
43
0.0
10
-127.64749999999994
20
132.827
42
-0.4142135623730534
10
-128.14749999999995
20
133.327
10
-128.14749999999995
20
146.327
42
-0.41421356237307422
10
-127.64749999999994
20
146.827
10
-126.64749999999997
20
146.827
42
-0.41421356237307422
10
-126.14749999999995
20
146.327
10
-126.14749999999998
20
133.327
42
-0.41421356237309509
10
-126.64749999999997
20
132.82700000000003
0
LWPOLYLINE
5
110
100
AcDbEntity
8
0
100
AcDbPolyline
90
8
70
1
43
0.0
10
-319.07874999999984
20
132.82700000000003
42
-0.41421356237313667
10
-319.5787499999999
20
133.32700000000003
10
-319.5787499999999
20
146.32700000000003
42
-0.41421356237308465
10
-319.07874999999984
20
146.82700000000003
10
-306.0787499999999
20
146.82700000000006
42
-0.41421356237313667
10
-305.5787499999999
20
146.32700000000003
10
-305.5787499999999
20
133.32700000000003
42
-0.41421356237313667
10
-306.0787499999999
20
132.82700000000003
0
LWPOLYLINE
5
111
100
AcDbEntity
8
0
100
AcDbPolyline
90
8
70
1
43
0.0
10
-36.497499999999967
20
138.08949999999999
42
-0.41421356237311319
10
-36.997499999999953
20
137.58950000000002
10
-49.997499999999988
20
137.58950000000002
42
-0.41421356237310542
10
-50.497499999999967
20
138.08949999999999
10
-50.497500000000002
20
151.08949999999999
42
-0.41421356237307422
10
-49.997499999999995
20
151.58949999999999
10
-36.997499999999945
20
151.58949999999996
42
-0.41421356237309243
10
-36.497499999999981
20
151.08949999999999
0
LWPOLYLINE
5
112
100
AcDbEntity
8
0
100
AcDbPolyline
90
8
70
1
43
0.0
10
-241.34124999999989
20
146.32700000000003
42
-0.41421356237307422
10
-240.84124999999989
20
146.827
10
-239.84124999999992
20
146.827
42
-0.41421356237308465
10
-239.34124999999992
20
146.32700000000003
10
-239.34124999999995
20
133.32700000000003
42
-0.41421356237310542
10
-239.84124999999992
20
132.82700000000003
10
-240.84124999999989
20
132.82700000000003
42
-0.41421356237313667
10
-241.34124999999989
20
133.32700000000003
0
LWPOLYLINE
5
113
100
AcDbEntity
8
0
100
AcDbPolyline
90
8
70
1
43
0.0
10
-307.95999999999992
20
76.177000000000049
42
-0.4142135623730222
10
-308.45999999999992
20
75.677000000000049
10
-321.45999999999992
20
75.677000000000049
42
-0.4142135623730222
10
-321.95999999999992
20
76.177000000000049
10
-321.95999999999998
20
89.177000000000035
42
-0.41421356237313667
10
-321.45999999999992
20
89.677000000000049
10
-308.45999999999992
20
89.677000000000064
42
-0.41421356237310542
10
-307.95999999999987
20
89.177000000000035
0
LWPOLYLINE
5
114
100
AcDbEntity
8
0
100
AcDbPolyline
90
8
70
1
43
0.0
10
-98.409999999999954
20
76.177000000000021
10
-98.409999999999954
20
89.177000000000021
42
0.4142135623730534
10
-98.909999999999968
20
89.677000000000021
10
-111.90999999999994
20
89.677000000000007
42
0.41421356237309509
10
-112.40999999999993
20
89.177000000000021
10
-112.40999999999998
20
76.177000000000021
42
0.41421356237311063
10
-111.90999999999994
20
75.677000000000021
10
-98.909999999999968
20
75.677000000000021
42
0.4142135623731002
0
LWPOLYLINE
5
115
100
AcDbEntity
8
0
100
AcDbPolyline
90
8
70
1
43
0.0
10
-141.27249999999998
20
95.227000000000018
42
-0.41421356237309509
10
-141.77249999999995
20
94.727000000000032
10
-154.77249999999995
20
94.727000000000018
42
-0.4142135623730534
10
-155.27249999999998
20
95.227000000000018
10
-155.27249999999998
20
108.227
42
-0.41421356237307422
10
-154.77249999999995
20
108.72700000000002
10
-141.77249999999995
20
108.72700000000002
42
-0.41421356237307422
10
-141.27249999999995
20
108.227
0
LWPOLYLINE
5
116
100
AcDbEntity
8
0
100
AcDbPolyline
90
8
70
1
43
0.0
10
-103.1725
20
95.227000000000004
42
-0.41421356237312629
10
-103.67249999999997
20
94.727000000000018
10
-116.67249999999994
20
94.726999999999975
42
-0.41421356237310542
10
-117.17249999999999
20
95.227000000000004
10
-117.17249999999994
20
108.227
42
-0.41421356237307422
10
-116.67249999999994
20
108.72700000000002
10
-103.67249999999997
20
108.72700000000002
42
-0.41421356237307422
10
-103.17249999999996
20
108.227
0
LWPOLYLINE
5
117
100
AcDbEntity
8
0
100
AcDbPolyline
90
8
70
1
43
0.0
10
-179.37249999999989
20
95.227000000000018
10
-179.37249999999989
20
108.227
42
0.41421356237308465
10
-179.87249999999992
20
108.72700000000006
10
-192.87249999999989
20
108.72700000000002
42
0.41421356237313667
10
-193.37249999999989
20
108.227
10
-193.37249999999989
20
95.227000000000018
42
0.41421356237309509
10
-192.87249999999989
20
94.727000000000032
10
-179.87249999999992
20
94.727000000000032
42
0.41421356237307422
0
LWPOLYLINE
5
118
100
AcDbEntity
8
0
100
AcDbPolyline
90
8
70
1
43
0.0
10
-167.46624999999989
20
133.327
42
-0.41421356237307422
10
-167.96624999999989
20
132.82700000000003
10
-180.96624999999992
20
132.82700000000008
42
-0.41421356237311585
10
-181.46624999999989
20
133.32700000000003
10
-181.46624999999986
20
146.32700000000003
42
-0.41421356237307422
10
-180.96624999999989
20
146.827
10
-167.96624999999989
20
146.827
42
-0.41421356237313667
10
-167.46624999999989
20
146.327
0
LWPOLYLINE
5
119
100
AcDbEntity
8
0
100
AcDbPolyline
90
8
70
1
43
0.0
10
-155.55999999999997
20
76.177000000000021
42
-0.41421356237310542
10
-156.05999999999997
20
75.677000000000035
10
-169.05999999999989
20
75.676999999999992
42
-0.4142135623730534
10
-169.55999999999992
20
76.177000000000021
10
-169.55999999999989
20
89.177000000000035
42
-0.41421356237308465
10
-169.05999999999989
20
89.677000000000021
10
-156.05999999999997
20
89.677000000000049
42
-0.41421356237307422
10
-155.55999999999995
20
89.177000000000035
0
LWPOLYLINE
5
120
100
AcDbEntity
8
0
100
AcDbPolyline
90
8
70
1
43
0.0
10
-174.60999999999987
20
76.177000000000021
42
-0.41421356237307422
10
-175.10999999999993
20
75.677000000000035
10
-188.10999999999993
20
75.677000000000035
42
-0.41421356237312629
10
-188.60999999999993
20
76.177000000000021
10
-188.6099999999999
20
89.177000000000035
42
-0.41421356237307422
10
-188.10999999999993
20
89.677000000000021
10
-175.10999999999993
20
89.676999999999964
42
-0.41421356237311585
10
-174.60999999999996
20
89.177000000000035
0
LWPOLYLINE
5
121
100
AcDbEntity
8
0
100
AcDbPolyline
90
8
70
1
43
0.0
10
-255.57249999999988
20
133.32700000000003
10
-255.57249999999985
20
146.32700000000003
42
0.41421356237308465
10
-256.07249999999988
20
146.82700000000008
10
-269.07249999999988
20
146.82700000000003
42
0.41421356237308465
10
-269.57249999999988
20
146.32700000000003
10
-269.57249999999982
20
133.32700000000003
42
0.41421356237311585
10
-269.07249999999988
20
132.82700000000003
10
-256.07249999999988
20
132.82700000000003
42
0.41421356237313667
0
LWPOLYLINE
5
122
100
AcDbEntity
8
0
100
AcDbPolyline
90
8
70
1
43
0.0
10
-86.503749999999954
20
114.27700000000002
10
-86.503749999999954
20
127.277
42
0.4142135623730534
10
-87.003749999999954
20
127.77700000000002
10
-100.00374999999997
20
127.77699999999999
42
0.41421356237309509
10
-100.50374999999997
20
127.277
10
-100.50374999999997
20
114.27700000000002
42
0.41421356237307422
10
-100.00374999999997
20
113.77700000000002
10
-87.003749999999954
20
113.77700000000002
42
0.41421356237307422
0
LWPOLYLINE
5
123
100
AcDbEntity
8
0
100
AcDbPolyline
90
8
70
1
43
0.0
10
-120.77249999999995
20
133.327
42
-0.41421356237309509
10
-121.27249999999995
20
132.82700000000003
10
-122.27249999999997
20
132.82700000000003
42
-0.41421356237309509
10
-122.77249999999994
20
133.327
10
-122.77249999999997
20
146.327
42
-0.41421356237307422
10
-122.27249999999997
20
146.827
10
-121.27249999999995
20
146.827
42
-0.41421356237307422
10
-120.77249999999994
20
146.327
0
LWPOLYLINE
5
124
100
AcDbEntity
8
0
100
AcDbPolyline
90
8
70
1
43
0.0
10
-207.1532499999999
20
145.82699999999994
42
-0.41421356237311585
10
-206.65324999999993
20
145.32700000000003
10
-206.65324999999996
20
131.32700000000003
42
-0.41421356237307422
10
-207.15324999999993
20
130.82700000000003
10
-213.1532499999999
20
130.827
42
-0.41421356237309509
10
-213.6532499999999
20
131.32700000000003
10
-213.6532499999999
20
145.32700000000003
42
-0.41421356237313667
10
-213.1532499999999
20
145.82700000000003
0
LWPOLYLINE
5
125
100
AcDbEntity
8
0
100
AcDbPolyline
90
8
70
1
43
0.0
10
-269.8599999999999
20
76.177000000000049
42
-0.41421356237313667
10
-270.3599999999999
20
75.677000000000035
10
-283.3599999999999
20
75.677000000000035
42
-0.41421356237313667
10
-283.8599999999999
20
76.177000000000049
10
-283.8599999999999
20
89.177000000000035
42
-0.41421356237313667
10
-283.3599999999999
20
89.677000000000049
10
-270.35999999999996
20
89.677000000000064
42
-0.41421356237308465
10
-269.85999999999984
20
89.177000000000035
0
LWPOLYLINE
5
126
100
AcDbEntity
8
0
100
AcDbPolyline
90
8
70
1
43
0.0
10
-198.42249999999993
20
95.227000000000032
42
-0.41421356237310542
10
-198.9224999999999
20
94.727000000000032
10
-211.9224999999999
20
94.727000000000032
42
-0.41421356237313667
10
-212.4224999999999
20
95.227000000000032
10
-212.4224999999999
20
108.22700000000003
42
-0.41421356237307422
10
-211.9224999999999
20
108.72700000000002
10
-198.9224999999999
20
108.72700000000002
42
-0.41421356237308465
10
-198.4224999999999
20
108.22700000000003
0
LWPOLYLINE
5
127
100
AcDbEntity
8
0
100
AcDbPolyline
90
8
70
1
43
0.0
10
-79.359999999999943
20
76.177000000000021
42
-0.41421356237309509
10
-79.859999999999943
20
75.677000000000021
10
-92.859999999999957
20
75.677000000000007
42
-0.41421356237307422
10
-93.359999999999971
20
76.177000000000021
10
-93.359999999999957
20
89.177000000000021
42
-0.41421356237309509
10
-92.859999999999957
20
89.677000000000007
10
-79.859999999999928
20
89.677000000000021
42
-0.414213562373069
10
-79.359999999999943
20
89.177000000000021
0
LWPOLYLINE
5
128
100
AcDbEntity
8
0
100
AcDbPolyline
90
8
70
1
43
0.0
10
-104.10374999999996
20
114.27700000000002
42
-0.41421356237307422
10
-104.60374999999998
20
113.77700000000002
10
-105.60374999999995
20
113.77700000000002
42
-0.41421356237307422
10
-106.10374999999996
20
114.27700000000002
10
-106.10374999999993
20
127.277
42
-0.41421356237309509
10
-105.60374999999995
20
127.77699999999999
10
-104.60374999999998
20
127.77700000000002
42
-0.4142135623730534
10
-104.10374999999996
20
127.277
0
LWPOLYLINE
5
129
100
AcDbEntity
8
0
100
AcDbPolyline
90
8
70
1
43
0.0
10
-12.684999999999967
20
133.327
42
-0.41421356237309637
10
-13.184999999999976
20
132.827
10
-26.184999999999974
20
132.82700000000003
42
-0.41421356237310281
10
-26.684999999999953
20
133.327
10
-26.684999999999967
20
146.327
42
-0.41421356237311319
10
-26.184999999999981
20
146.827
10
-13.184999999999967
20
146.827
42
-0.41421356237309109
10
-12.684999999999969
20
146.327
0
LWPOLYLINE
5
130
100
AcDbEntity
8
0
100
AcDbPolyline
90
8
70
1
43
0.0
10
6.3650000000000162
20
76.177000000000007
10
6.3650000000000162
20
89.176999999999964
42
0.41421356237309437
10
5.8649999999999727
20
89.677000000000007
10
-7.1349999999999723
20
89.677000000000007
42
0.41421356237309437
10
-7.6349999999999696
20
89.176999999999992
10
-7.6349999999999794
20
76.177000000000007
42
0.41421356237310936
10
-7.1349999999999634
20
75.677000000000007
10
5.8649999999999993
20
75.677000000000007
42
0.41421356237310353
0
LWPOLYLINE
5
131
100
AcDbEntity
8
0
100
AcDbPolyline
90
8
70
1
43
0.0
10
-55.547499999999943
20
138.08949999999999
42
-0.41421356237311585
10
-56.047499999999928
20
137.58950000000002
10
-69.047499999999928
20
137.58949999999999
42
-0.4142135623731002
10
-69.547499999999943
20
138.08949999999999
10
-69.547499999999943
20
151.08949999999999
42
-0.41421356237307422
10
-69.047499999999943
20
151.58949999999999
10
-56.047499999999921
20
151.58949999999999
42
-0.414213562373069
10
-55.547499999999921
20
151.08949999999999
0
LWPOLYLINE
5
132
100
AcDbEntity
8
0
100
AcDbPolyline
90
8
70
1
43
0.0
10
-189.90424999999988
20
145.32700000000003
42
-0.41421356237313667
10
-189.40424999999988
20
145.82700000000003
10
-183.40424999999993
20
145.82700000000003
42
-0.41421356237313667
10
-182.90424999999993
20
145.32700000000003
10
-182.90424999999993
20
131.32700000000003
42
-0.41421356237307422
10
-183.40424999999993
20
130.82700000000003
10
-189.40424999999991
20
130.82700000000003
42
-0.41421356237308465
10
-189.90424999999991
20
131.32700000000003
0
LWPOLYLINE
5
133
100
AcDbEntity
8
0
100
AcDbPolyline
90
8
70
1
43
0.0
10
-97.572499999999977
20
133.327
42
-0.41421356237312629
10
-98.072499999999948
20
132.827
10
-99.072499999999962
20
132.82700000000003
42
-0.41421356237309509
10
-99.572499999999934
20
133.327
10
-99.572499999999962
20
146.327
42
-0.41421356237307422
10
-99.072499999999962
20
146.827
10
-98.072499999999948
20
146.82699999999997
42
-0.41421356237309509
10
-97.572499999999977
20
146.327
0
LWPOLYLINE
5
134
100
AcDbEntity
8
0
100
AcDbPolyline
90
8
70
1
43
0.0
10
-273.1724999999999
20
133.32700000000003
42
-0.41421356237313667
10
-273.6724999999999
20
132.82700000000003
10
-274.6724999999999
20
132.82700000000008
42
-0.41421356237311585
10
-275.17249999999984
20
133.32700000000003
10
-275.1724999999999
20
146.32700000000003
42
-0.41421356237308465
10
-274.6724999999999
20
146.82700000000003
10
-273.6724999999999
20
146.82699999999997
42
-0.41421356237311585
10
-273.1724999999999
20
146.32700000000003
0
LWPOLYLINE
5
135
100
AcDbEntity
8
0
100
AcDbPolyline
90
8
70
1
43
0.0
10
-265.09749999999991
20
114.27700000000003
42
-0.41421356237307422
10
-265.59749999999991
20
113.77700000000004
10
-278.59749999999985
20
113.77700000000003
42
-0.41421356237309509
10
-279.09749999999985
20
114.27700000000003
10
-279.09749999999985
20
127.27700000000002
42
-0.41421356237313667
10
-278.59749999999985
20
127.77700000000003
10
-265.59749999999991
20
127.77699999999996
42
-0.41421356237311585
10
-265.09749999999991
20
127.27700000000002
0
LWPOLYLINE
5
136
100
AcDbEntity
8
0
100
AcDbPolyline
90
8
70
1
43
0.0
10
-212.70999999999992
20
76.177000000000035
42
-0.4142135623730222
10
-213.20999999999992
20
75.677000000000035
10
-226.20999999999992
20
75.677000000000035
42
-0.41421356237313145
10
-226.70999999999992
20
76.177000000000035
10
-226.70999999999992
20
89.177000000000035
42
-0.41421356237308465
10
-226.20999999999992
20
89.677000000000021
10
-213.20999999999992
20
89.677000000000064
42
-0.41421356237310542
10
-212.70999999999989
20
89.177000000000035
0
LWPOLYLINE
5
137
100
AcDbEntity
8
0
100
AcDbPolyline
90
8
70
1
43
0.0
10
-281.7662499999999
20
133.32700000000003
42
-0.41421356237313667
10
-282.2662499999999
20
132.82700000000003
10
-295.2662499999999
20
132.827
42
-0.41421356237310542
10
-295.7662499999999
20
133.32700000000003
10
-295.76624999999984
20
146.32700000000003
42
-0.41421356237307422
10
-295.2662499999999
20
146.82700000000003
10
-282.2662499999999
20
146.82700000000006
42
-0.41421356237313667
10
-281.7662499999999
20
146.32700000000003
0
LWPOLYLINE
5
138
100
AcDbEntity
8
0
100
AcDbPolyline
90
8
70
1
43
0.0
10
-300.81624999999985
20
95.227000000000032
42
-0.41421356237313667
10
-301.31624999999991
20
94.727000000000032
10
-314.31624999999985
20
94.727000000000032
42
-0.41421356237313667
10
-314.81624999999985
20
95.227000000000032
10
-314.81624999999985
20
108.22700000000005
42
-0.41421356237313667
10
-314.31624999999985
20
108.72700000000006
10
-301.31624999999991
20
108.72700000000006
42
-0.41421356237313667
10
-300.81624999999985
20
108.22700000000005
0
LWPOLYLINE
5
139
100
AcDbEntity
8
0
100
AcDbPolyline
90
8
70
1
43
0.0
10
6.3649999999999611
20
114.277
42
-0.41421356237309959
10
5.8649999999999638
20
113.77700000000002
10
-7.1349999999999625
20
113.77699999999999
42
-0.41421356237307944
10
-7.6349999999999794
20
114.277
10
-7.6349999999999874
20
127.27699999999999
42
-0.41421356237309437
10
-7.1349999999999811
20
127.77699999999999
10
5.8649999999999736
20
127.77700000000003
42
-0.41421356237309437
10
6.3650000000000064
20
127.27699999999999
0
LWPOLYLINE
5
140
100
AcDbEntity
8
0
100
AcDbPolyline
90
8
70
1
43
0.0
10
-193.65999999999988
20
76.177000000000021
42
-0.41421356237307422
10
-194.15999999999994
20
75.677000000000035
10
-207.15999999999994
20
75.677000000000049
42
-0.41421356237312101
10
-207.65999999999994
20
76.177000000000035
10
-207.65999999999991
20
89.177000000000035
42
-0.41421356237307422
10
-207.15999999999994
20
89.677000000000021
10
-194.15999999999994
20
89.677000000000049
42
-0.41421356237313667
10
-193.65999999999991
20
89.177000000000035
0
LWPOLYLINE
5
141
100
AcDbEntity
8
0
100
AcDbPolyline
90
8
70
1
43
0.0
10
-207.94749999999993
20
114.27700000000002
42
-0.41421356237307422
10
-208.44749999999991
20
113.77700000000003
10
-221.44749999999991
20
113.77700000000002
42
-0.41421356237313667
10
-221.94749999999993
20
114.27700000000002
10
-221.94749999999993
20
127.27700000000002
42
-0.41421356237313667
10
-221.44749999999991
20
127.77700000000003
10
-208.44749999999991
20
127.77699999999999
42
-0.41421356237309509
10
-207.94749999999993
20
127.27700000000002
0
LWPOLYLINE
5
142
100
AcDbEntity
8
0
100
AcDbPolyline
90
8
70
1
43
0.0
10
-157.21624999999992
20
146.327
42
-0.41421356237307422
10
-156.71624999999989
20
146.827
10
-155.71624999999995
20
146.82700000000003
42
-0.41421356237310542
10
-155.21624999999992
20
146.327
10
-155.21624999999997
20
133.327
42
-0.41421356237309509
10
-155.71624999999995
20
132.82700000000003
10
-156.71624999999995
20
132.827
42
-0.4142135623730534
10
-157.21624999999995
20
133.327
0
LWPOLYLINE
5
143
100
AcDbEntity
8
0
100
AcDbPolyline
90
8
70
1
43
0.0
10
-103.1725
20
133.327
42
-0.41421356237312629
10
-103.67249999999997
20
132.827
10
-116.67249999999994
20
132.827
42
-0.4142135623730534
10
-117.17249999999994
20
133.327
10
-117.17249999999994
20
146.327
42
-0.41421356237307422
10
-116.67249999999994
20
146.827
10
-103.67249999999997
20
146.827
42
-0.41421356237307422
10
-103.17249999999996
20
146.327
0
LWPOLYLINE
5
144
100
AcDbEntity
8
0
100
AcDbPolyline
90
8
70
1
43
0.0
10
-55.54749999999995
20
76.177000000000007
10
-55.54749999999995
20
89.176999999999992
42
0.41421356237309509
10
-56.047499999999921
20
89.677000000000007
10
-69.047499999999943
20
89.677000000000007
42
0.4142135623731002
10
-69.547499999999928
20
89.177000000000021
10
-69.547499999999943
20
76.177000000000021
42
0.41421356237311063
10
-69.047499999999928
20
75.677000000000021
10
-56.047499999999928
20
75.677000000000007
42
0.41421356237309509
0
LWPOLYLINE
5
145
100
AcDbEntity
8
0
100
AcDbPolyline
90
8
70
1
43
0.0
10
-131.74749999999995
20
133.327
42
-0.41421356237309509
10
-132.24749999999995
20
132.82700000000003
10
-145.24749999999995
20
132.82700000000003
42
-0.41421356237309509
10
-145.74749999999992
20
133.327
10
-145.74749999999997
20
146.327
42
-0.41421356237307422
10
-145.24749999999995
20
146.827
10
-132.24749999999995
20
146.827
42
-0.41421356237307422
10
-131.74749999999995
20
146.327
0
LWPOLYLINE
5
146
100
AcDbEntity
8
0
100
AcDbPolyline
90
8
70
1
43
0.0
10
-249.97249999999994
20
133.32700000000003
42
-0.41421356237310542
10
-250.47249999999991
20
132.82700000000003
10
-251.47249999999985
20
132.827
42
-0.41421356237308465
10
-251.97249999999994
20
133.32700000000003
10
-251.97249999999991
20
146.32700000000003
42
-0.41421356237310542
10
-251.47249999999985
20
146.827
10
-250.47249999999991
20
146.827
42
-0.41421356237308465
10
-249.97249999999991
20
146.32700000000003
0
LWPOLYLINE
5
147
100
AcDbEntity
8
0
100
AcDbPolyline
90
8
70
1
43
0.0
10
-274.62249999999989
20
95.227000000000032
42
-0.41421356237313667
10
-275.12249999999989
20
94.727000000000032
10
-288.12249999999989
20
94.727000000000103
42
-0.41421356237311585
10
-288.62249999999983
20
95.227000000000032
10
-288.62249999999989
20
108.22700000000005
42
-0.41421356237308465
10
-288.12249999999989
20
108.72700000000003
10
-275.12249999999995
20
108.72700000000007
42
-0.41421356237308465
10
-274.62249999999989
20
108.22700000000005
0
LWPOLYLINE
5
148
100
AcDbEntity
8
0
100
AcDbPolyline
90
8
70
1
43
0.0
10
-12.68499999999996
20
76.177000000000007
10
-12.68499999999996
20
89.176999999999992
42
0.41421356237309109
10
-13.184999999999967
20
89.677000000000007
10
-26.184999999999981
20
89.677000000000007
42
0.41421356237309243
10
-26.684999999999981
20
89.176999999999992
10
-26.684999999999988
20
76.177000000000007
42
0.41421356237310542
10
-26.184999999999974
20
75.677000000000007
10
-13.184999999999976
20
75.677000000000007
42
0.4142135623730977
0
LWPOLYLINE
5
149
100
AcDbEntity
8
0
100
AcDbPolyline
90
8
70
1
43
0.0
10
-26.184999999999981
20
113.77699999999999
42
-0.41421356237307161
10
-26.684999999999988
20
114.277
10
-26.684999999999985
20
127.27699999999999
42
-0.41421356237309243
10
-26.184999999999981
20
127.77699999999999
10
-13.184999999999967
20
127.77699999999999
42
-0.41421356237309109
10
-12.684999999999969
20
127.27699999999999
10
-12.684999999999979
20
114.277
42
-0.41421356237309892
10
-13.184999999999976
20
113.77700000000002
0
LWPOLYLINE
5
150
100
AcDbEntity
8
0
100
AcDbPolyline
90
8
70
1
43
0.0
10
-160.32249999999991
20
95.227000000000018
42
-0.41421356237307422
10
-160.82249999999991
20
94.727000000000032
10
-173.82249999999996
20
94.727000000000046
42
-0.41421356237311585
10
-174.32249999999993
20
95.22699999999999
10
-174.32249999999996
20
108.227
42
-0.41421356237313667
10
-173.82249999999996
20
108.72700000000002
10
-160.82249999999993
20
108.72700000000003
42
-0.41421356237310542
10
-160.32249999999993
20
108.227
0
LWPOLYLINE
5
151
100
AcDbEntity
8
0
100
AcDbPolyline
90
8
70
1
43
0.0
10
-255.57249999999988
20
95.227000000000032
42
-0.41421356237313667
10
-256.07249999999988
20
94.727000000000032
10
-269.07249999999982
20
94.727000000000018
42
-0.41421356237308465
10
-269.57249999999993
20
95.227000000000032
10
-269.57249999999988
20
108.22700000000003
42
-0.41421356237307422
10
-269.07249999999988
20
108.72700000000002
10
-256.07249999999988
20
108.72700000000007
42
-0.41421356237309509
10
-255.57249999999985
20
108.22700000000003
0
LWPOLYLINE
5
152
100
AcDbEntity
8
0
100
AcDbPolyline
90
8
70
1
43
0.0
10
-250.80999999999986
20
76.177000000000035
42
-0.41421356237307422
10
-251.30999999999989
20
75.677000000000035
10
-264.30999999999989
20
75.676999999999992
42
-0.41421356237305862
10
-264.80999999999989
20
76.177000000000035
10
-264.80999999999989
20
89.177000000000035
42
-0.41421356237313667
10
-264.30999999999989
20
89.677000000000049
10
-251.30999999999989
20
89.677000000000049
42
-0.41421356237313667
10
-250.80999999999989
20
89.177000000000035
0
LWPOLYLINE
5
153
100
AcDbEntity
8
0
100
AcDbPolyline
90
8
70
1
43
0.0
10
-169.84749999999991
20
114.27700000000002
42
-0.41421356237313667
10
-170.34749999999991
20
113.77700000000002
10
-183.34749999999997
20
113.77700000000004
42
-0.41421356237311585
10
-183.84749999999994
20
114.27699999999999
10
-183.84749999999997
20
127.27700000000002
42
-0.41421356237313667
10
-183.34749999999997
20
127.77700000000003
10
-170.34749999999991
20
127.77699999999999
42
-0.41421356237311585
10
-169.84749999999994
20
127.27700000000006
0
LWPOLYLINE
5
154
100
AcDbEntity
8
0
100
AcDbPolyline
90
8
70
1
43
0.0
10
-131.74749999999995
20
114.27700000000002
42
-0.41421356237307422
10
-132.24749999999995
20
113.77700000000002
10
-145.24749999999995
20
113.77700000000004
42
-0.41421356237309509
10
-145.74749999999992
20
114.27700000000002
10
-145.74749999999992
20
127.27700000000002
42
-0.41421356237312629
10
-145.24749999999995
20
127.77700000000002
10
-132.24749999999995
20
127.77700000000003
42
-0.41421356237307422
10
-131.74749999999995
20
127.27700000000002
0
LWPOLYLINE
5
155
100
AcDbEntity
8
0
100
AcDbPolyline
90
8
70
1
43
0.0
10
-12.684999999999967
20
95.227000000000004
42
-0.41421356237309637
10
-13.184999999999976
20
94.727000000000004
10
-26.184999999999974
20
94.727000000000004
42
-0.4142135623730977
10
-26.684999999999988
20
95.227000000000004
10
-26.684999999999967
20
108.227
42
-0.41421356237311319
10
-26.184999999999981
20
108.727
10
-13.184999999999967
20
108.72700000000002
42
-0.41421356237309109
10
-12.684999999999969
20
108.227
0
LWPOLYLINE
5
156
100
AcDbEntity
8
0
100
AcDbPolyline
90
8
70
1
43
0.0
10
-80.903749999999945
20
114.27700000000002
42
-0.41421356237309509
10
-81.403749999999945
20
113.77700000000002
10
-82.403749999999945
20
113.77700000000002
42
-0.41421356237307422
10
-82.90374999999996
20
114.27700000000002
10
-82.903749999999945
20
127.277
42
-0.41421356237309509
10
-82.403749999999945
20
127.77699999999999
10
-81.403749999999931
20
127.77700000000002
42
-0.41421356237309509
10
-80.90374999999996
20
127.27700000000004
0
LWPOLYLINE
5
157
100
AcDbEntity
8
0
100
AcDbPolyline
90
8
70
1
43
0.0
10
-166.0282499999999
20
145.32700000000003
42
-0.41421356237307422
10
-165.5282499999999
20
145.827
10
-159.52824999999993
20
145.82700000000003
42
-0.41421356237307422
10
-159.0282499999999
20
145.32700000000003
10
-159.02824999999996
20
131.327
42
-0.41421356237313667
10
-159.52824999999993
20
130.827
10
-165.52824999999996
20
130.82700000000006
42
-0.41421356237311585
10
-166.02824999999993
20
131.327
0
LWPOLYLINE
5
158
100
AcDbEntity
8
0
100
AcDbPolyline
90
8
70
1
43
0.0
10
-284.14749999999992
20
114.27700000000003
42
-0.41421356237307422
10
-284.64749999999992
20
113.77700000000004
10
-297.64749999999987
20
113.77700000000003
42
-0.41421356237309509
10
-298.14749999999992
20
114.27700000000003
10
-298.14749999999992
20
127.27700000000002
42
-0.41421356237313667
10
-297.64749999999987
20
127.77700000000003
10
-284.64749999999992
20
127.77700000000003
42
-0.41421356237313667
10
-284.14749999999992
20
127.27700000000002
0
LWPOLYLINE
5
159
100
AcDbEntity
8
0
100
AcDbPolyline
90
8
70
1
43
0.0
10
-31.734999999999985
20
76.177000000000007
42
-0.4142135623730977
10
-32.234999999999985
20
75.677000000000007
10
-45.234999999999985
20
75.677000000000035
42
-0.41421356237311063
10
-45.734999999999964
20
76.177000000000007
10
-45.734999999999999
20
89.176999999999992
42
-0.41421356237309509
10
-45.234999999999992
20
89.677000000000007
10
-32.234999999999978
20
89.677000000000007
42
-0.41421356237308726
10
-31.734999999999978
20
89.176999999999992
0
LWPOLYLINE
5
160
100
AcDbEntity
8
0
100
AcDbPolyline
90
8
70
1
43
0.0
10
-318.41624999999988
20
95.227000000000032
42
-0.41421356237313667
10
-318.91624999999988
20
94.727000000000032
10
-319.91624999999988
20
94.727000000000032
42
-0.4142135623730534
10
-320.41624999999988
20
95.227000000000032
10
-320.41624999999988
20
108.22700000000005
42
-0.41421356237308465
10
-319.91624999999988
20
108.72700000000003
10
-318.91624999999988
20
108.72700000000007
42
-0.41421356237308465
10
-318.41624999999982
20
108.22700000000005
0
LWPOLYLINE
5
161
100
AcDbEntity
8
0
100
AcDbPolyline
90
8
70
1
43
0.0
10
-55.547499999999928
20
119.03949999999998
42
-0.41421356237308982
10
-56.047499999999928
20
118.5395
10
-69.047499999999928
20
118.53949999999999
42
-0.41421356237307944
10
-69.547499999999943
20
119.0395
10
-69.547499999999928
20
132.03949999999998
42
-0.4142135623731002
10
-69.047499999999943
20
132.5395
10
-56.047499999999921
20
132.53949999999998
42
-0.41421356237309509
10
-55.547499999999957
20
132.0395
0
LWPOLYLINE
5
162
100
AcDbEntity
8
0
100
AcDbPolyline
90
8
70
1
43
0.0
10
-122.22250000000001
20
95.227000000000004
42
-0.41421356237312629
10
-122.72249999999998
20
94.727000000000018
10
-135.72249999999994
20
94.726999999999975
42
-0.41421356237311585
10
-136.2225
20
95.227000000000018
10
-136.22249999999997
20
108.227
42
-0.41421356237307422
10
-135.72249999999994
20
108.72700000000002
10
-122.72249999999998
20
108.72700000000002
42
-0.41421356237307422
10
-122.22249999999997
20
108.227
0
LWPOLYLINE
5
163
100
AcDbEntity
8
0
100
AcDbPolyline
90
8
70
1
43
0.0
10
-246.04749999999996
20
114.27700000000002
42
-0.41421356237307422
10
-246.54749999999993
20
113.77700000000003
10
-259.54749999999984
20
113.77699999999999
42
-0.41421356237309509
10
-260.0474999999999
20
114.27700000000003
10
-260.0474999999999
20
127.27700000000002
42
-0.41421356237313667
10
-259.54749999999984
20
127.77700000000003
10
-246.54749999999993
20
127.77700000000004
42
-0.41421356237310542
10
-246.04749999999993
20
127.27700000000002
0
LWPOLYLINE
5
164
100
AcDbEntity
8
0
100
AcDbPolyline
90
8
70
1
43
0.0
10
-136.50999999999999
20
76.177000000000021
42
-0.41421356237307944
10
-137.00999999999999
20
75.677000000000021
10
-150.00999999999993
20
75.677000000000007
42
-0.41421356237307944
10
-150.50999999999996
20
76.177000000000021
10
-150.50999999999996
20
89.177000000000021
42
-0.4142135623730534
10
-150.00999999999996
20
89.677000000000021
10
-137.00999999999999
20
89.677000000000021
42
-0.4142135623730534
10
-136.50999999999999
20
89.177000000000021
0
LWPOLYLINE
5
165
100
AcDbEntity
8
0
100
AcDbPolyline
90
8
70
1
43
0.0
10
-226.99749999999995
20
114.27700000000002
42
-0.41421356237307422
10
-227.49749999999992
20
113.77700000000003
10
-240.49749999999989
20
113.77699999999999
42
-0.41421356237310542
10
-240.99749999999989
20
114.27700000000002
10
-240.99749999999986
20
127.27700000000002
42
-0.41421356237310542
10
-240.49749999999989
20
127.77700000000003
10
-227.49749999999992
20
127.77700000000004
42
-0.41421356237310542
10
-226.99749999999992
20
127.27700000000002
0
LWPOLYLINE
5
166
100
AcDbEntity
8
0
100
AcDbPolyline
90
8
70
1
43
0.0
10
-117.45999999999998
20
76.177000000000021
42
-0.4142135623731002
10
-117.95999999999998
20
75.677000000000021
10
-130.95999999999992
20
75.677000000000007
42
-0.41421356237307944
10
-131.45999999999995
20
76.177000000000021
10
-131.45999999999995
20
89.177000000000021
42
-0.4142135623730534
10
-130.95999999999995
20
89.677000000000021
10
-117.95999999999998
20
89.677000000000021
42
-0.4142135623730534
10
-117.45999999999997
20
89.177000000000021
0
LWPOLYLINE
5
167
100
AcDbEntity
8
0
100
AcDbPolyline
90
8
70
1
43
0.0
10
-193.71624999999989
20
146.32700000000003
42
-0.41421356237307422
10
-193.21624999999986
20
146.827
10
-192.21624999999986
20
146.82699999999994
42
-0.41421356237311585
10
-191.71624999999989
20
146.32700000000003
10
-191.71624999999992
20
133.32700000000003
42
-0.41421356237310542
10
-192.21624999999989
20
132.82700000000003
10
-193.21624999999989
20
132.827
42
-0.41421356237310542
10
-193.71624999999992
20
133.32700000000003
0
LWPOLYLINE
5
168
100
AcDbEntity
8
0
100
AcDbPolyline
90
8
70
1
43
0.0
10
-217.47249999999994
20
95.227000000000032
42
-0.41421356237313667
10
-217.97249999999994
20
94.727000000000032
10
-230.97249999999991
20
94.727000000000032
42
-0.41421356237313667
10
-231.47249999999991
20
95.227000000000032
10
-231.47249999999991
20
108.22700000000003
42
-0.41421356237307422
10
-230.97249999999991
20
108.72700000000002
10
-217.97249999999991
20
108.727
42
-0.41421356237309509
10
-217.47249999999994
20
108.22700000000003
0
LWPOLYLINE
5
169
100
AcDbEntity
8
0
100
AcDbPolyline
90
8
70
1
43
0.0
10
-188.89749999999992
20
114.27700000000002
42
-0.41421356237307422
10
-189.39749999999989
20
113.77700000000003
10
-202.39749999999989
20
113.77700000000002
42
-0.41421356237313667
10
-202.89749999999992
20
114.27700000000002
10
-202.89749999999992
20
127.27700000000002
42
-0.41421356237313667
10
-202.39749999999989
20
127.77700000000003
10
-189.39749999999989
20
127.77700000000003
42
-0.41421356237309509
10
-188.89749999999992
20
127.27700000000006
0
LWPOLYLINE
5
170
100
AcDbEntity
8
0
100
AcDbPolyline
90
8
70
1
43
0.0
10
-237.52924999999993
20
145.32700000000003
10
-237.52924999999991
20
131.32700000000003
42
0.41421356237309509
10
-237.02924999999993
20
130.82700000000006
10
-231.02924999999993
20
130.82700000000003
42
0.41421356237307422
10
-230.52924999999991
20
131.32700000000003
10
-230.52924999999991
20
145.32700000000003
42
0.41421356237310542
10
-231.02924999999993
20
145.82700000000003
10
-237.02924999999993
20
145.82700000000003
42
0.41421356237310542
0
LWPOLYLINE
5
171
100
AcDbEntity
8
0
100
AcDbPolyline
90
8
70
1
43
0.0
10
-164.29749999999996
20
113.77700000000007
42
-0.41421356237311585
10
-164.79749999999993
20
114.27700000000002
10
-164.79749999999996
20
127.27700000000002
42
-0.41421356237308465
10
-164.29749999999996
20
127.77700000000002
10
-151.29749999999996
20
127.77700000000003
42
-0.41421356237307422
10
-150.79749999999996
20
127.27700000000002
10
-150.79749999999996
20
114.27700000000002
42
-0.41421356237307422
10
-151.29749999999996
20
113.77700000000002
0
LWPOLYLINE
5
172
100
AcDbEntity
8
0
100
AcDbPolyline
90
8
70
1
43
0.0
10
6.36499999999997
20
95.227000000000004
42
-0.41421356237309437
10
5.8649999999999638
20
94.727000000000004
10
-7.1349999999999625
20
94.727000000000004
42
-0.4142135623731002
10
-7.6349999999999794
20
95.227000000000004
10
-7.6349999999999607
20
108.227
42
-0.41421356237311519
10
-7.1349999999999723
20
108.727
10
5.8649999999999736
20
108.72700000000002
42
-0.41421356237309437
10
6.3650000000000064
20
108.22699999999998
0
LWPOLYLINE
5
173
100
AcDbEntity
8
0
100
AcDbPolyline
90
8
70
1
43
0.0
10
-305.5787499999999
20
114.27700000000003
42
-0.41421356237307422
10
-306.0787499999999
20
113.77700000000004
10
-319.07874999999984
20
113.77699999999999
42
-0.41421356237309509
10
-319.5787499999999
20
114.27700000000003
10
-319.5787499999999
20
127.27700000000002
42
-0.41421356237313667
10
-319.07874999999984
20
127.77700000000003
10
-306.0787499999999
20
127.77700000000003
42
-0.41421356237313667
10
-305.5787499999999
20
127.27700000000002
0
LWPOLYLINE
5
174
100
AcDbEntity
8
0
100
AcDbPolyline
90
8
70
1
43
0.0
10
-149.34749999999997
20
133.327
10
-149.34749999999997
20
146.327
42
0.41421356237307422
10
-149.84749999999997
20
146.827
10
-150.84749999999994
20
146.827
42
0.41421356237307422
10
-151.34749999999994
20
146.327
10
-151.3475
20
133.327
42
0.4142135623730534
10
-150.84749999999997
20
132.82700000000003
10
-149.84749999999997
20
132.82700000000003
42
0.41421356237309509
0
LWPOLYLINE
5
175
100
AcDbEntity
8
0
100
AcDbPolyline
90
8
70
1
43
0.0
10
-288.90999999999985
20
76.177000000000049
42
-0.41421356237312629
10
-289.40999999999985
20
75.677000000000035
10
-302.40999999999991
20
75.677000000000035
42
-0.41421356237313667
10
-302.90999999999991
20
76.177000000000049
10
-302.90999999999991
20
89.177000000000035
42
-0.41421356237313667
10
-302.40999999999991
20
89.677000000000049
10
-289.40999999999985
20
89.677000000000064
42
-0.41421356237310542
10
-288.90999999999985
20
89.177000000000035
0
LWPOLYLINE
5
176
100
AcDbEntity
8
0
100
AcDbPolyline
90
8
70
1
43
0.0
10
-74.597499999999954
20
138.08949999999999
42
-0.41421356237311585
10
-75.09749999999994
20
137.58950000000002
10
-88.097499999999954
20
137.58949999999999
42
-0.41421356237307422
10
-88.597499999999968
20
138.08949999999999
10
-88.597499999999968
20
151.08949999999999
42
-0.4142135623730534
10
-88.097499999999954
20
151.58949999999999
10
-75.09749999999994
20
151.58949999999999
42
-0.414213562373069
10
-74.59749999999994
20
151.08949999999999
0
LWPOLYLINE
5
177
100
AcDbEntity
8
0
100
AcDbPolyline
90
8
70
1
43
0.0
10
-295.21624999999983
20
95.227000000000032
42
-0.41421356237313667
10
-295.71624999999989
20
94.727000000000032
10
-296.71624999999989
20
94.727000000000032
42
-0.41421356237313667
10
-297.21624999999989
20
95.227000000000032
10
-297.21624999999989
20
108.22700000000005
42
-0.41421356237308465
10
-296.71624999999989
20
108.72700000000003
10
-295.71624999999989
20
108.72700000000006
42
-0.41421356237313667
10
-295.21624999999983
20
108.22700000000005
0
LWPOLYLINE
5
178
100
AcDbEntity
8
0
100
AcDbPolyline
90
8
70
1
43
0.0
10
-215.09124999999989
20
133.32700000000003
42
-0.41421356237313667
10
-215.59124999999992
20
132.82700000000003
10
-228.59124999999992
20
132.827
42
-0.41421356237310542
10
-229.09124999999992
20
133.32700000000003
10
-229.09124999999989
20
146.32700000000003
42
-0.41421356237307422
10
-228.59124999999989
20
146.827
10
-215.59124999999992
20
146.82700000000006
42
-0.41421356237309509
10
-215.09124999999986
20
146.32700000000003
0
ENDSEC
0
SECTION
2
OBJECTS
0
DICTIONARY
5
C
100
AcDbDictionary
3
ACAD_GROUP
350
D
3
ACAD_MLINESTYLE
350
17
0
DICTIONARY
5
D
100
AcDbDictionary
0
DICTIONARY
5
1A
330
C
100
AcDbDictionary
0
DICTIONARY
5
17
100
AcDbDictionary
0
ENDSEC
0
EOF
