<?xml version="1.0" encoding="UTF-8" standalone="no"?>
<svg
   xmlns:dc="http://purl.org/dc/elements/1.1/"
   xmlns:cc="http://creativecommons.org/ns#"
   xmlns:rdf="http://www.w3.org/1999/02/22-rdf-syntax-ns#"
   xmlns:svg="http://www.w3.org/2000/svg"
   xmlns="http://www.w3.org/2000/svg"
   xmlns:sodipodi="http://sodipodi.sourceforge.net/DTD/sodipodi-0.dtd"
   xmlns:inkscape="http://www.inkscape.org/namespaces/inkscape"
   sodipodi:docname="reverie_drawing.svg"
   inkscape:version="1.0 (4035a4f, 2020-05-01)"
   id="svg8"
   version="1.1"
   viewBox="0 0 210 297"
   height="297mm"
   width="210mm">
  <defs
     id="defs2">
    <marker
       id="DistanceX"
       orient="auto"
       refX="0.0"
       refY="0.0"
       style="overflow:visible">
      <path
         d="M 3,-3 L -3,3 M 0,-5 L  0,5"
         style="stroke:#000000; stroke-width:0.5"
         id="path28" />
    </marker>
    <pattern
       id="Hatch"
       patternUnits="userSpaceOnUse"
       width="8"
       height="8"
       x="0"
       y="0">
      <path
         d="M8 4 l-4,4"
         stroke="#000000"
         stroke-width="0.25"
         linecap="square"
         id="path31" />
      <path
         d="M6 2 l-4,4"
         stroke="#000000"
         stroke-width="0.25"
         linecap="square"
         id="path33" />
      <path
         d="M4 0 l-4,4"
         stroke="#000000"
         stroke-width="0.25"
         linecap="square"
         id="path35" />
    </pattern>
    <symbol
       id="*MODEL_SPACE" />
    <symbol
       id="*PAPER_SPACE" />
    <marker
       id="DistanceX-9"
       orient="auto"
       refX="0.0"
       refY="0.0"
       style="overflow:visible">
      <path
         d="M 3,-3 L -3,3 M 0,-5 L  0,5"
         style="stroke:#000000; stroke-width:0.5"
         id="path100" />
    </marker>
    <pattern
       id="Hatch-0"
       patternUnits="userSpaceOnUse"
       width="8"
       height="8"
       x="0"
       y="0">
      <path
         d="M8 4 l-4,4"
         stroke="#000000"
         stroke-width="0.25"
         linecap="square"
         id="path103" />
      <path
         d="M6 2 l-4,4"
         stroke="#000000"
         stroke-width="0.25"
         linecap="square"
         id="path105" />
      <path
         d="M4 0 l-4,4"
         stroke="#000000"
         stroke-width="0.25"
         linecap="square"
         id="path107" />
    </pattern>
    <symbol
       id="*MODEL_SPACE-5" />
    <symbol
       id="*PAPER_SPACE-2" />
    <marker
       id="DistanceX-2"
       orient="auto"
       refX="0.0"
       refY="0.0"
       style="overflow:visible">
      <path
         d="M 3,-3 L -3,3 M 0,-5 L  0,5"
         style="stroke:#000000; stroke-width:0.5"
         id="path172" />
    </marker>
    <pattern
       id="Hatch-7"
       patternUnits="userSpaceOnUse"
       width="8"
       height="8"
       x="0"
       y="0">
      <path
         d="M8 4 l-4,4"
         stroke="#000000"
         stroke-width="0.25"
         linecap="square"
         id="path175" />
      <path
         d="M6 2 l-4,4"
         stroke="#000000"
         stroke-width="0.25"
         linecap="square"
         id="path177" />
      <path
         d="M4 0 l-4,4"
         stroke="#000000"
         stroke-width="0.25"
         linecap="square"
         id="path179" />
    </pattern>
    <symbol
       id="*MODEL_SPACE-3" />
    <symbol
       id="*PAPER_SPACE-7" />
    <marker
       id="DistanceX-90"
       orient="auto"
       refX="0.0"
       refY="0.0"
       style="overflow:visible">
      <path
         d="M 3,-3 L -3,3 M 0,-5 L  0,5"
         style="stroke:#000000; stroke-width:0.5"
         id="path235" />
    </marker>
    <pattern
       id="Hatch-2"
       patternUnits="userSpaceOnUse"
       width="8"
       height="8"
       x="0"
       y="0">
      <path
         d="M8 4 l-4,4"
         stroke="#000000"
         stroke-width="0.25"
         linecap="square"
         id="path238" />
      <path
         d="M6 2 l-4,4"
         stroke="#000000"
         stroke-width="0.25"
         linecap="square"
         id="path240" />
      <path
         d="M4 0 l-4,4"
         stroke="#000000"
         stroke-width="0.25"
         linecap="square"
         id="path242" />
    </pattern>
    <symbol
       id="*MODEL_SPACE-39" />
    <symbol
       id="*PAPER_SPACE-9" />
    <marker
       id="DistanceX-7"
       orient="auto"
       refX="0.0"
       refY="0.0"
       style="overflow:visible">
      <path
         d="M 3,-3 L -3,3 M 0,-5 L  0,5"
         style="stroke:#000000; stroke-width:0.5"
         id="path298" />
    </marker>
    <pattern
       id="Hatch-03"
       patternUnits="userSpaceOnUse"
       width="8"
       height="8"
       x="0"
       y="0">
      <path
         d="M8 4 l-4,4"
         stroke="#000000"
         stroke-width="0.25"
         linecap="square"
         id="path301" />
      <path
         d="M6 2 l-4,4"
         stroke="#000000"
         stroke-width="0.25"
         linecap="square"
         id="path303" />
      <path
         d="M4 0 l-4,4"
         stroke="#000000"
         stroke-width="0.25"
         linecap="square"
         id="path305" />
    </pattern>
    <symbol
       id="*MODEL_SPACE-9" />
    <symbol
       id="*PAPER_SPACE-8" />
    <marker
       id="DistanceX-6"
       orient="auto"
       refX="0.0"
       refY="0.0"
       style="overflow:visible">
      <path
         d="M 3,-3 L -3,3 M 0,-5 L  0,5"
         style="stroke:#000000; stroke-width:0.5"
         id="path358" />
    </marker>
    <pattern
       id="Hatch-5"
       patternUnits="userSpaceOnUse"
       width="8"
       height="8"
       x="0"
       y="0">
      <path
         d="M8 4 l-4,4"
         stroke="#000000"
         stroke-width="0.25"
         linecap="square"
         id="path361" />
      <path
         d="M6 2 l-4,4"
         stroke="#000000"
         stroke-width="0.25"
         linecap="square"
         id="path363" />
      <path
         d="M4 0 l-4,4"
         stroke="#000000"
         stroke-width="0.25"
         linecap="square"
         id="path365" />
    </pattern>
    <symbol
       id="*MODEL_SPACE-7" />
    <symbol
       id="*PAPER_SPACE-6" />
    <marker
       id="DistanceX-27"
       orient="auto"
       refX="0.0"
       refY="0.0"
       style="overflow:visible">
      <path
         d="M 3,-3 L -3,3 M 0,-5 L  0,5"
         style="stroke:#000000; stroke-width:0.5"
         id="path418" />
    </marker>
    <pattern
       id="Hatch-039"
       patternUnits="userSpaceOnUse"
       width="8"
       height="8"
       x="0"
       y="0">
      <path
         d="M8 4 l-4,4"
         stroke="#000000"
         stroke-width="0.25"
         linecap="square"
         id="path421" />
      <path
         d="M6 2 l-4,4"
         stroke="#000000"
         stroke-width="0.25"
         linecap="square"
         id="path423" />
      <path
         d="M4 0 l-4,4"
         stroke="#000000"
         stroke-width="0.25"
         linecap="square"
         id="path425" />
    </pattern>
    <symbol
       id="*MODEL_SPACE-99" />
    <symbol
       id="*PAPER_SPACE-1" />
    <marker
       id="DistanceX-72"
       orient="auto"
       refX="0.0"
       refY="0.0"
       style="overflow:visible">
      <path
         d="M 3,-3 L -3,3 M 0,-5 L  0,5"
         style="stroke:#000000; stroke-width:0.5"
         id="path478" />
    </marker>
    <pattern
       id="Hatch-3"
       patternUnits="userSpaceOnUse"
       width="8"
       height="8"
       x="0"
       y="0">
      <path
         d="M8 4 l-4,4"
         stroke="#000000"
         stroke-width="0.25"
         linecap="square"
         id="path481" />
      <path
         d="M6 2 l-4,4"
         stroke="#000000"
         stroke-width="0.25"
         linecap="square"
         id="path483" />
      <path
         d="M4 0 l-4,4"
         stroke="#000000"
         stroke-width="0.25"
         linecap="square"
         id="path485" />
    </pattern>
    <symbol
       id="*MODEL_SPACE-6" />
    <symbol
       id="*PAPER_SPACE-5" />
  </defs>
  <sodipodi:namedview
     inkscape:window-maximized="0"
     inkscape:window-y="23"
     inkscape:window-x="461"
     inkscape:window-height="1155"
     inkscape:window-width="1459"
     showgrid="false"
     inkscape:document-rotation="0"
     inkscape:current-layer="layer1"
     inkscape:document-units="mm"
     inkscape:cy="412.22984"
     inkscape:cx="1283.7594"
     inkscape:zoom="0.22"
     inkscape:pageshadow="2"
     inkscape:pageopacity="0.0"
     borderopacity="1.0"
     bordercolor="#666666"
     pagecolor="#ffffff"
     id="base" />
  <metadata
     id="metadata5">
    <rdf:RDF>
      <cc:Work
         rdf:about="">
        <dc:format>image/svg+xml</dc:format>
        <dc:type
           rdf:resource="http://purl.org/dc/dcmitype/StillImage" />
        <dc:title></dc:title>
      </cc:Work>
    </rdf:RDF>
  </metadata>
  <g
     id="layer1"
     inkscape:groupmode="layer"
     inkscape:label="Layer 1">
    <g
       transform="matrix(0.26458333,0,0,0.26458333,581.13083,417.37667)"
       inkscape:label="0"
       id="g68">
      <path
         d="m 67.615748,498.46488 a 7.559055,7.559055 0 0 1 7.559055,7.55906 v 374.03149 a 7.559055,7.559055 0 0 1 -7.559055,7.55906 H -1260.4157 a 7.559055,7.559055 0 0 1 -7.5591,-7.55906 V 506.02394 a 7.559055,7.559055 0 0 1 7.5591,-7.55906 z"
         style="fill:none;stroke:#000000"
         id="path42" />
      <path
         d="m -784.05354,517.36252 a 9.826775,9.826775 0 1 0 -19.65355,0 9.826775,9.826775 0 1 0 19.65355,0 z"
         style="fill:none;stroke:#000000"
         id="path44" />
      <path
         d="m 66.103937,517.36252 a 9.826772,9.826772 0 1 0 -19.653543,0 9.826772,9.826772 0 1 0 19.653543,0 z"
         style="fill:none;stroke:#000000"
         id="path46" />
      <path
         d="m -389.09291,517.36252 a 9.826775,9.826775 0 1 0 -19.65355,0 9.826775,9.826775 0 1 0 19.65355,0 z"
         style="fill:none;stroke:#000000"
         id="path48" />
      <path
         d="m -1234.7504,517.36252 a 9.826772,9.826772 0 1 0 -19.6535,0 9.826772,9.826772 0 1 0 19.6535,0 z"
         style="fill:none;stroke:#000000"
         id="path50" />
      <path
         d="m -784.05354,868.71685 a 9.826775,9.826775 0 1 0 -19.65355,0 9.826775,9.826775 0 1 0 19.65355,0 z"
         style="fill:none;stroke:#000000"
         id="path52" />
      <path
         d="m 66.103937,868.71685 a 9.826772,9.826772 0 1 0 -19.653543,0 9.826772,9.826772 0 1 0 19.653543,0 z"
         style="fill:none;stroke:#000000"
         id="path54" />
      <path
         d="m -389.09291,868.71685 a 9.826775,9.826775 0 1 0 -19.65355,0 9.826775,9.826775 0 1 0 19.65355,0 z"
         style="fill:none;stroke:#000000"
         id="path56" />
      <path
         d="m -1234.7504,868.71685 a 9.826772,9.826772 0 1 0 -19.6535,0 9.826772,9.826772 0 1 0 19.6535,0 z"
         style="fill:none;stroke:#000000"
         id="path58" />
      <path
         d="m -114.17953,622.4616 a 3.779528,3.779528 0 0 1 -3.77953,3.77953 H -182.4 a 3.779528,3.779528 0 0 0 -3.77953,3.77953 v 216.01902 a 3.779528,3.779528 0 0 0 3.77953,3.77953 h 216 a 3.779528,3.779528 0 0 0 3.779528,-3.77953 v -288 A 3.779528,3.779528 0 0 0 33.6,554.26016 h -144 a 3.779528,3.779528 0 0 0 -3.77953,3.77952 z"
         style="fill:none;stroke:#000000"
         id="path60" />
      <path
         d="m -276.17953,774.03968 v 72 a 3.779528,3.779528 0 0 0 3.77953,3.77953 h 72 a 3.779528,3.779528 0 0 0 3.77953,-3.77953 v -72 A 3.779528,3.779528 0 0 0 -200.4,770.26016 h -72 a 3.779528,3.779528 0 0 0 -3.77953,3.77952 z"
         style="fill:none;stroke:#000000"
         id="path62" />
      <path
         d="m -279.95905,615.81921 a 3.779528,3.779528 0 0 1 3.77952,3.77953 v 64.44094 a 3.779528,3.779528 0 0 0 3.77953,3.77953 h 72 a 3.779528,3.779528 0 0 0 3.77953,-3.77953 v -64.44094 a 3.779528,3.779528 0 0 1 3.77953,-3.77953 H -128.4 a 3.779528,3.779528 0 0 0 3.77953,-3.77953 v -72 A 3.779528,3.779528 0 0 0 -128.4,536.26016 h -216 a 3.779528,3.779528 0 0 0 -3.77953,3.77952 v 72 a 3.779528,3.779528 0 0 0 3.77953,3.77953 z"
         style="fill:none;stroke:#000000"
         id="path64" />
      <path
         d="M -358.62047,626.24113 A 3.779528,3.779528 0 0 1 -362.4,622.4616 v -64.42192 a 3.779528,3.779528 0 0 0 -3.77953,-3.77952 H -1217.4 a 3.779528,3.779528 0 0 0 -3.7795,3.77952 v 288 a 3.779528,3.779528 0 0 0 3.7795,3.77953 h 927 a 3.779528,3.779528 0 0 0 3.77953,-3.77953 V 630.02066 A 3.779528,3.779528 0 0 0 -290.4,626.24113 Z"
         style="fill:none;stroke:#000000"
         id="path66" />
    </g>
    <g
       transform="matrix(0.26458333,0,0,0.26458333,574.52619,277.28676)"
       inkscape:label="0"
       id="g140">
      <path
         d="m 67.615748,498.46488 a 7.559055,7.559055 0 0 1 7.559055,7.55906 v 374.03149 a 7.559055,7.559055 0 0 1 -7.559055,7.55906 H -1260.4157 a 7.559055,7.559055 0 0 1 -7.5591,-7.55906 V 506.02394 a 7.559055,7.559055 0 0 1 7.5591,-7.55906 z"
         style="fill:none;stroke:#000000"
         id="path114" />
      <path
         d="M -358.62047,626.24113 A 3.779528,3.779528 0 0 1 -362.4,622.4616 v -64.42192 a 3.779528,3.779528 0 0 0 -3.77953,-3.77952 H -1217.4 a 3.779528,3.779528 0 0 0 -3.7795,3.77952 v 288 a 3.779528,3.779528 0 0 0 3.7795,3.77953 h 927 a 3.779528,3.779528 0 0 0 3.77953,-3.77953 V 630.02066 A 3.779528,3.779528 0 0 0 -290.4,626.24113 Z"
         style="fill:none;stroke:#000000"
         id="path116" />
      <path
         d="m -276.17953,774.03968 v 72 a 3.779528,3.779528 0 0 0 3.77953,3.77953 h 72 a 3.779528,3.779528 0 0 0 3.77953,-3.77953 v -72 A 3.779528,3.779528 0 0 0 -200.4,770.26016 h -72 a 3.779528,3.779528 0 0 0 -3.77953,3.77952 z"
         style="fill:none;stroke:#000000"
         id="path118" />
      <path
         d="m -114.17953,622.4616 a 3.779528,3.779528 0 0 1 -3.77953,3.77953 H -182.4 a 3.779528,3.779528 0 0 0 -3.77953,3.77953 v 216.01902 a 3.779528,3.779528 0 0 0 3.77953,3.77953 h 216 a 3.779528,3.779528 0 0 0 3.779528,-3.77953 v -288 A 3.779528,3.779528 0 0 0 33.6,554.26016 h -144 a 3.779528,3.779528 0 0 0 -3.77953,3.77952 z"
         style="fill:none;stroke:#000000"
         id="path120" />
      <path
         d="m -279.95905,615.81921 a 3.779528,3.779528 0 0 1 3.77952,3.77953 v 64.44094 a 3.779528,3.779528 0 0 0 3.77953,3.77953 h 72 a 3.779528,3.779528 0 0 0 3.77953,-3.77953 v -64.44094 a 3.779528,3.779528 0 0 1 3.77953,-3.77953 H -128.4 a 3.779528,3.779528 0 0 0 3.77953,-3.77953 v -72 A 3.779528,3.779528 0 0 0 -128.4,536.26016 h -216 a 3.779528,3.779528 0 0 0 -3.77953,3.77952 v 72 a 3.779528,3.779528 0 0 0 3.77953,3.77953 z"
         style="fill:none;stroke:#000000"
         id="path122" />
      <path
         d="m -1238.5299,868.71685 a 6.04725,6.04725 0 1 0 -12.0945,0 6.04725,6.04725 0 1 0 12.0945,0 z"
         style="fill:none;stroke:#000000"
         id="path124" />
      <path
         d="m -392.87244,868.71685 a 6.047245,6.047245 0 1 0 -12.09449,0 6.047245,6.047245 0 1 0 12.09449,0 z"
         style="fill:none;stroke:#000000"
         id="path126" />
      <path
         d="m 62.324409,868.71685 a 6.047244,6.047244 0 1 0 -12.094488,0 6.047244,6.047244 0 1 0 12.094488,0 z"
         style="fill:none;stroke:#000000"
         id="path128" />
      <path
         d="m -787.83307,868.71685 a 6.047245,6.047245 0 1 0 -12.09449,0 6.047245,6.047245 0 1 0 12.09449,0 z"
         style="fill:none;stroke:#000000"
         id="path130" />
      <path
         d="m -1238.5299,517.36252 a 6.04725,6.04725 0 1 0 -12.0945,0 6.04725,6.04725 0 1 0 12.0945,0 z"
         style="fill:none;stroke:#000000"
         id="path132" />
      <path
         d="m -392.87244,517.36252 a 6.047245,6.047245 0 1 0 -12.09449,0 6.047245,6.047245 0 1 0 12.09449,0 z"
         style="fill:none;stroke:#000000"
         id="path134" />
      <path
         d="m 62.324409,517.36252 a 6.047244,6.047244 0 1 0 -12.094488,0 6.047244,6.047244 0 1 0 12.094488,0 z"
         style="fill:none;stroke:#000000"
         id="path136" />
      <path
         d="m -787.83307,517.36252 a 6.047245,6.047245 0 1 0 -12.09449,0 6.047245,6.047245 0 1 0 12.09449,0 z"
         style="fill:none;stroke:#000000"
         id="path138" />
    </g>
    <g
       transform="matrix(0.26458333,0,0,0.26458333,576.9532,141.49384)"
       inkscape:label="0"
       id="g206">
      <path
         d="m 67.615748,498.46488 a 7.559055,7.559055 0 0 1 7.559055,7.55906 v 374.03149 a 7.559055,7.559055 0 0 1 -7.559055,7.55906 H -1260.4157 a 7.559055,7.559055 0 0 1 -7.5591,-7.55906 V 506.02394 a 7.559055,7.559055 0 0 1 7.5591,-7.55906 z"
         style="fill:none;stroke:#000000"
         id="path186" />
      <path
         d="m -787.83307,517.36252 a 6.047245,6.047245 0 1 0 -12.09449,0 6.047245,6.047245 0 1 0 12.09449,0 z"
         style="fill:none;stroke:#000000"
         id="path188" />
      <path
         d="m 62.324409,517.36252 a 6.047244,6.047244 0 1 0 -12.094488,0 6.047244,6.047244 0 1 0 12.094488,0 z"
         style="fill:none;stroke:#000000"
         id="path190" />
      <path
         d="m -392.87244,517.36252 a 6.047245,6.047245 0 1 0 -12.09449,0 6.047245,6.047245 0 1 0 12.09449,0 z"
         style="fill:none;stroke:#000000"
         id="path192" />
      <path
         d="m -1238.5299,517.36252 a 6.04725,6.04725 0 1 0 -12.0945,0 6.04725,6.04725 0 1 0 12.0945,0 z"
         style="fill:none;stroke:#000000"
         id="path194" />
      <path
         d="m -787.83307,868.71685 a 6.047245,6.047245 0 1 0 -12.09449,0 6.047245,6.047245 0 1 0 12.09449,0 z"
         style="fill:none;stroke:#000000"
         id="path196" />
      <path
         d="m 62.324409,868.71685 a 6.047244,6.047244 0 1 0 -12.094488,0 6.047244,6.047244 0 1 0 12.094488,0 z"
         style="fill:none;stroke:#000000"
         id="path198" />
      <path
         d="m -392.87244,868.71685 a 6.047245,6.047245 0 1 0 -12.09449,0 6.047245,6.047245 0 1 0 12.09449,0 z"
         style="fill:none;stroke:#000000"
         id="path200" />
      <path
         d="m -1238.5299,868.71685 a 6.04725,6.04725 0 1 0 -12.0945,0 6.04725,6.04725 0 1 0 12.0945,0 z"
         style="fill:none;stroke:#000000"
         id="path202" />
      <path
         d="M -363.95905,872.57891 H -38.919685 V 853.68128 H 37.379528 V 532.20206 H -38.919685 V 513.30443 H -363.95905 v 18.89763 h -69.92126 v -18.89763 h -325.03937 v 18.89763 h -69.92127 v -18.89763 h -325.03935 v 18.89763 h -76.2992 v 321.47922 h 76.2992 v 18.89763 h 325.03935 v -18.89763 h 69.92127 v 18.89763 h 325.03937 v -18.89763 h 69.92126 z"
         style="fill:none;stroke:#000000"
         id="path204" />
    </g>
    <g
       transform="matrix(0.26458333,0,0,0.26458333,575.08321,-142.22703)"
       inkscape:label="0"
       id="g269">
      <path
         d="m 67.615748,498.46488 a 7.559055,7.559055 0 0 1 7.559055,7.55906 v 374.03149 a 7.559055,7.559055 0 0 1 -7.559055,7.55906 H -1260.4157 a 7.559055,7.559055 0 0 1 -7.5591,-7.55906 V 506.02394 a 7.559055,7.559055 0 0 1 7.5591,-7.55906 z"
         style="fill:none;stroke:#000000"
         id="path249" />
      <path
         d="m -787.83307,517.36252 a 6.047245,6.047245 0 1 0 -12.09449,0 6.047245,6.047245 0 1 0 12.09449,0 z"
         style="fill:none;stroke:#000000"
         id="path251" />
      <path
         d="m 62.324409,517.36252 a 6.047244,6.047244 0 1 0 -12.094488,0 6.047244,6.047244 0 1 0 12.094488,0 z"
         style="fill:none;stroke:#000000"
         id="path253" />
      <path
         d="m -392.87244,517.36252 a 6.047245,6.047245 0 1 0 -12.09449,0 6.047245,6.047245 0 1 0 12.09449,0 z"
         style="fill:none;stroke:#000000"
         id="path255" />
      <path
         d="m -1238.5299,517.36252 a 6.04725,6.04725 0 1 0 -12.0945,0 6.04725,6.04725 0 1 0 12.0945,0 z"
         style="fill:none;stroke:#000000"
         id="path257" />
      <path
         d="m -787.83307,868.71685 a 6.047245,6.047245 0 1 0 -12.09449,0 6.047245,6.047245 0 1 0 12.09449,0 z"
         style="fill:none;stroke:#000000"
         id="path259" />
      <path
         d="m 62.324409,868.71685 a 6.047244,6.047244 0 1 0 -12.094488,0 6.047244,6.047244 0 1 0 12.094488,0 z"
         style="fill:none;stroke:#000000"
         id="path261" />
      <path
         d="m -392.87244,868.71685 a 6.047245,6.047245 0 1 0 -12.09449,0 6.047245,6.047245 0 1 0 12.09449,0 z"
         style="fill:none;stroke:#000000"
         id="path263" />
      <path
         d="m -1238.5299,868.71685 a 6.04725,6.04725 0 1 0 -12.0945,0 6.04725,6.04725 0 1 0 12.0945,0 z"
         style="fill:none;stroke:#000000"
         id="path265" />
      <path
         d="M 37.379528,853.68128 V 532.20206 H -1230.1795 v 321.47922 z"
         style="fill:none;stroke:#000000"
         id="path267" />
    </g>
    <g
       transform="matrix(0.26458333,0,0,0.26458333,568.95602,-272.60891)"
       inkscape:label="0"
       id="g330">
      <path
         d="m 67.615748,498.46488 a 7.559055,7.559055 0 0 1 7.559055,7.55906 v 374.03149 a 7.559055,7.559055 0 0 1 -7.559055,7.55906 H -209.32535 a 3.779528,3.779528 0 0 1 -3.77953,-3.77953 V 853.68128 H 37.379528 V 532.20206 H -1230.1795 v 321.47922 h 970.96438 v 30.15368 a 3.779528,3.779528 0 0 1 -3.77953,3.77953 h -997.42105 a 7.559055,7.559055 0 0 1 -7.5591,-7.55906 V 506.02394 a 7.559055,7.559055 0 0 1 7.5591,-7.55906 z"
         style="fill:none;stroke:#000000"
         id="path312" />
      <path
         d="m -784.05354,517.36252 a 9.826775,9.826775 0 1 0 -19.65355,0 9.826775,9.826775 0 1 0 19.65355,0 z"
         style="fill:none;stroke:#000000"
         id="path314" />
      <path
         d="m 66.103937,517.36252 a 9.826772,9.826772 0 1 0 -19.653543,0 9.826772,9.826772 0 1 0 19.653543,0 z"
         style="fill:none;stroke:#000000"
         id="path316" />
      <path
         d="m -389.09291,517.36252 a 9.826775,9.826775 0 1 0 -19.65355,0 9.826775,9.826775 0 1 0 19.65355,0 z"
         style="fill:none;stroke:#000000"
         id="path318" />
      <path
         d="m -1234.7504,517.36252 a 9.826772,9.826772 0 1 0 -19.6535,0 9.826772,9.826772 0 1 0 19.6535,0 z"
         style="fill:none;stroke:#000000"
         id="path320" />
      <path
         d="m -784.05354,868.71685 a 9.826775,9.826775 0 1 0 -19.65355,0 9.826775,9.826775 0 1 0 19.65355,0 z"
         style="fill:none;stroke:#000000"
         id="path322" />
      <path
         d="m 66.103937,868.71685 a 9.826772,9.826772 0 1 0 -19.653543,0 9.826772,9.826772 0 1 0 19.653543,0 z"
         style="fill:none;stroke:#000000"
         id="path324" />
      <path
         d="m -389.09291,868.71685 a 9.826775,9.826775 0 1 0 -19.65355,0 9.826775,9.826775 0 1 0 19.65355,0 z"
         style="fill:none;stroke:#000000"
         id="path326" />
      <path
         d="m -1234.7504,868.71685 a 9.826772,9.826772 0 1 0 -19.6535,0 9.826772,9.826772 0 1 0 19.6535,0 z"
         style="fill:none;stroke:#000000"
         id="path328" />
    </g>
    <g
       transform="matrix(0.26458333,0,0,0.26458333,563.98265,-411.50522)"
       inkscape:label="0"
       id="g390">
      <path
         d="m 67.615748,498.46488 a 7.559055,7.559055 0 0 1 7.559055,7.55906 v 374.03149 a 7.559055,7.559055 0 0 1 -7.559055,7.55906 H -209.32535 a 3.779528,3.779528 0 0 1 -3.77953,-3.77953 V 853.68128 H 37.379528 V 532.20206 H -1230.1795 v 321.47922 h 970.96438 v 30.15368 a 3.779528,3.779528 0 0 1 -3.77953,3.77953 h -997.42105 a 7.559055,7.559055 0 0 1 -7.5591,-7.55906 V 506.02394 a 7.559055,7.559055 0 0 1 7.5591,-7.55906 z"
         style="fill:none;stroke:#000000"
         id="path372" />
      <path
         d="m -784.05354,517.36252 a 9.826775,9.826775 0 1 0 -19.65355,0 9.826775,9.826775 0 1 0 19.65355,0 z"
         style="fill:none;stroke:#000000"
         id="path374" />
      <path
         d="m 66.103937,517.36252 a 9.826772,9.826772 0 1 0 -19.653543,0 9.826772,9.826772 0 1 0 19.653543,0 z"
         style="fill:none;stroke:#000000"
         id="path376" />
      <path
         d="m -389.09291,517.36252 a 9.826775,9.826775 0 1 0 -19.65355,0 9.826775,9.826775 0 1 0 19.65355,0 z"
         style="fill:none;stroke:#000000"
         id="path378" />
      <path
         d="m -1234.7504,517.36252 a 9.826772,9.826772 0 1 0 -19.6535,0 9.826772,9.826772 0 1 0 19.6535,0 z"
         style="fill:none;stroke:#000000"
         id="path380" />
      <path
         d="m -784.05354,868.71685 a 9.826775,9.826775 0 1 0 -19.65355,0 9.826775,9.826775 0 1 0 19.65355,0 z"
         style="fill:none;stroke:#000000"
         id="path382" />
      <path
         d="m 66.103937,868.71685 a 9.826772,9.826772 0 1 0 -19.653543,0 9.826772,9.826772 0 1 0 19.653543,0 z"
         style="fill:none;stroke:#000000"
         id="path384" />
      <path
         d="m -389.09291,868.71685 a 9.826775,9.826775 0 1 0 -19.65355,0 9.826775,9.826775 0 1 0 19.65355,0 z"
         style="fill:none;stroke:#000000"
         id="path386" />
      <path
         d="m -1234.7504,868.71685 a 9.826772,9.826772 0 1 0 -19.6535,0 9.826772,9.826772 0 1 0 19.6535,0 z"
         style="fill:none;stroke:#000000"
         id="path388" />
    </g>
    <g
       transform="matrix(0.26458333,0,0,0.26458333,563.42564,-561.62145)"
       inkscape:label="0"
       id="g450">
      <path
         d="m 67.615748,498.46488 a 7.559055,7.559055 0 0 1 7.559055,7.55906 v 374.03149 a 7.559055,7.559055 0 0 1 -7.559055,7.55906 H -209.32535 a 3.779528,3.779528 0 0 1 -3.77953,-3.77953 V 857.4608 a 3.779528,3.779528 0 0 0 -3.77953,-3.77952 h -38.55118 a 3.779528,3.779528 0 0 0 -3.77953,3.77952 v 26.37416 a 3.779528,3.779528 0 0 1 -3.77953,3.77953 h -997.42105 a 7.559055,7.559055 0 0 1 -7.5591,-7.55906 V 506.02394 a 7.559055,7.559055 0 0 1 7.5591,-7.55906 z"
         style="fill:none;stroke:#000000"
         id="path432" />
      <path
         d="m -784.05354,517.36252 a 9.826775,9.826775 0 1 0 -19.65355,0 9.826775,9.826775 0 1 0 19.65355,0 z"
         style="fill:none;stroke:#000000"
         id="path434" />
      <path
         d="m 66.103937,517.36252 a 9.826772,9.826772 0 1 0 -19.653543,0 9.826772,9.826772 0 1 0 19.653543,0 z"
         style="fill:none;stroke:#000000"
         id="path436" />
      <path
         d="m -389.09291,517.36252 a 9.826775,9.826775 0 1 0 -19.65355,0 9.826775,9.826775 0 1 0 19.65355,0 z"
         style="fill:none;stroke:#000000"
         id="path438" />
      <path
         d="m -1234.7504,517.36252 a 9.826772,9.826772 0 1 0 -19.6535,0 9.826772,9.826772 0 1 0 19.6535,0 z"
         style="fill:none;stroke:#000000"
         id="path440" />
      <path
         d="m -784.05354,868.71685 a 9.826775,9.826775 0 1 0 -19.65355,0 9.826775,9.826775 0 1 0 19.65355,0 z"
         style="fill:none;stroke:#000000"
         id="path442" />
      <path
         d="m 66.103937,868.71685 a 9.826772,9.826772 0 1 0 -19.653543,0 9.826772,9.826772 0 1 0 19.653543,0 z"
         style="fill:none;stroke:#000000"
         id="path444" />
      <path
         d="m -389.09291,868.71685 a 9.826775,9.826775 0 1 0 -19.65355,0 9.826775,9.826775 0 1 0 19.65355,0 z"
         style="fill:none;stroke:#000000"
         id="path446" />
      <path
         d="m -1234.7504,868.71685 a 9.826772,9.826772 0 1 0 -19.6535,0 9.826772,9.826772 0 1 0 19.6535,0 z"
         style="fill:none;stroke:#000000"
         id="path448" />
    </g>
    <g
       transform="matrix(0.26458333,0,0,0.26458333,576.51554,-1.3950139)"
       inkscape:label="0"
       id="g656">
      <path
         d="m 5.136,810.03968 a 7.536,7.536 0 1 0 -15.072,0 7.536,7.536 0 1 0 15.072,0 z"
         style="fill:none;stroke:#000000"
         id="path492" />
      <path
         d="m -100.85669,713.47276 a 1.889764,1.889764 0 0 1 1.889761,-1.88977 h 49.133858 a 1.889764,1.889764 0 0 1 1.889764,1.88977 v 49.13385 a 1.889764,1.889764 0 0 1 -1.889764,1.88977 h -49.133858 a 1.889764,1.889764 0 0 1 -1.889761,-1.88977 z"
         style="fill:none;stroke:#000000"
         id="path494" />
      <path
         d="m -805.83307,783.58299 a 1.889764,1.889764 0 0 1 1.88976,1.88977 v 49.13385 a 1.889764,1.889764 0 0 1 -1.88976,1.88977 h -49.13386 a 1.889764,1.889764 0 0 1 -1.88976,-1.88977 v -49.13385 a 1.889764,1.889764 0 0 1 1.88976,-1.88977 z"
         style="fill:none;stroke:#000000"
         id="path496" />
      <path
         d="m -947.94331,785.47276 v 49.13385 a 1.889764,1.889764 0 0 1 -1.88976,1.88977 h -49.13386 a 1.889764,1.889764 0 0 1 -1.88977,-1.88977 v -49.13385 a 1.889764,1.889764 0 0 1 1.88977,-1.88977 h 49.13386 a 1.889764,1.889764 0 0 1 1.88976,1.88977 z"
         style="fill:none;stroke:#000000"
         id="path498" />
      <path
         d="m -26.966929,783.58299 h 49.133858 a 1.889764,1.889764 0 0 1 1.889764,1.88977 v 49.13385 a 1.889764,1.889764 0 0 1 -1.889764,1.88977 h -49.133858 a 1.889764,1.889764 0 0 1 -1.889764,-1.88977 v -49.13385 a 1.889764,1.889764 0 0 1 1.889764,-1.88977 z"
         style="fill:none;stroke:#000000"
         id="path500" />
      <path
         d="m -379.85669,641.47276 a 1.889764,1.889764 0 0 1 1.88976,-1.88977 h 49.13386 a 1.889764,1.889764 0 0 1 1.88976,1.88977 v 49.13385 a 1.889764,1.889764 0 0 1 -1.88976,1.88977 h -49.13386 a 1.889764,1.889764 0 0 1 -1.88976,-1.88977 z"
         style="fill:none;stroke:#000000"
         id="path502" />
      <path
         d="m -399.13228,639.58299 h 3.77952 a 1.889764,1.889764 0 0 1 1.88977,1.88977 v 49.13385 a 1.889764,1.889764 0 0 1 -1.88977,1.88977 h -3.77952 a 1.889764,1.889764 0 0 1 -1.88977,-1.88977 v -49.13385 a 1.889764,1.889764 0 0 1 1.88977,-1.88977 z"
         style="fill:none;stroke:#000000"
         id="path504" />
      <path
         d="m -172.85669,641.47276 a 1.889764,1.889764 0 0 1 1.88976,-1.88977 h 49.13386 a 1.889764,1.889764 0 0 1 1.88976,1.88977 v 49.13385 a 1.889764,1.889764 0 0 1 -1.88976,1.88977 h -49.13386 a 1.889764,1.889764 0 0 1 -1.88976,-1.88977 z"
         style="fill:none;stroke:#000000"
         id="path506" />
      <path
         d="m -1121.4472,764.49638 a 1.889764,1.889764 0 0 1 -1.8898,-1.88977 v -49.13385 a 1.889764,1.889764 0 0 1 1.8898,-1.88977 h 3.7795 a 1.889764,1.889764 0 0 1 1.8897,1.88977 v 49.13385 a 1.889764,1.889764 0 0 1 -1.8897,1.88977 z"
         style="fill:none;stroke:#000000"
         id="path508" />
      <path
         d="m -28.856693,641.47276 v 49.13385 a 1.889764,1.889764 0 0 0 1.889764,1.88977 h 49.133858 a 1.889764,1.889764 0 0 0 1.889764,-1.88977 v -49.13385 a 1.889764,1.889764 0 0 0 -1.889764,-1.88977 h -49.133858 a 1.889764,1.889764 0 0 0 -1.889764,1.88977 z"
         style="fill:none;stroke:#000000"
         id="path510" />
      <path
         d="m -656.96693,711.58299 h 49.13386 a 1.889764,1.889764 0 0 1 1.88976,1.88977 v 49.13385 a 1.889764,1.889764 0 0 1 -1.88976,1.88977 h -49.13386 a 1.889764,1.889764 0 0 1 -1.88976,-1.88977 v -49.13385 a 1.889764,1.889764 0 0 1 1.88976,-1.88977 z"
         style="fill:none;stroke:#000000"
         id="path512" />
      <path
         d="m -586.85669,713.47276 a 1.889764,1.889764 0 0 1 1.88976,-1.88977 h 49.13386 a 1.889764,1.889764 0 0 1 1.88976,1.88977 v 49.13385 a 1.889764,1.889764 0 0 1 -1.88976,1.88977 h -49.13386 a 1.889764,1.889764 0 0 1 -1.88976,-1.88977 z"
         style="fill:none;stroke:#000000"
         id="path514" />
      <path
         d="m -724.59685,618.60661 a 1.889764,1.889764 0 0 1 -1.88976,1.88977 h -3.77953 a 1.889764,1.889764 0 0 1 -1.88977,-1.88977 v -49.13385 a 1.889764,1.889764 0 0 1 1.88977,-1.88977 h 3.77953 a 1.889764,1.889764 0 0 1 1.88976,1.88977 z"
         style="fill:none;stroke:#000000"
         id="path516" />
      <path
         d="m -863.96693,620.49638 h 49.13386 a 1.889764,1.889764 0 0 0 1.88976,-1.88977 v -49.13385 a 1.889764,1.889764 0 0 0 -1.88976,-1.88977 h -49.13386 a 1.889764,1.889764 0 0 0 -1.88976,1.88977 v 49.13385 a 1.889764,1.889764 0 0 0 1.88976,1.88977 z"
         style="fill:none;stroke:#000000"
         id="path518" />
      <path
         d="m -548.96693,620.49638 a 1.889764,1.889764 0 0 1 -1.88976,-1.88977 v -49.13385 a 1.889764,1.889764 0 0 1 1.88976,-1.88977 h 49.13386 a 1.889764,1.889764 0 0 1 1.88976,1.88977 v 49.13385 a 1.889764,1.889764 0 0 1 -1.88976,1.88977 z"
         style="fill:none;stroke:#000000"
         id="path520" />
      <path
         d="m -764.96693,639.58299 h 49.13386 a 1.889764,1.889764 0 0 1 1.88976,1.88977 v 49.13385 a 1.889764,1.889764 0 0 1 -1.88976,1.88977 h -49.13386 a 1.889764,1.889764 0 0 1 -1.88976,-1.88977 v -49.13385 a 1.889764,1.889764 0 0 1 1.88976,-1.88977 z"
         style="fill:none;stroke:#000000"
         id="path522" />
      <path
         d="m -622.85669,641.47276 a 1.889764,1.889764 0 0 1 1.88976,-1.88977 h 49.13386 a 1.889764,1.889764 0 0 1 1.88976,1.88977 v 49.13385 a 1.889764,1.889764 0 0 1 -1.88976,1.88977 h -49.13386 a 1.889764,1.889764 0 0 1 -1.88976,-1.88977 z"
         style="fill:none;stroke:#000000"
         id="path524" />
      <path
         d="m -641.94331,690.60661 a 1.889764,1.889764 0 0 1 -1.88976,1.88977 h -49.13386 a 1.889764,1.889764 0 0 1 -1.88976,-1.88977 v -49.13385 a 1.889764,1.889764 0 0 1 1.88976,-1.88977 h 49.13386 a 1.889764,1.889764 0 0 1 1.88976,1.88977 z"
         style="fill:none;stroke:#000000"
         id="path526" />
      <path
         d="m -572.02205,569.47276 v 49.13385 a 1.889764,1.889764 0 0 0 1.88977,1.88977 h 3.77952 a 1.889764,1.889764 0 0 0 1.88977,-1.88977 v -49.13385 a 1.889764,1.889764 0 0 0 -1.88977,-1.88977 h -3.77952 a 1.889764,1.889764 0 0 0 -1.88977,1.88977 z"
         style="fill:none;stroke:#000000"
         id="path528" />
      <path
         d="m -476.77795,569.47276 v 49.13385 a 1.889764,1.889764 0 0 1 -1.88977,1.88977 h -3.77952 a 1.889764,1.889764 0 0 1 -1.88977,-1.88977 v -49.13385 a 1.889764,1.889764 0 0 1 1.88977,-1.88977 h 3.77952 a 1.889764,1.889764 0 0 1 1.88977,1.88977 z"
         style="fill:none;stroke:#000000"
         id="path530" />
      <path
         d="m -311.44724,639.58299 h 3.77952 a 1.889764,1.889764 0 0 1 1.88977,1.88977 v 49.13385 a 1.889764,1.889764 0 0 1 -1.88977,1.88977 h -3.77952 a 1.889764,1.889764 0 0 1 -1.88977,-1.88977 v -49.13385 a 1.889764,1.889764 0 0 1 1.88977,-1.88977 z"
         style="fill:none;stroke:#000000"
         id="path532" />
      <path
         d="m -1091.9433,834.60661 a 1.889764,1.889764 0 0 1 -1.8898,1.88977 h -49.1338 a 1.889764,1.889764 0 0 1 -1.8898,-1.88977 v -49.13385 a 1.889764,1.889764 0 0 1 1.8898,-1.88977 h 49.1338 a 1.889764,1.889764 0 0 1 1.8898,1.88977 z"
         style="fill:none;stroke:#000000"
         id="path534" />
      <path
         d="m -821.94331,713.47276 v 49.13385 a 1.889764,1.889764 0 0 1 -1.88976,1.88977 h -49.13386 a 1.889764,1.889764 0 0 1 -1.88976,-1.88977 v -49.13385 a 1.889764,1.889764 0 0 1 1.88976,-1.88977 h 49.13386 a 1.889764,1.889764 0 0 1 1.88976,1.88977 z"
         style="fill:none;stroke:#000000"
         id="path536" />
      <path
         d="m -26.966929,711.58299 h 49.133858 a 1.889764,1.889764 0 0 1 1.889764,1.88977 v 49.13385 a 1.889764,1.889764 0 0 1 -1.889764,1.88977 h -49.133858 a 1.889764,1.889764 0 0 1 -1.889764,-1.88977 v -49.13385 a 1.889764,1.889764 0 0 1 1.889764,-1.88977 z"
         style="fill:none;stroke:#000000"
         id="path538" />
      <path
         d="m -98.966929,783.58299 h 49.133858 a 1.889764,1.889764 0 0 1 1.889764,1.88977 v 49.13385 a 1.889764,1.889764 0 0 1 -1.889764,1.88977 h -49.133858 a 1.889764,1.889764 0 0 1 -1.889761,-1.88977 v -49.13385 a 1.889764,1.889764 0 0 1 1.889761,-1.88977 z"
         style="fill:none;stroke:#000000"
         id="path540" />
      <path
         d="m -211.83307,621.58299 a 1.889764,1.889764 0 0 1 1.88976,1.88977 v 49.13385 a 1.889764,1.889764 0 0 1 -1.88976,1.88977 h -49.13386 a 1.889764,1.889764 0 0 1 -1.88976,-1.88977 v -49.13385 a 1.889764,1.889764 0 0 1 1.88976,-1.88977 z"
         style="fill:none;stroke:#000000"
         id="path542" />
      <path
         d="m -26.966929,620.49638 h 49.133858 a 1.889764,1.889764 0 0 0 1.889764,-1.88977 v -49.13385 a 1.889764,1.889764 0 0 0 -1.889764,-1.88977 h -49.133858 a 1.889764,1.889764 0 0 0 -1.889764,1.88977 v 49.13385 a 1.889764,1.889764 0 0 0 1.889764,1.88977 z"
         style="fill:none;stroke:#000000"
         id="path544" />
      <path
         d="m -1016.9669,764.49638 h 49.13383 a 1.889764,1.889764 0 0 0 1.88976,-1.88977 v -49.13385 a 1.889764,1.889764 0 0 0 -1.88976,-1.88977 h -49.13383 a 1.889764,1.889764 0 0 0 -1.8898,1.88977 v 49.13385 a 1.889764,1.889764 0 0 0 1.8898,1.88977 z"
         style="fill:none;stroke:#000000"
         id="path546" />
      <path
         d="m -121.83307,783.58299 a 1.889764,1.889764 0 0 1 1.88976,1.88977 v 49.13385 a 1.889764,1.889764 0 0 1 -1.88976,1.88977 h -49.13386 a 1.889764,1.889764 0 0 1 -1.88976,-1.88977 v -49.13385 a 1.889764,1.889764 0 0 1 1.88976,-1.88977 z"
         style="fill:none;stroke:#000000"
         id="path548" />
      <path
         d="m -442.85669,569.47276 a 1.889764,1.889764 0 0 1 1.88976,-1.88977 h 49.13386 a 1.889764,1.889764 0 0 1 1.88976,1.88977 v 49.13385 a 1.889764,1.889764 0 0 1 -1.88976,1.88977 h -49.13386 a 1.889764,1.889764 0 0 1 -1.88976,-1.88977 z"
         style="fill:none;stroke:#000000"
         id="path550" />
      <path
         d="m -376.33701,569.47276 a 1.889764,1.889764 0 0 1 1.88977,-1.88977 h 3.77952 a 1.889764,1.889764 0 0 1 1.88977,1.88977 v 49.13385 a 1.889764,1.889764 0 0 1 -1.88977,1.88977 h -3.77952 a 1.889764,1.889764 0 0 1 -1.88977,-1.88977 z"
         style="fill:none;stroke:#000000"
         id="path552" />
      <path
         d="m -209.94331,834.60661 a 1.889764,1.889764 0 0 1 -1.88976,1.88977 h -49.13386 a 1.889764,1.889764 0 0 1 -1.88976,-1.88977 v -49.13385 a 1.889764,1.889764 0 0 1 1.88976,-1.88977 h 49.13386 a 1.889764,1.889764 0 0 1 1.88976,1.88977 z"
         style="fill:none;stroke:#000000"
         id="path554" />
      <path
         d="m -458.35276,567.58299 a 1.889764,1.889764 0 0 1 1.88977,1.88977 v 49.13385 a 1.889764,1.889764 0 0 1 -1.88977,1.88977 h -3.77952 a 1.889764,1.889764 0 0 1 -1.88977,-1.88977 v -49.13385 a 1.889764,1.889764 0 0 1 1.88977,-1.88977 z"
         style="fill:none;stroke:#000000"
         id="path556" />
      <path
         d="m -634.83307,567.58299 a 1.889764,1.889764 0 0 1 1.88976,1.88977 v 49.13385 a 1.889764,1.889764 0 0 1 -1.88976,1.88977 h -49.13386 a 1.889764,1.889764 0 0 1 -1.88976,-1.88977 v -49.13385 a 1.889764,1.889764 0 0 1 1.88976,-1.88977 z"
         style="fill:none;stroke:#000000"
         id="path558" />
      <path
         d="m -717.74835,573.25228 a 1.889764,1.889764 0 0 1 1.88977,-1.88976 h 22.67716 a 1.889764,1.889764 0 0 1 1.88977,1.88976 v 52.91339 a 1.889764,1.889764 0 0 1 -1.88977,1.88976 h -22.67716 a 1.889764,1.889764 0 0 1 -1.88977,-1.88976 z"
         style="fill:none;stroke:#000000"
         id="path560" />
      <path
         d="m -627.50835,626.16567 v -52.91339 a 1.889764,1.889764 0 0 1 1.88977,-1.88976 h 22.67716 a 1.889764,1.889764 0 0 1 1.88977,1.88976 v 52.91339 a 1.889764,1.889764 0 0 1 -1.88977,1.88976 h -22.67716 a 1.889764,1.889764 0 0 1 -1.88977,-1.88976 z"
         style="fill:none;stroke:#000000"
         id="path562" />
      <path
         d="m -352.85669,785.47276 a 1.889764,1.889764 0 0 1 1.88976,-1.88977 h 49.13386 a 1.889764,1.889764 0 0 1 1.88976,1.88977 v 49.13385 a 1.889764,1.889764 0 0 1 -1.88976,1.88977 h -49.13386 a 1.889764,1.889764 0 0 1 -1.88976,-1.88977 z"
         style="fill:none;stroke:#000000"
         id="path564" />
      <path
         d="m -710.96693,836.49638 a 1.889764,1.889764 0 0 1 -1.88976,-1.88977 v -49.13385 a 1.889764,1.889764 0 0 1 1.88976,-1.88977 h 49.13386 a 1.889764,1.889764 0 0 1 1.88976,1.88977 v 49.13385 a 1.889764,1.889764 0 0 1 -1.88976,1.88977 z"
         style="fill:none;stroke:#000000"
         id="path566" />
      <path
         d="m -422.96693,783.58299 h 49.13386 a 1.889764,1.889764 0 0 1 1.88976,1.88977 v 49.13385 a 1.889764,1.889764 0 0 1 -1.88976,1.88977 h -49.13386 a 1.889764,1.889764 0 0 1 -1.88976,-1.88977 v -49.13385 a 1.889764,1.889764 0 0 1 1.88976,-1.88977 z"
         style="fill:none;stroke:#000000"
         id="path568" />
      <path
         d="m -476.96693,639.58299 h 49.13386 a 1.889764,1.889764 0 0 1 1.88976,1.88977 v 49.13385 a 1.889764,1.889764 0 0 1 -1.88976,1.88977 h -49.13386 a 1.889764,1.889764 0 0 1 -1.88976,-1.88977 v -49.13385 a 1.889764,1.889764 0 0 1 1.88976,-1.88977 z"
         style="fill:none;stroke:#000000"
         id="path570" />
      <path
         d="m -550.85669,641.47276 a 1.889764,1.889764 0 0 1 1.88976,-1.88977 h 49.13386 a 1.889764,1.889764 0 0 1 1.88976,1.88977 v 49.13385 a 1.889764,1.889764 0 0 1 -1.88976,1.88977 h -49.13386 a 1.889764,1.889764 0 0 1 -1.88976,-1.88977 z"
         style="fill:none;stroke:#000000"
         id="path572" />
      <path
         d="m -873.18142,628.05543 h -22.67716 a 1.889764,1.889764 0 0 1 -1.88977,-1.88976 v -52.91339 a 1.889764,1.889764 0 0 1 1.88977,-1.88976 h 22.67716 a 1.889764,1.889764 0 0 1 1.88977,1.88976 v 52.91339 a 1.889764,1.889764 0 0 1 -1.88977,1.88976 z"
         style="fill:none;stroke:#000000"
         id="path574" />
      <path
         d="m -782.94142,628.05543 h -22.67716 a 1.889764,1.889764 0 0 1 -1.88977,-1.88976 v -52.91339 a 1.889764,1.889764 0 0 1 1.88977,-1.88976 h 22.67716 a 1.889764,1.889764 0 0 1 1.88977,1.88976 v 52.91339 a 1.889764,1.889764 0 0 1 -1.88977,1.88976 z"
         style="fill:none;stroke:#000000"
         id="path576" />
      <path
         d="m -766.64409,618.60661 v -49.13385 a 1.889764,1.889764 0 0 0 -1.88977,-1.88977 h -3.77953 a 1.889764,1.889764 0 0 0 -1.88976,1.88977 v 49.13385 a 1.889764,1.889764 0 0 0 1.88976,1.88977 h 3.77953 a 1.889764,1.889764 0 0 0 1.88977,-1.88977 z"
         style="fill:none;stroke:#000000"
         id="path578" />
      <path
         d="m -912.15591,618.60661 v -49.13385 a 1.889764,1.889764 0 0 1 1.88977,-1.88977 h 3.77953 a 1.889764,1.889764 0 0 1 1.88976,1.88977 v 49.13385 a 1.889764,1.889764 0 0 1 -1.88976,1.88977 h -3.77953 a 1.889764,1.889764 0 0 1 -1.88977,-1.88977 z"
         style="fill:none;stroke:#000000"
         id="path580" />
      <path
         d="m -49.833071,639.58299 a 1.889764,1.889764 0 0 1 1.889764,1.88977 v 49.13385 a 1.889764,1.889764 0 0 1 -1.889764,1.88977 h -49.133858 a 1.889764,1.889764 0 0 1 -1.889761,-1.88977 v -49.13385 a 1.889764,1.889764 0 0 1 1.889761,-1.88977 z"
         style="fill:none;stroke:#000000"
         id="path582" />
      <path
         d="m -1090.8567,713.47276 v 49.13385 a 1.889764,1.889764 0 0 0 1.8898,1.88977 h 49.1338 a 1.889764,1.889764 0 0 0 1.8898,-1.88977 v -49.13385 a 1.889764,1.889764 0 0 0 -1.8898,-1.88977 h -49.1338 a 1.889764,1.889764 0 0 0 -1.8898,1.88977 z"
         style="fill:none;stroke:#000000"
         id="path584" />
      <path
         d="m -283.83307,549.58299 a 1.889764,1.889764 0 0 1 1.88976,1.88977 v 49.13385 a 1.889764,1.889764 0 0 1 -1.88976,1.88977 h -49.13386 a 1.889764,1.889764 0 0 1 -1.88976,-1.88977 v -49.13385 a 1.889764,1.889764 0 0 1 1.88976,-1.88977 z"
         style="fill:none;stroke:#000000"
         id="path586" />
      <path
         d="m -262.85669,551.47276 a 1.889764,1.889764 0 0 1 1.88976,-1.88977 h 49.13386 a 1.889764,1.889764 0 0 1 1.88976,1.88977 v 49.13385 a 1.889764,1.889764 0 0 1 -1.88976,1.88977 h -49.13386 a 1.889764,1.889764 0 0 1 -1.88976,-1.88977 z"
         style="fill:none;stroke:#000000"
         id="path588" />
      <path
         d="m -730.85669,713.47276 v 49.13385 a 1.889764,1.889764 0 0 0 1.88976,1.88977 h 49.13386 a 1.889764,1.889764 0 0 0 1.88976,-1.88977 v -49.13385 a 1.889764,1.889764 0 0 0 -1.88976,-1.88977 h -49.13386 a 1.889764,1.889764 0 0 0 -1.88976,1.88977 z"
         style="fill:none;stroke:#000000"
         id="path590" />
      <path
         d="m -1163.9433,834.60661 a 1.889764,1.889764 0 0 1 -1.8898,1.88977 h -49.1338 a 1.889764,1.889764 0 0 1 -1.8898,-1.88977 v -49.13385 a 1.889764,1.889764 0 0 1 1.8898,-1.88977 h 49.1338 a 1.889764,1.889764 0 0 1 1.8898,1.88977 z"
         style="fill:none;stroke:#000000"
         id="path592" />
      <path
         d="m -875.94331,785.47276 v 49.13385 a 1.889764,1.889764 0 0 1 -1.88976,1.88977 h -49.13386 a 1.889764,1.889764 0 0 1 -1.88976,-1.88977 v -49.13385 a 1.889764,1.889764 0 0 1 1.88976,-1.88977 h 49.13386 a 1.889764,1.889764 0 0 1 1.88976,1.88977 z"
         style="fill:none;stroke:#000000"
         id="path594" />
      <path
         d="m -514.85669,713.47276 v 49.13385 a 1.889764,1.889764 0 0 0 1.88976,1.88977 h 49.13386 a 1.889764,1.889764 0 0 0 1.88976,-1.88977 v -49.13385 a 1.889764,1.889764 0 0 0 -1.88976,-1.88977 h -49.13386 a 1.889764,1.889764 0 0 0 -1.88976,1.88977 z"
         style="fill:none;stroke:#000000"
         id="path596" />
      <path
         d="m -1072.8567,785.47276 a 1.889764,1.889764 0 0 1 1.8898,-1.88977 h 49.1338 a 1.889764,1.889764 0 0 1 1.8898,1.88977 v 49.13385 a 1.889764,1.889764 0 0 1 -1.8898,1.88977 h -49.1338 a 1.889764,1.889764 0 0 1 -1.8898,-1.88977 z"
         style="fill:none;stroke:#000000"
         id="path598" />
      <path
         d="m -1203.463,713.47276 v 49.13385 a 1.889764,1.889764 0 0 1 -1.8898,1.88977 h -3.7795 a 1.889764,1.889764 0 0 1 -1.8897,-1.88977 v -49.13385 a 1.889764,1.889764 0 0 1 1.8897,-1.88977 h 3.7795 a 1.889764,1.889764 0 0 1 1.8898,1.88977 z"
         style="fill:none;stroke:#000000"
         id="path600" />
      <path
         d="m -944.96693,764.49638 h 49.13386 a 1.889764,1.889764 0 0 0 1.88976,-1.88977 v -49.13385 a 1.889764,1.889764 0 0 0 -1.88976,-1.88977 h -49.13386 a 1.889764,1.889764 0 0 0 -1.88976,1.88977 v 49.13385 a 1.889764,1.889764 0 0 0 1.88976,1.88977 z"
         style="fill:none;stroke:#000000"
         id="path602" />
      <path
         d="m -1187.9669,764.49638 h 49.1338 a 1.889764,1.889764 0 0 0 1.8898,-1.88977 v -49.13385 a 1.889764,1.889764 0 0 0 -1.8898,-1.88977 h -49.1338 a 1.889764,1.889764 0 0 0 -1.8898,1.88977 v 49.13385 a 1.889764,1.889764 0 0 0 1.8898,1.88977 z"
         style="fill:none;stroke:#000000"
         id="path604" />
      <path
         d="m -751.83307,711.58299 a 1.889764,1.889764 0 0 1 1.88976,1.88977 v 49.13385 a 1.889764,1.889764 0 0 1 -1.88976,1.88977 h -49.13386 a 1.889764,1.889764 0 0 1 -1.88976,-1.88977 v -49.13385 a 1.889764,1.889764 0 0 1 1.88976,-1.88977 z"
         style="fill:none;stroke:#000000"
         id="path606" />
      <path
         d="m -391.83307,711.58299 a 1.889764,1.889764 0 0 1 1.88976,1.88977 v 49.13385 a 1.889764,1.889764 0 0 1 -1.88976,1.88977 h -49.13386 a 1.889764,1.889764 0 0 1 -1.88976,-1.88977 v -49.13385 a 1.889764,1.889764 0 0 1 1.88976,-1.88977 z"
         style="fill:none;stroke:#000000"
         id="path608" />
      <path
         d="m -1207.8567,641.47276 a 1.889764,1.889764 0 0 1 1.8898,-1.88977 h 49.1338 a 1.889764,1.889764 0 0 1 1.8898,1.88977 v 49.13385 a 1.889764,1.889764 0 0 1 -1.8898,1.88977 h -49.1338 a 1.889764,1.889764 0 0 1 -1.8898,-1.88977 z"
         style="fill:none;stroke:#000000"
         id="path610" />
      <path
         d="m -1075.8331,639.58299 a 1.889764,1.889764 0 0 1 1.8898,1.88977 v 49.13385 a 1.889764,1.889764 0 0 1 -1.8898,1.88977 h -49.1338 a 1.889764,1.889764 0 0 1 -1.8898,-1.88977 v -49.13385 a 1.889764,1.889764 0 0 1 1.8898,-1.88977 z"
         style="fill:none;stroke:#000000"
         id="path612" />
      <path
         d="m -515.94331,834.60661 a 1.889764,1.889764 0 0 1 -1.88976,1.88977 h -49.13386 a 1.889764,1.889764 0 0 1 -1.88976,-1.88977 v -49.13385 a 1.889764,1.889764 0 0 1 1.88976,-1.88977 h 49.13386 a 1.889764,1.889764 0 0 1 1.88976,1.88977 z"
         style="fill:none;stroke:#000000"
         id="path614" />
      <path
         d="m -1115.9669,620.49638 a 1.889764,1.889764 0 0 1 -1.8898,-1.88977 v -49.13385 a 1.889764,1.889764 0 0 1 1.8898,-1.88977 h 49.1338 a 1.889764,1.889764 0 0 1 1.8898,1.88977 v 49.13385 a 1.889764,1.889764 0 0 1 -1.8898,1.88977 z"
         style="fill:none;stroke:#000000"
         id="path616" />
      <path
         d="m -1154.9433,569.47276 v 49.13385 a 1.889764,1.889764 0 0 1 -1.8898,1.88977 h -49.1338 a 1.889764,1.889764 0 0 1 -1.8898,-1.88977 v -49.13385 a 1.889764,1.889764 0 0 1 1.8898,-1.88977 h 49.1338 a 1.889764,1.889764 0 0 1 1.8898,1.88977 z"
         style="fill:none;stroke:#000000"
         id="path618" />
      <path
         d="m -952.33701,569.47276 v 49.13385 a 1.889764,1.889764 0 0 0 1.88977,1.88977 h 3.77952 a 1.889764,1.889764 0 0 0 1.88977,-1.88977 v -49.13385 a 1.889764,1.889764 0 0 0 -1.88977,-1.88977 h -3.77952 a 1.889764,1.889764 0 0 0 -1.88977,1.88977 z"
         style="fill:none;stroke:#000000"
         id="path620" />
      <path
         d="m -494.96693,836.49638 h 49.13386 a 1.889764,1.889764 0 0 0 1.88976,-1.88977 v -49.13385 a 1.889764,1.889764 0 0 0 -1.88976,-1.88977 h -49.13386 a 1.889764,1.889764 0 0 0 -1.88976,1.88977 v 49.13385 a 1.889764,1.889764 0 0 0 1.88976,1.88977 z"
         style="fill:none;stroke:#000000"
         id="path622" />
      <path
         d="m -640.85669,785.47276 v 49.13385 a 1.889764,1.889764 0 0 0 1.88976,1.88977 h 49.13386 a 1.889764,1.889764 0 0 0 1.88976,-1.88977 v -49.13385 a 1.889764,1.889764 0 0 0 -1.88976,-1.88977 h -49.13386 a 1.889764,1.889764 0 0 0 -1.88976,1.88977 z"
         style="fill:none;stroke:#000000"
         id="path624" />
      <path
         d="m -190.85669,551.47276 v 49.13385 a 1.889764,1.889764 0 0 0 1.88976,1.88977 h 49.13386 a 1.889764,1.889764 0 0 0 1.88976,-1.88977 v -49.13385 a 1.889764,1.889764 0 0 0 -1.88976,-1.88977 h -49.13386 a 1.889764,1.889764 0 0 0 -1.88976,1.88977 z"
         style="fill:none;stroke:#000000"
         id="path626" />
      <path
         d="m -859.83307,639.58299 a 1.889764,1.889764 0 0 1 1.88976,1.88977 v 49.13385 a 1.889764,1.889764 0 0 1 -1.88976,1.88977 h -49.13386 a 1.889764,1.889764 0 0 1 -1.88976,-1.88977 v -49.13385 a 1.889764,1.889764 0 0 1 1.88976,-1.88977 z"
         style="fill:none;stroke:#000000"
         id="path628" />
      <path
         d="m -785.94331,641.47276 v 49.13385 a 1.889764,1.889764 0 0 1 -1.88976,1.88977 h -49.13386 a 1.889764,1.889764 0 0 1 -1.88976,-1.88977 v -49.13385 a 1.889764,1.889764 0 0 1 1.88976,-1.88977 h 49.13386 a 1.889764,1.889764 0 0 1 1.88976,1.88977 z"
         style="fill:none;stroke:#000000"
         id="path630" />
      <path
         d="m -982.85669,641.47276 v 49.13385 a 1.889764,1.889764 0 0 0 1.88976,1.88977 h 49.13386 a 1.889764,1.889764 0 0 0 1.88976,-1.88977 v -49.13385 a 1.889764,1.889764 0 0 0 -1.88976,-1.88977 h -49.13386 a 1.889764,1.889764 0 0 0 -1.88976,1.88977 z"
         style="fill:none;stroke:#000000"
         id="path632" />
      <path
         d="m -1052.9669,692.49638 h 49.1338 a 1.889764,1.889764 0 0 0 1.8898,-1.88977 v -49.13385 a 1.889764,1.889764 0 0 0 -1.8898,-1.88977 h -49.1338 a 1.889764,1.889764 0 0 0 -1.8898,1.88977 v 49.13385 a 1.889764,1.889764 0 0 0 1.8898,1.88977 z"
         style="fill:none;stroke:#000000"
         id="path634" />
      <path
         d="m -1016.9669,567.58299 h 49.13383 a 1.889764,1.889764 0 0 1 1.88976,1.88977 v 49.13385 a 1.889764,1.889764 0 0 1 -1.88976,1.88977 h -49.13383 a 1.889764,1.889764 0 0 1 -1.8898,-1.88977 v -49.13385 a 1.889764,1.889764 0 0 1 1.8898,-1.88977 z"
         style="fill:none;stroke:#000000"
         id="path636" />
      <path
         d="m -1032.463,618.60661 a 1.889764,1.889764 0 0 1 -1.8898,1.88977 h -3.7795 a 1.889764,1.889764 0 0 1 -1.8897,-1.88977 v -49.13385 a 1.889764,1.889764 0 0 1 1.8897,-1.88977 h 3.7795 a 1.889764,1.889764 0 0 1 1.8898,1.88977 z"
         style="fill:none;stroke:#000000"
         id="path638" />
      <path
         d="m -782.96693,783.58299 h 49.13386 a 1.889764,1.889764 0 0 1 1.88976,1.88977 v 49.13385 a 1.889764,1.889764 0 0 1 -1.88976,1.88977 h -49.13386 a 1.889764,1.889764 0 0 1 -1.88976,-1.88977 v -49.13385 a 1.889764,1.889764 0 0 1 1.88976,-1.88977 z"
         style="fill:none;stroke:#000000"
         id="path640" />
      <path
         d="m -119.94331,713.47276 v 49.13385 a 1.889764,1.889764 0 0 1 -1.88976,1.88977 h -49.13386 a 1.889764,1.889764 0 0 1 -1.88976,-1.88977 v -49.13385 a 1.889764,1.889764 0 0 1 1.88976,-1.88977 h 49.13386 a 1.889764,1.889764 0 0 1 1.88976,1.88977 z"
         style="fill:none;stroke:#000000"
         id="path642" />
      <path
         d="m -308.94331,713.47276 v 49.13385 a 1.889764,1.889764 0 0 1 -1.88976,1.88977 h -49.13386 a 1.889764,1.889764 0 0 1 -1.88976,-1.88977 v -49.13385 a 1.889764,1.889764 0 0 1 1.88976,-1.88977 h 49.13386 a 1.889764,1.889764 0 0 1 1.88976,1.88977 z"
         style="fill:none;stroke:#000000"
         id="path644" />
      <path
         d="m -98.966929,620.49638 h 49.133858 a 1.889764,1.889764 0 0 0 1.889764,-1.88977 v -49.13385 a 1.889764,1.889764 0 0 0 -1.889764,-1.88977 h -49.133858 a 1.889764,1.889764 0 0 0 -1.889761,1.88977 v 49.13385 a 1.889764,1.889764 0 0 0 1.889761,1.88977 z"
         style="fill:none;stroke:#000000"
         id="path646" />
      <path
         d="m -586.64409,618.60661 v -49.13385 a 1.889764,1.889764 0 0 0 -1.88977,-1.88977 h -3.77953 a 1.889764,1.889764 0 0 0 -1.88976,1.88977 v 49.13385 a 1.889764,1.889764 0 0 0 1.88976,1.88977 h 3.77953 a 1.889764,1.889764 0 0 0 1.88977,-1.88977 z"
         style="fill:none;stroke:#000000"
         id="path648" />
      <path
         d="m 33.6,535.98159 v 313.92016 h -76.299213 v 18.89764 H -360.17953 v -18.89764 h -77.48031 v 18.89764 h -317.48032 v -18.89764 h -77.48031 v 18.89764 H -1150.1008 V 849.90175 H -1226.4 V 535.98159 h 76.2992 v -18.89764 h 317.48033 v 18.89764 h 77.48031 v -18.89764 h 317.48032 v 18.89764 h 77.48031 v -18.89764 h 317.480317 v 18.89764 z"
         style="fill:none;stroke:#000000"
         id="path650" />
      <path
         d="m -2.4,836.49638 v -26.4567"
         style="fill:none;stroke:#000000"
         id="path652" />
      <path
         d="M -2.4,810.03968 H -28.856693"
         style="fill:none;stroke:#000000"
         id="path654" />
    </g>
  </g>
</svg>
