<?xml version="1.0" encoding="UTF-8" standalone="no"?>
<svg
   xmlns:dc="http://purl.org/dc/elements/1.1/"
   xmlns:cc="http://creativecommons.org/ns#"
   xmlns:rdf="http://www.w3.org/1999/02/22-rdf-syntax-ns#"
   xmlns:svg="http://www.w3.org/2000/svg"
   xmlns="http://www.w3.org/2000/svg"
   xmlns:sodipodi="http://sodipodi.sourceforge.net/DTD/sodipodi-0.dtd"
   xmlns:inkscape="http://www.inkscape.org/namespaces/inkscape"
   width="210mm"
   height="297mm"
   viewBox="0 0 210 297"
   version="1.1"
   id="svg8"
   inkscape:version="1.0 (4035a4f, 2020-05-01)"
   sodipodi:docname="reverie_drawing.svg">
  <defs
     id="defs2">
    <marker
       style="overflow:visible"
       refY="0.0"
       refX="0.0"
       orient="auto"
       id="DistanceX">
      <path
         id="path28"
         style="stroke:#000000; stroke-width:0.5"
         d="M 3,-3 L -3,3 M 0,-5 L  0,5" />
    </marker>
    <pattern
       y="0"
       x="0"
       height="8"
       width="8"
       patternUnits="userSpaceOnUse"
       id="Hatch">
      <path
         id="path31"
         linecap="square"
         stroke-width="0.25"
         stroke="#000000"
         d="M8 4 l-4,4" />
      <path
         id="path33"
         linecap="square"
         stroke-width="0.25"
         stroke="#000000"
         d="M6 2 l-4,4" />
      <path
         id="path35"
         linecap="square"
         stroke-width="0.25"
         stroke="#000000"
         d="M4 0 l-4,4" />
    </pattern>
    <symbol
       id="*MODEL_SPACE" />
    <symbol
       id="*PAPER_SPACE" />
    <marker
       style="overflow:visible"
       refY="0.0"
       refX="0.0"
       orient="auto"
       id="DistanceX-9">
      <path
         id="path100"
         style="stroke:#000000; stroke-width:0.5"
         d="M 3,-3 L -3,3 M 0,-5 L  0,5" />
    </marker>
    <pattern
       y="0"
       x="0"
       height="8"
       width="8"
       patternUnits="userSpaceOnUse"
       id="Hatch-0">
      <path
         id="path103"
         linecap="square"
         stroke-width="0.25"
         stroke="#000000"
         d="M8 4 l-4,4" />
      <path
         id="path105"
         linecap="square"
         stroke-width="0.25"
         stroke="#000000"
         d="M6 2 l-4,4" />
      <path
         id="path107"
         linecap="square"
         stroke-width="0.25"
         stroke="#000000"
         d="M4 0 l-4,4" />
    </pattern>
    <symbol
       id="*MODEL_SPACE-5" />
    <symbol
       id="*PAPER_SPACE-2" />
    <marker
       style="overflow:visible"
       refY="0.0"
       refX="0.0"
       orient="auto"
       id="DistanceX-2">
      <path
         id="path172"
         style="stroke:#000000; stroke-width:0.5"
         d="M 3,-3 L -3,3 M 0,-5 L  0,5" />
    </marker>
    <pattern
       y="0"
       x="0"
       height="8"
       width="8"
       patternUnits="userSpaceOnUse"
       id="Hatch-7">
      <path
         id="path175"
         linecap="square"
         stroke-width="0.25"
         stroke="#000000"
         d="M8 4 l-4,4" />
      <path
         id="path177"
         linecap="square"
         stroke-width="0.25"
         stroke="#000000"
         d="M6 2 l-4,4" />
      <path
         id="path179"
         linecap="square"
         stroke-width="0.25"
         stroke="#000000"
         d="M4 0 l-4,4" />
    </pattern>
    <symbol
       id="*MODEL_SPACE-3" />
    <symbol
       id="*PAPER_SPACE-7" />
    <marker
       style="overflow:visible"
       refY="0.0"
       refX="0.0"
       orient="auto"
       id="DistanceX-90">
      <path
         id="path235"
         style="stroke:#000000; stroke-width:0.5"
         d="M 3,-3 L -3,3 M 0,-5 L  0,5" />
    </marker>
    <pattern
       y="0"
       x="0"
       height="8"
       width="8"
       patternUnits="userSpaceOnUse"
       id="Hatch-2">
      <path
         id="path238"
         linecap="square"
         stroke-width="0.25"
         stroke="#000000"
         d="M8 4 l-4,4" />
      <path
         id="path240"
         linecap="square"
         stroke-width="0.25"
         stroke="#000000"
         d="M6 2 l-4,4" />
      <path
         id="path242"
         linecap="square"
         stroke-width="0.25"
         stroke="#000000"
         d="M4 0 l-4,4" />
    </pattern>
    <symbol
       id="*MODEL_SPACE-39" />
    <symbol
       id="*PAPER_SPACE-9" />
    <marker
       style="overflow:visible"
       refY="0.0"
       refX="0.0"
       orient="auto"
       id="DistanceX-7">
      <path
         id="path298"
         style="stroke:#000000; stroke-width:0.5"
         d="M 3,-3 L -3,3 M 0,-5 L  0,5" />
    </marker>
    <pattern
       y="0"
       x="0"
       height="8"
       width="8"
       patternUnits="userSpaceOnUse"
       id="Hatch-03">
      <path
         id="path301"
         linecap="square"
         stroke-width="0.25"
         stroke="#000000"
         d="M8 4 l-4,4" />
      <path
         id="path303"
         linecap="square"
         stroke-width="0.25"
         stroke="#000000"
         d="M6 2 l-4,4" />
      <path
         id="path305"
         linecap="square"
         stroke-width="0.25"
         stroke="#000000"
         d="M4 0 l-4,4" />
    </pattern>
    <symbol
       id="*MODEL_SPACE-9" />
    <symbol
       id="*PAPER_SPACE-8" />
    <marker
       style="overflow:visible"
       refY="0.0"
       refX="0.0"
       orient="auto"
       id="DistanceX-6">
      <path
         id="path358"
         style="stroke:#000000; stroke-width:0.5"
         d="M 3,-3 L -3,3 M 0,-5 L  0,5" />
    </marker>
    <pattern
       y="0"
       x="0"
       height="8"
       width="8"
       patternUnits="userSpaceOnUse"
       id="Hatch-5">
      <path
         id="path361"
         linecap="square"
         stroke-width="0.25"
         stroke="#000000"
         d="M8 4 l-4,4" />
      <path
         id="path363"
         linecap="square"
         stroke-width="0.25"
         stroke="#000000"
         d="M6 2 l-4,4" />
      <path
         id="path365"
         linecap="square"
         stroke-width="0.25"
         stroke="#000000"
         d="M4 0 l-4,4" />
    </pattern>
    <symbol
       id="*MODEL_SPACE-7" />
    <symbol
       id="*PAPER_SPACE-6" />
    <marker
       style="overflow:visible"
       refY="0.0"
       refX="0.0"
       orient="auto"
       id="DistanceX-27">
      <path
         id="path418"
         style="stroke:#000000; stroke-width:0.5"
         d="M 3,-3 L -3,3 M 0,-5 L  0,5" />
    </marker>
    <pattern
       y="0"
       x="0"
       height="8"
       width="8"
       patternUnits="userSpaceOnUse"
       id="Hatch-039">
      <path
         id="path421"
         linecap="square"
         stroke-width="0.25"
         stroke="#000000"
         d="M8 4 l-4,4" />
      <path
         id="path423"
         linecap="square"
         stroke-width="0.25"
         stroke="#000000"
         d="M6 2 l-4,4" />
      <path
         id="path425"
         linecap="square"
         stroke-width="0.25"
         stroke="#000000"
         d="M4 0 l-4,4" />
    </pattern>
    <symbol
       id="*MODEL_SPACE-99" />
    <symbol
       id="*PAPER_SPACE-1" />
    <marker
       style="overflow:visible"
       refY="0.0"
       refX="0.0"
       orient="auto"
       id="DistanceX-72">
      <path
         id="path478"
         style="stroke:#000000; stroke-width:0.5"
         d="M 3,-3 L -3,3 M 0,-5 L  0,5" />
    </marker>
    <pattern
       y="0"
       x="0"
       height="8"
       width="8"
       patternUnits="userSpaceOnUse"
       id="Hatch-3">
      <path
         id="path481"
         linecap="square"
         stroke-width="0.25"
         stroke="#000000"
         d="M8 4 l-4,4" />
      <path
         id="path483"
         linecap="square"
         stroke-width="0.25"
         stroke="#000000"
         d="M6 2 l-4,4" />
      <path
         id="path485"
         linecap="square"
         stroke-width="0.25"
         stroke="#000000"
         d="M4 0 l-4,4" />
    </pattern>
    <symbol
       id="*MODEL_SPACE-6" />
    <symbol
       id="*PAPER_SPACE-5" />
    <marker
       id="DistanceX-70"
       orient="auto"
       refX="0.0"
       refY="0.0"
       style="overflow:visible">
      <path
         d="M 3,-3 L -3,3 M 0,-5 L  0,5"
         style="stroke:#000000; stroke-width:0.5"
         id="path260" />
    </marker>
    <pattern
       id="Hatch-39"
       patternUnits="userSpaceOnUse"
       width="8"
       height="8"
       x="0"
       y="0">
      <path
         d="M8 4 l-4,4"
         stroke="#000000"
         stroke-width="0.25"
         linecap="square"
         id="path263" />
      <path
         d="M6 2 l-4,4"
         stroke="#000000"
         stroke-width="0.25"
         linecap="square"
         id="path265" />
      <path
         d="M4 0 l-4,4"
         stroke="#000000"
         stroke-width="0.25"
         linecap="square"
         id="path267" />
    </pattern>
    <symbol
       id="*MODEL_SPACE-8" />
    <symbol
       id="*PAPER_SPACE-65" />
    <marker
       id="DistanceX-62"
       orient="auto"
       refX="0.0"
       refY="0.0"
       style="overflow:visible">
      <path
         d="M 3,-3 L -3,3 M 0,-5 L  0,5"
         style="stroke:#000000; stroke-width:0.5"
         id="path332" />
    </marker>
    <pattern
       id="Hatch-70"
       patternUnits="userSpaceOnUse"
       width="8"
       height="8"
       x="0"
       y="0">
      <path
         d="M8 4 l-4,4"
         stroke="#000000"
         stroke-width="0.25"
         linecap="square"
         id="path335" />
      <path
         d="M6 2 l-4,4"
         stroke="#000000"
         stroke-width="0.25"
         linecap="square"
         id="path337" />
      <path
         d="M4 0 l-4,4"
         stroke="#000000"
         stroke-width="0.25"
         linecap="square"
         id="path339" />
    </pattern>
    <symbol
       id="*MODEL_SPACE-399" />
    <symbol
       id="*PAPER_SPACE-91" />
    <marker
       id="DistanceX-23"
       orient="auto"
       refX="0.0"
       refY="0.0"
       style="overflow:visible">
      <path
         d="M 3,-3 L -3,3 M 0,-5 L  0,5"
         style="stroke:#000000; stroke-width:0.5"
         id="path404" />
    </marker>
    <pattern
       id="Hatch-6"
       patternUnits="userSpaceOnUse"
       width="8"
       height="8"
       x="0"
       y="0">
      <path
         d="M8 4 l-4,4"
         stroke="#000000"
         stroke-width="0.25"
         linecap="square"
         id="path407" />
      <path
         d="M6 2 l-4,4"
         stroke="#000000"
         stroke-width="0.25"
         linecap="square"
         id="path409" />
      <path
         d="M4 0 l-4,4"
         stroke="#000000"
         stroke-width="0.25"
         linecap="square"
         id="path411" />
    </pattern>
    <symbol
       id="*MODEL_SPACE-55" />
    <symbol
       id="*PAPER_SPACE-81" />
    <marker
       id="DistanceX-71"
       orient="auto"
       refX="0.0"
       refY="0.0"
       style="overflow:visible">
      <path
         d="M 3,-3 L -3,3 M 0,-5 L  0,5"
         style="stroke:#000000; stroke-width:0.5"
         id="path467" />
    </marker>
    <pattern
       id="Hatch-38"
       patternUnits="userSpaceOnUse"
       width="8"
       height="8"
       x="0"
       y="0">
      <path
         d="M8 4 l-4,4"
         stroke="#000000"
         stroke-width="0.25"
         linecap="square"
         id="path470" />
      <path
         d="M6 2 l-4,4"
         stroke="#000000"
         stroke-width="0.25"
         linecap="square"
         id="path472" />
      <path
         d="M4 0 l-4,4"
         stroke="#000000"
         stroke-width="0.25"
         linecap="square"
         id="path474" />
    </pattern>
    <symbol
       id="*MODEL_SPACE-4" />
    <symbol
       id="*PAPER_SPACE-80" />
    <marker
       id="DistanceX-3"
       orient="auto"
       refX="0.0"
       refY="0.0"
       style="overflow:visible">
      <path
         d="M 3,-3 L -3,3 M 0,-5 L  0,5"
         style="stroke:#000000; stroke-width:0.5"
         id="path530" />
    </marker>
    <pattern
       id="Hatch-26"
       patternUnits="userSpaceOnUse"
       width="8"
       height="8"
       x="0"
       y="0">
      <path
         d="M8 4 l-4,4"
         stroke="#000000"
         stroke-width="0.25"
         linecap="square"
         id="path533" />
      <path
         d="M6 2 l-4,4"
         stroke="#000000"
         stroke-width="0.25"
         linecap="square"
         id="path535" />
      <path
         d="M4 0 l-4,4"
         stroke="#000000"
         stroke-width="0.25"
         linecap="square"
         id="path537" />
    </pattern>
    <symbol
       id="*MODEL_SPACE-94" />
    <symbol
       id="*PAPER_SPACE-13" />
    <marker
       id="DistanceX-78"
       orient="auto"
       refX="0.0"
       refY="0.0"
       style="overflow:visible">
      <path
         d="M 3,-3 L -3,3 M 0,-5 L  0,5"
         style="stroke:#000000; stroke-width:0.5"
         id="path590" />
    </marker>
    <pattern
       id="Hatch-8"
       patternUnits="userSpaceOnUse"
       width="8"
       height="8"
       x="0"
       y="0">
      <path
         d="M8 4 l-4,4"
         stroke="#000000"
         stroke-width="0.25"
         linecap="square"
         id="path593" />
      <path
         d="M6 2 l-4,4"
         stroke="#000000"
         stroke-width="0.25"
         linecap="square"
         id="path595" />
      <path
         d="M4 0 l-4,4"
         stroke="#000000"
         stroke-width="0.25"
         linecap="square"
         id="path597" />
    </pattern>
    <symbol
       id="*MODEL_SPACE-38" />
    <symbol
       id="*PAPER_SPACE-15" />
    <marker
       id="DistanceX-35"
       orient="auto"
       refX="0.0"
       refY="0.0"
       style="overflow:visible">
      <path
         d="M 3,-3 L -3,3 M 0,-5 L  0,5"
         style="stroke:#000000; stroke-width:0.5"
         id="path650" />
    </marker>
    <pattern
       id="Hatch-4"
       patternUnits="userSpaceOnUse"
       width="8"
       height="8"
       x="0"
       y="0">
      <path
         d="M8 4 l-4,4"
         stroke="#000000"
         stroke-width="0.25"
         linecap="square"
         id="path653" />
      <path
         d="M6 2 l-4,4"
         stroke="#000000"
         stroke-width="0.25"
         linecap="square"
         id="path655" />
      <path
         d="M4 0 l-4,4"
         stroke="#000000"
         stroke-width="0.25"
         linecap="square"
         id="path657" />
    </pattern>
    <symbol
       id="*MODEL_SPACE-36" />
    <symbol
       id="*PAPER_SPACE-59" />
  </defs>
  <sodipodi:namedview
     id="base"
     pagecolor="#ffffff"
     bordercolor="#666666"
     borderopacity="1.0"
     inkscape:pageopacity="0.0"
     inkscape:pageshadow="2"
     inkscape:zoom="0.22"
     inkscape:cx="2215.5776"
     inkscape:cy="965.76358"
     inkscape:document-units="mm"
     inkscape:current-layer="layer1"
     inkscape:document-rotation="0"
     showgrid="false"
     inkscape:window-width="1459"
     inkscape:window-height="1155"
     inkscape:window-x="461"
     inkscape:window-y="23"
     inkscape:window-maximized="0" />
  <metadata
     id="metadata5">
    <rdf:RDF>
      <cc:Work
         rdf:about="">
        <dc:format>image/svg+xml</dc:format>
        <dc:type
           rdf:resource="http://purl.org/dc/dcmitype/StillImage" />
        <dc:title></dc:title>
      </cc:Work>
    </rdf:RDF>
  </metadata>
  <g
     inkscape:label="Layer 1"
     inkscape:groupmode="layer"
     id="layer1">
    <g
       transform="matrix(0.26458333,0,0,0.26458333,578.03649,370.41578)"
       inkscape:label="0"
       id="g300">
      <path
         d="m -354.84094,626.24113 a 3.779528,3.779528 0 0 1 -3.77953,-3.77953 V 558.03968 A 3.779528,3.779528 0 0 0 -362.4,554.26016 h -864 a 3.779528,3.779528 0 0 0 -3.7795,3.77952 v 288 a 3.779528,3.779528 0 0 0 3.7795,3.77953 h 936 a 3.779528,3.779528 0 0 0 3.77953,-3.77953 V 630.02066 A 3.779528,3.779528 0 0 0 -290.4,626.24113 Z"
         style="fill:none;stroke:#000000"
         id="path274" />
      <path
         d="m 67.615748,498.46488 a 7.559055,7.559055 0 0 1 7.559055,7.55906 v 374.03149 a 7.559055,7.559055 0 0 1 -7.559055,7.55906 H -1260.4157 a 7.559055,7.559055 0 0 1 -7.5591,-7.55906 V 506.02394 a 7.559055,7.559055 0 0 1 7.5591,-7.55906 z"
         style="fill:none;stroke:#000000"
         id="path276" />
      <path
         d="m -784.05354,517.36252 a 9.826775,9.826775 0 1 0 -19.65355,0 9.826775,9.826775 0 1 0 19.65355,0 z"
         style="fill:none;stroke:#000000"
         id="path278" />
      <path
         d="m 66.103937,517.36252 a 9.826772,9.826772 0 1 0 -19.653543,0 9.826772,9.826772 0 1 0 19.653543,0 z"
         style="fill:none;stroke:#000000"
         id="path280" />
      <path
         d="m -389.09291,517.36252 a 9.826775,9.826775 0 1 0 -19.65355,0 9.826775,9.826775 0 1 0 19.65355,0 z"
         style="fill:none;stroke:#000000"
         id="path282" />
      <path
         d="m -1239.2504,517.36252 a 9.826772,9.826772 0 1 0 -19.6535,0 9.826772,9.826772 0 1 0 19.6535,0 z"
         style="fill:none;stroke:#000000"
         id="path284" />
      <path
         d="m -784.05354,868.71685 a 9.826775,9.826775 0 1 0 -19.65355,0 9.826775,9.826775 0 1 0 19.65355,0 z"
         style="fill:none;stroke:#000000"
         id="path286" />
      <path
         d="m 66.103937,868.71685 a 9.826772,9.826772 0 1 0 -19.653543,0 9.826772,9.826772 0 1 0 19.653543,0 z"
         style="fill:none;stroke:#000000"
         id="path288" />
      <path
         d="m -389.09291,868.71685 a 9.826775,9.826775 0 1 0 -19.65355,0 9.826775,9.826775 0 1 0 19.65355,0 z"
         style="fill:none;stroke:#000000"
         id="path290" />
      <path
         d="m -1239.2504,868.71685 a 9.826772,9.826772 0 1 0 -19.6535,0 9.826772,9.826772 0 1 0 19.6535,0 z"
         style="fill:none;stroke:#000000"
         id="path292" />
      <path
         d="M 37.379528,846.03968 A 3.779528,3.779528 0 0 1 33.6,849.81921 h -216 a 3.779528,3.779528 0 0 1 -3.77953,-3.77953 V 630.02066 a 3.779528,3.779528 0 0 1 3.77953,-3.77953 h 64.44094 a 3.779528,3.779528 0 0 0 3.77953,-3.77953 v -64.42192 a 3.779528,3.779528 0 0 1 3.77953,-3.77952 h 144 a 3.779528,3.779528 0 0 1 3.779528,3.77952 z"
         style="fill:none;stroke:#000000"
         id="path294" />
      <path
         d="M -192.84094,615.81921 H -128.4 a 3.779528,3.779528 0 0 0 3.77953,-3.77953 v -72 A 3.779528,3.779528 0 0 0 -128.4,536.26016 h -216 a 3.779528,3.779528 0 0 0 -3.77953,3.77952 v 72 a 3.779528,3.779528 0 0 0 3.77953,3.77953 h 64.44095 a 3.779528,3.779528 0 0 1 3.77952,3.77953 v 64.44094 a 3.779528,3.779528 0 0 0 3.77953,3.77953 h 72 a 3.779528,3.779528 0 0 0 3.77953,-3.77953 v -64.44094 a 3.779528,3.779528 0 0 1 3.77953,-3.77953 z"
         style="fill:none;stroke:#000000"
         id="path296" />
      <path
         d="m -276.17953,774.03968 v 72 a 3.779528,3.779528 0 0 0 3.77953,3.77953 h 72 a 3.779528,3.779528 0 0 0 3.77953,-3.77953 v -72 A 3.779528,3.779528 0 0 0 -200.4,770.26016 h -72 a 3.779528,3.779528 0 0 0 -3.77953,3.77952 z"
         style="fill:none;stroke:#000000"
         id="path298-7" />
    </g>
    <g
       transform="matrix(0.26458333,0,0,0.26458333,581.13083,233.95333)"
       inkscape:label="0"
       id="g372">
      <path
         d="m -354.84094,626.24113 a 3.779528,3.779528 0 0 1 -3.77953,-3.77953 V 558.03968 A 3.779528,3.779528 0 0 0 -362.4,554.26016 h -864 a 3.779528,3.779528 0 0 0 -3.7795,3.77952 v 288 a 3.779528,3.779528 0 0 0 3.7795,3.77953 h 936 a 3.779528,3.779528 0 0 0 3.77953,-3.77953 V 630.02066 A 3.779528,3.779528 0 0 0 -290.4,626.24113 Z"
         style="fill:none;stroke:#000000"
         id="path346" />
      <path
         d="m -196.62047,619.59874 a 3.779528,3.779528 0 0 1 3.77953,-3.77953 H -128.4 a 3.779528,3.779528 0 0 0 3.77953,-3.77953 v -72 A 3.779528,3.779528 0 0 0 -128.4,536.26016 h -216 a 3.779528,3.779528 0 0 0 -3.77953,3.77952 v 72 a 3.779528,3.779528 0 0 0 3.77953,3.77953 h 64.44095 a 3.779528,3.779528 0 0 1 3.77952,3.77953 v 64.44094 a 3.779528,3.779528 0 0 0 3.77953,3.77953 h 72 a 3.779528,3.779528 0 0 0 3.77953,-3.77953 z"
         style="fill:none;stroke:#000000"
         id="path348" />
      <path
         d="m -114.17953,622.4616 a 3.779528,3.779528 0 0 1 -3.77953,3.77953 H -182.4 a 3.779528,3.779528 0 0 0 -3.77953,3.77953 v 216.01902 a 3.779528,3.779528 0 0 0 3.77953,3.77953 h 216 a 3.779528,3.779528 0 0 0 3.779528,-3.77953 v -288 A 3.779528,3.779528 0 0 0 33.6,554.26016 h -144 a 3.779528,3.779528 0 0 0 -3.77953,3.77952 z"
         style="fill:none;stroke:#000000"
         id="path350" />
      <path
         d="m 67.615748,498.46488 a 7.559055,7.559055 0 0 1 7.559055,7.55906 v 374.03149 a 7.559055,7.559055 0 0 1 -7.559055,7.55906 H -1260.4157 a 7.559055,7.559055 0 0 1 -7.5591,-7.55906 V 506.02394 a 7.559055,7.559055 0 0 1 7.5591,-7.55906 z"
         style="fill:none;stroke:#000000"
         id="path352" />
      <path
         d="m -392.87244,868.71685 a 6.047245,6.047245 0 1 0 -12.09449,0 6.047245,6.047245 0 1 0 12.09449,0 z"
         style="fill:none;stroke:#000000"
         id="path354" />
      <path
         d="m -1243.0299,517.36252 a 6.04725,6.04725 0 1 0 -12.0945,0 6.04725,6.04725 0 1 0 12.0945,0 z"
         style="fill:none;stroke:#000000"
         id="path356" />
      <path
         d="m -787.83307,868.71685 a 6.047245,6.047245 0 1 0 -12.09449,0 6.047245,6.047245 0 1 0 12.09449,0 z"
         style="fill:none;stroke:#000000"
         id="path358-7" />
      <path
         d="m 62.324409,868.71685 a 6.047244,6.047244 0 1 0 -12.094488,0 6.047244,6.047244 0 1 0 12.094488,0 z"
         style="fill:none;stroke:#000000"
         id="path360" />
      <path
         d="m -392.87244,517.36252 a 6.047245,6.047245 0 1 0 -12.09449,0 6.047245,6.047245 0 1 0 12.09449,0 z"
         style="fill:none;stroke:#000000"
         id="path362" />
      <path
         d="m -1243.0299,868.71685 a 6.04725,6.04725 0 1 0 -12.0945,0 6.04725,6.04725 0 1 0 12.0945,0 z"
         style="fill:none;stroke:#000000"
         id="path364" />
      <path
         d="m -787.83307,517.36252 a 6.047245,6.047245 0 1 0 -12.09449,0 6.047245,6.047245 0 1 0 12.09449,0 z"
         style="fill:none;stroke:#000000"
         id="path366" />
      <path
         d="m 62.324409,517.36252 a 6.047244,6.047244 0 1 0 -12.094488,0 6.047244,6.047244 0 1 0 12.094488,0 z"
         style="fill:none;stroke:#000000"
         id="path368" />
      <path
         d="m -276.17953,774.03968 v 72 a 3.779528,3.779528 0 0 0 3.77953,3.77953 h 72 a 3.779528,3.779528 0 0 0 3.77953,-3.77953 v -72 A 3.779528,3.779528 0 0 0 -200.4,770.26016 h -72 a 3.779528,3.779528 0 0 0 -3.77953,3.77952 z"
         style="fill:none;stroke:#000000"
         id="path370" />
    </g>
    <g
       transform="matrix(0.26458333,0,0,0.26458333,583.53614,92.040449)"
       inkscape:label="0"
       id="g438">
      <path
         d="m 67.615748,498.46488 a 7.559055,7.559055 0 0 1 7.559055,7.55906 v 374.03149 a 7.559055,7.559055 0 0 1 -7.559055,7.55906 H -1260.4157 a 7.559055,7.559055 0 0 1 -7.5591,-7.55906 V 506.02394 a 7.559055,7.559055 0 0 1 7.5591,-7.55906 z"
         style="fill:none;stroke:#000000"
         id="path418-4" />
      <path
         d="m -392.87244,868.71685 a 6.047245,6.047245 0 1 0 -12.09449,0 6.047245,6.047245 0 1 0 12.09449,0 z"
         style="fill:none;stroke:#000000"
         id="path420" />
      <path
         d="m -1243.0299,517.36252 a 6.04725,6.04725 0 1 0 -12.0945,0 6.04725,6.04725 0 1 0 12.0945,0 z"
         style="fill:none;stroke:#000000"
         id="path422" />
      <path
         d="m -787.83307,868.71685 a 6.047245,6.047245 0 1 0 -12.09449,0 6.047245,6.047245 0 1 0 12.09449,0 z"
         style="fill:none;stroke:#000000"
         id="path424" />
      <path
         d="m 62.324409,868.71685 a 6.047244,6.047244 0 1 0 -12.094488,0 6.047244,6.047244 0 1 0 12.094488,0 z"
         style="fill:none;stroke:#000000"
         id="path426" />
      <path
         d="m -392.87244,517.36252 a 6.047245,6.047245 0 1 0 -12.09449,0 6.047245,6.047245 0 1 0 12.09449,0 z"
         style="fill:none;stroke:#000000"
         id="path428" />
      <path
         d="m -1243.0299,868.71685 a 6.04725,6.04725 0 1 0 -12.0945,0 6.04725,6.04725 0 1 0 12.0945,0 z"
         style="fill:none;stroke:#000000"
         id="path430" />
      <path
         d="m -787.83307,517.36252 a 6.047245,6.047245 0 1 0 -12.09449,0 6.047245,6.047245 0 1 0 12.09449,0 z"
         style="fill:none;stroke:#000000"
         id="path432" />
      <path
         d="m 62.324409,517.36252 a 6.047244,6.047244 0 1 0 -12.094488,0 6.047244,6.047244 0 1 0 12.094488,0 z"
         style="fill:none;stroke:#000000"
         id="path434" />
      <path
         d="m -762.69921,853.68128 a 3.779528,3.779528 0 0 1 3.77953,3.77952 v 11.33859 a 3.779528,3.779528 0 0 0 3.77952,3.77952 h 317.48032 a 3.779528,3.779528 0 0 0 3.77953,-3.77952 V 857.4608 a 3.779528,3.779528 0 0 1 3.77952,-3.77952 h 62.36221 a 3.779528,3.779528 0 0 1 3.77953,3.77952 v 11.33859 a 3.779528,3.779528 0 0 0 3.77952,3.77952 h 317.480317 a 3.779528,3.779528 0 0 0 3.779528,-3.77952 V 857.4608 a 3.779528,3.779528 0 0 1 3.779528,-3.77952 H 33.6 a 3.779528,3.779528 0 0 0 3.779528,-3.77953 V 535.98159 A 3.779528,3.779528 0 0 0 33.6,532.20206 h -68.740157 a 3.779528,3.779528 0 0 1 -3.779528,-3.77952 v -11.33859 a 3.779528,3.779528 0 0 0 -3.779528,-3.77952 H -360.17953 a 3.779528,3.779528 0 0 0 -3.77952,3.77952 v 11.33859 a 3.779528,3.779528 0 0 1 -3.77953,3.77952 h -62.36221 a 3.779528,3.779528 0 0 1 -3.77952,-3.77952 v -11.33859 a 3.779528,3.779528 0 0 0 -3.77953,-3.77952 h -317.48032 a 3.779528,3.779528 0 0 0 -3.77952,3.77952 v 11.33859 a 3.779528,3.779528 0 0 1 -3.77953,3.77952 h -62.36221 a 3.779528,3.779528 0 0 1 -3.77953,-3.77952 v -11.33859 a 3.779528,3.779528 0 0 0 -3.77952,-3.77952 h -317.48033 a 3.779528,3.779528 0 0 0 -3.7795,3.77952 v 11.33859 a 3.779528,3.779528 0 0 1 -3.7795,3.77952 H -1226.4 a 3.779528,3.779528 0 0 0 -3.7795,3.77953 v 313.92016 a 3.779528,3.779528 0 0 0 3.7795,3.77953 h 68.7402 a 3.779528,3.779528 0 0 1 3.7795,3.77952 v 11.33859 a 3.779528,3.779528 0 0 0 3.7795,3.77952 h 317.48033 a 3.779528,3.779528 0 0 0 3.77952,-3.77952 V 857.4608 a 3.779528,3.779528 0 0 1 3.77953,-3.77952 z"
         style="fill:none;stroke:#000000"
         id="path436" />
    </g>
    <g
       transform="matrix(0.26458333,0,0,0.26458333,589.54935,-42.656519)"
       inkscape:label="0"
       id="g501">
      <path
         d="m 67.615748,498.46488 a 7.559055,7.559055 0 0 1 7.559055,7.55906 v 374.03149 a 7.559055,7.559055 0 0 1 -7.559055,7.55906 H -1260.4157 a 7.559055,7.559055 0 0 1 -7.5591,-7.55906 V 506.02394 a 7.559055,7.559055 0 0 1 7.5591,-7.55906 z"
         style="fill:none;stroke:#000000"
         id="path481-4" />
      <path
         d="m -392.87244,868.71685 a 6.047245,6.047245 0 1 0 -12.09449,0 6.047245,6.047245 0 1 0 12.09449,0 z"
         style="fill:none;stroke:#000000"
         id="path483-6" />
      <path
         d="m -1243.0299,517.36252 a 6.04725,6.04725 0 1 0 -12.0945,0 6.04725,6.04725 0 1 0 12.0945,0 z"
         style="fill:none;stroke:#000000"
         id="path485-0" />
      <path
         d="m -787.83307,868.71685 a 6.047245,6.047245 0 1 0 -12.09449,0 6.047245,6.047245 0 1 0 12.09449,0 z"
         style="fill:none;stroke:#000000"
         id="path487" />
      <path
         d="m 62.324409,868.71685 a 6.047244,6.047244 0 1 0 -12.094488,0 6.047244,6.047244 0 1 0 12.094488,0 z"
         style="fill:none;stroke:#000000"
         id="path489" />
      <path
         d="m -392.87244,517.36252 a 6.047245,6.047245 0 1 0 -12.09449,0 6.047245,6.047245 0 1 0 12.09449,0 z"
         style="fill:none;stroke:#000000"
         id="path491" />
      <path
         d="m -1243.0299,868.71685 a 6.04725,6.04725 0 1 0 -12.0945,0 6.04725,6.04725 0 1 0 12.0945,0 z"
         style="fill:none;stroke:#000000"
         id="path493" />
      <path
         d="m -787.83307,517.36252 a 6.047245,6.047245 0 1 0 -12.09449,0 6.047245,6.047245 0 1 0 12.09449,0 z"
         style="fill:none;stroke:#000000"
         id="path495" />
      <path
         d="m 62.324409,517.36252 a 6.047244,6.047244 0 1 0 -12.094488,0 6.047244,6.047244 0 1 0 12.094488,0 z"
         style="fill:none;stroke:#000000"
         id="path497" />
      <path
         d="m -1230.1795,540.03968 v 306 a 3.779528,3.779528 0 0 0 3.7795,3.77953 h 1260 a 3.779528,3.779528 0 0 0 3.779528,-3.77953 v -306 A 3.779528,3.779528 0 0 0 33.6,536.26016 h -1260 a 3.779528,3.779528 0 0 0 -3.7795,3.77952 z"
         style="fill:none;stroke:#000000"
         id="path499" />
    </g>
    <g
       transform="matrix(0.26458333,0,0,0.26458333,595.56263,-165.32698)"
       inkscape:label="0"
       id="g562">
      <path
         d="m -1239.2504,868.71685 a 9.826772,9.826772 0 1 0 -19.6535,0 9.826772,9.826772 0 1 0 19.6535,0 z"
         style="fill:none;stroke:#000000"
         id="path544" />
      <path
         d="m -389.09291,868.71685 a 9.826775,9.826775 0 1 0 -19.65355,0 9.826775,9.826775 0 1 0 19.65355,0 z"
         style="fill:none;stroke:#000000"
         id="path546" />
      <path
         d="m 66.103937,868.71685 a 9.826772,9.826772 0 1 0 -19.653543,0 9.826772,9.826772 0 1 0 19.653543,0 z"
         style="fill:none;stroke:#000000"
         id="path548" />
      <path
         d="m -784.05354,868.71685 a 9.826775,9.826775 0 1 0 -19.65355,0 9.826775,9.826775 0 1 0 19.65355,0 z"
         style="fill:none;stroke:#000000"
         id="path550" />
      <path
         d="m -1239.2504,517.36252 a 9.826772,9.826772 0 1 0 -19.6535,0 9.826772,9.826772 0 1 0 19.6535,0 z"
         style="fill:none;stroke:#000000"
         id="path552" />
      <path
         d="m -389.09291,517.36252 a 9.826775,9.826775 0 1 0 -19.65355,0 9.826775,9.826775 0 1 0 19.65355,0 z"
         style="fill:none;stroke:#000000"
         id="path554" />
      <path
         d="m 66.103937,517.36252 a 9.826772,9.826772 0 1 0 -19.653543,0 9.826772,9.826772 0 1 0 19.653543,0 z"
         style="fill:none;stroke:#000000"
         id="path556" />
      <path
         d="m -784.05354,517.36252 a 9.826775,9.826775 0 1 0 -19.65355,0 9.826775,9.826775 0 1 0 19.65355,0 z"
         style="fill:none;stroke:#000000"
         id="path558" />
      <path
         d="m -262.99465,849.81921 a 3.779528,3.779528 0 0 1 3.77953,3.77953 v 26.45669 a 7.559055,7.559055 0 0 1 -7.55905,7.55906 h -993.64153 a 7.559055,7.559055 0 0 1 -7.5591,-7.55906 V 506.02394 a 7.559055,7.559055 0 0 1 7.5591,-7.55906 H 67.615748 a 7.559055,7.559055 0 0 1 7.559055,7.55906 v 374.03149 a 7.559055,7.559055 0 0 1 -7.559055,7.55906 H -205.54583 a 7.559055,7.559055 0 0 1 -7.55905,-7.55906 v -26.45669 a 3.779528,3.779528 0 0 1 3.77953,-3.77953 H 33.6 a 3.779528,3.779528 0 0 0 3.779528,-3.77953 v -306 A 3.779528,3.779528 0 0 0 33.6,536.26016 h -1260 a 3.779528,3.779528 0 0 0 -3.7795,3.77952 v 306 a 3.779528,3.779528 0 0 0 3.7795,3.77953 z"
         style="fill:none;stroke:#000000"
         id="path560" />
    </g>
    <g
       transform="matrix(0.26458333,0,0,0.26458333,588.34143,-291.855)"
       inkscape:label="0"
       id="g622">
      <path
         d="m -262.99465,849.81921 a 3.779528,3.779528 0 0 1 3.77953,3.77953 v 26.45669 a 7.559055,7.559055 0 0 1 -7.55905,7.55906 h -993.64153 a 7.559055,7.559055 0 0 1 -7.5591,-7.55906 V 506.02394 a 7.559055,7.559055 0 0 1 7.5591,-7.55906 H 67.615748 a 7.559055,7.559055 0 0 1 7.559055,7.55906 v 374.03149 a 7.559055,7.559055 0 0 1 -7.559055,7.55906 H -205.54583 a 7.559055,7.559055 0 0 1 -7.55905,-7.55906 v -26.45669 a 3.779528,3.779528 0 0 1 3.77953,-3.77953 H 33.6 a 3.779528,3.779528 0 0 0 3.779528,-3.77953 v -306 A 3.779528,3.779528 0 0 0 33.6,536.26016 h -1260 a 3.779528,3.779528 0 0 0 -3.7795,3.77952 v 306 a 3.779528,3.779528 0 0 0 3.7795,3.77953 z"
         style="fill:none;stroke:#000000"
         id="path604" />
      <path
         d="m -784.05354,517.36252 a 9.826775,9.826775 0 1 0 -19.65355,0 9.826775,9.826775 0 1 0 19.65355,0 z"
         style="fill:none;stroke:#000000"
         id="path606" />
      <path
         d="m 66.103937,517.36252 a 9.826772,9.826772 0 1 0 -19.653543,0 9.826772,9.826772 0 1 0 19.653543,0 z"
         style="fill:none;stroke:#000000"
         id="path608" />
      <path
         d="m -389.09291,517.36252 a 9.826775,9.826775 0 1 0 -19.65355,0 9.826775,9.826775 0 1 0 19.65355,0 z"
         style="fill:none;stroke:#000000"
         id="path610" />
      <path
         d="m -1239.2504,517.36252 a 9.826772,9.826772 0 1 0 -19.6535,0 9.826772,9.826772 0 1 0 19.6535,0 z"
         style="fill:none;stroke:#000000"
         id="path612" />
      <path
         d="m -784.05354,868.71685 a 9.826775,9.826775 0 1 0 -19.65355,0 9.826775,9.826775 0 1 0 19.65355,0 z"
         style="fill:none;stroke:#000000"
         id="path614" />
      <path
         d="m 66.103937,868.71685 a 9.826772,9.826772 0 1 0 -19.653543,0 9.826772,9.826772 0 1 0 19.653543,0 z"
         style="fill:none;stroke:#000000"
         id="path616" />
      <path
         d="m -389.09291,868.71685 a 9.826775,9.826775 0 1 0 -19.65355,0 9.826775,9.826775 0 1 0 19.65355,0 z"
         style="fill:none;stroke:#000000"
         id="path618" />
      <path
         d="m -1239.2504,868.71685 a 9.826772,9.826772 0 1 0 -19.6535,0 9.826772,9.826772 0 1 0 19.6535,0 z"
         style="fill:none;stroke:#000000"
         id="path620" />
    </g>
    <g
       transform="matrix(0.26458333,0,0,0.26458333,590.75204,-416.68114)"
       inkscape:label="0"
       id="g682">
      <path
         d="m -1239.2504,868.71685 a 9.826772,9.826772 0 1 0 -19.6535,0 9.826772,9.826772 0 1 0 19.6535,0 z"
         style="fill:none;stroke:#000000"
         id="path664" />
      <path
         d="m -389.09291,868.71685 a 9.826775,9.826775 0 1 0 -19.65355,0 9.826775,9.826775 0 1 0 19.65355,0 z"
         style="fill:none;stroke:#000000"
         id="path666" />
      <path
         d="m 66.103937,868.71685 a 9.826772,9.826772 0 1 0 -19.653543,0 9.826772,9.826772 0 1 0 19.653543,0 z"
         style="fill:none;stroke:#000000"
         id="path668" />
      <path
         d="m -784.05354,868.71685 a 9.826775,9.826775 0 1 0 -19.65355,0 9.826775,9.826775 0 1 0 19.65355,0 z"
         style="fill:none;stroke:#000000"
         id="path670" />
      <path
         d="m -1239.2504,517.36252 a 9.826772,9.826772 0 1 0 -19.6535,0 9.826772,9.826772 0 1 0 19.6535,0 z"
         style="fill:none;stroke:#000000"
         id="path672" />
      <path
         d="m -389.09291,517.36252 a 9.826775,9.826775 0 1 0 -19.65355,0 9.826775,9.826775 0 1 0 19.65355,0 z"
         style="fill:none;stroke:#000000"
         id="path674" />
      <path
         d="m 66.103937,517.36252 a 9.826772,9.826772 0 1 0 -19.653543,0 9.826772,9.826772 0 1 0 19.653543,0 z"
         style="fill:none;stroke:#000000"
         id="path676" />
      <path
         d="m -784.05354,517.36252 a 9.826775,9.826775 0 1 0 -19.65355,0 9.826775,9.826775 0 1 0 19.65355,0 z"
         style="fill:none;stroke:#000000"
         id="path678" />
      <path
         d="m -259.21512,880.05543 a 7.559055,7.559055 0 0 1 -7.55905,7.55906 h -993.64153 a 7.559055,7.559055 0 0 1 -7.5591,-7.55906 V 506.02394 a 7.559055,7.559055 0 0 1 7.5591,-7.55906 H 67.615748 a 7.559055,7.559055 0 0 1 7.559055,7.55906 v 374.03149 a 7.559055,7.559055 0 0 1 -7.559055,7.55906 H -205.54583 a 7.559055,7.559055 0 0 1 -7.55905,-7.55906 v -22.67716 a 7.559055,7.559055 0 0 0 -7.55906,-7.55906 h -30.99212 a 7.559055,7.559055 0 0 0 -7.55906,7.55906 z"
         style="fill:none;stroke:#000000"
         id="path680" />
    </g>
  </g>
</svg>
