G04 #@! TF.GenerationSoftware,KiCad,Pcbnew,(5.1.4-0-10_14)*
G04 #@! TF.CreationDate,2020-06-19T20:59:03-05:00*
G04 #@! TF.ProjectId,reverie_plate,72657665-7269-4655-9f70-6c6174652e6b,rev?*
G04 #@! TF.SameCoordinates,Original*
G04 #@! TF.FileFunction,Profile,NP*
%FSLAX46Y46*%
G04 Gerber Fmt 4.6, Leading zero omitted, Abs format (unit mm)*
G04 Created by KiCad (PCBNEW (5.1.4-0-10_14)) date 2020-06-19 20:59:03*
%MOMM*%
%LPD*%
G04 APERTURE LIST*
%ADD10C,0.200000*%
G04 APERTURE END LIST*
D10*
X73664751Y-75899795D02*
G75*
G02X73164750Y-75399796I-1J500000D01*
G01*
X86664750Y-75899796D02*
X73664750Y-75899796D01*
X87164751Y-75399795D02*
G75*
G02X86664750Y-75899796I-500001J0D01*
G01*
X87164750Y-62399796D02*
X87164750Y-75399796D01*
X86664750Y-61899796D02*
G75*
G02X87164750Y-62399796I0J-500000D01*
G01*
X73664750Y-61899796D02*
X86664750Y-61899796D01*
X73164751Y-62399795D02*
G75*
G02X73664750Y-61899796I499999J0D01*
G01*
X104121000Y-94449796D02*
X104121000Y-81449796D01*
X104621001Y-94949795D02*
G75*
G02X104121000Y-94449796I-1J500000D01*
G01*
X117621000Y-94949796D02*
X104621000Y-94949796D01*
X118121000Y-94449796D02*
G75*
G02X117621000Y-94949796I-500000J0D01*
G01*
X118121000Y-81449796D02*
X118121000Y-94449796D01*
X117621000Y-80949796D02*
G75*
G02X118121000Y-81449796I0J-500000D01*
G01*
X104621000Y-80949796D02*
X117621000Y-80949796D01*
X104121000Y-81449796D02*
G75*
G02X104621000Y-80949796I500000J0D01*
G01*
X-17466498Y-121111000D02*
X-17466498Y-40552958D01*
X-16216498Y-122361000D02*
G75*
G02X-17466498Y-121111000I0J1250000D01*
G01*
X1471000Y-122361000D02*
X-16216498Y-122361000D01*
X1471000Y-122361000D02*
G75*
G02X2721000Y-123611000I0J-1250000D01*
G01*
X2721000Y-126111000D02*
X2721000Y-123611000D01*
X87971000Y-39302958D02*
X105971000Y-39302958D01*
X87971000Y-39302958D02*
G75*
G02X86721000Y-38052958I0J1250000D01*
G01*
X211721000Y-38052958D02*
G75*
G02X210471000Y-39302958I-1250000J0D01*
G01*
X211721000Y-38052958D02*
X211721001Y-35552958D01*
X-14441498Y-113999797D02*
G75*
G02X-14941499Y-113499796I0J500001D01*
G01*
X-1441500Y-113999796D02*
X-14441498Y-113999796D01*
X-941500Y-113499796D02*
G75*
G02X-1441500Y-113999796I-500000J0D01*
G01*
X-941500Y-100499796D02*
X-941500Y-113499796D01*
X-1441500Y-99999796D02*
G75*
G02X-941500Y-100499796I0J-500000D01*
G01*
X73164750Y-75399796D02*
X73164750Y-62399796D01*
X192471000Y-39302958D02*
X210471000Y-39302958D01*
X-14441498Y-99999796D02*
X-1441500Y-99999796D01*
X-14941498Y-100499796D02*
G75*
G02X-14441498Y-99999796I500000J0D01*
G01*
X-14941499Y-113499796D02*
X-14941498Y-100499796D01*
X241446000Y-61899796D02*
G75*
G02X241946000Y-62399796I0J-500000D01*
G01*
X228446000Y-61899796D02*
X241446000Y-61899796D01*
X227946000Y-62399796D02*
G75*
G02X228446000Y-61899796I500000J0D01*
G01*
X294471001Y-127361000D02*
X212971001Y-127361000D01*
X295721001Y-126111000D02*
G75*
G02X294471001Y-127361000I-1250000J0D01*
G01*
X314658500Y-122361000D02*
X296971001Y-122361000D01*
X107221000Y-126111000D02*
X107221000Y-123611000D01*
X108471000Y-127361000D02*
G75*
G02X107221000Y-126111000I0J1250000D01*
G01*
X3971000Y-34302958D02*
X85471000Y-34302958D01*
X192471000Y-39302958D02*
G75*
G02X191221000Y-38052958I0J1250000D01*
G01*
X296971001Y-39302958D02*
X314658500Y-39302958D01*
X296971001Y-39302958D02*
G75*
G02X295721001Y-38052958I0J1250000D01*
G01*
X211721001Y-35552959D02*
G75*
G02X212971000Y-34302958I1250000J1D01*
G01*
X86721000Y-35552958D02*
X86721000Y-38052958D01*
X2721000Y-38052958D02*
X2721000Y-35552958D01*
X191221000Y-35552958D02*
X191221000Y-38052958D01*
X294471001Y-34302958D02*
G75*
G02X295721001Y-35552958I0J-1250000D01*
G01*
X-16216498Y-39302958D02*
X1471000Y-39302958D01*
X315908500Y-40552958D02*
X315908500Y-121111000D01*
X295721001Y-123611000D02*
X295721001Y-126111000D01*
X295721001Y-123611000D02*
G75*
G02X296971001Y-122361000I1250000J0D01*
G01*
X210471000Y-122361000D02*
X192471000Y-122361000D01*
X210471000Y-122361000D02*
G75*
G02X211721000Y-123611000I0J-1250000D01*
G01*
X85471000Y-34302958D02*
G75*
G02X86721000Y-35552958I0J-1250000D01*
G01*
X212971000Y-34302958D02*
X294471001Y-34302958D01*
X189971000Y-34302958D02*
G75*
G02X191221000Y-35552958I0J-1250000D01*
G01*
X314658500Y-39302958D02*
G75*
G02X315908500Y-40552958I0J-1250000D01*
G01*
X2721000Y-38052958D02*
G75*
G02X1471000Y-39302958I-1250000J0D01*
G01*
X211721000Y-126111000D02*
X211721000Y-123611000D01*
X212971000Y-127361000D02*
G75*
G02X211721000Y-126111000I0J1250000D01*
G01*
X297502250Y-99999796D02*
X310502250Y-99999796D01*
X297002250Y-100499796D02*
G75*
G02X297502250Y-99999796I500000J0D01*
G01*
X297002250Y-113499796D02*
X297002250Y-100499796D01*
X297502250Y-113999796D02*
G75*
G02X297002250Y-113499796I0J500000D01*
G01*
X310502250Y-113999796D02*
X297502250Y-113999796D01*
X311002250Y-113499796D02*
G75*
G02X310502250Y-113999796I-500000J0D01*
G01*
X311002250Y-100499796D02*
X311002250Y-113499796D01*
X310502250Y-99999796D02*
G75*
G02X311002250Y-100499796I0J-500000D01*
G01*
X118071000Y-99999796D02*
X119071000Y-99999796D01*
X223683500Y-42849796D02*
X236683500Y-42849796D01*
X223183501Y-43349797D02*
G75*
G02X223683500Y-42849796I500000J1D01*
G01*
X23158500Y-81449796D02*
G75*
G02X23658500Y-80949796I500000J0D01*
G01*
X2721000Y-35552958D02*
G75*
G02X3971000Y-34302958I1250000J0D01*
G01*
X117571000Y-100499796D02*
G75*
G02X118071000Y-99999796I500000J0D01*
G01*
X117571000Y-113499796D02*
X117571000Y-100499796D01*
X118071001Y-113999795D02*
G75*
G02X117571000Y-113499796I-1J500000D01*
G01*
X119071000Y-113999796D02*
X118071000Y-113999796D01*
X119571001Y-113499795D02*
G75*
G02X119071000Y-113999796I-500001J0D01*
G01*
X119571000Y-100499796D02*
X119571000Y-113499796D01*
X119071000Y-99999796D02*
G75*
G02X119571000Y-100499796I0J-500000D01*
G01*
X195764750Y-113999796D02*
X194764750Y-113999796D01*
X196264751Y-113499795D02*
G75*
G02X195764750Y-113999796I-500001J0D01*
G01*
X196264750Y-100499796D02*
X196264750Y-113499796D01*
X195764750Y-99999796D02*
G75*
G02X196264750Y-100499796I0J-500000D01*
G01*
X194764750Y-99999796D02*
X195764750Y-99999796D01*
X194264750Y-100499796D02*
G75*
G02X194764750Y-99999796I500000J0D01*
G01*
X194264750Y-113499796D02*
X194264750Y-100499796D01*
X194764750Y-113999796D02*
G75*
G02X194264750Y-113499796I0J500000D01*
G01*
X223183500Y-56349796D02*
X223183500Y-43349796D01*
X223683500Y-56849796D02*
G75*
G02X223183500Y-56349796I0J500000D01*
G01*
X236683500Y-56849796D02*
X223683500Y-56849796D01*
X237183500Y-56349796D02*
G75*
G02X236683500Y-56849796I-500000J0D01*
G01*
X237183500Y-43349796D02*
X237183500Y-56349796D01*
X236683500Y-42849796D02*
G75*
G02X237183500Y-43349796I0J-500000D01*
G01*
X107221000Y-35552958D02*
G75*
G02X108471000Y-34302958I1250000J0D01*
G01*
X105971000Y-122361000D02*
X87971000Y-122361000D01*
X105971000Y-122361000D02*
G75*
G02X107221000Y-123611000I0J-1250000D01*
G01*
X315908500Y-121111000D02*
G75*
G02X314658500Y-122361000I-1250000J0D01*
G01*
X191221000Y-123611000D02*
X191221000Y-126111000D01*
X191221000Y-123611000D02*
G75*
G02X192471000Y-122361000I1250000J0D01*
G01*
X86721000Y-123611000D02*
X86721000Y-126111000D01*
X86721000Y-123611000D02*
G75*
G02X87971000Y-122361000I1250000J0D01*
G01*
X36658500Y-80949796D02*
X23658500Y-80949796D01*
X36658500Y-80949796D02*
G75*
G02X37158500Y-81449796I0J-500000D01*
G01*
X37158500Y-94449796D02*
X37158500Y-81449796D01*
X37158501Y-94449796D02*
G75*
G02X36658500Y-94949795I-500000J1D01*
G01*
X23658500Y-94949795D02*
X36658500Y-94949795D01*
X23658499Y-94949796D02*
G75*
G02X23158500Y-94449795I1J500000D01*
G01*
X23158500Y-81449796D02*
X23158500Y-94449795D01*
X23158500Y-75399796D02*
X23158500Y-62399796D01*
X23658500Y-75899796D02*
G75*
G02X23158500Y-75399796I0J500000D01*
G01*
X36658500Y-75899796D02*
X23658500Y-75899796D01*
X37158501Y-75399797D02*
G75*
G02X36658500Y-75899796I-500000J1D01*
G01*
X37158500Y-62399796D02*
X37158500Y-75399796D01*
X36658500Y-61899796D02*
G75*
G02X37158500Y-62399796I0J-500000D01*
G01*
X23658500Y-61899796D02*
X36658500Y-61899796D01*
X23158500Y-62399796D02*
G75*
G02X23658500Y-61899796I500000J0D01*
G01*
X227946000Y-75399796D02*
X227946000Y-62399796D01*
X228446000Y-75899796D02*
G75*
G02X227946000Y-75399796I0J500000D01*
G01*
X241446000Y-75899796D02*
X228446000Y-75899796D01*
X241946000Y-75399796D02*
G75*
G02X241446000Y-75899796I-500000J0D01*
G01*
X241946000Y-62399796D02*
X241946000Y-75399796D01*
X189971000Y-127361000D02*
X108471000Y-127361000D01*
X191221001Y-126111001D02*
G75*
G02X189971000Y-127361000I-1250000J1D01*
G01*
X107221000Y-38052958D02*
X107221000Y-35552958D01*
X108471000Y-34302958D02*
X189971000Y-34302958D01*
X107221000Y-38052958D02*
G75*
G02X105971000Y-39302958I-1250000J0D01*
G01*
X295721001Y-35552958D02*
X295721001Y-38052958D01*
X-17466498Y-40552958D02*
G75*
G02X-16216498Y-39302958I1250000J0D01*
G01*
X206514750Y-113499796D02*
X206514750Y-100499796D01*
X207014750Y-113999796D02*
G75*
G02X206514750Y-113499796I0J500000D01*
G01*
X220014750Y-113999796D02*
X207014750Y-113999796D01*
X220514751Y-113499795D02*
G75*
G02X220014750Y-113999796I-500001J0D01*
G01*
X220514750Y-100499796D02*
X220514750Y-113499796D01*
X220014750Y-99999796D02*
G75*
G02X220514750Y-100499796I0J-500000D01*
G01*
X207014750Y-99999796D02*
X220014750Y-99999796D01*
X206514750Y-100499796D02*
G75*
G02X207014750Y-99999796I500000J0D01*
G01*
X286639750Y-75399796D02*
X286639750Y-62399796D01*
X287139750Y-75899796D02*
G75*
G02X286639750Y-75399796I0J500000D01*
G01*
X288139750Y-75899796D02*
X287139750Y-75899796D01*
X288639750Y-75399796D02*
G75*
G02X288139750Y-75899796I-500000J0D01*
G01*
X288639750Y-62399796D02*
X288639750Y-75399796D01*
X288139750Y-61899796D02*
G75*
G02X288639750Y-62399796I0J-500000D01*
G01*
X287139750Y-61899796D02*
X288139750Y-61899796D01*
X286639750Y-62399796D02*
G75*
G02X287139750Y-61899796I500000J0D01*
G01*
X66021000Y-118262296D02*
X66021000Y-105262296D01*
X66521001Y-118762295D02*
G75*
G02X66021000Y-118262296I-1J500000D01*
G01*
X79521000Y-118762296D02*
X66521000Y-118762296D01*
X80021001Y-118262295D02*
G75*
G02X79521000Y-118762296I-500001J0D01*
G01*
X80021000Y-105262296D02*
X80021000Y-118262296D01*
X79521000Y-104762296D02*
G75*
G02X80021000Y-105262296I0J-500000D01*
G01*
X66521000Y-104762296D02*
X79521000Y-104762296D01*
X66021001Y-105262295D02*
G75*
G02X66521000Y-104762296I499999J0D01*
G01*
X280333500Y-56349796D02*
X280333500Y-43349796D01*
X280833500Y-56849796D02*
G75*
G02X280333500Y-56349796I0J500000D01*
G01*
X293833500Y-56849796D02*
X280833500Y-56849796D01*
X294333500Y-56349796D02*
G75*
G02X293833500Y-56849796I-500000J0D01*
G01*
X294333500Y-43349796D02*
X294333500Y-56349796D01*
X293833500Y-42849796D02*
G75*
G02X294333500Y-43349796I0J-500000D01*
G01*
X280833500Y-42849796D02*
X293833500Y-42849796D01*
X280333500Y-43349796D02*
G75*
G02X280833500Y-42849796I500000J0D01*
G01*
X140771000Y-100499796D02*
G75*
G02X141271000Y-99999796I500000J0D01*
G01*
X142271000Y-99999796D02*
X141271000Y-99999796D01*
X142271000Y-99999795D02*
G75*
G02X142771001Y-100499796I0J-500001D01*
G01*
X142771000Y-113499796D02*
X142771001Y-100499796D01*
X142771001Y-113499795D02*
G75*
G02X142271000Y-113999796I-500001J0D01*
G01*
X141271000Y-113999796D02*
X142271000Y-113999796D01*
X141271002Y-113999796D02*
G75*
G02X140771000Y-113499796I-1J500001D01*
G01*
X140771000Y-100499796D02*
X140771000Y-113499796D01*
X297002250Y-94449796D02*
X297002250Y-81449796D01*
X297502250Y-94949796D02*
G75*
G02X297002250Y-94449796I0J500000D01*
G01*
X310502250Y-94949796D02*
X297502250Y-94949796D01*
X311002250Y-94449796D02*
G75*
G02X310502250Y-94949796I-500000J0D01*
G01*
X311002250Y-81449796D02*
X311002250Y-94449796D01*
X310502250Y-80949796D02*
G75*
G02X311002250Y-81449796I0J-500000D01*
G01*
X297502250Y-80949796D02*
X310502250Y-80949795D01*
X297002250Y-81449796D02*
G75*
G02X297502250Y-80949796I500000J0D01*
G01*
X-14941499Y-75399795D02*
X-14941498Y-62399796D01*
X-14441498Y-75899796D02*
G75*
G02X-14941499Y-75399795I0J500001D01*
G01*
X-1441500Y-75899796D02*
X-14441498Y-75899796D01*
X-941500Y-75399796D02*
G75*
G02X-1441500Y-75899796I-500000J0D01*
G01*
X-941500Y-62399796D02*
X-941500Y-75399796D01*
X-1441500Y-61899796D02*
G75*
G02X-941500Y-62399796I0J-500000D01*
G01*
X-14441498Y-61899796D02*
X-1441500Y-61899796D01*
X-14941498Y-62399796D02*
G75*
G02X-14441498Y-61899796I500000J0D01*
G01*
X142721000Y-80949796D02*
X155721000Y-80949796D01*
X142221001Y-81449797D02*
G75*
G02X142721000Y-80949796I500000J1D01*
G01*
X142221000Y-94449796D02*
X142221000Y-81449796D01*
X142721001Y-94949797D02*
G75*
G02X142221000Y-94449796I0J500001D01*
G01*
X155721000Y-94949796D02*
X142721000Y-94949796D01*
X156221000Y-94449796D02*
G75*
G02X155721000Y-94949796I-500000J0D01*
G01*
X156221000Y-81449796D02*
X156221000Y-94449796D01*
X155721001Y-80949797D02*
G75*
G02X156221000Y-81449796I0J-499999D01*
G01*
X228952750Y-112499796D02*
G75*
G02X228452750Y-112999796I-500000J0D01*
G01*
X222452750Y-112999796D02*
X228452750Y-112999796D01*
X222452750Y-112999796D02*
G75*
G02X221952750Y-112499796I0J500000D01*
G01*
X221952750Y-98499796D02*
X221952750Y-112499796D01*
X221952750Y-98499796D02*
G75*
G02X222452750Y-97999796I500000J0D01*
G01*
X228452750Y-97999796D02*
X222452750Y-97999796D01*
X228452750Y-97999796D02*
G75*
G02X228952750Y-98499796I0J-500000D01*
G01*
X228952750Y-112499796D02*
X228952750Y-98499796D01*
X180321000Y-94449796D02*
X180321000Y-81449796D01*
X180821000Y-94949796D02*
G75*
G02X180321000Y-94449796I0J500000D01*
G01*
X193821000Y-94949796D02*
X180821000Y-94949796D01*
X194321000Y-94449796D02*
G75*
G02X193821000Y-94949796I-500000J0D01*
G01*
X194321000Y-81449796D02*
X194321000Y-94449796D01*
X193821000Y-80949796D02*
G75*
G02X194321000Y-81449796I0J-500000D01*
G01*
X180821000Y-80949796D02*
X193821000Y-80949796D01*
X180321000Y-81449796D02*
G75*
G02X180821000Y-80949796I500000J0D01*
G01*
X208896000Y-75399796D02*
X208896000Y-62399796D01*
X209396000Y-75899796D02*
G75*
G02X208896000Y-75399796I0J500000D01*
G01*
X222396000Y-75899796D02*
X209396000Y-75899796D01*
X222896000Y-75399796D02*
G75*
G02X222396000Y-75899796I-500000J0D01*
G01*
X222896000Y-62399796D02*
X222896000Y-75399796D01*
X222396000Y-61899796D02*
G75*
G02X222896000Y-62399796I0J-500000D01*
G01*
X209396000Y-61899796D02*
X222396000Y-61899796D01*
X208896000Y-62399796D02*
G75*
G02X209396000Y-61899796I500000J0D01*
G01*
X185139750Y-100499796D02*
X185139750Y-113499796D01*
X184639750Y-99999796D02*
G75*
G02X185139750Y-100499796I0J-500000D01*
G01*
X183639750Y-99999796D02*
X184639750Y-99999796D01*
X183139750Y-100499796D02*
G75*
G02X183639750Y-99999796I500000J0D01*
G01*
X183139750Y-113499796D02*
X183139750Y-100499796D01*
X183639750Y-113999796D02*
G75*
G02X183139750Y-113499796I0J500000D01*
G01*
X184639750Y-113999796D02*
X183639750Y-113999795D01*
X185139751Y-113499795D02*
G75*
G02X184639750Y-113999796I-500001J0D01*
G01*
X108883500Y-56349796D02*
X108883500Y-43349796D01*
X109383502Y-56849796D02*
G75*
G02X108883500Y-56349796I-1J500001D01*
G01*
X122383500Y-56849796D02*
X109383500Y-56849796D01*
X122883501Y-56349795D02*
G75*
G02X122383500Y-56849796I-500001J0D01*
G01*
X122883500Y-43349796D02*
X122883500Y-56349796D01*
X122383500Y-42849796D02*
G75*
G02X122883500Y-43349796I0J-500000D01*
G01*
X109383500Y-42849796D02*
X122383500Y-42849796D01*
X108883500Y-43349796D02*
G75*
G02X109383500Y-42849796I500000J0D01*
G01*
X218421000Y-94449796D02*
X218421000Y-81449796D01*
X218921000Y-94949796D02*
G75*
G02X218421000Y-94449796I0J500000D01*
G01*
X231921000Y-94949796D02*
X218921000Y-94949796D01*
X232421000Y-94449796D02*
G75*
G02X231921000Y-94949796I-500000J0D01*
G01*
X232421000Y-81449796D02*
X232421000Y-94449796D01*
X231921001Y-80949795D02*
G75*
G02X232421000Y-81449796I-1J-500000D01*
G01*
X218921000Y-80949796D02*
X231921000Y-80949795D01*
X218421000Y-81449796D02*
G75*
G02X218921000Y-80949796I500000J0D01*
G01*
X127933501Y-56349796D02*
X127933501Y-43349796D01*
X128433502Y-56849795D02*
G75*
G02X127933501Y-56349796I-1J500000D01*
G01*
X141433500Y-56849796D02*
X128433501Y-56849796D01*
X141933501Y-56349795D02*
G75*
G02X141433500Y-56849796I-500001J0D01*
G01*
X141933500Y-43349796D02*
X141933500Y-56349796D01*
X141433500Y-42849796D02*
G75*
G02X141933500Y-43349796I0J-500000D01*
G01*
X128433501Y-42849796D02*
X141433500Y-42849796D01*
X127933501Y-43349796D02*
G75*
G02X128433501Y-42849796I500000J0D01*
G01*
X237471000Y-94449796D02*
X237471000Y-81449796D01*
X237971000Y-94949796D02*
G75*
G02X237471000Y-94449796I0J500000D01*
G01*
X250971000Y-94949796D02*
X237971000Y-94949796D01*
X251471000Y-94449796D02*
G75*
G02X250971000Y-94949796I-500000J0D01*
G01*
X251471000Y-81449796D02*
X251471000Y-94449796D01*
X250971000Y-80949796D02*
G75*
G02X251471000Y-81449796I0J-500000D01*
G01*
X237971000Y-80949796D02*
X250971000Y-80949795D01*
X237471000Y-81449796D02*
G75*
G02X237971000Y-80949796I500000J0D01*
G01*
X113646000Y-75399796D02*
X113646001Y-62399796D01*
X114146002Y-75899796D02*
G75*
G02X113646000Y-75399796I-1J500001D01*
G01*
X127146000Y-75899796D02*
X114146000Y-75899796D01*
X127646001Y-75399795D02*
G75*
G02X127146000Y-75899796I-500001J0D01*
G01*
X127646001Y-62399796D02*
X127646000Y-75399796D01*
X127146000Y-61899795D02*
G75*
G02X127646001Y-62399796I0J-500001D01*
G01*
X114146000Y-61899796D02*
X127146000Y-61899795D01*
X113646001Y-62399795D02*
G75*
G02X114146000Y-61899796I499999J0D01*
G01*
X46971000Y-99212296D02*
X46971000Y-86212295D01*
X47471000Y-99712296D02*
G75*
G02X46971000Y-99212296I0J500000D01*
G01*
X60471000Y-99712296D02*
X47471000Y-99712295D01*
X60971001Y-99212295D02*
G75*
G02X60471000Y-99712296I-500001J0D01*
G01*
X60971000Y-86212296D02*
X60971000Y-99212295D01*
X60471000Y-85712296D02*
G75*
G02X60971000Y-86212296I0J-500000D01*
G01*
X47471000Y-85712296D02*
X60471000Y-85712295D01*
X46971001Y-86212295D02*
G75*
G02X47471000Y-85712296I499999J0D01*
G01*
X309839750Y-75399796D02*
X309839750Y-62399796D01*
X310339750Y-75899796D02*
G75*
G02X309839750Y-75399796I0J500000D01*
G01*
X311339750Y-75899796D02*
X310339750Y-75899796D01*
X311839750Y-75399796D02*
G75*
G02X311339750Y-75899796I-500000J0D01*
G01*
X311839750Y-62399796D02*
X311839750Y-75399796D01*
X311339750Y-61899796D02*
G75*
G02X311839750Y-62399796I0J-500000D01*
G01*
X310339750Y-61899796D02*
X311339750Y-61899796D01*
X309839750Y-62399796D02*
G75*
G02X310339750Y-61899796I500000J0D01*
G01*
X23158500Y-56349795D02*
X23158500Y-43349796D01*
X23658500Y-56849795D02*
G75*
G02X23158500Y-56349795I0J500000D01*
G01*
X36658500Y-56849796D02*
X23658500Y-56849796D01*
X37158501Y-56349795D02*
G75*
G02X36658500Y-56849796I-500001J0D01*
G01*
X37158500Y-43349796D02*
X37158501Y-56349795D01*
X36658502Y-42849796D02*
G75*
G02X37158500Y-43349796I-1J-499999D01*
G01*
X23658500Y-42849796D02*
X36658500Y-42849796D01*
X23158500Y-43349796D02*
G75*
G02X23658500Y-42849796I500000J0D01*
G01*
X275571000Y-94449796D02*
X275571000Y-81449796D01*
X276071000Y-94949796D02*
G75*
G02X275571000Y-94449796I0J500000D01*
G01*
X289071000Y-94949796D02*
X276071000Y-94949796D01*
X289571000Y-94449796D02*
G75*
G02X289071000Y-94949796I-500000J0D01*
G01*
X289571000Y-81449796D02*
X289571000Y-94449796D01*
X289071000Y-80949796D02*
G75*
G02X289571000Y-81449796I0J-500000D01*
G01*
X276071000Y-80949796D02*
X289071000Y-80949796D01*
X275571000Y-81449796D02*
G75*
G02X276071000Y-80949796I500000J0D01*
G01*
X157451750Y-98499796D02*
X157451750Y-112499796D01*
X156951751Y-97999797D02*
G75*
G02X157451750Y-98499796I0J-499999D01*
G01*
X150951750Y-97999796D02*
X156951750Y-97999796D01*
X150451751Y-98499795D02*
G75*
G02X150951750Y-97999796I499999J0D01*
G01*
X150451750Y-112499796D02*
X150451750Y-98499796D01*
X150951750Y-112999796D02*
G75*
G02X150451750Y-112499796I0J500000D01*
G01*
X156951750Y-112999796D02*
X150951750Y-112999796D01*
X157451751Y-112499795D02*
G75*
G02X156951750Y-112999796I-500001J0D01*
G01*
X72327250Y-94449796D02*
X72327250Y-81449796D01*
X72827250Y-94949796D02*
G75*
G02X72327250Y-94449796I0J500000D01*
G01*
X73827250Y-94949795D02*
X72827250Y-94949796D01*
X74327250Y-94449795D02*
G75*
G02X73827250Y-94949795I-500000J0D01*
G01*
X74327250Y-81449796D02*
X74327250Y-94449796D01*
X73827250Y-80949796D02*
G75*
G02X74327250Y-81449796I0J-500000D01*
G01*
X72827250Y-80949796D02*
X73827250Y-80949796D01*
X72327250Y-81449796D02*
G75*
G02X72827250Y-80949796I500000J0D01*
G01*
X4108500Y-75399796D02*
X4108500Y-62399796D01*
X4608500Y-75899796D02*
G75*
G02X4108500Y-75399796I0J500000D01*
G01*
X17608500Y-75899796D02*
X4608500Y-75899796D01*
X18108500Y-75399796D02*
G75*
G02X17608500Y-75899796I-500000J0D01*
G01*
X18108500Y-62399796D02*
X18108500Y-75399796D01*
X17608500Y-61899796D02*
G75*
G02X18108500Y-62399796I0J-500000D01*
G01*
X4608500Y-61899796D02*
X17608500Y-61899796D01*
X4108500Y-62399796D02*
G75*
G02X4608500Y-61899796I500000J0D01*
G01*
X123171000Y-94449796D02*
X123171000Y-81449796D01*
X123671000Y-94949796D02*
G75*
G02X123171000Y-94449796I0J500000D01*
G01*
X136671000Y-94949796D02*
X123671000Y-94949796D01*
X137171000Y-94449796D02*
G75*
G02X136671000Y-94949796I-500000J0D01*
G01*
X137171000Y-81449796D02*
X137171000Y-94449796D01*
X136671000Y-80949796D02*
G75*
G02X137171000Y-81449796I0J-500000D01*
G01*
X123671000Y-80949796D02*
X136671000Y-80949796D01*
X123171000Y-81449796D02*
G75*
G02X123671000Y-80949796I500000J0D01*
G01*
X161271000Y-94449796D02*
X161271000Y-81449796D01*
X161771000Y-94949796D02*
G75*
G02X161271000Y-94449796I0J500000D01*
G01*
X174771000Y-94949796D02*
X161771000Y-94949795D01*
X175271001Y-94449797D02*
G75*
G02X174771000Y-94949796I-500000J1D01*
G01*
X175271000Y-81449795D02*
X175271000Y-94449796D01*
X174771001Y-80949796D02*
G75*
G02X175271000Y-81449795I0J-499999D01*
G01*
X161771000Y-80949796D02*
X174771000Y-80949796D01*
X161271001Y-81449795D02*
G75*
G02X161771000Y-80949796I499999J0D01*
G01*
X242233500Y-56349796D02*
X242233500Y-43349796D01*
X242733500Y-56849796D02*
G75*
G02X242233500Y-56349796I0J500000D01*
G01*
X255733500Y-56849796D02*
X242733500Y-56849796D01*
X256233500Y-56349796D02*
G75*
G02X255733500Y-56849796I-500000J0D01*
G01*
X256233500Y-43349796D02*
X256233500Y-56349796D01*
X255733500Y-42849796D02*
G75*
G02X256233500Y-43349796I0J-500000D01*
G01*
X242733500Y-42849796D02*
X255733500Y-42849795D01*
X242233500Y-43349796D02*
G75*
G02X242733500Y-42849796I500000J0D01*
G01*
X246996000Y-75399796D02*
X246996000Y-62399796D01*
X247496000Y-75899796D02*
G75*
G02X246996000Y-75399796I0J500000D01*
G01*
X260496000Y-75899796D02*
X247496000Y-75899796D01*
X260996000Y-75399796D02*
G75*
G02X260496000Y-75899796I-500000J0D01*
G01*
X260996000Y-62399796D02*
X260996000Y-75399796D01*
X260496000Y-61899796D02*
G75*
G02X260996000Y-62399796I0J-500000D01*
G01*
X247496000Y-61899796D02*
X260496000Y-61899796D01*
X246996000Y-62399796D02*
G75*
G02X247496000Y-61899796I500000J0D01*
G01*
X151746000Y-75399796D02*
X151746000Y-62399796D01*
X152246000Y-75899796D02*
G75*
G02X151746000Y-75399796I0J500000D01*
G01*
X165246000Y-75899796D02*
X152246000Y-75899796D01*
X165746001Y-75399797D02*
G75*
G02X165246000Y-75899796I-500000J1D01*
G01*
X165746000Y-62399795D02*
X165746000Y-75399796D01*
X165246001Y-61899796D02*
G75*
G02X165746000Y-62399795I0J-499999D01*
G01*
X152246000Y-61899796D02*
X165246000Y-61899796D01*
X151746000Y-62399796D02*
G75*
G02X152246000Y-61899796I500000J0D01*
G01*
X4608500Y-80949796D02*
X17608500Y-80949795D01*
X4108500Y-81449796D02*
G75*
G02X4608500Y-80949796I500000J0D01*
G01*
X4108500Y-94449795D02*
X4108500Y-81449796D01*
X4608500Y-94949795D02*
G75*
G02X4108500Y-94449795I0J500000D01*
G01*
X17608500Y-94949795D02*
X4608500Y-94949795D01*
X18108500Y-94449795D02*
G75*
G02X17608500Y-94949795I-500000J0D01*
G01*
X18108500Y-81449796D02*
X18108500Y-94449795D01*
X17608500Y-80949796D02*
G75*
G02X18108500Y-81449796I0J-500000D01*
G01*
X4108500Y-43349796D02*
G75*
G02X4608500Y-42849796I500000J0D01*
G01*
X17608500Y-42849796D02*
X4608500Y-42849796D01*
X17608500Y-42849796D02*
G75*
G02X18108500Y-43349796I0J-500000D01*
G01*
X18108500Y-56349795D02*
X18108500Y-43349796D01*
X18108501Y-56349795D02*
G75*
G02X17608500Y-56849796I-500001J0D01*
G01*
X4608500Y-56849796D02*
X17608500Y-56849796D01*
X4608500Y-56849795D02*
G75*
G02X4108500Y-56349795I0J500000D01*
G01*
X4108500Y-43349796D02*
X4108500Y-56349795D01*
X266046000Y-75399796D02*
X266046000Y-62399796D01*
X266546000Y-75899796D02*
G75*
G02X266046000Y-75399796I0J500000D01*
G01*
X279546000Y-75899796D02*
X266546000Y-75899796D01*
X280046000Y-75399796D02*
G75*
G02X279546000Y-75899796I-500000J0D01*
G01*
X280046000Y-62399796D02*
X280046000Y-75399796D01*
X279546000Y-61899796D02*
G75*
G02X280046000Y-62399796I0J-500000D01*
G01*
X266546000Y-61899796D02*
X279546000Y-61899796D01*
X266046000Y-62399796D02*
G75*
G02X266546000Y-61899796I500000J0D01*
G01*
X241396000Y-113499796D02*
X241396000Y-100499796D01*
X241896000Y-113999796D02*
G75*
G02X241396000Y-113499796I0J500000D01*
G01*
X242896000Y-113999796D02*
X241896000Y-113999796D01*
X243396001Y-113499795D02*
G75*
G02X242896000Y-113999796I-500001J0D01*
G01*
X243396000Y-100499796D02*
X243396000Y-113499796D01*
X242896000Y-99999796D02*
G75*
G02X243396000Y-100499796I0J-500000D01*
G01*
X241896000Y-99999796D02*
X242896000Y-99999796D01*
X241396000Y-100499796D02*
G75*
G02X241896000Y-99999796I500000J0D01*
G01*
X123171000Y-113499796D02*
X123171000Y-100499796D01*
X123671001Y-113999795D02*
G75*
G02X123171000Y-113499796I-1J500000D01*
G01*
X136671000Y-113999796D02*
X123671000Y-113999796D01*
X137171001Y-113499795D02*
G75*
G02X136671000Y-113999796I-500001J0D01*
G01*
X137171000Y-100499796D02*
X137171000Y-113499796D01*
X136671001Y-99999795D02*
G75*
G02X137171000Y-100499796I-1J-500000D01*
G01*
X123671000Y-99999796D02*
X136671000Y-99999796D01*
X123171000Y-100499796D02*
G75*
G02X123671000Y-99999796I500000J0D01*
G01*
X46971001Y-43349795D02*
G75*
G02X47471000Y-42849796I499999J0D01*
G01*
X60471000Y-42849796D02*
X47471000Y-42849796D01*
X60471000Y-42849796D02*
G75*
G02X60971000Y-43349796I0J-500000D01*
G01*
X60971000Y-56349796D02*
X60971000Y-43349796D01*
X60971000Y-56349796D02*
G75*
G02X60471000Y-56849796I-500000J0D01*
G01*
X47471000Y-56849796D02*
X60471000Y-56849796D01*
X47470999Y-56849796D02*
G75*
G02X46971000Y-56349795I1J500000D01*
G01*
X46971000Y-43349796D02*
X46971000Y-56349795D01*
X94596000Y-113499796D02*
X94596001Y-100499796D01*
X95096001Y-113999795D02*
G75*
G02X94596000Y-113499796I-1J500000D01*
G01*
X108096000Y-113999796D02*
X95096000Y-113999796D01*
X108596001Y-113499795D02*
G75*
G02X108096000Y-113999796I-500001J0D01*
G01*
X108596000Y-100499796D02*
X108596000Y-113499796D01*
X108096000Y-99999796D02*
G75*
G02X108596000Y-100499796I0J-500000D01*
G01*
X95096000Y-99999796D02*
X108096000Y-99999796D01*
X94596001Y-100499795D02*
G75*
G02X95096000Y-99999796I499999J0D01*
G01*
X148639750Y-100499796D02*
X148639750Y-113499796D01*
X148139750Y-99999796D02*
G75*
G02X148639750Y-100499796I0J-500000D01*
G01*
X147139750Y-99999796D02*
X148139750Y-99999796D01*
X146639751Y-100499795D02*
G75*
G02X147139750Y-99999796I499999J0D01*
G01*
X146639750Y-113499796D02*
X146639750Y-100499796D01*
X147139750Y-113999796D02*
G75*
G02X146639750Y-113499796I0J500000D01*
G01*
X148139750Y-113999796D02*
X147139750Y-113999796D01*
X148639751Y-113499795D02*
G75*
G02X148139750Y-113999796I-500001J0D01*
G01*
X199371000Y-94449796D02*
X199371000Y-81449796D01*
X199871000Y-94949796D02*
G75*
G02X199371000Y-94449796I0J500000D01*
G01*
X212871000Y-94949796D02*
X199871000Y-94949795D01*
X213371000Y-94449796D02*
G75*
G02X212871000Y-94949796I-500000J0D01*
G01*
X213371000Y-81449796D02*
X213371000Y-94449796D01*
X212871000Y-80949796D02*
G75*
G02X213371000Y-81449796I0J-500000D01*
G01*
X199871000Y-80949796D02*
X212871000Y-80949796D01*
X199371000Y-81449796D02*
G75*
G02X199871000Y-80949796I500000J0D01*
G01*
X185083500Y-56349796D02*
X185083500Y-43349796D01*
X185583500Y-56849796D02*
G75*
G02X185083500Y-56349796I0J500000D01*
G01*
X198583500Y-56849796D02*
X185583500Y-56849796D01*
X199083500Y-56349796D02*
G75*
G02X198583500Y-56849796I-500000J0D01*
G01*
X199083500Y-43349796D02*
X199083500Y-56349796D01*
X198583500Y-42849796D02*
G75*
G02X199083500Y-43349796I0J-500000D01*
G01*
X185583500Y-42849796D02*
X198583500Y-42849796D01*
X185083500Y-43349796D02*
G75*
G02X185583500Y-42849796I500000J0D01*
G01*
X-14941499Y-94449795D02*
X-14941498Y-81449796D01*
X-14441499Y-94949797D02*
G75*
G02X-14941499Y-94449795I1J500001D01*
G01*
X-1441500Y-94949795D02*
X-14441498Y-94949796D01*
X-941500Y-94449795D02*
G75*
G02X-1441500Y-94949795I-500000J0D01*
G01*
X-941500Y-81449796D02*
X-941500Y-94449795D01*
X-1441500Y-80949796D02*
G75*
G02X-941500Y-81449796I0J-500000D01*
G01*
X-14441498Y-80949796D02*
X-1441500Y-80949795D01*
X-14941498Y-81449796D02*
G75*
G02X-14441498Y-80949796I500000J0D01*
G01*
X292239750Y-75399796D02*
X292239750Y-62399796D01*
X292739750Y-75899796D02*
G75*
G02X292239750Y-75399796I0J500000D01*
G01*
X305739750Y-75899796D02*
X292739750Y-75899796D01*
X306239750Y-75399796D02*
G75*
G02X305739750Y-75899796I-500000J0D01*
G01*
X306239750Y-62399796D02*
X306239750Y-75399796D01*
X305739750Y-61899796D02*
G75*
G02X306239750Y-62399796I0J-500000D01*
G01*
X292739750Y-61899796D02*
X305739750Y-61899796D01*
X292239750Y-62399796D02*
G75*
G02X292739750Y-61899796I500000J0D01*
G01*
X273189750Y-113499796D02*
X273189750Y-100499796D01*
X273689750Y-113999796D02*
G75*
G02X273189750Y-113499796I0J500000D01*
G01*
X286689750Y-113999796D02*
X273689750Y-113999796D01*
X287189750Y-113499796D02*
G75*
G02X286689750Y-113999796I-500000J0D01*
G01*
X287189750Y-100499796D02*
X287189750Y-113499796D01*
X286689750Y-99999796D02*
G75*
G02X287189750Y-100499796I0J-500000D01*
G01*
X273689750Y-99999796D02*
X286689750Y-99999796D01*
X273189750Y-100499796D02*
G75*
G02X273689750Y-99999796I500000J0D01*
G01*
X204133500Y-56349796D02*
X204133500Y-43349796D01*
X204633500Y-56849796D02*
G75*
G02X204133500Y-56349796I0J500000D01*
G01*
X217633500Y-56849796D02*
X204633500Y-56849796D01*
X218133500Y-56349796D02*
G75*
G02X217633500Y-56849796I-500000J0D01*
G01*
X218133500Y-43349796D02*
X218133500Y-56349796D01*
X217633500Y-42849796D02*
G75*
G02X218133500Y-43349796I0J-500000D01*
G01*
X204633500Y-42849796D02*
X217633500Y-42849796D01*
X204133500Y-43349796D02*
G75*
G02X204633500Y-42849796I500000J0D01*
G01*
X256521000Y-94449796D02*
X256521000Y-81449796D01*
X257021000Y-94949796D02*
G75*
G02X256521000Y-94449796I0J500000D01*
G01*
X270021000Y-94949796D02*
X257021000Y-94949795D01*
X270521000Y-94449796D02*
G75*
G02X270021000Y-94949796I-500000J0D01*
G01*
X270521000Y-81449796D02*
X270521000Y-94449796D01*
X270021000Y-80949796D02*
G75*
G02X270521000Y-81449796I0J-500000D01*
G01*
X257021000Y-80949796D02*
X270021000Y-80949796D01*
X256521000Y-81449796D02*
G75*
G02X257021000Y-80949796I500000J0D01*
G01*
X264596000Y-113499796D02*
X264596000Y-100499796D01*
X265096000Y-113999796D02*
G75*
G02X264596000Y-113499796I0J500000D01*
G01*
X266096000Y-113999796D02*
X265096000Y-113999795D01*
X266596000Y-113499796D02*
G75*
G02X266096000Y-113999796I-500000J0D01*
G01*
X266596000Y-100499796D02*
X266596000Y-113499796D01*
X266096000Y-99999796D02*
G75*
G02X266596000Y-100499796I0J-500000D01*
G01*
X265096000Y-99999796D02*
X266096000Y-99999796D01*
X264596000Y-100499796D02*
G75*
G02X265096000Y-99999796I500000J0D01*
G01*
X88996000Y-113499796D02*
X88996000Y-100499796D01*
X89496000Y-113999796D02*
G75*
G02X88996000Y-113499796I0J500000D01*
G01*
X90496000Y-113999796D02*
X89496000Y-113999795D01*
X90996001Y-113499795D02*
G75*
G02X90496000Y-113999796I-500001J0D01*
G01*
X90996000Y-100499796D02*
X90996000Y-113499796D01*
X90496001Y-99999795D02*
G75*
G02X90996000Y-100499796I-1J-500000D01*
G01*
X89496000Y-99999796D02*
X90496000Y-99999796D01*
X88996001Y-100499795D02*
G75*
G02X89496000Y-99999796I499999J0D01*
G01*
X181327750Y-98499796D02*
X181327750Y-112499796D01*
X180827750Y-97999796D02*
G75*
G02X181327750Y-98499796I0J-500000D01*
G01*
X174827750Y-97999796D02*
X180827750Y-97999796D01*
X174327750Y-98499796D02*
G75*
G02X174827750Y-97999796I500000J0D01*
G01*
X174327750Y-112499796D02*
X174327750Y-98499796D01*
X174827750Y-112999796D02*
G75*
G02X174327750Y-112499796I0J500000D01*
G01*
X180827750Y-112999796D02*
X174827750Y-112999796D01*
X181327750Y-112499796D02*
G75*
G02X180827750Y-112999796I-500000J0D01*
G01*
X46971000Y-118262296D02*
X46971000Y-105262296D01*
X47471001Y-118762295D02*
G75*
G02X46971000Y-118262296I-1J500000D01*
G01*
X60471000Y-118762296D02*
X47471000Y-118762296D01*
X60971001Y-118262295D02*
G75*
G02X60471000Y-118762296I-500001J0D01*
G01*
X60971000Y-105262296D02*
X60971000Y-118262296D01*
X60471000Y-104762296D02*
G75*
G02X60971000Y-105262296I0J-500000D01*
G01*
X47471000Y-104762296D02*
X60471000Y-104762296D01*
X46971001Y-105262295D02*
G75*
G02X47471000Y-104762296I499999J0D01*
G01*
X-14941499Y-43349795D02*
G75*
G02X-14441498Y-42849796I500000J-1D01*
G01*
X-1441500Y-42849796D02*
X-14441498Y-42849796D01*
X-1441500Y-42849796D02*
G75*
G02X-941500Y-43349796I0J-500000D01*
G01*
X-941500Y-56349795D02*
X-941500Y-43349796D01*
X-941499Y-56349795D02*
G75*
G02X-1441500Y-56849796I-500001J0D01*
G01*
X-14441498Y-56849796D02*
X-1441500Y-56849796D01*
X-14441498Y-56849796D02*
G75*
G02X-14941499Y-56349795I0J500001D01*
G01*
X-14941499Y-43349796D02*
X-14941499Y-56349795D01*
X4108500Y-113499796D02*
X4108500Y-100499796D01*
X4608500Y-113999796D02*
G75*
G02X4108500Y-113499796I0J500000D01*
G01*
X17608500Y-113999796D02*
X4608500Y-113999796D01*
X18108500Y-113499796D02*
G75*
G02X17608500Y-113999796I-500000J0D01*
G01*
X18108500Y-100499796D02*
X18108500Y-113499796D01*
X17608501Y-99999795D02*
G75*
G02X18108500Y-100499796I-1J-500000D01*
G01*
X4608500Y-99999796D02*
X17608500Y-99999796D01*
X4108500Y-100499796D02*
G75*
G02X4608500Y-99999796I500000J0D01*
G01*
X95527250Y-94449796D02*
X95527250Y-81449796D01*
X96027252Y-94949796D02*
G75*
G02X95527250Y-94449796I-1J500001D01*
G01*
X97027250Y-94949795D02*
X96027250Y-94949796D01*
X97527249Y-94449796D02*
G75*
G02X97027250Y-94949795I-499999J0D01*
G01*
X97527250Y-81449796D02*
X97527250Y-94449796D01*
X97027250Y-80949796D02*
G75*
G02X97527250Y-81449796I0J-500000D01*
G01*
X96027250Y-80949796D02*
X97027250Y-80949796D01*
X95527250Y-81449796D02*
G75*
G02X96027250Y-80949796I500000J0D01*
G01*
X70783500Y-56349796D02*
X70783500Y-43349796D01*
X71283500Y-56849796D02*
G75*
G02X70783500Y-56349796I0J500000D01*
G01*
X84283500Y-56849796D02*
X71283500Y-56849796D01*
X84783500Y-56349796D02*
G75*
G02X84283500Y-56849796I-500000J0D01*
G01*
X84783500Y-43349796D02*
X84783500Y-56349796D01*
X84283500Y-42849796D02*
G75*
G02X84783500Y-43349796I0J-500000D01*
G01*
X71283500Y-42849796D02*
X84283500Y-42849796D01*
X70783500Y-43349796D02*
G75*
G02X71283500Y-42849796I500000J0D01*
G01*
X189846000Y-75399796D02*
X189846000Y-62399796D01*
X190346000Y-75899796D02*
G75*
G02X189846000Y-75399796I0J500000D01*
G01*
X203346000Y-75899796D02*
X190346000Y-75899796D01*
X203846000Y-75399796D02*
G75*
G02X203346000Y-75899796I-500000J0D01*
G01*
X203846000Y-62399796D02*
X203846000Y-75399796D01*
X203346000Y-61899796D02*
G75*
G02X203846000Y-62399796I0J-500000D01*
G01*
X190346000Y-61899796D02*
X203346000Y-61899796D01*
X189846000Y-62399796D02*
G75*
G02X190346000Y-61899796I500000J0D01*
G01*
X261283500Y-56349796D02*
X261283500Y-43349796D01*
X261783501Y-56849795D02*
G75*
G02X261283500Y-56349796I-1J500000D01*
G01*
X274783500Y-56849796D02*
X261783500Y-56849796D01*
X275283500Y-56349796D02*
G75*
G02X274783500Y-56849796I-500000J0D01*
G01*
X275283500Y-43349796D02*
X275283500Y-56349796D01*
X274783500Y-42849796D02*
G75*
G02X275283500Y-43349796I0J-500000D01*
G01*
X261783500Y-42849796D02*
X274783500Y-42849796D01*
X261283500Y-43349796D02*
G75*
G02X261783500Y-42849796I500000J0D01*
G01*
X204576750Y-112999796D02*
X198576750Y-112999795D01*
X205076750Y-112499796D02*
G75*
G02X204576750Y-112999796I-500000J0D01*
G01*
X205076750Y-98499796D02*
X205076750Y-112499796D01*
X204576750Y-97999796D02*
G75*
G02X205076750Y-98499796I0J-500000D01*
G01*
X198576750Y-97999796D02*
X204576750Y-97999796D01*
X198076751Y-98499797D02*
G75*
G02X198576750Y-97999796I500000J1D01*
G01*
X198076750Y-112499796D02*
X198076750Y-98499796D01*
X198576750Y-112999796D02*
G75*
G02X198076750Y-112499796I0J500000D01*
G01*
X112196000Y-113499796D02*
X112196000Y-100499796D01*
X112696001Y-113999795D02*
G75*
G02X112196000Y-113499796I-1J500000D01*
G01*
X113696000Y-113999796D02*
X112696000Y-113999796D01*
X114196001Y-113499795D02*
G75*
G02X113696000Y-113999796I-500001J0D01*
G01*
X114196000Y-100499796D02*
X114196000Y-113499796D01*
X113696001Y-99999795D02*
G75*
G02X114196000Y-100499796I-1J-500000D01*
G01*
X112696000Y-99999796D02*
X113696000Y-99999796D01*
X112196000Y-100499796D02*
G75*
G02X112696000Y-99999796I500000J0D01*
G01*
X77927250Y-81449796D02*
G75*
G02X78427250Y-80949796I500000J0D01*
G01*
X91427250Y-80949796D02*
X78427250Y-80949796D01*
X91427250Y-80949796D02*
G75*
G02X91927250Y-81449796I0J-500000D01*
G01*
X91927250Y-94449796D02*
X91927250Y-81449796D01*
X91927250Y-94449795D02*
G75*
G02X91427250Y-94949795I-500000J0D01*
G01*
X78427250Y-94949796D02*
X91427250Y-94949795D01*
X78427252Y-94949796D02*
G75*
G02X77927250Y-94449796I-1J500001D01*
G01*
X77927250Y-81449796D02*
X77927250Y-94449796D01*
X246996000Y-100499796D02*
G75*
G02X247496000Y-99999796I500000J0D01*
G01*
X260496000Y-99999796D02*
X247496000Y-99999796D01*
X260496001Y-99999795D02*
G75*
G02X260996000Y-100499796I-1J-500000D01*
G01*
X260996000Y-113499796D02*
X260996000Y-100499796D01*
X260996000Y-113499796D02*
G75*
G02X260496000Y-113999796I-500000J0D01*
G01*
X247496000Y-113999796D02*
X260496000Y-113999796D01*
X247496000Y-113999796D02*
G75*
G02X246996000Y-113499796I0J500000D01*
G01*
X246996000Y-100499796D02*
X246996000Y-113499796D01*
X166033500Y-56349796D02*
X166033500Y-43349796D01*
X166533500Y-56849796D02*
G75*
G02X166033500Y-56349796I0J500000D01*
G01*
X179533500Y-56849796D02*
X166533500Y-56849795D01*
X180033500Y-56349796D02*
G75*
G02X179533500Y-56849796I-500000J0D01*
G01*
X180033500Y-43349796D02*
X180033500Y-56349796D01*
X179533501Y-42849795D02*
G75*
G02X180033500Y-43349796I-1J-500000D01*
G01*
X166533500Y-42849796D02*
X179533500Y-42849796D01*
X166033500Y-43349796D02*
G75*
G02X166533500Y-42849796I500000J0D01*
G01*
X146983500Y-56349796D02*
X146983500Y-43349796D01*
X147483500Y-56849796D02*
G75*
G02X146983500Y-56349796I0J500000D01*
G01*
X160483500Y-56849796D02*
X147483500Y-56849796D01*
X160983500Y-56349796D02*
G75*
G02X160483500Y-56849796I-500000J0D01*
G01*
X160983500Y-43349796D02*
X160983500Y-56349796D01*
X160483500Y-42849796D02*
G75*
G02X160983500Y-43349796I0J-500000D01*
G01*
X147483500Y-42849796D02*
X160483500Y-42849795D01*
X146983500Y-43349796D02*
G75*
G02X147483500Y-42849796I500000J0D01*
G01*
X158889750Y-113499796D02*
X158889750Y-100499796D01*
X159389750Y-113999796D02*
G75*
G02X158889750Y-113499796I0J500000D01*
G01*
X172389750Y-113999796D02*
X159389750Y-113999796D01*
X172889750Y-113499796D02*
G75*
G02X172389750Y-113999796I-500000J0D01*
G01*
X172889750Y-100499796D02*
X172889750Y-113499796D01*
X172389750Y-99999796D02*
G75*
G02X172889750Y-100499796I0J-500000D01*
G01*
X159389750Y-99999796D02*
X172389750Y-99999796D01*
X158889750Y-100499796D02*
G75*
G02X159389750Y-99999796I500000J0D01*
G01*
X170796000Y-62399796D02*
G75*
G02X171296000Y-61899796I500000J0D01*
G01*
X184296000Y-61899796D02*
X171296000Y-61899796D01*
X184296000Y-61899796D02*
G75*
G02X184796000Y-62399796I0J-500000D01*
G01*
X184796000Y-75399796D02*
X184796000Y-62399796D01*
X184796000Y-75399796D02*
G75*
G02X184296000Y-75899796I-500000J0D01*
G01*
X171296000Y-75899796D02*
X184296000Y-75899796D01*
X171296000Y-75899796D02*
G75*
G02X170796000Y-75399796I0J500000D01*
G01*
X170796000Y-62399796D02*
X170796000Y-75399796D01*
X94596000Y-75399796D02*
X94596001Y-62399796D01*
X95096001Y-75899795D02*
G75*
G02X94596000Y-75399796I-1J500000D01*
G01*
X108096000Y-75899796D02*
X95096000Y-75899796D01*
X108596001Y-75399795D02*
G75*
G02X108096000Y-75899796I-500001J0D01*
G01*
X108596000Y-62399796D02*
X108596000Y-75399796D01*
X108096000Y-61899796D02*
G75*
G02X108596000Y-62399796I0J-500000D01*
G01*
X95096000Y-61899796D02*
X108096000Y-61899795D01*
X94596001Y-62399795D02*
G75*
G02X95096000Y-61899796I499999J0D01*
G01*
X132696000Y-75399796D02*
X132696000Y-62399796D01*
X133196001Y-75899795D02*
G75*
G02X132696000Y-75399796I-1J500000D01*
G01*
X146196000Y-75899796D02*
X133196000Y-75899796D01*
X146696001Y-75399795D02*
G75*
G02X146196000Y-75899796I-500001J0D01*
G01*
X146696000Y-62399796D02*
X146696000Y-75399796D01*
X146196000Y-61899796D02*
G75*
G02X146696000Y-62399796I0J-500000D01*
G01*
X133196000Y-61899796D02*
X146196000Y-61899796D01*
X132696000Y-62399796D02*
G75*
G02X133196000Y-61899796I500000J0D01*
G01*
X89833500Y-43349796D02*
G75*
G02X90333500Y-42849796I500000J0D01*
G01*
X103333500Y-42849796D02*
X90333500Y-42849796D01*
X103333500Y-42849796D02*
G75*
G02X103833500Y-43349796I0J-500000D01*
G01*
X103833500Y-56349796D02*
X103833500Y-43349796D01*
X103833500Y-56349796D02*
G75*
G02X103333500Y-56849796I-500000J0D01*
G01*
X90333500Y-56849796D02*
X103333500Y-56849796D01*
X90333502Y-56849796D02*
G75*
G02X89833500Y-56349796I-1J500001D01*
G01*
X89833500Y-43349796D02*
X89833500Y-56349796D01*
X299383500Y-56349796D02*
X299383500Y-43349796D01*
X299883500Y-56849796D02*
G75*
G02X299383500Y-56349796I0J500000D01*
G01*
X312883500Y-56849796D02*
X299883500Y-56849796D01*
X313383500Y-56349796D02*
G75*
G02X312883500Y-56849796I-500000J0D01*
G01*
X313383500Y-43349796D02*
X313383501Y-56349796D01*
X312883500Y-42849796D02*
G75*
G02X313383500Y-43349796I0J-500000D01*
G01*
X299883500Y-42849796D02*
X312883500Y-42849796D01*
X299383501Y-43349797D02*
G75*
G02X299883500Y-42849796I500000J1D01*
G01*
X232764750Y-100499796D02*
X232764750Y-113499796D01*
X232264750Y-99999796D02*
G75*
G02X232764750Y-100499796I0J-500000D01*
G01*
X231264750Y-99999796D02*
X232264750Y-99999796D01*
X230764750Y-100499796D02*
G75*
G02X231264750Y-99999796I500000J0D01*
G01*
X230764750Y-113499796D02*
X230764750Y-100499796D01*
X231264750Y-113999796D02*
G75*
G02X230764750Y-113499796I0J500000D01*
G01*
X232264750Y-113999796D02*
X231264750Y-113999796D01*
X232764751Y-113499795D02*
G75*
G02X232264750Y-113999796I-500001J0D01*
G01*
X27921000Y-118262296D02*
X27921000Y-105262296D01*
X28421000Y-118762296D02*
G75*
G02X27921000Y-118262296I0J500000D01*
G01*
X41421000Y-118762296D02*
X28421000Y-118762295D01*
X41921001Y-118262295D02*
G75*
G02X41421000Y-118762296I-500001J0D01*
G01*
X41921000Y-105262296D02*
X41921001Y-118262296D01*
X41421001Y-104762295D02*
G75*
G02X41921000Y-105262296I-1J-500000D01*
G01*
X28421000Y-104762296D02*
X41421000Y-104762296D01*
X27921001Y-105262295D02*
G75*
G02X28421000Y-104762296I499999J0D01*
G01*
X3971000Y-127361000D02*
G75*
G02X2721000Y-126111000I0J1250000D01*
G01*
X85471000Y-127361000D02*
X3971000Y-127361000D01*
X86721000Y-126111000D02*
G75*
G02X85471000Y-127361000I-1250000J0D01*
G01*
M02*
