G04 #@! TF.GenerationSoftware,KiCad,Pcbnew,(5.1.4-0-10_14)*
G04 #@! TF.CreationDate,2020-05-24T15:52:24-05:00*
G04 #@! TF.ProjectId,reverie,72657665-7269-4652-9e6b-696361645f70,rev?*
G04 #@! TF.SameCoordinates,Original*
G04 #@! TF.FileFunction,Legend,Bot*
G04 #@! TF.FilePolarity,Positive*
%FSLAX46Y46*%
G04 Gerber Fmt 4.6, Leading zero omitted, Abs format (unit mm)*
G04 Created by KiCad (PCBNEW (5.1.4-0-10_14)) date 2020-05-24 15:52:24*
%MOMM*%
%LPD*%
G04 APERTURE LIST*
%ADD10C,0.120000*%
%ADD11C,0.150000*%
G04 APERTURE END LIST*
D10*
X59638000Y-94610422D02*
X59638000Y-95127578D01*
X58218000Y-94610422D02*
X58218000Y-95127578D01*
X70791000Y-101350578D02*
X70791000Y-100833422D01*
X72211000Y-101350578D02*
X72211000Y-100833422D01*
X148066000Y-146776000D02*
X148066000Y-142876000D01*
X146066000Y-146776000D02*
X146066000Y-142876000D01*
X148066000Y-146776000D02*
X146066000Y-146776000D01*
X73512000Y-83025064D02*
X73512000Y-81820936D01*
X75332000Y-83025064D02*
X75332000Y-81820936D01*
X60484000Y-93219000D02*
X64484000Y-93219000D01*
X60484000Y-96519000D02*
X60484000Y-93219000D01*
D11*
X57309000Y-111280000D02*
X56034000Y-111280000D01*
X67659000Y-111855000D02*
X66984000Y-111855000D01*
X67659000Y-101505000D02*
X66984000Y-101505000D01*
X57309000Y-101505000D02*
X57984000Y-101505000D01*
X57309000Y-111855000D02*
X57984000Y-111855000D01*
X57309000Y-101505000D02*
X57309000Y-102180000D01*
X67659000Y-101505000D02*
X67659000Y-102180000D01*
X67659000Y-111855000D02*
X67659000Y-111180000D01*
X57309000Y-111855000D02*
X57309000Y-111280000D01*
X73772000Y-75004000D02*
X73772000Y-77904000D01*
X73772000Y-75004000D02*
X75072000Y-75004000D01*
X75072000Y-75004000D02*
X75072000Y-77904000D01*
X75072000Y-77904000D02*
X73772000Y-77904000D01*
X75759000Y-125536000D02*
X80959000Y-125536000D01*
X80959000Y-125536000D02*
X80959000Y-120336000D01*
X80959000Y-120336000D02*
X75759000Y-120336000D01*
X75759000Y-120336000D02*
X75759000Y-125536000D01*
X79359000Y-122936000D02*
G75*
G03X79359000Y-122936000I-1000000J0D01*
G01*
D10*
X72267578Y-112216000D02*
X71750422Y-112216000D01*
X72267578Y-110796000D02*
X71750422Y-110796000D01*
X51106000Y-79633578D02*
X51106000Y-79116422D01*
X52526000Y-79633578D02*
X52526000Y-79116422D01*
X50423578Y-108914000D02*
X49906422Y-108914000D01*
X50423578Y-107494000D02*
X49906422Y-107494000D01*
X50423578Y-110946000D02*
X49906422Y-110946000D01*
X50423578Y-109526000D02*
X49906422Y-109526000D01*
X48947000Y-79633578D02*
X48947000Y-79116422D01*
X50367000Y-79633578D02*
X50367000Y-79116422D01*
X72004422Y-113971000D02*
X72521578Y-113971000D01*
X72004422Y-115391000D02*
X72521578Y-115391000D01*
X321802000Y-146776000D02*
X321802000Y-142876000D01*
X319802000Y-146776000D02*
X319802000Y-142876000D01*
X321802000Y-146776000D02*
X319802000Y-146776000D01*
X298053000Y-146776000D02*
X298053000Y-142876000D01*
X296053000Y-146776000D02*
X296053000Y-142876000D01*
X298053000Y-146776000D02*
X296053000Y-146776000D01*
X271891000Y-146776000D02*
X271891000Y-142876000D01*
X269891000Y-146776000D02*
X269891000Y-142876000D01*
X271891000Y-146776000D02*
X269891000Y-146776000D01*
X231378000Y-146776000D02*
X231378000Y-142876000D01*
X229378000Y-146776000D02*
X229378000Y-142876000D01*
X231378000Y-146776000D02*
X229378000Y-146776000D01*
X183753000Y-146776000D02*
X183753000Y-142876000D01*
X181753000Y-146776000D02*
X181753000Y-142876000D01*
X183753000Y-146776000D02*
X181753000Y-146776000D01*
X119364000Y-146776000D02*
X119364000Y-142876000D01*
X117364000Y-146776000D02*
X117364000Y-142876000D01*
X119364000Y-146776000D02*
X117364000Y-146776000D01*
X90789000Y-151475000D02*
X90789000Y-147575000D01*
X88789000Y-151475000D02*
X88789000Y-147575000D01*
X90789000Y-151475000D02*
X88789000Y-151475000D01*
X71866000Y-151475000D02*
X71866000Y-147575000D01*
X69866000Y-151475000D02*
X69866000Y-147575000D01*
X71866000Y-151475000D02*
X69866000Y-151475000D01*
X52816000Y-151475000D02*
X52816000Y-147575000D01*
X50816000Y-151475000D02*
X50816000Y-147575000D01*
X52816000Y-151475000D02*
X50816000Y-151475000D01*
X28940000Y-146776000D02*
X28940000Y-142876000D01*
X26940000Y-146776000D02*
X26940000Y-142876000D01*
X28940000Y-146776000D02*
X26940000Y-146776000D01*
X9890000Y-146776000D02*
X9890000Y-142876000D01*
X7890000Y-146776000D02*
X7890000Y-142876000D01*
X9890000Y-146776000D02*
X7890000Y-146776000D01*
X321802000Y-127726000D02*
X321802000Y-123826000D01*
X319802000Y-127726000D02*
X319802000Y-123826000D01*
X321802000Y-127726000D02*
X319802000Y-127726000D01*
X300466000Y-127726000D02*
X300466000Y-123826000D01*
X298466000Y-127726000D02*
X298466000Y-123826000D01*
X300466000Y-127726000D02*
X298466000Y-127726000D01*
X281416000Y-127726000D02*
X281416000Y-123826000D01*
X279416000Y-127726000D02*
X279416000Y-123826000D01*
X281416000Y-127726000D02*
X279416000Y-127726000D01*
X262366000Y-127726000D02*
X262366000Y-123826000D01*
X260366000Y-127726000D02*
X260366000Y-123826000D01*
X262366000Y-127726000D02*
X260366000Y-127726000D01*
X243316000Y-127726000D02*
X243316000Y-123826000D01*
X241316000Y-127726000D02*
X241316000Y-123826000D01*
X243316000Y-127726000D02*
X241316000Y-127726000D01*
X224266000Y-127726000D02*
X224266000Y-123826000D01*
X222266000Y-127726000D02*
X222266000Y-123826000D01*
X224266000Y-127726000D02*
X222266000Y-127726000D01*
X205216000Y-127726000D02*
X205216000Y-123826000D01*
X203216000Y-127726000D02*
X203216000Y-123826000D01*
X205216000Y-127726000D02*
X203216000Y-127726000D01*
X186166000Y-127726000D02*
X186166000Y-123826000D01*
X184166000Y-127726000D02*
X184166000Y-123826000D01*
X186166000Y-127726000D02*
X184166000Y-127726000D01*
X167116000Y-127726000D02*
X167116000Y-123826000D01*
X165116000Y-127726000D02*
X165116000Y-123826000D01*
X167116000Y-127726000D02*
X165116000Y-127726000D01*
X148066000Y-127726000D02*
X148066000Y-123826000D01*
X146066000Y-127726000D02*
X146066000Y-123826000D01*
X148066000Y-127726000D02*
X146066000Y-127726000D01*
X128889000Y-127726000D02*
X128889000Y-123826000D01*
X126889000Y-127726000D02*
X126889000Y-123826000D01*
X128889000Y-127726000D02*
X126889000Y-127726000D01*
X102727000Y-127726000D02*
X102727000Y-123826000D01*
X100727000Y-127726000D02*
X100727000Y-123826000D01*
X102727000Y-127726000D02*
X100727000Y-127726000D01*
X71866000Y-132425000D02*
X71866000Y-128525000D01*
X69866000Y-132425000D02*
X69866000Y-128525000D01*
X71866000Y-132425000D02*
X69866000Y-132425000D01*
X47990000Y-127726000D02*
X47990000Y-123826000D01*
X45990000Y-127726000D02*
X45990000Y-123826000D01*
X47990000Y-127726000D02*
X45990000Y-127726000D01*
X28940000Y-127726000D02*
X28940000Y-123826000D01*
X26940000Y-127726000D02*
X26940000Y-123826000D01*
X28940000Y-127726000D02*
X26940000Y-127726000D01*
X9890000Y-127726000D02*
X9890000Y-123826000D01*
X7890000Y-127726000D02*
X7890000Y-123826000D01*
X9890000Y-127726000D02*
X7890000Y-127726000D01*
X317103000Y-108676000D02*
X317103000Y-104776000D01*
X315103000Y-108676000D02*
X315103000Y-104776000D01*
X317103000Y-108676000D02*
X315103000Y-108676000D01*
X290941000Y-108676000D02*
X290941000Y-104776000D01*
X288941000Y-108676000D02*
X288941000Y-104776000D01*
X290941000Y-108676000D02*
X288941000Y-108676000D01*
X271891000Y-108676000D02*
X271891000Y-104776000D01*
X269891000Y-108676000D02*
X269891000Y-104776000D01*
X271891000Y-108676000D02*
X269891000Y-108676000D01*
X252841000Y-108676000D02*
X252841000Y-104776000D01*
X250841000Y-108676000D02*
X250841000Y-104776000D01*
X252841000Y-108676000D02*
X250841000Y-108676000D01*
X233791000Y-108676000D02*
X233791000Y-104776000D01*
X231791000Y-108676000D02*
X231791000Y-104776000D01*
X233791000Y-108676000D02*
X231791000Y-108676000D01*
X214614000Y-108676000D02*
X214614000Y-104776000D01*
X212614000Y-108676000D02*
X212614000Y-104776000D01*
X214614000Y-108676000D02*
X212614000Y-108676000D01*
X195564000Y-108676000D02*
X195564000Y-104776000D01*
X193564000Y-108676000D02*
X193564000Y-104776000D01*
X195564000Y-108676000D02*
X193564000Y-108676000D01*
X176514000Y-108676000D02*
X176514000Y-104776000D01*
X174514000Y-108676000D02*
X174514000Y-104776000D01*
X176514000Y-108676000D02*
X174514000Y-108676000D01*
X157591000Y-108676000D02*
X157591000Y-104776000D01*
X155591000Y-108676000D02*
X155591000Y-104776000D01*
X157591000Y-108676000D02*
X155591000Y-108676000D01*
X138541000Y-108676000D02*
X138541000Y-104776000D01*
X136541000Y-108676000D02*
X136541000Y-104776000D01*
X138541000Y-108676000D02*
X136541000Y-108676000D01*
X119491000Y-108676000D02*
X119491000Y-104776000D01*
X117491000Y-108676000D02*
X117491000Y-104776000D01*
X119491000Y-108676000D02*
X117491000Y-108676000D01*
X98155000Y-108676000D02*
X98155000Y-104776000D01*
X96155000Y-108676000D02*
X96155000Y-104776000D01*
X98155000Y-108676000D02*
X96155000Y-108676000D01*
X45577000Y-108676000D02*
X45577000Y-104776000D01*
X43577000Y-108676000D02*
X43577000Y-104776000D01*
X45577000Y-108676000D02*
X43577000Y-108676000D01*
X28940000Y-108676000D02*
X28940000Y-104776000D01*
X26940000Y-108676000D02*
X26940000Y-104776000D01*
X28940000Y-108676000D02*
X26940000Y-108676000D01*
X9890000Y-108676000D02*
X9890000Y-104776000D01*
X7890000Y-108676000D02*
X7890000Y-104776000D01*
X9890000Y-108676000D02*
X7890000Y-108676000D01*
X321421000Y-89626000D02*
X321421000Y-85726000D01*
X319421000Y-89626000D02*
X319421000Y-85726000D01*
X321421000Y-89626000D02*
X319421000Y-89626000D01*
X305165000Y-89626000D02*
X305165000Y-85726000D01*
X303165000Y-89626000D02*
X303165000Y-85726000D01*
X305165000Y-89626000D02*
X303165000Y-89626000D01*
X286115000Y-89626000D02*
X286115000Y-85726000D01*
X284115000Y-89626000D02*
X284115000Y-85726000D01*
X286115000Y-89626000D02*
X284115000Y-89626000D01*
X267065000Y-89626000D02*
X267065000Y-85726000D01*
X265065000Y-89626000D02*
X265065000Y-85726000D01*
X267065000Y-89626000D02*
X265065000Y-89626000D01*
X248015000Y-89626000D02*
X248015000Y-85726000D01*
X246015000Y-89626000D02*
X246015000Y-85726000D01*
X248015000Y-89626000D02*
X246015000Y-89626000D01*
X228965000Y-89626000D02*
X228965000Y-85726000D01*
X226965000Y-89626000D02*
X226965000Y-85726000D01*
X228965000Y-89626000D02*
X226965000Y-89626000D01*
X209915000Y-89626000D02*
X209915000Y-85726000D01*
X207915000Y-89626000D02*
X207915000Y-85726000D01*
X209915000Y-89626000D02*
X207915000Y-89626000D01*
X190865000Y-89626000D02*
X190865000Y-85726000D01*
X188865000Y-89626000D02*
X188865000Y-85726000D01*
X190865000Y-89626000D02*
X188865000Y-89626000D01*
X171815000Y-89626000D02*
X171815000Y-85726000D01*
X169815000Y-89626000D02*
X169815000Y-85726000D01*
X171815000Y-89626000D02*
X169815000Y-89626000D01*
X152765000Y-89626000D02*
X152765000Y-85726000D01*
X150765000Y-89626000D02*
X150765000Y-85726000D01*
X152765000Y-89626000D02*
X150765000Y-89626000D01*
X133715000Y-89626000D02*
X133715000Y-85726000D01*
X131715000Y-89626000D02*
X131715000Y-85726000D01*
X133715000Y-89626000D02*
X131715000Y-89626000D01*
X114665000Y-89626000D02*
X114665000Y-85726000D01*
X112665000Y-89626000D02*
X112665000Y-85726000D01*
X114665000Y-89626000D02*
X112665000Y-89626000D01*
X95615000Y-89626000D02*
X95615000Y-85726000D01*
X93615000Y-89626000D02*
X93615000Y-85726000D01*
X95615000Y-89626000D02*
X93615000Y-89626000D01*
X71612000Y-89626000D02*
X71612000Y-85726000D01*
X69612000Y-89626000D02*
X69612000Y-85726000D01*
X71612000Y-89626000D02*
X69612000Y-89626000D01*
X31480000Y-89626000D02*
X31480000Y-85726000D01*
X29480000Y-89626000D02*
X29480000Y-85726000D01*
X31480000Y-89626000D02*
X29480000Y-89626000D01*
X28813000Y-89626000D02*
X28813000Y-85726000D01*
X26813000Y-89626000D02*
X26813000Y-85726000D01*
X28813000Y-89626000D02*
X26813000Y-89626000D01*
X9890000Y-89626000D02*
X9890000Y-85726000D01*
X7890000Y-89626000D02*
X7890000Y-85726000D01*
X9890000Y-89626000D02*
X7890000Y-89626000D01*
X56383422Y-116026000D02*
X56900578Y-116026000D01*
X56383422Y-114606000D02*
X56900578Y-114606000D01*
X51058578Y-101548000D02*
X50541422Y-101548000D01*
X51058578Y-100128000D02*
X50541422Y-100128000D01*
X67695578Y-113971000D02*
X67178422Y-113971000D01*
X67695578Y-115391000D02*
X67178422Y-115391000D01*
X50423578Y-106882000D02*
X49906422Y-106882000D01*
X50423578Y-105462000D02*
X49906422Y-105462000D01*
X65203000Y-95127578D02*
X65203000Y-94610422D01*
X66623000Y-95127578D02*
X66623000Y-94610422D01*
D11*
X223884904Y-143327380D02*
X223884904Y-142327380D01*
X223551571Y-143041666D01*
X223218238Y-142327380D01*
X223218238Y-143327380D01*
X222837285Y-142327380D02*
X222170619Y-143327380D01*
X222170619Y-142327380D02*
X222837285Y-143327380D01*
X221313476Y-142327380D02*
X221789666Y-142327380D01*
X221837285Y-142803571D01*
X221789666Y-142755952D01*
X221694428Y-142708333D01*
X221456333Y-142708333D01*
X221361095Y-142755952D01*
X221313476Y-142803571D01*
X221265857Y-142898809D01*
X221265857Y-143136904D01*
X221313476Y-143232142D01*
X221361095Y-143279761D01*
X221456333Y-143327380D01*
X221694428Y-143327380D01*
X221789666Y-143279761D01*
X221837285Y-143232142D01*
X220932523Y-142327380D02*
X220265857Y-142327380D01*
X220694428Y-143327380D01*
X176259904Y-143327380D02*
X176259904Y-142327380D01*
X175926571Y-143041666D01*
X175593238Y-142327380D01*
X175593238Y-143327380D01*
X175212285Y-142327380D02*
X174545619Y-143327380D01*
X174545619Y-142327380D02*
X175212285Y-143327380D01*
X173688476Y-142327380D02*
X174164666Y-142327380D01*
X174212285Y-142803571D01*
X174164666Y-142755952D01*
X174069428Y-142708333D01*
X173831333Y-142708333D01*
X173736095Y-142755952D01*
X173688476Y-142803571D01*
X173640857Y-142898809D01*
X173640857Y-143136904D01*
X173688476Y-143232142D01*
X173736095Y-143279761D01*
X173831333Y-143327380D01*
X174069428Y-143327380D01*
X174164666Y-143279761D01*
X174212285Y-143232142D01*
X172783714Y-142327380D02*
X172974190Y-142327380D01*
X173069428Y-142375000D01*
X173117047Y-142422619D01*
X173212285Y-142565476D01*
X173259904Y-142755952D01*
X173259904Y-143136904D01*
X173212285Y-143232142D01*
X173164666Y-143279761D01*
X173069428Y-143327380D01*
X172878952Y-143327380D01*
X172783714Y-143279761D01*
X172736095Y-143232142D01*
X172688476Y-143136904D01*
X172688476Y-142898809D01*
X172736095Y-142803571D01*
X172783714Y-142755952D01*
X172878952Y-142708333D01*
X173069428Y-142708333D01*
X173164666Y-142755952D01*
X173212285Y-142803571D01*
X173259904Y-142898809D01*
X63769714Y-86177380D02*
X63769714Y-85177380D01*
X63436380Y-85891666D01*
X63103047Y-85177380D01*
X63103047Y-86177380D01*
X62722095Y-85177380D02*
X62055428Y-86177380D01*
X62055428Y-85177380D02*
X62722095Y-86177380D01*
X61245904Y-85510714D02*
X61245904Y-86177380D01*
X61484000Y-85129761D02*
X61722095Y-85844047D01*
X61103047Y-85844047D01*
X59094666Y-97639142D02*
X59142285Y-97686761D01*
X59285142Y-97734380D01*
X59380380Y-97734380D01*
X59523238Y-97686761D01*
X59618476Y-97591523D01*
X59666095Y-97496285D01*
X59713714Y-97305809D01*
X59713714Y-97162952D01*
X59666095Y-96972476D01*
X59618476Y-96877238D01*
X59523238Y-96782000D01*
X59380380Y-96734380D01*
X59285142Y-96734380D01*
X59142285Y-96782000D01*
X59094666Y-96829619D01*
X58142285Y-97734380D02*
X58713714Y-97734380D01*
X58428000Y-97734380D02*
X58428000Y-96734380D01*
X58523238Y-96877238D01*
X58618476Y-96972476D01*
X58713714Y-97020095D01*
X71858142Y-98258333D02*
X71905761Y-98210714D01*
X71953380Y-98067857D01*
X71953380Y-97972619D01*
X71905761Y-97829761D01*
X71810523Y-97734523D01*
X71715285Y-97686904D01*
X71524809Y-97639285D01*
X71381952Y-97639285D01*
X71191476Y-97686904D01*
X71096238Y-97734523D01*
X71001000Y-97829761D01*
X70953380Y-97972619D01*
X70953380Y-98067857D01*
X71001000Y-98210714D01*
X71048619Y-98258333D01*
X71286714Y-99115476D02*
X71953380Y-99115476D01*
X70905761Y-98877380D02*
X71620047Y-98639285D01*
X71620047Y-99258333D01*
X20970714Y-86177380D02*
X20970714Y-85177380D01*
X20637380Y-85891666D01*
X20304047Y-85177380D01*
X20304047Y-86177380D01*
X19923095Y-85177380D02*
X19256428Y-86177380D01*
X19256428Y-85177380D02*
X19923095Y-86177380D01*
X18923095Y-85272619D02*
X18875476Y-85225000D01*
X18780238Y-85177380D01*
X18542142Y-85177380D01*
X18446904Y-85225000D01*
X18399285Y-85272619D01*
X18351666Y-85367857D01*
X18351666Y-85463095D01*
X18399285Y-85605952D01*
X18970714Y-86177380D01*
X18351666Y-86177380D01*
X314308904Y-124277380D02*
X314308904Y-123277380D01*
X313975571Y-123991666D01*
X313642238Y-123277380D01*
X313642238Y-124277380D01*
X313261285Y-123277380D02*
X312594619Y-124277380D01*
X312594619Y-123277380D02*
X313261285Y-124277380D01*
X311785095Y-123610714D02*
X311785095Y-124277380D01*
X312023190Y-123229761D02*
X312261285Y-123944047D01*
X311642238Y-123944047D01*
X311118428Y-123705952D02*
X311213666Y-123658333D01*
X311261285Y-123610714D01*
X311308904Y-123515476D01*
X311308904Y-123467857D01*
X311261285Y-123372619D01*
X311213666Y-123325000D01*
X311118428Y-123277380D01*
X310927952Y-123277380D01*
X310832714Y-123325000D01*
X310785095Y-123372619D01*
X310737476Y-123467857D01*
X310737476Y-123515476D01*
X310785095Y-123610714D01*
X310832714Y-123658333D01*
X310927952Y-123705952D01*
X311118428Y-123705952D01*
X311213666Y-123753571D01*
X311261285Y-123801190D01*
X311308904Y-123896428D01*
X311308904Y-124086904D01*
X311261285Y-124182142D01*
X311213666Y-124229761D01*
X311118428Y-124277380D01*
X310927952Y-124277380D01*
X310832714Y-124229761D01*
X310785095Y-124182142D01*
X310737476Y-124086904D01*
X310737476Y-123896428D01*
X310785095Y-123801190D01*
X310832714Y-123753571D01*
X310927952Y-123705952D01*
X148407285Y-141803380D02*
X148407285Y-140803380D01*
X148169190Y-140803380D01*
X148026333Y-140851000D01*
X147931095Y-140946238D01*
X147883476Y-141041476D01*
X147835857Y-141231952D01*
X147835857Y-141374809D01*
X147883476Y-141565285D01*
X147931095Y-141660523D01*
X148026333Y-141755761D01*
X148169190Y-141803380D01*
X148407285Y-141803380D01*
X146931095Y-140803380D02*
X147407285Y-140803380D01*
X147454904Y-141279571D01*
X147407285Y-141231952D01*
X147312047Y-141184333D01*
X147073952Y-141184333D01*
X146978714Y-141231952D01*
X146931095Y-141279571D01*
X146883476Y-141374809D01*
X146883476Y-141612904D01*
X146931095Y-141708142D01*
X146978714Y-141755761D01*
X147073952Y-141803380D01*
X147312047Y-141803380D01*
X147407285Y-141755761D01*
X147454904Y-141708142D01*
X145978714Y-140803380D02*
X146454904Y-140803380D01*
X146502523Y-141279571D01*
X146454904Y-141231952D01*
X146359666Y-141184333D01*
X146121571Y-141184333D01*
X146026333Y-141231952D01*
X145978714Y-141279571D01*
X145931095Y-141374809D01*
X145931095Y-141612904D01*
X145978714Y-141708142D01*
X146026333Y-141755761D01*
X146121571Y-141803380D01*
X146359666Y-141803380D01*
X146454904Y-141755761D01*
X146502523Y-141708142D01*
X309609904Y-105227380D02*
X309609904Y-104227380D01*
X309276571Y-104941666D01*
X308943238Y-104227380D01*
X308943238Y-105227380D01*
X308562285Y-104227380D02*
X307895619Y-105227380D01*
X307895619Y-104227380D02*
X308562285Y-105227380D01*
X307609904Y-104227380D02*
X306990857Y-104227380D01*
X307324190Y-104608333D01*
X307181333Y-104608333D01*
X307086095Y-104655952D01*
X307038476Y-104703571D01*
X306990857Y-104798809D01*
X306990857Y-105036904D01*
X307038476Y-105132142D01*
X307086095Y-105179761D01*
X307181333Y-105227380D01*
X307467047Y-105227380D01*
X307562285Y-105179761D01*
X307609904Y-105132142D01*
X306609904Y-104322619D02*
X306562285Y-104275000D01*
X306467047Y-104227380D01*
X306228952Y-104227380D01*
X306133714Y-104275000D01*
X306086095Y-104322619D01*
X306038476Y-104417857D01*
X306038476Y-104513095D01*
X306086095Y-104655952D01*
X306657523Y-105227380D01*
X306038476Y-105227380D01*
X95233904Y-124277380D02*
X95233904Y-123277380D01*
X94900571Y-123991666D01*
X94567238Y-123277380D01*
X94567238Y-124277380D01*
X94186285Y-123277380D02*
X93519619Y-124277380D01*
X93519619Y-123277380D02*
X94186285Y-124277380D01*
X93233904Y-123277380D02*
X92614857Y-123277380D01*
X92948190Y-123658333D01*
X92805333Y-123658333D01*
X92710095Y-123705952D01*
X92662476Y-123753571D01*
X92614857Y-123848809D01*
X92614857Y-124086904D01*
X92662476Y-124182142D01*
X92710095Y-124229761D01*
X92805333Y-124277380D01*
X93091047Y-124277380D01*
X93186285Y-124229761D01*
X93233904Y-124182142D01*
X92281523Y-123277380D02*
X91614857Y-123277380D01*
X92043428Y-124277380D01*
X90534904Y-105227380D02*
X90534904Y-104227380D01*
X90201571Y-104941666D01*
X89868238Y-104227380D01*
X89868238Y-105227380D01*
X89487285Y-104227380D02*
X88820619Y-105227380D01*
X88820619Y-104227380D02*
X89487285Y-105227380D01*
X88487285Y-104322619D02*
X88439666Y-104275000D01*
X88344428Y-104227380D01*
X88106333Y-104227380D01*
X88011095Y-104275000D01*
X87963476Y-104322619D01*
X87915857Y-104417857D01*
X87915857Y-104513095D01*
X87963476Y-104655952D01*
X88534904Y-105227380D01*
X87915857Y-105227380D01*
X86963476Y-105227380D02*
X87534904Y-105227380D01*
X87249190Y-105227380D02*
X87249190Y-104227380D01*
X87344428Y-104370238D01*
X87439666Y-104465476D01*
X87534904Y-104513095D01*
X76170571Y-82089666D02*
X76170571Y-81756333D01*
X76694380Y-81756333D02*
X75694380Y-81756333D01*
X75694380Y-82232523D01*
X76694380Y-83137285D02*
X76694380Y-82565857D01*
X76694380Y-82851571D02*
X75694380Y-82851571D01*
X75837238Y-82756333D01*
X75932476Y-82661095D01*
X75980095Y-82565857D01*
X62960190Y-97295190D02*
X62960190Y-97771380D01*
X63293523Y-96771380D02*
X62960190Y-97295190D01*
X62626857Y-96771380D01*
X61769714Y-97771380D02*
X62341142Y-97771380D01*
X62055428Y-97771380D02*
X62055428Y-96771380D01*
X62150666Y-96914238D01*
X62245904Y-97009476D01*
X62341142Y-97057095D01*
X64222095Y-73787380D02*
X64222095Y-74596904D01*
X64174476Y-74692142D01*
X64126857Y-74739761D01*
X64031619Y-74787380D01*
X63841142Y-74787380D01*
X63745904Y-74739761D01*
X63698285Y-74692142D01*
X63650666Y-74596904D01*
X63650666Y-73787380D01*
X63222095Y-74739761D02*
X63079238Y-74787380D01*
X62841142Y-74787380D01*
X62745904Y-74739761D01*
X62698285Y-74692142D01*
X62650666Y-74596904D01*
X62650666Y-74501666D01*
X62698285Y-74406428D01*
X62745904Y-74358809D01*
X62841142Y-74311190D01*
X63031619Y-74263571D01*
X63126857Y-74215952D01*
X63174476Y-74168333D01*
X63222095Y-74073095D01*
X63222095Y-73977857D01*
X63174476Y-73882619D01*
X63126857Y-73835000D01*
X63031619Y-73787380D01*
X62793523Y-73787380D01*
X62650666Y-73835000D01*
X61888761Y-74263571D02*
X61745904Y-74311190D01*
X61698285Y-74358809D01*
X61650666Y-74454047D01*
X61650666Y-74596904D01*
X61698285Y-74692142D01*
X61745904Y-74739761D01*
X61841142Y-74787380D01*
X62222095Y-74787380D01*
X62222095Y-73787380D01*
X61888761Y-73787380D01*
X61793523Y-73835000D01*
X61745904Y-73882619D01*
X61698285Y-73977857D01*
X61698285Y-74073095D01*
X61745904Y-74168333D01*
X61793523Y-74215952D01*
X61888761Y-74263571D01*
X62222095Y-74263571D01*
X60698285Y-74787380D02*
X61269714Y-74787380D01*
X60984000Y-74787380D02*
X60984000Y-73787380D01*
X61079238Y-73930238D01*
X61174476Y-74025476D01*
X61269714Y-74073095D01*
X63245904Y-113582380D02*
X63245904Y-114391904D01*
X63198285Y-114487142D01*
X63150666Y-114534761D01*
X63055428Y-114582380D01*
X62864952Y-114582380D01*
X62769714Y-114534761D01*
X62722095Y-114487142D01*
X62674476Y-114391904D01*
X62674476Y-113582380D01*
X62245904Y-113677619D02*
X62198285Y-113630000D01*
X62103047Y-113582380D01*
X61864952Y-113582380D01*
X61769714Y-113630000D01*
X61722095Y-113677619D01*
X61674476Y-113772857D01*
X61674476Y-113868095D01*
X61722095Y-114010952D01*
X62293523Y-114582380D01*
X61674476Y-114582380D01*
X75183904Y-78356380D02*
X75183904Y-79165904D01*
X75136285Y-79261142D01*
X75088666Y-79308761D01*
X74993428Y-79356380D01*
X74802952Y-79356380D01*
X74707714Y-79308761D01*
X74660095Y-79261142D01*
X74612476Y-79165904D01*
X74612476Y-78356380D01*
X73612476Y-79356380D02*
X74183904Y-79356380D01*
X73898190Y-79356380D02*
X73898190Y-78356380D01*
X73993428Y-78499238D01*
X74088666Y-78594476D01*
X74183904Y-78642095D01*
X79692333Y-119276761D02*
X79549476Y-119324380D01*
X79311380Y-119324380D01*
X79216142Y-119276761D01*
X79168523Y-119229142D01*
X79120904Y-119133904D01*
X79120904Y-119038666D01*
X79168523Y-118943428D01*
X79216142Y-118895809D01*
X79311380Y-118848190D01*
X79501857Y-118800571D01*
X79597095Y-118752952D01*
X79644714Y-118705333D01*
X79692333Y-118610095D01*
X79692333Y-118514857D01*
X79644714Y-118419619D01*
X79597095Y-118372000D01*
X79501857Y-118324380D01*
X79263761Y-118324380D01*
X79120904Y-118372000D01*
X78787571Y-118324380D02*
X78549476Y-119324380D01*
X78359000Y-118610095D01*
X78168523Y-119324380D01*
X77930428Y-118324380D01*
X77025666Y-119324380D02*
X77597095Y-119324380D01*
X77311380Y-119324380D02*
X77311380Y-118324380D01*
X77406619Y-118467238D01*
X77501857Y-118562476D01*
X77597095Y-118610095D01*
X74842666Y-111958380D02*
X75176000Y-111482190D01*
X75414095Y-111958380D02*
X75414095Y-110958380D01*
X75033142Y-110958380D01*
X74937904Y-111006000D01*
X74890285Y-111053619D01*
X74842666Y-111148857D01*
X74842666Y-111291714D01*
X74890285Y-111386952D01*
X74937904Y-111434571D01*
X75033142Y-111482190D01*
X75414095Y-111482190D01*
X74271238Y-111386952D02*
X74366476Y-111339333D01*
X74414095Y-111291714D01*
X74461714Y-111196476D01*
X74461714Y-111148857D01*
X74414095Y-111053619D01*
X74366476Y-111006000D01*
X74271238Y-110958380D01*
X74080761Y-110958380D01*
X73985523Y-111006000D01*
X73937904Y-111053619D01*
X73890285Y-111148857D01*
X73890285Y-111196476D01*
X73937904Y-111291714D01*
X73985523Y-111339333D01*
X74080761Y-111386952D01*
X74271238Y-111386952D01*
X74366476Y-111434571D01*
X74414095Y-111482190D01*
X74461714Y-111577428D01*
X74461714Y-111767904D01*
X74414095Y-111863142D01*
X74366476Y-111910761D01*
X74271238Y-111958380D01*
X74080761Y-111958380D01*
X73985523Y-111910761D01*
X73937904Y-111863142D01*
X73890285Y-111767904D01*
X73890285Y-111577428D01*
X73937904Y-111482190D01*
X73985523Y-111434571D01*
X74080761Y-111386952D01*
X52109666Y-82240380D02*
X52443000Y-81764190D01*
X52681095Y-82240380D02*
X52681095Y-81240380D01*
X52300142Y-81240380D01*
X52204904Y-81288000D01*
X52157285Y-81335619D01*
X52109666Y-81430857D01*
X52109666Y-81573714D01*
X52157285Y-81668952D01*
X52204904Y-81716571D01*
X52300142Y-81764190D01*
X52681095Y-81764190D01*
X51776333Y-81240380D02*
X51109666Y-81240380D01*
X51538238Y-82240380D01*
X47791666Y-108783380D02*
X48125000Y-108307190D01*
X48363095Y-108783380D02*
X48363095Y-107783380D01*
X47982142Y-107783380D01*
X47886904Y-107831000D01*
X47839285Y-107878619D01*
X47791666Y-107973857D01*
X47791666Y-108116714D01*
X47839285Y-108211952D01*
X47886904Y-108259571D01*
X47982142Y-108307190D01*
X48363095Y-108307190D01*
X46934523Y-108116714D02*
X46934523Y-108783380D01*
X47172619Y-107735761D02*
X47410714Y-108450047D01*
X46791666Y-108450047D01*
X47791666Y-110688380D02*
X48125000Y-110212190D01*
X48363095Y-110688380D02*
X48363095Y-109688380D01*
X47982142Y-109688380D01*
X47886904Y-109736000D01*
X47839285Y-109783619D01*
X47791666Y-109878857D01*
X47791666Y-110021714D01*
X47839285Y-110116952D01*
X47886904Y-110164571D01*
X47982142Y-110212190D01*
X48363095Y-110212190D01*
X47458333Y-109688380D02*
X46839285Y-109688380D01*
X47172619Y-110069333D01*
X47029761Y-110069333D01*
X46934523Y-110116952D01*
X46886904Y-110164571D01*
X46839285Y-110259809D01*
X46839285Y-110497904D01*
X46886904Y-110593142D01*
X46934523Y-110640761D01*
X47029761Y-110688380D01*
X47315476Y-110688380D01*
X47410714Y-110640761D01*
X47458333Y-110593142D01*
X49950666Y-82240380D02*
X50284000Y-81764190D01*
X50522095Y-82240380D02*
X50522095Y-81240380D01*
X50141142Y-81240380D01*
X50045904Y-81288000D01*
X49998285Y-81335619D01*
X49950666Y-81430857D01*
X49950666Y-81573714D01*
X49998285Y-81668952D01*
X50045904Y-81716571D01*
X50141142Y-81764190D01*
X50522095Y-81764190D01*
X49569714Y-81335619D02*
X49522095Y-81288000D01*
X49426857Y-81240380D01*
X49188761Y-81240380D01*
X49093523Y-81288000D01*
X49045904Y-81335619D01*
X48998285Y-81430857D01*
X48998285Y-81526095D01*
X49045904Y-81668952D01*
X49617333Y-82240380D01*
X48998285Y-82240380D01*
X75096666Y-115133380D02*
X75430000Y-114657190D01*
X75668095Y-115133380D02*
X75668095Y-114133380D01*
X75287142Y-114133380D01*
X75191904Y-114181000D01*
X75144285Y-114228619D01*
X75096666Y-114323857D01*
X75096666Y-114466714D01*
X75144285Y-114561952D01*
X75191904Y-114609571D01*
X75287142Y-114657190D01*
X75668095Y-114657190D01*
X74144285Y-115133380D02*
X74715714Y-115133380D01*
X74430000Y-115133380D02*
X74430000Y-114133380D01*
X74525238Y-114276238D01*
X74620476Y-114371476D01*
X74715714Y-114419095D01*
X314308904Y-143327380D02*
X314308904Y-142327380D01*
X313975571Y-143041666D01*
X313642238Y-142327380D01*
X313642238Y-143327380D01*
X313261285Y-142327380D02*
X312594619Y-143327380D01*
X312594619Y-142327380D02*
X313261285Y-143327380D01*
X311785095Y-142327380D02*
X311975571Y-142327380D01*
X312070809Y-142375000D01*
X312118428Y-142422619D01*
X312213666Y-142565476D01*
X312261285Y-142755952D01*
X312261285Y-143136904D01*
X312213666Y-143232142D01*
X312166047Y-143279761D01*
X312070809Y-143327380D01*
X311880333Y-143327380D01*
X311785095Y-143279761D01*
X311737476Y-143232142D01*
X311689857Y-143136904D01*
X311689857Y-142898809D01*
X311737476Y-142803571D01*
X311785095Y-142755952D01*
X311880333Y-142708333D01*
X312070809Y-142708333D01*
X312166047Y-142755952D01*
X312213666Y-142803571D01*
X312261285Y-142898809D01*
X311070809Y-142327380D02*
X310975571Y-142327380D01*
X310880333Y-142375000D01*
X310832714Y-142422619D01*
X310785095Y-142517857D01*
X310737476Y-142708333D01*
X310737476Y-142946428D01*
X310785095Y-143136904D01*
X310832714Y-143232142D01*
X310880333Y-143279761D01*
X310975571Y-143327380D01*
X311070809Y-143327380D01*
X311166047Y-143279761D01*
X311213666Y-143232142D01*
X311261285Y-143136904D01*
X311308904Y-142946428D01*
X311308904Y-142708333D01*
X311261285Y-142517857D01*
X311213666Y-142422619D01*
X311166047Y-142375000D01*
X311070809Y-142327380D01*
X290559904Y-143327380D02*
X290559904Y-142327380D01*
X290226571Y-143041666D01*
X289893238Y-142327380D01*
X289893238Y-143327380D01*
X289512285Y-142327380D02*
X288845619Y-143327380D01*
X288845619Y-142327380D02*
X289512285Y-143327380D01*
X287988476Y-142327380D02*
X288464666Y-142327380D01*
X288512285Y-142803571D01*
X288464666Y-142755952D01*
X288369428Y-142708333D01*
X288131333Y-142708333D01*
X288036095Y-142755952D01*
X287988476Y-142803571D01*
X287940857Y-142898809D01*
X287940857Y-143136904D01*
X287988476Y-143232142D01*
X288036095Y-143279761D01*
X288131333Y-143327380D01*
X288369428Y-143327380D01*
X288464666Y-143279761D01*
X288512285Y-143232142D01*
X287464666Y-143327380D02*
X287274190Y-143327380D01*
X287178952Y-143279761D01*
X287131333Y-143232142D01*
X287036095Y-143089285D01*
X286988476Y-142898809D01*
X286988476Y-142517857D01*
X287036095Y-142422619D01*
X287083714Y-142375000D01*
X287178952Y-142327380D01*
X287369428Y-142327380D01*
X287464666Y-142375000D01*
X287512285Y-142422619D01*
X287559904Y-142517857D01*
X287559904Y-142755952D01*
X287512285Y-142851190D01*
X287464666Y-142898809D01*
X287369428Y-142946428D01*
X287178952Y-142946428D01*
X287083714Y-142898809D01*
X287036095Y-142851190D01*
X286988476Y-142755952D01*
X264397904Y-143327380D02*
X264397904Y-142327380D01*
X264064571Y-143041666D01*
X263731238Y-142327380D01*
X263731238Y-143327380D01*
X263350285Y-142327380D02*
X262683619Y-143327380D01*
X262683619Y-142327380D02*
X263350285Y-143327380D01*
X261826476Y-142327380D02*
X262302666Y-142327380D01*
X262350285Y-142803571D01*
X262302666Y-142755952D01*
X262207428Y-142708333D01*
X261969333Y-142708333D01*
X261874095Y-142755952D01*
X261826476Y-142803571D01*
X261778857Y-142898809D01*
X261778857Y-143136904D01*
X261826476Y-143232142D01*
X261874095Y-143279761D01*
X261969333Y-143327380D01*
X262207428Y-143327380D01*
X262302666Y-143279761D01*
X262350285Y-143232142D01*
X261207428Y-142755952D02*
X261302666Y-142708333D01*
X261350285Y-142660714D01*
X261397904Y-142565476D01*
X261397904Y-142517857D01*
X261350285Y-142422619D01*
X261302666Y-142375000D01*
X261207428Y-142327380D01*
X261016952Y-142327380D01*
X260921714Y-142375000D01*
X260874095Y-142422619D01*
X260826476Y-142517857D01*
X260826476Y-142565476D01*
X260874095Y-142660714D01*
X260921714Y-142708333D01*
X261016952Y-142755952D01*
X261207428Y-142755952D01*
X261302666Y-142803571D01*
X261350285Y-142851190D01*
X261397904Y-142946428D01*
X261397904Y-143136904D01*
X261350285Y-143232142D01*
X261302666Y-143279761D01*
X261207428Y-143327380D01*
X261016952Y-143327380D01*
X260921714Y-143279761D01*
X260874095Y-143232142D01*
X260826476Y-143136904D01*
X260826476Y-142946428D01*
X260874095Y-142851190D01*
X260921714Y-142803571D01*
X261016952Y-142755952D01*
X140572904Y-143327380D02*
X140572904Y-142327380D01*
X140239571Y-143041666D01*
X139906238Y-142327380D01*
X139906238Y-143327380D01*
X139525285Y-142327380D02*
X138858619Y-143327380D01*
X138858619Y-142327380D02*
X139525285Y-143327380D01*
X138001476Y-142327380D02*
X138477666Y-142327380D01*
X138525285Y-142803571D01*
X138477666Y-142755952D01*
X138382428Y-142708333D01*
X138144333Y-142708333D01*
X138049095Y-142755952D01*
X138001476Y-142803571D01*
X137953857Y-142898809D01*
X137953857Y-143136904D01*
X138001476Y-143232142D01*
X138049095Y-143279761D01*
X138144333Y-143327380D01*
X138382428Y-143327380D01*
X138477666Y-143279761D01*
X138525285Y-143232142D01*
X137049095Y-142327380D02*
X137525285Y-142327380D01*
X137572904Y-142803571D01*
X137525285Y-142755952D01*
X137430047Y-142708333D01*
X137191952Y-142708333D01*
X137096714Y-142755952D01*
X137049095Y-142803571D01*
X137001476Y-142898809D01*
X137001476Y-143136904D01*
X137049095Y-143232142D01*
X137096714Y-143279761D01*
X137191952Y-143327380D01*
X137430047Y-143327380D01*
X137525285Y-143279761D01*
X137572904Y-143232142D01*
X111870904Y-143327380D02*
X111870904Y-142327380D01*
X111537571Y-143041666D01*
X111204238Y-142327380D01*
X111204238Y-143327380D01*
X110823285Y-142327380D02*
X110156619Y-143327380D01*
X110156619Y-142327380D02*
X110823285Y-143327380D01*
X109299476Y-142327380D02*
X109775666Y-142327380D01*
X109823285Y-142803571D01*
X109775666Y-142755952D01*
X109680428Y-142708333D01*
X109442333Y-142708333D01*
X109347095Y-142755952D01*
X109299476Y-142803571D01*
X109251857Y-142898809D01*
X109251857Y-143136904D01*
X109299476Y-143232142D01*
X109347095Y-143279761D01*
X109442333Y-143327380D01*
X109680428Y-143327380D01*
X109775666Y-143279761D01*
X109823285Y-143232142D01*
X108394714Y-142660714D02*
X108394714Y-143327380D01*
X108632809Y-142279761D02*
X108870904Y-142994047D01*
X108251857Y-142994047D01*
X83295904Y-148026380D02*
X83295904Y-147026380D01*
X82962571Y-147740666D01*
X82629238Y-147026380D01*
X82629238Y-148026380D01*
X82248285Y-147026380D02*
X81581619Y-148026380D01*
X81581619Y-147026380D02*
X82248285Y-148026380D01*
X80724476Y-147026380D02*
X81200666Y-147026380D01*
X81248285Y-147502571D01*
X81200666Y-147454952D01*
X81105428Y-147407333D01*
X80867333Y-147407333D01*
X80772095Y-147454952D01*
X80724476Y-147502571D01*
X80676857Y-147597809D01*
X80676857Y-147835904D01*
X80724476Y-147931142D01*
X80772095Y-147978761D01*
X80867333Y-148026380D01*
X81105428Y-148026380D01*
X81200666Y-147978761D01*
X81248285Y-147931142D01*
X80343523Y-147026380D02*
X79724476Y-147026380D01*
X80057809Y-147407333D01*
X79914952Y-147407333D01*
X79819714Y-147454952D01*
X79772095Y-147502571D01*
X79724476Y-147597809D01*
X79724476Y-147835904D01*
X79772095Y-147931142D01*
X79819714Y-147978761D01*
X79914952Y-148026380D01*
X80200666Y-148026380D01*
X80295904Y-147978761D01*
X80343523Y-147931142D01*
X64372904Y-148026380D02*
X64372904Y-147026380D01*
X64039571Y-147740666D01*
X63706238Y-147026380D01*
X63706238Y-148026380D01*
X63325285Y-147026380D02*
X62658619Y-148026380D01*
X62658619Y-147026380D02*
X63325285Y-148026380D01*
X61801476Y-147026380D02*
X62277666Y-147026380D01*
X62325285Y-147502571D01*
X62277666Y-147454952D01*
X62182428Y-147407333D01*
X61944333Y-147407333D01*
X61849095Y-147454952D01*
X61801476Y-147502571D01*
X61753857Y-147597809D01*
X61753857Y-147835904D01*
X61801476Y-147931142D01*
X61849095Y-147978761D01*
X61944333Y-148026380D01*
X62182428Y-148026380D01*
X62277666Y-147978761D01*
X62325285Y-147931142D01*
X61372904Y-147121619D02*
X61325285Y-147074000D01*
X61230047Y-147026380D01*
X60991952Y-147026380D01*
X60896714Y-147074000D01*
X60849095Y-147121619D01*
X60801476Y-147216857D01*
X60801476Y-147312095D01*
X60849095Y-147454952D01*
X61420523Y-148026380D01*
X60801476Y-148026380D01*
X45322904Y-148026380D02*
X45322904Y-147026380D01*
X44989571Y-147740666D01*
X44656238Y-147026380D01*
X44656238Y-148026380D01*
X44275285Y-147026380D02*
X43608619Y-148026380D01*
X43608619Y-147026380D02*
X44275285Y-148026380D01*
X42751476Y-147026380D02*
X43227666Y-147026380D01*
X43275285Y-147502571D01*
X43227666Y-147454952D01*
X43132428Y-147407333D01*
X42894333Y-147407333D01*
X42799095Y-147454952D01*
X42751476Y-147502571D01*
X42703857Y-147597809D01*
X42703857Y-147835904D01*
X42751476Y-147931142D01*
X42799095Y-147978761D01*
X42894333Y-148026380D01*
X43132428Y-148026380D01*
X43227666Y-147978761D01*
X43275285Y-147931142D01*
X41751476Y-148026380D02*
X42322904Y-148026380D01*
X42037190Y-148026380D02*
X42037190Y-147026380D01*
X42132428Y-147169238D01*
X42227666Y-147264476D01*
X42322904Y-147312095D01*
X21446904Y-143327380D02*
X21446904Y-142327380D01*
X21113571Y-143041666D01*
X20780238Y-142327380D01*
X20780238Y-143327380D01*
X20399285Y-142327380D02*
X19732619Y-143327380D01*
X19732619Y-142327380D02*
X20399285Y-143327380D01*
X18875476Y-142327380D02*
X19351666Y-142327380D01*
X19399285Y-142803571D01*
X19351666Y-142755952D01*
X19256428Y-142708333D01*
X19018333Y-142708333D01*
X18923095Y-142755952D01*
X18875476Y-142803571D01*
X18827857Y-142898809D01*
X18827857Y-143136904D01*
X18875476Y-143232142D01*
X18923095Y-143279761D01*
X19018333Y-143327380D01*
X19256428Y-143327380D01*
X19351666Y-143279761D01*
X19399285Y-143232142D01*
X18208809Y-142327380D02*
X18113571Y-142327380D01*
X18018333Y-142375000D01*
X17970714Y-142422619D01*
X17923095Y-142517857D01*
X17875476Y-142708333D01*
X17875476Y-142946428D01*
X17923095Y-143136904D01*
X17970714Y-143232142D01*
X18018333Y-143279761D01*
X18113571Y-143327380D01*
X18208809Y-143327380D01*
X18304047Y-143279761D01*
X18351666Y-143232142D01*
X18399285Y-143136904D01*
X18446904Y-142946428D01*
X18446904Y-142708333D01*
X18399285Y-142517857D01*
X18351666Y-142422619D01*
X18304047Y-142375000D01*
X18208809Y-142327380D01*
X2396904Y-143327380D02*
X2396904Y-142327380D01*
X2063571Y-143041666D01*
X1730238Y-142327380D01*
X1730238Y-143327380D01*
X1349285Y-142327380D02*
X682619Y-143327380D01*
X682619Y-142327380D02*
X1349285Y-143327380D01*
X-126904Y-142660714D02*
X-126904Y-143327380D01*
X111190Y-142279761D02*
X349285Y-142994047D01*
X-269761Y-142994047D01*
X-698333Y-143327380D02*
X-888809Y-143327380D01*
X-984047Y-143279761D01*
X-1031666Y-143232142D01*
X-1126904Y-143089285D01*
X-1174523Y-142898809D01*
X-1174523Y-142517857D01*
X-1126904Y-142422619D01*
X-1079285Y-142375000D01*
X-984047Y-142327380D01*
X-793571Y-142327380D01*
X-698333Y-142375000D01*
X-650714Y-142422619D01*
X-603095Y-142517857D01*
X-603095Y-142755952D01*
X-650714Y-142851190D01*
X-698333Y-142898809D01*
X-793571Y-142946428D01*
X-984047Y-142946428D01*
X-1079285Y-142898809D01*
X-1126904Y-142851190D01*
X-1174523Y-142755952D01*
X292972904Y-124277380D02*
X292972904Y-123277380D01*
X292639571Y-123991666D01*
X292306238Y-123277380D01*
X292306238Y-124277380D01*
X291925285Y-123277380D02*
X291258619Y-124277380D01*
X291258619Y-123277380D02*
X291925285Y-124277380D01*
X290449095Y-123610714D02*
X290449095Y-124277380D01*
X290687190Y-123229761D02*
X290925285Y-123944047D01*
X290306238Y-123944047D01*
X290020523Y-123277380D02*
X289353857Y-123277380D01*
X289782428Y-124277380D01*
X273922904Y-124277380D02*
X273922904Y-123277380D01*
X273589571Y-123991666D01*
X273256238Y-123277380D01*
X273256238Y-124277380D01*
X272875285Y-123277380D02*
X272208619Y-124277380D01*
X272208619Y-123277380D02*
X272875285Y-124277380D01*
X271399095Y-123610714D02*
X271399095Y-124277380D01*
X271637190Y-123229761D02*
X271875285Y-123944047D01*
X271256238Y-123944047D01*
X270446714Y-123277380D02*
X270637190Y-123277380D01*
X270732428Y-123325000D01*
X270780047Y-123372619D01*
X270875285Y-123515476D01*
X270922904Y-123705952D01*
X270922904Y-124086904D01*
X270875285Y-124182142D01*
X270827666Y-124229761D01*
X270732428Y-124277380D01*
X270541952Y-124277380D01*
X270446714Y-124229761D01*
X270399095Y-124182142D01*
X270351476Y-124086904D01*
X270351476Y-123848809D01*
X270399095Y-123753571D01*
X270446714Y-123705952D01*
X270541952Y-123658333D01*
X270732428Y-123658333D01*
X270827666Y-123705952D01*
X270875285Y-123753571D01*
X270922904Y-123848809D01*
X254872904Y-124277380D02*
X254872904Y-123277380D01*
X254539571Y-123991666D01*
X254206238Y-123277380D01*
X254206238Y-124277380D01*
X253825285Y-123277380D02*
X253158619Y-124277380D01*
X253158619Y-123277380D02*
X253825285Y-124277380D01*
X252349095Y-123610714D02*
X252349095Y-124277380D01*
X252587190Y-123229761D02*
X252825285Y-123944047D01*
X252206238Y-123944047D01*
X251349095Y-123277380D02*
X251825285Y-123277380D01*
X251872904Y-123753571D01*
X251825285Y-123705952D01*
X251730047Y-123658333D01*
X251491952Y-123658333D01*
X251396714Y-123705952D01*
X251349095Y-123753571D01*
X251301476Y-123848809D01*
X251301476Y-124086904D01*
X251349095Y-124182142D01*
X251396714Y-124229761D01*
X251491952Y-124277380D01*
X251730047Y-124277380D01*
X251825285Y-124229761D01*
X251872904Y-124182142D01*
X235822904Y-124277380D02*
X235822904Y-123277380D01*
X235489571Y-123991666D01*
X235156238Y-123277380D01*
X235156238Y-124277380D01*
X234775285Y-123277380D02*
X234108619Y-124277380D01*
X234108619Y-123277380D02*
X234775285Y-124277380D01*
X233299095Y-123610714D02*
X233299095Y-124277380D01*
X233537190Y-123229761D02*
X233775285Y-123944047D01*
X233156238Y-123944047D01*
X232346714Y-123610714D02*
X232346714Y-124277380D01*
X232584809Y-123229761D02*
X232822904Y-123944047D01*
X232203857Y-123944047D01*
X216772904Y-124277380D02*
X216772904Y-123277380D01*
X216439571Y-123991666D01*
X216106238Y-123277380D01*
X216106238Y-124277380D01*
X215725285Y-123277380D02*
X215058619Y-124277380D01*
X215058619Y-123277380D02*
X215725285Y-124277380D01*
X214249095Y-123610714D02*
X214249095Y-124277380D01*
X214487190Y-123229761D02*
X214725285Y-123944047D01*
X214106238Y-123944047D01*
X213820523Y-123277380D02*
X213201476Y-123277380D01*
X213534809Y-123658333D01*
X213391952Y-123658333D01*
X213296714Y-123705952D01*
X213249095Y-123753571D01*
X213201476Y-123848809D01*
X213201476Y-124086904D01*
X213249095Y-124182142D01*
X213296714Y-124229761D01*
X213391952Y-124277380D01*
X213677666Y-124277380D01*
X213772904Y-124229761D01*
X213820523Y-124182142D01*
X197722904Y-124277380D02*
X197722904Y-123277380D01*
X197389571Y-123991666D01*
X197056238Y-123277380D01*
X197056238Y-124277380D01*
X196675285Y-123277380D02*
X196008619Y-124277380D01*
X196008619Y-123277380D02*
X196675285Y-124277380D01*
X195199095Y-123610714D02*
X195199095Y-124277380D01*
X195437190Y-123229761D02*
X195675285Y-123944047D01*
X195056238Y-123944047D01*
X194722904Y-123372619D02*
X194675285Y-123325000D01*
X194580047Y-123277380D01*
X194341952Y-123277380D01*
X194246714Y-123325000D01*
X194199095Y-123372619D01*
X194151476Y-123467857D01*
X194151476Y-123563095D01*
X194199095Y-123705952D01*
X194770523Y-124277380D01*
X194151476Y-124277380D01*
X178672904Y-124277380D02*
X178672904Y-123277380D01*
X178339571Y-123991666D01*
X178006238Y-123277380D01*
X178006238Y-124277380D01*
X177625285Y-123277380D02*
X176958619Y-124277380D01*
X176958619Y-123277380D02*
X177625285Y-124277380D01*
X176149095Y-123610714D02*
X176149095Y-124277380D01*
X176387190Y-123229761D02*
X176625285Y-123944047D01*
X176006238Y-123944047D01*
X175101476Y-124277380D02*
X175672904Y-124277380D01*
X175387190Y-124277380D02*
X175387190Y-123277380D01*
X175482428Y-123420238D01*
X175577666Y-123515476D01*
X175672904Y-123563095D01*
X159622904Y-124277380D02*
X159622904Y-123277380D01*
X159289571Y-123991666D01*
X158956238Y-123277380D01*
X158956238Y-124277380D01*
X158575285Y-123277380D02*
X157908619Y-124277380D01*
X157908619Y-123277380D02*
X158575285Y-124277380D01*
X157099095Y-123610714D02*
X157099095Y-124277380D01*
X157337190Y-123229761D02*
X157575285Y-123944047D01*
X156956238Y-123944047D01*
X156384809Y-123277380D02*
X156289571Y-123277380D01*
X156194333Y-123325000D01*
X156146714Y-123372619D01*
X156099095Y-123467857D01*
X156051476Y-123658333D01*
X156051476Y-123896428D01*
X156099095Y-124086904D01*
X156146714Y-124182142D01*
X156194333Y-124229761D01*
X156289571Y-124277380D01*
X156384809Y-124277380D01*
X156480047Y-124229761D01*
X156527666Y-124182142D01*
X156575285Y-124086904D01*
X156622904Y-123896428D01*
X156622904Y-123658333D01*
X156575285Y-123467857D01*
X156527666Y-123372619D01*
X156480047Y-123325000D01*
X156384809Y-123277380D01*
X140572904Y-124277380D02*
X140572904Y-123277380D01*
X140239571Y-123991666D01*
X139906238Y-123277380D01*
X139906238Y-124277380D01*
X139525285Y-123277380D02*
X138858619Y-124277380D01*
X138858619Y-123277380D02*
X139525285Y-124277380D01*
X138572904Y-123277380D02*
X137953857Y-123277380D01*
X138287190Y-123658333D01*
X138144333Y-123658333D01*
X138049095Y-123705952D01*
X138001476Y-123753571D01*
X137953857Y-123848809D01*
X137953857Y-124086904D01*
X138001476Y-124182142D01*
X138049095Y-124229761D01*
X138144333Y-124277380D01*
X138430047Y-124277380D01*
X138525285Y-124229761D01*
X138572904Y-124182142D01*
X137477666Y-124277380D02*
X137287190Y-124277380D01*
X137191952Y-124229761D01*
X137144333Y-124182142D01*
X137049095Y-124039285D01*
X137001476Y-123848809D01*
X137001476Y-123467857D01*
X137049095Y-123372619D01*
X137096714Y-123325000D01*
X137191952Y-123277380D01*
X137382428Y-123277380D01*
X137477666Y-123325000D01*
X137525285Y-123372619D01*
X137572904Y-123467857D01*
X137572904Y-123705952D01*
X137525285Y-123801190D01*
X137477666Y-123848809D01*
X137382428Y-123896428D01*
X137191952Y-123896428D01*
X137096714Y-123848809D01*
X137049095Y-123801190D01*
X137001476Y-123705952D01*
X121395904Y-124277380D02*
X121395904Y-123277380D01*
X121062571Y-123991666D01*
X120729238Y-123277380D01*
X120729238Y-124277380D01*
X120348285Y-123277380D02*
X119681619Y-124277380D01*
X119681619Y-123277380D02*
X120348285Y-124277380D01*
X119395904Y-123277380D02*
X118776857Y-123277380D01*
X119110190Y-123658333D01*
X118967333Y-123658333D01*
X118872095Y-123705952D01*
X118824476Y-123753571D01*
X118776857Y-123848809D01*
X118776857Y-124086904D01*
X118824476Y-124182142D01*
X118872095Y-124229761D01*
X118967333Y-124277380D01*
X119253047Y-124277380D01*
X119348285Y-124229761D01*
X119395904Y-124182142D01*
X118205428Y-123705952D02*
X118300666Y-123658333D01*
X118348285Y-123610714D01*
X118395904Y-123515476D01*
X118395904Y-123467857D01*
X118348285Y-123372619D01*
X118300666Y-123325000D01*
X118205428Y-123277380D01*
X118014952Y-123277380D01*
X117919714Y-123325000D01*
X117872095Y-123372619D01*
X117824476Y-123467857D01*
X117824476Y-123515476D01*
X117872095Y-123610714D01*
X117919714Y-123658333D01*
X118014952Y-123705952D01*
X118205428Y-123705952D01*
X118300666Y-123753571D01*
X118348285Y-123801190D01*
X118395904Y-123896428D01*
X118395904Y-124086904D01*
X118348285Y-124182142D01*
X118300666Y-124229761D01*
X118205428Y-124277380D01*
X118014952Y-124277380D01*
X117919714Y-124229761D01*
X117872095Y-124182142D01*
X117824476Y-124086904D01*
X117824476Y-123896428D01*
X117872095Y-123801190D01*
X117919714Y-123753571D01*
X118014952Y-123705952D01*
X64245904Y-129103380D02*
X64245904Y-128103380D01*
X63912571Y-128817666D01*
X63579238Y-128103380D01*
X63579238Y-129103380D01*
X63198285Y-128103380D02*
X62531619Y-129103380D01*
X62531619Y-128103380D02*
X63198285Y-129103380D01*
X62245904Y-128103380D02*
X61626857Y-128103380D01*
X61960190Y-128484333D01*
X61817333Y-128484333D01*
X61722095Y-128531952D01*
X61674476Y-128579571D01*
X61626857Y-128674809D01*
X61626857Y-128912904D01*
X61674476Y-129008142D01*
X61722095Y-129055761D01*
X61817333Y-129103380D01*
X62103047Y-129103380D01*
X62198285Y-129055761D01*
X62245904Y-129008142D01*
X60769714Y-128103380D02*
X60960190Y-128103380D01*
X61055428Y-128151000D01*
X61103047Y-128198619D01*
X61198285Y-128341476D01*
X61245904Y-128531952D01*
X61245904Y-128912904D01*
X61198285Y-129008142D01*
X61150666Y-129055761D01*
X61055428Y-129103380D01*
X60864952Y-129103380D01*
X60769714Y-129055761D01*
X60722095Y-129008142D01*
X60674476Y-128912904D01*
X60674476Y-128674809D01*
X60722095Y-128579571D01*
X60769714Y-128531952D01*
X60864952Y-128484333D01*
X61055428Y-128484333D01*
X61150666Y-128531952D01*
X61198285Y-128579571D01*
X61245904Y-128674809D01*
X40496904Y-124277380D02*
X40496904Y-123277380D01*
X40163571Y-123991666D01*
X39830238Y-123277380D01*
X39830238Y-124277380D01*
X39449285Y-123277380D02*
X38782619Y-124277380D01*
X38782619Y-123277380D02*
X39449285Y-124277380D01*
X38496904Y-123277380D02*
X37877857Y-123277380D01*
X38211190Y-123658333D01*
X38068333Y-123658333D01*
X37973095Y-123705952D01*
X37925476Y-123753571D01*
X37877857Y-123848809D01*
X37877857Y-124086904D01*
X37925476Y-124182142D01*
X37973095Y-124229761D01*
X38068333Y-124277380D01*
X38354047Y-124277380D01*
X38449285Y-124229761D01*
X38496904Y-124182142D01*
X36973095Y-123277380D02*
X37449285Y-123277380D01*
X37496904Y-123753571D01*
X37449285Y-123705952D01*
X37354047Y-123658333D01*
X37115952Y-123658333D01*
X37020714Y-123705952D01*
X36973095Y-123753571D01*
X36925476Y-123848809D01*
X36925476Y-124086904D01*
X36973095Y-124182142D01*
X37020714Y-124229761D01*
X37115952Y-124277380D01*
X37354047Y-124277380D01*
X37449285Y-124229761D01*
X37496904Y-124182142D01*
X21446904Y-124277380D02*
X21446904Y-123277380D01*
X21113571Y-123991666D01*
X20780238Y-123277380D01*
X20780238Y-124277380D01*
X20399285Y-123277380D02*
X19732619Y-124277380D01*
X19732619Y-123277380D02*
X20399285Y-124277380D01*
X19446904Y-123277380D02*
X18827857Y-123277380D01*
X19161190Y-123658333D01*
X19018333Y-123658333D01*
X18923095Y-123705952D01*
X18875476Y-123753571D01*
X18827857Y-123848809D01*
X18827857Y-124086904D01*
X18875476Y-124182142D01*
X18923095Y-124229761D01*
X19018333Y-124277380D01*
X19304047Y-124277380D01*
X19399285Y-124229761D01*
X19446904Y-124182142D01*
X17970714Y-123610714D02*
X17970714Y-124277380D01*
X18208809Y-123229761D02*
X18446904Y-123944047D01*
X17827857Y-123944047D01*
X2396904Y-124277380D02*
X2396904Y-123277380D01*
X2063571Y-123991666D01*
X1730238Y-123277380D01*
X1730238Y-124277380D01*
X1349285Y-123277380D02*
X682619Y-124277380D01*
X682619Y-123277380D02*
X1349285Y-124277380D01*
X396904Y-123277380D02*
X-222142Y-123277380D01*
X111190Y-123658333D01*
X-31666Y-123658333D01*
X-126904Y-123705952D01*
X-174523Y-123753571D01*
X-222142Y-123848809D01*
X-222142Y-124086904D01*
X-174523Y-124182142D01*
X-126904Y-124229761D01*
X-31666Y-124277380D01*
X254047Y-124277380D01*
X349285Y-124229761D01*
X396904Y-124182142D01*
X-555476Y-123277380D02*
X-1174523Y-123277380D01*
X-841190Y-123658333D01*
X-984047Y-123658333D01*
X-1079285Y-123705952D01*
X-1126904Y-123753571D01*
X-1174523Y-123848809D01*
X-1174523Y-124086904D01*
X-1126904Y-124182142D01*
X-1079285Y-124229761D01*
X-984047Y-124277380D01*
X-698333Y-124277380D01*
X-603095Y-124229761D01*
X-555476Y-124182142D01*
X283447904Y-105227380D02*
X283447904Y-104227380D01*
X283114571Y-104941666D01*
X282781238Y-104227380D01*
X282781238Y-105227380D01*
X282400285Y-104227380D02*
X281733619Y-105227380D01*
X281733619Y-104227380D02*
X282400285Y-105227380D01*
X281447904Y-104227380D02*
X280828857Y-104227380D01*
X281162190Y-104608333D01*
X281019333Y-104608333D01*
X280924095Y-104655952D01*
X280876476Y-104703571D01*
X280828857Y-104798809D01*
X280828857Y-105036904D01*
X280876476Y-105132142D01*
X280924095Y-105179761D01*
X281019333Y-105227380D01*
X281305047Y-105227380D01*
X281400285Y-105179761D01*
X281447904Y-105132142D01*
X279876476Y-105227380D02*
X280447904Y-105227380D01*
X280162190Y-105227380D02*
X280162190Y-104227380D01*
X280257428Y-104370238D01*
X280352666Y-104465476D01*
X280447904Y-104513095D01*
X264397904Y-105227380D02*
X264397904Y-104227380D01*
X264064571Y-104941666D01*
X263731238Y-104227380D01*
X263731238Y-105227380D01*
X263350285Y-104227380D02*
X262683619Y-105227380D01*
X262683619Y-104227380D02*
X263350285Y-105227380D01*
X262397904Y-104227380D02*
X261778857Y-104227380D01*
X262112190Y-104608333D01*
X261969333Y-104608333D01*
X261874095Y-104655952D01*
X261826476Y-104703571D01*
X261778857Y-104798809D01*
X261778857Y-105036904D01*
X261826476Y-105132142D01*
X261874095Y-105179761D01*
X261969333Y-105227380D01*
X262255047Y-105227380D01*
X262350285Y-105179761D01*
X262397904Y-105132142D01*
X261159809Y-104227380D02*
X261064571Y-104227380D01*
X260969333Y-104275000D01*
X260921714Y-104322619D01*
X260874095Y-104417857D01*
X260826476Y-104608333D01*
X260826476Y-104846428D01*
X260874095Y-105036904D01*
X260921714Y-105132142D01*
X260969333Y-105179761D01*
X261064571Y-105227380D01*
X261159809Y-105227380D01*
X261255047Y-105179761D01*
X261302666Y-105132142D01*
X261350285Y-105036904D01*
X261397904Y-104846428D01*
X261397904Y-104608333D01*
X261350285Y-104417857D01*
X261302666Y-104322619D01*
X261255047Y-104275000D01*
X261159809Y-104227380D01*
X245347904Y-105227380D02*
X245347904Y-104227380D01*
X245014571Y-104941666D01*
X244681238Y-104227380D01*
X244681238Y-105227380D01*
X244300285Y-104227380D02*
X243633619Y-105227380D01*
X243633619Y-104227380D02*
X244300285Y-105227380D01*
X243300285Y-104322619D02*
X243252666Y-104275000D01*
X243157428Y-104227380D01*
X242919333Y-104227380D01*
X242824095Y-104275000D01*
X242776476Y-104322619D01*
X242728857Y-104417857D01*
X242728857Y-104513095D01*
X242776476Y-104655952D01*
X243347904Y-105227380D01*
X242728857Y-105227380D01*
X242252666Y-105227380D02*
X242062190Y-105227380D01*
X241966952Y-105179761D01*
X241919333Y-105132142D01*
X241824095Y-104989285D01*
X241776476Y-104798809D01*
X241776476Y-104417857D01*
X241824095Y-104322619D01*
X241871714Y-104275000D01*
X241966952Y-104227380D01*
X242157428Y-104227380D01*
X242252666Y-104275000D01*
X242300285Y-104322619D01*
X242347904Y-104417857D01*
X242347904Y-104655952D01*
X242300285Y-104751190D01*
X242252666Y-104798809D01*
X242157428Y-104846428D01*
X241966952Y-104846428D01*
X241871714Y-104798809D01*
X241824095Y-104751190D01*
X241776476Y-104655952D01*
X226170904Y-105227380D02*
X226170904Y-104227380D01*
X225837571Y-104941666D01*
X225504238Y-104227380D01*
X225504238Y-105227380D01*
X225123285Y-104227380D02*
X224456619Y-105227380D01*
X224456619Y-104227380D02*
X225123285Y-105227380D01*
X224123285Y-104322619D02*
X224075666Y-104275000D01*
X223980428Y-104227380D01*
X223742333Y-104227380D01*
X223647095Y-104275000D01*
X223599476Y-104322619D01*
X223551857Y-104417857D01*
X223551857Y-104513095D01*
X223599476Y-104655952D01*
X224170904Y-105227380D01*
X223551857Y-105227380D01*
X222980428Y-104655952D02*
X223075666Y-104608333D01*
X223123285Y-104560714D01*
X223170904Y-104465476D01*
X223170904Y-104417857D01*
X223123285Y-104322619D01*
X223075666Y-104275000D01*
X222980428Y-104227380D01*
X222789952Y-104227380D01*
X222694714Y-104275000D01*
X222647095Y-104322619D01*
X222599476Y-104417857D01*
X222599476Y-104465476D01*
X222647095Y-104560714D01*
X222694714Y-104608333D01*
X222789952Y-104655952D01*
X222980428Y-104655952D01*
X223075666Y-104703571D01*
X223123285Y-104751190D01*
X223170904Y-104846428D01*
X223170904Y-105036904D01*
X223123285Y-105132142D01*
X223075666Y-105179761D01*
X222980428Y-105227380D01*
X222789952Y-105227380D01*
X222694714Y-105179761D01*
X222647095Y-105132142D01*
X222599476Y-105036904D01*
X222599476Y-104846428D01*
X222647095Y-104751190D01*
X222694714Y-104703571D01*
X222789952Y-104655952D01*
X207120904Y-105227380D02*
X207120904Y-104227380D01*
X206787571Y-104941666D01*
X206454238Y-104227380D01*
X206454238Y-105227380D01*
X206073285Y-104227380D02*
X205406619Y-105227380D01*
X205406619Y-104227380D02*
X206073285Y-105227380D01*
X205073285Y-104322619D02*
X205025666Y-104275000D01*
X204930428Y-104227380D01*
X204692333Y-104227380D01*
X204597095Y-104275000D01*
X204549476Y-104322619D01*
X204501857Y-104417857D01*
X204501857Y-104513095D01*
X204549476Y-104655952D01*
X205120904Y-105227380D01*
X204501857Y-105227380D01*
X204168523Y-104227380D02*
X203501857Y-104227380D01*
X203930428Y-105227380D01*
X188070904Y-105227380D02*
X188070904Y-104227380D01*
X187737571Y-104941666D01*
X187404238Y-104227380D01*
X187404238Y-105227380D01*
X187023285Y-104227380D02*
X186356619Y-105227380D01*
X186356619Y-104227380D02*
X187023285Y-105227380D01*
X186023285Y-104322619D02*
X185975666Y-104275000D01*
X185880428Y-104227380D01*
X185642333Y-104227380D01*
X185547095Y-104275000D01*
X185499476Y-104322619D01*
X185451857Y-104417857D01*
X185451857Y-104513095D01*
X185499476Y-104655952D01*
X186070904Y-105227380D01*
X185451857Y-105227380D01*
X184594714Y-104227380D02*
X184785190Y-104227380D01*
X184880428Y-104275000D01*
X184928047Y-104322619D01*
X185023285Y-104465476D01*
X185070904Y-104655952D01*
X185070904Y-105036904D01*
X185023285Y-105132142D01*
X184975666Y-105179761D01*
X184880428Y-105227380D01*
X184689952Y-105227380D01*
X184594714Y-105179761D01*
X184547095Y-105132142D01*
X184499476Y-105036904D01*
X184499476Y-104798809D01*
X184547095Y-104703571D01*
X184594714Y-104655952D01*
X184689952Y-104608333D01*
X184880428Y-104608333D01*
X184975666Y-104655952D01*
X185023285Y-104703571D01*
X185070904Y-104798809D01*
X169020904Y-105227380D02*
X169020904Y-104227380D01*
X168687571Y-104941666D01*
X168354238Y-104227380D01*
X168354238Y-105227380D01*
X167973285Y-104227380D02*
X167306619Y-105227380D01*
X167306619Y-104227380D02*
X167973285Y-105227380D01*
X166973285Y-104322619D02*
X166925666Y-104275000D01*
X166830428Y-104227380D01*
X166592333Y-104227380D01*
X166497095Y-104275000D01*
X166449476Y-104322619D01*
X166401857Y-104417857D01*
X166401857Y-104513095D01*
X166449476Y-104655952D01*
X167020904Y-105227380D01*
X166401857Y-105227380D01*
X165497095Y-104227380D02*
X165973285Y-104227380D01*
X166020904Y-104703571D01*
X165973285Y-104655952D01*
X165878047Y-104608333D01*
X165639952Y-104608333D01*
X165544714Y-104655952D01*
X165497095Y-104703571D01*
X165449476Y-104798809D01*
X165449476Y-105036904D01*
X165497095Y-105132142D01*
X165544714Y-105179761D01*
X165639952Y-105227380D01*
X165878047Y-105227380D01*
X165973285Y-105179761D01*
X166020904Y-105132142D01*
X150097904Y-105227380D02*
X150097904Y-104227380D01*
X149764571Y-104941666D01*
X149431238Y-104227380D01*
X149431238Y-105227380D01*
X149050285Y-104227380D02*
X148383619Y-105227380D01*
X148383619Y-104227380D02*
X149050285Y-105227380D01*
X148050285Y-104322619D02*
X148002666Y-104275000D01*
X147907428Y-104227380D01*
X147669333Y-104227380D01*
X147574095Y-104275000D01*
X147526476Y-104322619D01*
X147478857Y-104417857D01*
X147478857Y-104513095D01*
X147526476Y-104655952D01*
X148097904Y-105227380D01*
X147478857Y-105227380D01*
X146621714Y-104560714D02*
X146621714Y-105227380D01*
X146859809Y-104179761D02*
X147097904Y-104894047D01*
X146478857Y-104894047D01*
X131047904Y-105227380D02*
X131047904Y-104227380D01*
X130714571Y-104941666D01*
X130381238Y-104227380D01*
X130381238Y-105227380D01*
X130000285Y-104227380D02*
X129333619Y-105227380D01*
X129333619Y-104227380D02*
X130000285Y-105227380D01*
X129000285Y-104322619D02*
X128952666Y-104275000D01*
X128857428Y-104227380D01*
X128619333Y-104227380D01*
X128524095Y-104275000D01*
X128476476Y-104322619D01*
X128428857Y-104417857D01*
X128428857Y-104513095D01*
X128476476Y-104655952D01*
X129047904Y-105227380D01*
X128428857Y-105227380D01*
X128095523Y-104227380D02*
X127476476Y-104227380D01*
X127809809Y-104608333D01*
X127666952Y-104608333D01*
X127571714Y-104655952D01*
X127524095Y-104703571D01*
X127476476Y-104798809D01*
X127476476Y-105036904D01*
X127524095Y-105132142D01*
X127571714Y-105179761D01*
X127666952Y-105227380D01*
X127952666Y-105227380D01*
X128047904Y-105179761D01*
X128095523Y-105132142D01*
X111997904Y-105227380D02*
X111997904Y-104227380D01*
X111664571Y-104941666D01*
X111331238Y-104227380D01*
X111331238Y-105227380D01*
X110950285Y-104227380D02*
X110283619Y-105227380D01*
X110283619Y-104227380D02*
X110950285Y-105227380D01*
X109950285Y-104322619D02*
X109902666Y-104275000D01*
X109807428Y-104227380D01*
X109569333Y-104227380D01*
X109474095Y-104275000D01*
X109426476Y-104322619D01*
X109378857Y-104417857D01*
X109378857Y-104513095D01*
X109426476Y-104655952D01*
X109997904Y-105227380D01*
X109378857Y-105227380D01*
X108997904Y-104322619D02*
X108950285Y-104275000D01*
X108855047Y-104227380D01*
X108616952Y-104227380D01*
X108521714Y-104275000D01*
X108474095Y-104322619D01*
X108426476Y-104417857D01*
X108426476Y-104513095D01*
X108474095Y-104655952D01*
X109045523Y-105227380D01*
X108426476Y-105227380D01*
X40496904Y-105227380D02*
X40496904Y-104227380D01*
X40163571Y-104941666D01*
X39830238Y-104227380D01*
X39830238Y-105227380D01*
X39449285Y-104227380D02*
X38782619Y-105227380D01*
X38782619Y-104227380D02*
X39449285Y-105227380D01*
X38449285Y-104322619D02*
X38401666Y-104275000D01*
X38306428Y-104227380D01*
X38068333Y-104227380D01*
X37973095Y-104275000D01*
X37925476Y-104322619D01*
X37877857Y-104417857D01*
X37877857Y-104513095D01*
X37925476Y-104655952D01*
X38496904Y-105227380D01*
X37877857Y-105227380D01*
X37258809Y-104227380D02*
X37163571Y-104227380D01*
X37068333Y-104275000D01*
X37020714Y-104322619D01*
X36973095Y-104417857D01*
X36925476Y-104608333D01*
X36925476Y-104846428D01*
X36973095Y-105036904D01*
X37020714Y-105132142D01*
X37068333Y-105179761D01*
X37163571Y-105227380D01*
X37258809Y-105227380D01*
X37354047Y-105179761D01*
X37401666Y-105132142D01*
X37449285Y-105036904D01*
X37496904Y-104846428D01*
X37496904Y-104608333D01*
X37449285Y-104417857D01*
X37401666Y-104322619D01*
X37354047Y-104275000D01*
X37258809Y-104227380D01*
X21446904Y-105227380D02*
X21446904Y-104227380D01*
X21113571Y-104941666D01*
X20780238Y-104227380D01*
X20780238Y-105227380D01*
X20399285Y-104227380D02*
X19732619Y-105227380D01*
X19732619Y-104227380D02*
X20399285Y-105227380D01*
X18827857Y-105227380D02*
X19399285Y-105227380D01*
X19113571Y-105227380D02*
X19113571Y-104227380D01*
X19208809Y-104370238D01*
X19304047Y-104465476D01*
X19399285Y-104513095D01*
X18351666Y-105227380D02*
X18161190Y-105227380D01*
X18065952Y-105179761D01*
X18018333Y-105132142D01*
X17923095Y-104989285D01*
X17875476Y-104798809D01*
X17875476Y-104417857D01*
X17923095Y-104322619D01*
X17970714Y-104275000D01*
X18065952Y-104227380D01*
X18256428Y-104227380D01*
X18351666Y-104275000D01*
X18399285Y-104322619D01*
X18446904Y-104417857D01*
X18446904Y-104655952D01*
X18399285Y-104751190D01*
X18351666Y-104798809D01*
X18256428Y-104846428D01*
X18065952Y-104846428D01*
X17970714Y-104798809D01*
X17923095Y-104751190D01*
X17875476Y-104655952D01*
X2396904Y-105227380D02*
X2396904Y-104227380D01*
X2063571Y-104941666D01*
X1730238Y-104227380D01*
X1730238Y-105227380D01*
X1349285Y-104227380D02*
X682619Y-105227380D01*
X682619Y-104227380D02*
X1349285Y-105227380D01*
X-222142Y-105227380D02*
X349285Y-105227380D01*
X63571Y-105227380D02*
X63571Y-104227380D01*
X158809Y-104370238D01*
X254047Y-104465476D01*
X349285Y-104513095D01*
X-793571Y-104655952D02*
X-698333Y-104608333D01*
X-650714Y-104560714D01*
X-603095Y-104465476D01*
X-603095Y-104417857D01*
X-650714Y-104322619D01*
X-698333Y-104275000D01*
X-793571Y-104227380D01*
X-984047Y-104227380D01*
X-1079285Y-104275000D01*
X-1126904Y-104322619D01*
X-1174523Y-104417857D01*
X-1174523Y-104465476D01*
X-1126904Y-104560714D01*
X-1079285Y-104608333D01*
X-984047Y-104655952D01*
X-793571Y-104655952D01*
X-698333Y-104703571D01*
X-650714Y-104751190D01*
X-603095Y-104846428D01*
X-603095Y-105036904D01*
X-650714Y-105132142D01*
X-698333Y-105179761D01*
X-793571Y-105227380D01*
X-984047Y-105227380D01*
X-1079285Y-105179761D01*
X-1126904Y-105132142D01*
X-1174523Y-105036904D01*
X-1174523Y-104846428D01*
X-1126904Y-104751190D01*
X-1079285Y-104703571D01*
X-984047Y-104655952D01*
X316721904Y-86177380D02*
X316721904Y-85177380D01*
X316388571Y-85891666D01*
X316055238Y-85177380D01*
X316055238Y-86177380D01*
X315674285Y-85177380D02*
X315007619Y-86177380D01*
X315007619Y-85177380D02*
X315674285Y-86177380D01*
X314102857Y-86177380D02*
X314674285Y-86177380D01*
X314388571Y-86177380D02*
X314388571Y-85177380D01*
X314483809Y-85320238D01*
X314579047Y-85415476D01*
X314674285Y-85463095D01*
X313769523Y-85177380D02*
X313102857Y-85177380D01*
X313531428Y-86177380D01*
X297671904Y-86177380D02*
X297671904Y-85177380D01*
X297338571Y-85891666D01*
X297005238Y-85177380D01*
X297005238Y-86177380D01*
X296624285Y-85177380D02*
X295957619Y-86177380D01*
X295957619Y-85177380D02*
X296624285Y-86177380D01*
X295052857Y-86177380D02*
X295624285Y-86177380D01*
X295338571Y-86177380D02*
X295338571Y-85177380D01*
X295433809Y-85320238D01*
X295529047Y-85415476D01*
X295624285Y-85463095D01*
X294195714Y-85177380D02*
X294386190Y-85177380D01*
X294481428Y-85225000D01*
X294529047Y-85272619D01*
X294624285Y-85415476D01*
X294671904Y-85605952D01*
X294671904Y-85986904D01*
X294624285Y-86082142D01*
X294576666Y-86129761D01*
X294481428Y-86177380D01*
X294290952Y-86177380D01*
X294195714Y-86129761D01*
X294148095Y-86082142D01*
X294100476Y-85986904D01*
X294100476Y-85748809D01*
X294148095Y-85653571D01*
X294195714Y-85605952D01*
X294290952Y-85558333D01*
X294481428Y-85558333D01*
X294576666Y-85605952D01*
X294624285Y-85653571D01*
X294671904Y-85748809D01*
X278621904Y-86177380D02*
X278621904Y-85177380D01*
X278288571Y-85891666D01*
X277955238Y-85177380D01*
X277955238Y-86177380D01*
X277574285Y-85177380D02*
X276907619Y-86177380D01*
X276907619Y-85177380D02*
X277574285Y-86177380D01*
X276002857Y-86177380D02*
X276574285Y-86177380D01*
X276288571Y-86177380D02*
X276288571Y-85177380D01*
X276383809Y-85320238D01*
X276479047Y-85415476D01*
X276574285Y-85463095D01*
X275098095Y-85177380D02*
X275574285Y-85177380D01*
X275621904Y-85653571D01*
X275574285Y-85605952D01*
X275479047Y-85558333D01*
X275240952Y-85558333D01*
X275145714Y-85605952D01*
X275098095Y-85653571D01*
X275050476Y-85748809D01*
X275050476Y-85986904D01*
X275098095Y-86082142D01*
X275145714Y-86129761D01*
X275240952Y-86177380D01*
X275479047Y-86177380D01*
X275574285Y-86129761D01*
X275621904Y-86082142D01*
X259571904Y-86177380D02*
X259571904Y-85177380D01*
X259238571Y-85891666D01*
X258905238Y-85177380D01*
X258905238Y-86177380D01*
X258524285Y-85177380D02*
X257857619Y-86177380D01*
X257857619Y-85177380D02*
X258524285Y-86177380D01*
X256952857Y-86177380D02*
X257524285Y-86177380D01*
X257238571Y-86177380D02*
X257238571Y-85177380D01*
X257333809Y-85320238D01*
X257429047Y-85415476D01*
X257524285Y-85463095D01*
X256095714Y-85510714D02*
X256095714Y-86177380D01*
X256333809Y-85129761D02*
X256571904Y-85844047D01*
X255952857Y-85844047D01*
X240521904Y-86177380D02*
X240521904Y-85177380D01*
X240188571Y-85891666D01*
X239855238Y-85177380D01*
X239855238Y-86177380D01*
X239474285Y-85177380D02*
X238807619Y-86177380D01*
X238807619Y-85177380D02*
X239474285Y-86177380D01*
X237902857Y-86177380D02*
X238474285Y-86177380D01*
X238188571Y-86177380D02*
X238188571Y-85177380D01*
X238283809Y-85320238D01*
X238379047Y-85415476D01*
X238474285Y-85463095D01*
X237569523Y-85177380D02*
X236950476Y-85177380D01*
X237283809Y-85558333D01*
X237140952Y-85558333D01*
X237045714Y-85605952D01*
X236998095Y-85653571D01*
X236950476Y-85748809D01*
X236950476Y-85986904D01*
X236998095Y-86082142D01*
X237045714Y-86129761D01*
X237140952Y-86177380D01*
X237426666Y-86177380D01*
X237521904Y-86129761D01*
X237569523Y-86082142D01*
X221471904Y-86177380D02*
X221471904Y-85177380D01*
X221138571Y-85891666D01*
X220805238Y-85177380D01*
X220805238Y-86177380D01*
X220424285Y-85177380D02*
X219757619Y-86177380D01*
X219757619Y-85177380D02*
X220424285Y-86177380D01*
X218852857Y-86177380D02*
X219424285Y-86177380D01*
X219138571Y-86177380D02*
X219138571Y-85177380D01*
X219233809Y-85320238D01*
X219329047Y-85415476D01*
X219424285Y-85463095D01*
X218471904Y-85272619D02*
X218424285Y-85225000D01*
X218329047Y-85177380D01*
X218090952Y-85177380D01*
X217995714Y-85225000D01*
X217948095Y-85272619D01*
X217900476Y-85367857D01*
X217900476Y-85463095D01*
X217948095Y-85605952D01*
X218519523Y-86177380D01*
X217900476Y-86177380D01*
X202421904Y-86177380D02*
X202421904Y-85177380D01*
X202088571Y-85891666D01*
X201755238Y-85177380D01*
X201755238Y-86177380D01*
X201374285Y-85177380D02*
X200707619Y-86177380D01*
X200707619Y-85177380D02*
X201374285Y-86177380D01*
X199802857Y-86177380D02*
X200374285Y-86177380D01*
X200088571Y-86177380D02*
X200088571Y-85177380D01*
X200183809Y-85320238D01*
X200279047Y-85415476D01*
X200374285Y-85463095D01*
X198850476Y-86177380D02*
X199421904Y-86177380D01*
X199136190Y-86177380D02*
X199136190Y-85177380D01*
X199231428Y-85320238D01*
X199326666Y-85415476D01*
X199421904Y-85463095D01*
X183371904Y-86177380D02*
X183371904Y-85177380D01*
X183038571Y-85891666D01*
X182705238Y-85177380D01*
X182705238Y-86177380D01*
X182324285Y-85177380D02*
X181657619Y-86177380D01*
X181657619Y-85177380D02*
X182324285Y-86177380D01*
X180752857Y-86177380D02*
X181324285Y-86177380D01*
X181038571Y-86177380D02*
X181038571Y-85177380D01*
X181133809Y-85320238D01*
X181229047Y-85415476D01*
X181324285Y-85463095D01*
X180133809Y-85177380D02*
X180038571Y-85177380D01*
X179943333Y-85225000D01*
X179895714Y-85272619D01*
X179848095Y-85367857D01*
X179800476Y-85558333D01*
X179800476Y-85796428D01*
X179848095Y-85986904D01*
X179895714Y-86082142D01*
X179943333Y-86129761D01*
X180038571Y-86177380D01*
X180133809Y-86177380D01*
X180229047Y-86129761D01*
X180276666Y-86082142D01*
X180324285Y-85986904D01*
X180371904Y-85796428D01*
X180371904Y-85558333D01*
X180324285Y-85367857D01*
X180276666Y-85272619D01*
X180229047Y-85225000D01*
X180133809Y-85177380D01*
X163845714Y-86177380D02*
X163845714Y-85177380D01*
X163512380Y-85891666D01*
X163179047Y-85177380D01*
X163179047Y-86177380D01*
X162798095Y-85177380D02*
X162131428Y-86177380D01*
X162131428Y-85177380D02*
X162798095Y-86177380D01*
X161702857Y-86177380D02*
X161512380Y-86177380D01*
X161417142Y-86129761D01*
X161369523Y-86082142D01*
X161274285Y-85939285D01*
X161226666Y-85748809D01*
X161226666Y-85367857D01*
X161274285Y-85272619D01*
X161321904Y-85225000D01*
X161417142Y-85177380D01*
X161607619Y-85177380D01*
X161702857Y-85225000D01*
X161750476Y-85272619D01*
X161798095Y-85367857D01*
X161798095Y-85605952D01*
X161750476Y-85701190D01*
X161702857Y-85748809D01*
X161607619Y-85796428D01*
X161417142Y-85796428D01*
X161321904Y-85748809D01*
X161274285Y-85701190D01*
X161226666Y-85605952D01*
X144795714Y-86177380D02*
X144795714Y-85177380D01*
X144462380Y-85891666D01*
X144129047Y-85177380D01*
X144129047Y-86177380D01*
X143748095Y-85177380D02*
X143081428Y-86177380D01*
X143081428Y-85177380D02*
X143748095Y-86177380D01*
X142557619Y-85605952D02*
X142652857Y-85558333D01*
X142700476Y-85510714D01*
X142748095Y-85415476D01*
X142748095Y-85367857D01*
X142700476Y-85272619D01*
X142652857Y-85225000D01*
X142557619Y-85177380D01*
X142367142Y-85177380D01*
X142271904Y-85225000D01*
X142224285Y-85272619D01*
X142176666Y-85367857D01*
X142176666Y-85415476D01*
X142224285Y-85510714D01*
X142271904Y-85558333D01*
X142367142Y-85605952D01*
X142557619Y-85605952D01*
X142652857Y-85653571D01*
X142700476Y-85701190D01*
X142748095Y-85796428D01*
X142748095Y-85986904D01*
X142700476Y-86082142D01*
X142652857Y-86129761D01*
X142557619Y-86177380D01*
X142367142Y-86177380D01*
X142271904Y-86129761D01*
X142224285Y-86082142D01*
X142176666Y-85986904D01*
X142176666Y-85796428D01*
X142224285Y-85701190D01*
X142271904Y-85653571D01*
X142367142Y-85605952D01*
X125745714Y-86177380D02*
X125745714Y-85177380D01*
X125412380Y-85891666D01*
X125079047Y-85177380D01*
X125079047Y-86177380D01*
X124698095Y-85177380D02*
X124031428Y-86177380D01*
X124031428Y-85177380D02*
X124698095Y-86177380D01*
X123745714Y-85177380D02*
X123079047Y-85177380D01*
X123507619Y-86177380D01*
X106695714Y-86177380D02*
X106695714Y-85177380D01*
X106362380Y-85891666D01*
X106029047Y-85177380D01*
X106029047Y-86177380D01*
X105648095Y-85177380D02*
X104981428Y-86177380D01*
X104981428Y-85177380D02*
X105648095Y-86177380D01*
X104171904Y-85177380D02*
X104362380Y-85177380D01*
X104457619Y-85225000D01*
X104505238Y-85272619D01*
X104600476Y-85415476D01*
X104648095Y-85605952D01*
X104648095Y-85986904D01*
X104600476Y-86082142D01*
X104552857Y-86129761D01*
X104457619Y-86177380D01*
X104267142Y-86177380D01*
X104171904Y-86129761D01*
X104124285Y-86082142D01*
X104076666Y-85986904D01*
X104076666Y-85748809D01*
X104124285Y-85653571D01*
X104171904Y-85605952D01*
X104267142Y-85558333D01*
X104457619Y-85558333D01*
X104552857Y-85605952D01*
X104600476Y-85653571D01*
X104648095Y-85748809D01*
X87645714Y-86177380D02*
X87645714Y-85177380D01*
X87312380Y-85891666D01*
X86979047Y-85177380D01*
X86979047Y-86177380D01*
X86598095Y-85177380D02*
X85931428Y-86177380D01*
X85931428Y-85177380D02*
X86598095Y-86177380D01*
X85074285Y-85177380D02*
X85550476Y-85177380D01*
X85598095Y-85653571D01*
X85550476Y-85605952D01*
X85455238Y-85558333D01*
X85217142Y-85558333D01*
X85121904Y-85605952D01*
X85074285Y-85653571D01*
X85026666Y-85748809D01*
X85026666Y-85986904D01*
X85074285Y-86082142D01*
X85121904Y-86129761D01*
X85217142Y-86177380D01*
X85455238Y-86177380D01*
X85550476Y-86129761D01*
X85598095Y-86082142D01*
X40020714Y-86177380D02*
X40020714Y-85177380D01*
X39687380Y-85891666D01*
X39354047Y-85177380D01*
X39354047Y-86177380D01*
X38973095Y-85177380D02*
X38306428Y-86177380D01*
X38306428Y-85177380D02*
X38973095Y-86177380D01*
X38020714Y-85177380D02*
X37401666Y-85177380D01*
X37735000Y-85558333D01*
X37592142Y-85558333D01*
X37496904Y-85605952D01*
X37449285Y-85653571D01*
X37401666Y-85748809D01*
X37401666Y-85986904D01*
X37449285Y-86082142D01*
X37496904Y-86129761D01*
X37592142Y-86177380D01*
X37877857Y-86177380D01*
X37973095Y-86129761D01*
X38020714Y-86082142D01*
X1920714Y-86177380D02*
X1920714Y-85177380D01*
X1587380Y-85891666D01*
X1254047Y-85177380D01*
X1254047Y-86177380D01*
X873095Y-85177380D02*
X206428Y-86177380D01*
X206428Y-85177380D02*
X873095Y-86177380D01*
X-698333Y-86177380D02*
X-126904Y-86177380D01*
X-412619Y-86177380D02*
X-412619Y-85177380D01*
X-317380Y-85320238D01*
X-222142Y-85415476D01*
X-126904Y-85463095D01*
X322143285Y-141930380D02*
X322143285Y-140930380D01*
X321905190Y-140930380D01*
X321762333Y-140978000D01*
X321667095Y-141073238D01*
X321619476Y-141168476D01*
X321571857Y-141358952D01*
X321571857Y-141501809D01*
X321619476Y-141692285D01*
X321667095Y-141787523D01*
X321762333Y-141882761D01*
X321905190Y-141930380D01*
X322143285Y-141930380D01*
X320714714Y-140930380D02*
X320905190Y-140930380D01*
X321000428Y-140978000D01*
X321048047Y-141025619D01*
X321143285Y-141168476D01*
X321190904Y-141358952D01*
X321190904Y-141739904D01*
X321143285Y-141835142D01*
X321095666Y-141882761D01*
X321000428Y-141930380D01*
X320809952Y-141930380D01*
X320714714Y-141882761D01*
X320667095Y-141835142D01*
X320619476Y-141739904D01*
X320619476Y-141501809D01*
X320667095Y-141406571D01*
X320714714Y-141358952D01*
X320809952Y-141311333D01*
X321000428Y-141311333D01*
X321095666Y-141358952D01*
X321143285Y-141406571D01*
X321190904Y-141501809D01*
X320000428Y-140930380D02*
X319905190Y-140930380D01*
X319809952Y-140978000D01*
X319762333Y-141025619D01*
X319714714Y-141120857D01*
X319667095Y-141311333D01*
X319667095Y-141549428D01*
X319714714Y-141739904D01*
X319762333Y-141835142D01*
X319809952Y-141882761D01*
X319905190Y-141930380D01*
X320000428Y-141930380D01*
X320095666Y-141882761D01*
X320143285Y-141835142D01*
X320190904Y-141739904D01*
X320238523Y-141549428D01*
X320238523Y-141311333D01*
X320190904Y-141120857D01*
X320143285Y-141025619D01*
X320095666Y-140978000D01*
X320000428Y-140930380D01*
X298394285Y-141930380D02*
X298394285Y-140930380D01*
X298156190Y-140930380D01*
X298013333Y-140978000D01*
X297918095Y-141073238D01*
X297870476Y-141168476D01*
X297822857Y-141358952D01*
X297822857Y-141501809D01*
X297870476Y-141692285D01*
X297918095Y-141787523D01*
X298013333Y-141882761D01*
X298156190Y-141930380D01*
X298394285Y-141930380D01*
X296918095Y-140930380D02*
X297394285Y-140930380D01*
X297441904Y-141406571D01*
X297394285Y-141358952D01*
X297299047Y-141311333D01*
X297060952Y-141311333D01*
X296965714Y-141358952D01*
X296918095Y-141406571D01*
X296870476Y-141501809D01*
X296870476Y-141739904D01*
X296918095Y-141835142D01*
X296965714Y-141882761D01*
X297060952Y-141930380D01*
X297299047Y-141930380D01*
X297394285Y-141882761D01*
X297441904Y-141835142D01*
X296394285Y-141930380D02*
X296203809Y-141930380D01*
X296108571Y-141882761D01*
X296060952Y-141835142D01*
X295965714Y-141692285D01*
X295918095Y-141501809D01*
X295918095Y-141120857D01*
X295965714Y-141025619D01*
X296013333Y-140978000D01*
X296108571Y-140930380D01*
X296299047Y-140930380D01*
X296394285Y-140978000D01*
X296441904Y-141025619D01*
X296489523Y-141120857D01*
X296489523Y-141358952D01*
X296441904Y-141454190D01*
X296394285Y-141501809D01*
X296299047Y-141549428D01*
X296108571Y-141549428D01*
X296013333Y-141501809D01*
X295965714Y-141454190D01*
X295918095Y-141358952D01*
X272232285Y-141930380D02*
X272232285Y-140930380D01*
X271994190Y-140930380D01*
X271851333Y-140978000D01*
X271756095Y-141073238D01*
X271708476Y-141168476D01*
X271660857Y-141358952D01*
X271660857Y-141501809D01*
X271708476Y-141692285D01*
X271756095Y-141787523D01*
X271851333Y-141882761D01*
X271994190Y-141930380D01*
X272232285Y-141930380D01*
X270756095Y-140930380D02*
X271232285Y-140930380D01*
X271279904Y-141406571D01*
X271232285Y-141358952D01*
X271137047Y-141311333D01*
X270898952Y-141311333D01*
X270803714Y-141358952D01*
X270756095Y-141406571D01*
X270708476Y-141501809D01*
X270708476Y-141739904D01*
X270756095Y-141835142D01*
X270803714Y-141882761D01*
X270898952Y-141930380D01*
X271137047Y-141930380D01*
X271232285Y-141882761D01*
X271279904Y-141835142D01*
X270137047Y-141358952D02*
X270232285Y-141311333D01*
X270279904Y-141263714D01*
X270327523Y-141168476D01*
X270327523Y-141120857D01*
X270279904Y-141025619D01*
X270232285Y-140978000D01*
X270137047Y-140930380D01*
X269946571Y-140930380D01*
X269851333Y-140978000D01*
X269803714Y-141025619D01*
X269756095Y-141120857D01*
X269756095Y-141168476D01*
X269803714Y-141263714D01*
X269851333Y-141311333D01*
X269946571Y-141358952D01*
X270137047Y-141358952D01*
X270232285Y-141406571D01*
X270279904Y-141454190D01*
X270327523Y-141549428D01*
X270327523Y-141739904D01*
X270279904Y-141835142D01*
X270232285Y-141882761D01*
X270137047Y-141930380D01*
X269946571Y-141930380D01*
X269851333Y-141882761D01*
X269803714Y-141835142D01*
X269756095Y-141739904D01*
X269756095Y-141549428D01*
X269803714Y-141454190D01*
X269851333Y-141406571D01*
X269946571Y-141358952D01*
X231719285Y-141930380D02*
X231719285Y-140930380D01*
X231481190Y-140930380D01*
X231338333Y-140978000D01*
X231243095Y-141073238D01*
X231195476Y-141168476D01*
X231147857Y-141358952D01*
X231147857Y-141501809D01*
X231195476Y-141692285D01*
X231243095Y-141787523D01*
X231338333Y-141882761D01*
X231481190Y-141930380D01*
X231719285Y-141930380D01*
X230243095Y-140930380D02*
X230719285Y-140930380D01*
X230766904Y-141406571D01*
X230719285Y-141358952D01*
X230624047Y-141311333D01*
X230385952Y-141311333D01*
X230290714Y-141358952D01*
X230243095Y-141406571D01*
X230195476Y-141501809D01*
X230195476Y-141739904D01*
X230243095Y-141835142D01*
X230290714Y-141882761D01*
X230385952Y-141930380D01*
X230624047Y-141930380D01*
X230719285Y-141882761D01*
X230766904Y-141835142D01*
X229862142Y-140930380D02*
X229195476Y-140930380D01*
X229624047Y-141930380D01*
X184221285Y-141930380D02*
X184221285Y-140930380D01*
X183983190Y-140930380D01*
X183840333Y-140978000D01*
X183745095Y-141073238D01*
X183697476Y-141168476D01*
X183649857Y-141358952D01*
X183649857Y-141501809D01*
X183697476Y-141692285D01*
X183745095Y-141787523D01*
X183840333Y-141882761D01*
X183983190Y-141930380D01*
X184221285Y-141930380D01*
X182745095Y-140930380D02*
X183221285Y-140930380D01*
X183268904Y-141406571D01*
X183221285Y-141358952D01*
X183126047Y-141311333D01*
X182887952Y-141311333D01*
X182792714Y-141358952D01*
X182745095Y-141406571D01*
X182697476Y-141501809D01*
X182697476Y-141739904D01*
X182745095Y-141835142D01*
X182792714Y-141882761D01*
X182887952Y-141930380D01*
X183126047Y-141930380D01*
X183221285Y-141882761D01*
X183268904Y-141835142D01*
X181840333Y-140930380D02*
X182030809Y-140930380D01*
X182126047Y-140978000D01*
X182173666Y-141025619D01*
X182268904Y-141168476D01*
X182316523Y-141358952D01*
X182316523Y-141739904D01*
X182268904Y-141835142D01*
X182221285Y-141882761D01*
X182126047Y-141930380D01*
X181935571Y-141930380D01*
X181840333Y-141882761D01*
X181792714Y-141835142D01*
X181745095Y-141739904D01*
X181745095Y-141501809D01*
X181792714Y-141406571D01*
X181840333Y-141358952D01*
X181935571Y-141311333D01*
X182126047Y-141311333D01*
X182221285Y-141358952D01*
X182268904Y-141406571D01*
X182316523Y-141501809D01*
X119705285Y-141930380D02*
X119705285Y-140930380D01*
X119467190Y-140930380D01*
X119324333Y-140978000D01*
X119229095Y-141073238D01*
X119181476Y-141168476D01*
X119133857Y-141358952D01*
X119133857Y-141501809D01*
X119181476Y-141692285D01*
X119229095Y-141787523D01*
X119324333Y-141882761D01*
X119467190Y-141930380D01*
X119705285Y-141930380D01*
X118229095Y-140930380D02*
X118705285Y-140930380D01*
X118752904Y-141406571D01*
X118705285Y-141358952D01*
X118610047Y-141311333D01*
X118371952Y-141311333D01*
X118276714Y-141358952D01*
X118229095Y-141406571D01*
X118181476Y-141501809D01*
X118181476Y-141739904D01*
X118229095Y-141835142D01*
X118276714Y-141882761D01*
X118371952Y-141930380D01*
X118610047Y-141930380D01*
X118705285Y-141882761D01*
X118752904Y-141835142D01*
X117324333Y-141263714D02*
X117324333Y-141930380D01*
X117562428Y-140882761D02*
X117800523Y-141597047D01*
X117181476Y-141597047D01*
X91003285Y-146629380D02*
X91003285Y-145629380D01*
X90765190Y-145629380D01*
X90622333Y-145677000D01*
X90527095Y-145772238D01*
X90479476Y-145867476D01*
X90431857Y-146057952D01*
X90431857Y-146200809D01*
X90479476Y-146391285D01*
X90527095Y-146486523D01*
X90622333Y-146581761D01*
X90765190Y-146629380D01*
X91003285Y-146629380D01*
X89527095Y-145629380D02*
X90003285Y-145629380D01*
X90050904Y-146105571D01*
X90003285Y-146057952D01*
X89908047Y-146010333D01*
X89669952Y-146010333D01*
X89574714Y-146057952D01*
X89527095Y-146105571D01*
X89479476Y-146200809D01*
X89479476Y-146438904D01*
X89527095Y-146534142D01*
X89574714Y-146581761D01*
X89669952Y-146629380D01*
X89908047Y-146629380D01*
X90003285Y-146581761D01*
X90050904Y-146534142D01*
X89146142Y-145629380D02*
X88527095Y-145629380D01*
X88860428Y-146010333D01*
X88717571Y-146010333D01*
X88622333Y-146057952D01*
X88574714Y-146105571D01*
X88527095Y-146200809D01*
X88527095Y-146438904D01*
X88574714Y-146534142D01*
X88622333Y-146581761D01*
X88717571Y-146629380D01*
X89003285Y-146629380D01*
X89098523Y-146581761D01*
X89146142Y-146534142D01*
X72207285Y-146502380D02*
X72207285Y-145502380D01*
X71969190Y-145502380D01*
X71826333Y-145550000D01*
X71731095Y-145645238D01*
X71683476Y-145740476D01*
X71635857Y-145930952D01*
X71635857Y-146073809D01*
X71683476Y-146264285D01*
X71731095Y-146359523D01*
X71826333Y-146454761D01*
X71969190Y-146502380D01*
X72207285Y-146502380D01*
X70731095Y-145502380D02*
X71207285Y-145502380D01*
X71254904Y-145978571D01*
X71207285Y-145930952D01*
X71112047Y-145883333D01*
X70873952Y-145883333D01*
X70778714Y-145930952D01*
X70731095Y-145978571D01*
X70683476Y-146073809D01*
X70683476Y-146311904D01*
X70731095Y-146407142D01*
X70778714Y-146454761D01*
X70873952Y-146502380D01*
X71112047Y-146502380D01*
X71207285Y-146454761D01*
X71254904Y-146407142D01*
X70302523Y-145597619D02*
X70254904Y-145550000D01*
X70159666Y-145502380D01*
X69921571Y-145502380D01*
X69826333Y-145550000D01*
X69778714Y-145597619D01*
X69731095Y-145692857D01*
X69731095Y-145788095D01*
X69778714Y-145930952D01*
X70350142Y-146502380D01*
X69731095Y-146502380D01*
X53030285Y-146629380D02*
X53030285Y-145629380D01*
X52792190Y-145629380D01*
X52649333Y-145677000D01*
X52554095Y-145772238D01*
X52506476Y-145867476D01*
X52458857Y-146057952D01*
X52458857Y-146200809D01*
X52506476Y-146391285D01*
X52554095Y-146486523D01*
X52649333Y-146581761D01*
X52792190Y-146629380D01*
X53030285Y-146629380D01*
X51554095Y-145629380D02*
X52030285Y-145629380D01*
X52077904Y-146105571D01*
X52030285Y-146057952D01*
X51935047Y-146010333D01*
X51696952Y-146010333D01*
X51601714Y-146057952D01*
X51554095Y-146105571D01*
X51506476Y-146200809D01*
X51506476Y-146438904D01*
X51554095Y-146534142D01*
X51601714Y-146581761D01*
X51696952Y-146629380D01*
X51935047Y-146629380D01*
X52030285Y-146581761D01*
X52077904Y-146534142D01*
X50554095Y-146629380D02*
X51125523Y-146629380D01*
X50839809Y-146629380D02*
X50839809Y-145629380D01*
X50935047Y-145772238D01*
X51030285Y-145867476D01*
X51125523Y-145915095D01*
X29154285Y-141930380D02*
X29154285Y-140930380D01*
X28916190Y-140930380D01*
X28773333Y-140978000D01*
X28678095Y-141073238D01*
X28630476Y-141168476D01*
X28582857Y-141358952D01*
X28582857Y-141501809D01*
X28630476Y-141692285D01*
X28678095Y-141787523D01*
X28773333Y-141882761D01*
X28916190Y-141930380D01*
X29154285Y-141930380D01*
X27678095Y-140930380D02*
X28154285Y-140930380D01*
X28201904Y-141406571D01*
X28154285Y-141358952D01*
X28059047Y-141311333D01*
X27820952Y-141311333D01*
X27725714Y-141358952D01*
X27678095Y-141406571D01*
X27630476Y-141501809D01*
X27630476Y-141739904D01*
X27678095Y-141835142D01*
X27725714Y-141882761D01*
X27820952Y-141930380D01*
X28059047Y-141930380D01*
X28154285Y-141882761D01*
X28201904Y-141835142D01*
X27011428Y-140930380D02*
X26916190Y-140930380D01*
X26820952Y-140978000D01*
X26773333Y-141025619D01*
X26725714Y-141120857D01*
X26678095Y-141311333D01*
X26678095Y-141549428D01*
X26725714Y-141739904D01*
X26773333Y-141835142D01*
X26820952Y-141882761D01*
X26916190Y-141930380D01*
X27011428Y-141930380D01*
X27106666Y-141882761D01*
X27154285Y-141835142D01*
X27201904Y-141739904D01*
X27249523Y-141549428D01*
X27249523Y-141311333D01*
X27201904Y-141120857D01*
X27154285Y-141025619D01*
X27106666Y-140978000D01*
X27011428Y-140930380D01*
X10231285Y-141930380D02*
X10231285Y-140930380D01*
X9993190Y-140930380D01*
X9850333Y-140978000D01*
X9755095Y-141073238D01*
X9707476Y-141168476D01*
X9659857Y-141358952D01*
X9659857Y-141501809D01*
X9707476Y-141692285D01*
X9755095Y-141787523D01*
X9850333Y-141882761D01*
X9993190Y-141930380D01*
X10231285Y-141930380D01*
X8802714Y-141263714D02*
X8802714Y-141930380D01*
X9040809Y-140882761D02*
X9278904Y-141597047D01*
X8659857Y-141597047D01*
X8231285Y-141930380D02*
X8040809Y-141930380D01*
X7945571Y-141882761D01*
X7897952Y-141835142D01*
X7802714Y-141692285D01*
X7755095Y-141501809D01*
X7755095Y-141120857D01*
X7802714Y-141025619D01*
X7850333Y-140978000D01*
X7945571Y-140930380D01*
X8136047Y-140930380D01*
X8231285Y-140978000D01*
X8278904Y-141025619D01*
X8326523Y-141120857D01*
X8326523Y-141358952D01*
X8278904Y-141454190D01*
X8231285Y-141501809D01*
X8136047Y-141549428D01*
X7945571Y-141549428D01*
X7850333Y-141501809D01*
X7802714Y-141454190D01*
X7755095Y-141358952D01*
X322270285Y-122880380D02*
X322270285Y-121880380D01*
X322032190Y-121880380D01*
X321889333Y-121928000D01*
X321794095Y-122023238D01*
X321746476Y-122118476D01*
X321698857Y-122308952D01*
X321698857Y-122451809D01*
X321746476Y-122642285D01*
X321794095Y-122737523D01*
X321889333Y-122832761D01*
X322032190Y-122880380D01*
X322270285Y-122880380D01*
X320841714Y-122213714D02*
X320841714Y-122880380D01*
X321079809Y-121832761D02*
X321317904Y-122547047D01*
X320698857Y-122547047D01*
X320175047Y-122308952D02*
X320270285Y-122261333D01*
X320317904Y-122213714D01*
X320365523Y-122118476D01*
X320365523Y-122070857D01*
X320317904Y-121975619D01*
X320270285Y-121928000D01*
X320175047Y-121880380D01*
X319984571Y-121880380D01*
X319889333Y-121928000D01*
X319841714Y-121975619D01*
X319794095Y-122070857D01*
X319794095Y-122118476D01*
X319841714Y-122213714D01*
X319889333Y-122261333D01*
X319984571Y-122308952D01*
X320175047Y-122308952D01*
X320270285Y-122356571D01*
X320317904Y-122404190D01*
X320365523Y-122499428D01*
X320365523Y-122689904D01*
X320317904Y-122785142D01*
X320270285Y-122832761D01*
X320175047Y-122880380D01*
X319984571Y-122880380D01*
X319889333Y-122832761D01*
X319841714Y-122785142D01*
X319794095Y-122689904D01*
X319794095Y-122499428D01*
X319841714Y-122404190D01*
X319889333Y-122356571D01*
X319984571Y-122308952D01*
X300807285Y-122880380D02*
X300807285Y-121880380D01*
X300569190Y-121880380D01*
X300426333Y-121928000D01*
X300331095Y-122023238D01*
X300283476Y-122118476D01*
X300235857Y-122308952D01*
X300235857Y-122451809D01*
X300283476Y-122642285D01*
X300331095Y-122737523D01*
X300426333Y-122832761D01*
X300569190Y-122880380D01*
X300807285Y-122880380D01*
X299378714Y-122213714D02*
X299378714Y-122880380D01*
X299616809Y-121832761D02*
X299854904Y-122547047D01*
X299235857Y-122547047D01*
X298950142Y-121880380D02*
X298283476Y-121880380D01*
X298712047Y-122880380D01*
X281884285Y-122880380D02*
X281884285Y-121880380D01*
X281646190Y-121880380D01*
X281503333Y-121928000D01*
X281408095Y-122023238D01*
X281360476Y-122118476D01*
X281312857Y-122308952D01*
X281312857Y-122451809D01*
X281360476Y-122642285D01*
X281408095Y-122737523D01*
X281503333Y-122832761D01*
X281646190Y-122880380D01*
X281884285Y-122880380D01*
X280455714Y-122213714D02*
X280455714Y-122880380D01*
X280693809Y-121832761D02*
X280931904Y-122547047D01*
X280312857Y-122547047D01*
X279503333Y-121880380D02*
X279693809Y-121880380D01*
X279789047Y-121928000D01*
X279836666Y-121975619D01*
X279931904Y-122118476D01*
X279979523Y-122308952D01*
X279979523Y-122689904D01*
X279931904Y-122785142D01*
X279884285Y-122832761D01*
X279789047Y-122880380D01*
X279598571Y-122880380D01*
X279503333Y-122832761D01*
X279455714Y-122785142D01*
X279408095Y-122689904D01*
X279408095Y-122451809D01*
X279455714Y-122356571D01*
X279503333Y-122308952D01*
X279598571Y-122261333D01*
X279789047Y-122261333D01*
X279884285Y-122308952D01*
X279931904Y-122356571D01*
X279979523Y-122451809D01*
X262707285Y-122880380D02*
X262707285Y-121880380D01*
X262469190Y-121880380D01*
X262326333Y-121928000D01*
X262231095Y-122023238D01*
X262183476Y-122118476D01*
X262135857Y-122308952D01*
X262135857Y-122451809D01*
X262183476Y-122642285D01*
X262231095Y-122737523D01*
X262326333Y-122832761D01*
X262469190Y-122880380D01*
X262707285Y-122880380D01*
X261278714Y-122213714D02*
X261278714Y-122880380D01*
X261516809Y-121832761D02*
X261754904Y-122547047D01*
X261135857Y-122547047D01*
X260278714Y-121880380D02*
X260754904Y-121880380D01*
X260802523Y-122356571D01*
X260754904Y-122308952D01*
X260659666Y-122261333D01*
X260421571Y-122261333D01*
X260326333Y-122308952D01*
X260278714Y-122356571D01*
X260231095Y-122451809D01*
X260231095Y-122689904D01*
X260278714Y-122785142D01*
X260326333Y-122832761D01*
X260421571Y-122880380D01*
X260659666Y-122880380D01*
X260754904Y-122832761D01*
X260802523Y-122785142D01*
X243784285Y-122880380D02*
X243784285Y-121880380D01*
X243546190Y-121880380D01*
X243403333Y-121928000D01*
X243308095Y-122023238D01*
X243260476Y-122118476D01*
X243212857Y-122308952D01*
X243212857Y-122451809D01*
X243260476Y-122642285D01*
X243308095Y-122737523D01*
X243403333Y-122832761D01*
X243546190Y-122880380D01*
X243784285Y-122880380D01*
X242355714Y-122213714D02*
X242355714Y-122880380D01*
X242593809Y-121832761D02*
X242831904Y-122547047D01*
X242212857Y-122547047D01*
X241403333Y-122213714D02*
X241403333Y-122880380D01*
X241641428Y-121832761D02*
X241879523Y-122547047D01*
X241260476Y-122547047D01*
X224734285Y-122880380D02*
X224734285Y-121880380D01*
X224496190Y-121880380D01*
X224353333Y-121928000D01*
X224258095Y-122023238D01*
X224210476Y-122118476D01*
X224162857Y-122308952D01*
X224162857Y-122451809D01*
X224210476Y-122642285D01*
X224258095Y-122737523D01*
X224353333Y-122832761D01*
X224496190Y-122880380D01*
X224734285Y-122880380D01*
X223305714Y-122213714D02*
X223305714Y-122880380D01*
X223543809Y-121832761D02*
X223781904Y-122547047D01*
X223162857Y-122547047D01*
X222877142Y-121880380D02*
X222258095Y-121880380D01*
X222591428Y-122261333D01*
X222448571Y-122261333D01*
X222353333Y-122308952D01*
X222305714Y-122356571D01*
X222258095Y-122451809D01*
X222258095Y-122689904D01*
X222305714Y-122785142D01*
X222353333Y-122832761D01*
X222448571Y-122880380D01*
X222734285Y-122880380D01*
X222829523Y-122832761D01*
X222877142Y-122785142D01*
X205684285Y-122880380D02*
X205684285Y-121880380D01*
X205446190Y-121880380D01*
X205303333Y-121928000D01*
X205208095Y-122023238D01*
X205160476Y-122118476D01*
X205112857Y-122308952D01*
X205112857Y-122451809D01*
X205160476Y-122642285D01*
X205208095Y-122737523D01*
X205303333Y-122832761D01*
X205446190Y-122880380D01*
X205684285Y-122880380D01*
X204255714Y-122213714D02*
X204255714Y-122880380D01*
X204493809Y-121832761D02*
X204731904Y-122547047D01*
X204112857Y-122547047D01*
X203779523Y-121975619D02*
X203731904Y-121928000D01*
X203636666Y-121880380D01*
X203398571Y-121880380D01*
X203303333Y-121928000D01*
X203255714Y-121975619D01*
X203208095Y-122070857D01*
X203208095Y-122166095D01*
X203255714Y-122308952D01*
X203827142Y-122880380D01*
X203208095Y-122880380D01*
X186634285Y-122880380D02*
X186634285Y-121880380D01*
X186396190Y-121880380D01*
X186253333Y-121928000D01*
X186158095Y-122023238D01*
X186110476Y-122118476D01*
X186062857Y-122308952D01*
X186062857Y-122451809D01*
X186110476Y-122642285D01*
X186158095Y-122737523D01*
X186253333Y-122832761D01*
X186396190Y-122880380D01*
X186634285Y-122880380D01*
X185205714Y-122213714D02*
X185205714Y-122880380D01*
X185443809Y-121832761D02*
X185681904Y-122547047D01*
X185062857Y-122547047D01*
X184158095Y-122880380D02*
X184729523Y-122880380D01*
X184443809Y-122880380D02*
X184443809Y-121880380D01*
X184539047Y-122023238D01*
X184634285Y-122118476D01*
X184729523Y-122166095D01*
X167584285Y-122880380D02*
X167584285Y-121880380D01*
X167346190Y-121880380D01*
X167203333Y-121928000D01*
X167108095Y-122023238D01*
X167060476Y-122118476D01*
X167012857Y-122308952D01*
X167012857Y-122451809D01*
X167060476Y-122642285D01*
X167108095Y-122737523D01*
X167203333Y-122832761D01*
X167346190Y-122880380D01*
X167584285Y-122880380D01*
X166155714Y-122213714D02*
X166155714Y-122880380D01*
X166393809Y-121832761D02*
X166631904Y-122547047D01*
X166012857Y-122547047D01*
X165441428Y-121880380D02*
X165346190Y-121880380D01*
X165250952Y-121928000D01*
X165203333Y-121975619D01*
X165155714Y-122070857D01*
X165108095Y-122261333D01*
X165108095Y-122499428D01*
X165155714Y-122689904D01*
X165203333Y-122785142D01*
X165250952Y-122832761D01*
X165346190Y-122880380D01*
X165441428Y-122880380D01*
X165536666Y-122832761D01*
X165584285Y-122785142D01*
X165631904Y-122689904D01*
X165679523Y-122499428D01*
X165679523Y-122261333D01*
X165631904Y-122070857D01*
X165584285Y-121975619D01*
X165536666Y-121928000D01*
X165441428Y-121880380D01*
X148534285Y-122880380D02*
X148534285Y-121880380D01*
X148296190Y-121880380D01*
X148153333Y-121928000D01*
X148058095Y-122023238D01*
X148010476Y-122118476D01*
X147962857Y-122308952D01*
X147962857Y-122451809D01*
X148010476Y-122642285D01*
X148058095Y-122737523D01*
X148153333Y-122832761D01*
X148296190Y-122880380D01*
X148534285Y-122880380D01*
X147629523Y-121880380D02*
X147010476Y-121880380D01*
X147343809Y-122261333D01*
X147200952Y-122261333D01*
X147105714Y-122308952D01*
X147058095Y-122356571D01*
X147010476Y-122451809D01*
X147010476Y-122689904D01*
X147058095Y-122785142D01*
X147105714Y-122832761D01*
X147200952Y-122880380D01*
X147486666Y-122880380D01*
X147581904Y-122832761D01*
X147629523Y-122785142D01*
X146534285Y-122880380D02*
X146343809Y-122880380D01*
X146248571Y-122832761D01*
X146200952Y-122785142D01*
X146105714Y-122642285D01*
X146058095Y-122451809D01*
X146058095Y-122070857D01*
X146105714Y-121975619D01*
X146153333Y-121928000D01*
X146248571Y-121880380D01*
X146439047Y-121880380D01*
X146534285Y-121928000D01*
X146581904Y-121975619D01*
X146629523Y-122070857D01*
X146629523Y-122308952D01*
X146581904Y-122404190D01*
X146534285Y-122451809D01*
X146439047Y-122499428D01*
X146248571Y-122499428D01*
X146153333Y-122451809D01*
X146105714Y-122404190D01*
X146058095Y-122308952D01*
X129230285Y-122880380D02*
X129230285Y-121880380D01*
X128992190Y-121880380D01*
X128849333Y-121928000D01*
X128754095Y-122023238D01*
X128706476Y-122118476D01*
X128658857Y-122308952D01*
X128658857Y-122451809D01*
X128706476Y-122642285D01*
X128754095Y-122737523D01*
X128849333Y-122832761D01*
X128992190Y-122880380D01*
X129230285Y-122880380D01*
X128325523Y-121880380D02*
X127706476Y-121880380D01*
X128039809Y-122261333D01*
X127896952Y-122261333D01*
X127801714Y-122308952D01*
X127754095Y-122356571D01*
X127706476Y-122451809D01*
X127706476Y-122689904D01*
X127754095Y-122785142D01*
X127801714Y-122832761D01*
X127896952Y-122880380D01*
X128182666Y-122880380D01*
X128277904Y-122832761D01*
X128325523Y-122785142D01*
X127135047Y-122308952D02*
X127230285Y-122261333D01*
X127277904Y-122213714D01*
X127325523Y-122118476D01*
X127325523Y-122070857D01*
X127277904Y-121975619D01*
X127230285Y-121928000D01*
X127135047Y-121880380D01*
X126944571Y-121880380D01*
X126849333Y-121928000D01*
X126801714Y-121975619D01*
X126754095Y-122070857D01*
X126754095Y-122118476D01*
X126801714Y-122213714D01*
X126849333Y-122261333D01*
X126944571Y-122308952D01*
X127135047Y-122308952D01*
X127230285Y-122356571D01*
X127277904Y-122404190D01*
X127325523Y-122499428D01*
X127325523Y-122689904D01*
X127277904Y-122785142D01*
X127230285Y-122832761D01*
X127135047Y-122880380D01*
X126944571Y-122880380D01*
X126849333Y-122832761D01*
X126801714Y-122785142D01*
X126754095Y-122689904D01*
X126754095Y-122499428D01*
X126801714Y-122404190D01*
X126849333Y-122356571D01*
X126944571Y-122308952D01*
X103068285Y-122880380D02*
X103068285Y-121880380D01*
X102830190Y-121880380D01*
X102687333Y-121928000D01*
X102592095Y-122023238D01*
X102544476Y-122118476D01*
X102496857Y-122308952D01*
X102496857Y-122451809D01*
X102544476Y-122642285D01*
X102592095Y-122737523D01*
X102687333Y-122832761D01*
X102830190Y-122880380D01*
X103068285Y-122880380D01*
X102163523Y-121880380D02*
X101544476Y-121880380D01*
X101877809Y-122261333D01*
X101734952Y-122261333D01*
X101639714Y-122308952D01*
X101592095Y-122356571D01*
X101544476Y-122451809D01*
X101544476Y-122689904D01*
X101592095Y-122785142D01*
X101639714Y-122832761D01*
X101734952Y-122880380D01*
X102020666Y-122880380D01*
X102115904Y-122832761D01*
X102163523Y-122785142D01*
X101211142Y-121880380D02*
X100544476Y-121880380D01*
X100973047Y-122880380D01*
X71953285Y-127579380D02*
X71953285Y-126579380D01*
X71715190Y-126579380D01*
X71572333Y-126627000D01*
X71477095Y-126722238D01*
X71429476Y-126817476D01*
X71381857Y-127007952D01*
X71381857Y-127150809D01*
X71429476Y-127341285D01*
X71477095Y-127436523D01*
X71572333Y-127531761D01*
X71715190Y-127579380D01*
X71953285Y-127579380D01*
X71048523Y-126579380D02*
X70429476Y-126579380D01*
X70762809Y-126960333D01*
X70619952Y-126960333D01*
X70524714Y-127007952D01*
X70477095Y-127055571D01*
X70429476Y-127150809D01*
X70429476Y-127388904D01*
X70477095Y-127484142D01*
X70524714Y-127531761D01*
X70619952Y-127579380D01*
X70905666Y-127579380D01*
X71000904Y-127531761D01*
X71048523Y-127484142D01*
X69572333Y-126579380D02*
X69762809Y-126579380D01*
X69858047Y-126627000D01*
X69905666Y-126674619D01*
X70000904Y-126817476D01*
X70048523Y-127007952D01*
X70048523Y-127388904D01*
X70000904Y-127484142D01*
X69953285Y-127531761D01*
X69858047Y-127579380D01*
X69667571Y-127579380D01*
X69572333Y-127531761D01*
X69524714Y-127484142D01*
X69477095Y-127388904D01*
X69477095Y-127150809D01*
X69524714Y-127055571D01*
X69572333Y-127007952D01*
X69667571Y-126960333D01*
X69858047Y-126960333D01*
X69953285Y-127007952D01*
X70000904Y-127055571D01*
X70048523Y-127150809D01*
X48204285Y-122880380D02*
X48204285Y-121880380D01*
X47966190Y-121880380D01*
X47823333Y-121928000D01*
X47728095Y-122023238D01*
X47680476Y-122118476D01*
X47632857Y-122308952D01*
X47632857Y-122451809D01*
X47680476Y-122642285D01*
X47728095Y-122737523D01*
X47823333Y-122832761D01*
X47966190Y-122880380D01*
X48204285Y-122880380D01*
X47299523Y-121880380D02*
X46680476Y-121880380D01*
X47013809Y-122261333D01*
X46870952Y-122261333D01*
X46775714Y-122308952D01*
X46728095Y-122356571D01*
X46680476Y-122451809D01*
X46680476Y-122689904D01*
X46728095Y-122785142D01*
X46775714Y-122832761D01*
X46870952Y-122880380D01*
X47156666Y-122880380D01*
X47251904Y-122832761D01*
X47299523Y-122785142D01*
X45775714Y-121880380D02*
X46251904Y-121880380D01*
X46299523Y-122356571D01*
X46251904Y-122308952D01*
X46156666Y-122261333D01*
X45918571Y-122261333D01*
X45823333Y-122308952D01*
X45775714Y-122356571D01*
X45728095Y-122451809D01*
X45728095Y-122689904D01*
X45775714Y-122785142D01*
X45823333Y-122832761D01*
X45918571Y-122880380D01*
X46156666Y-122880380D01*
X46251904Y-122832761D01*
X46299523Y-122785142D01*
X29281285Y-122880380D02*
X29281285Y-121880380D01*
X29043190Y-121880380D01*
X28900333Y-121928000D01*
X28805095Y-122023238D01*
X28757476Y-122118476D01*
X28709857Y-122308952D01*
X28709857Y-122451809D01*
X28757476Y-122642285D01*
X28805095Y-122737523D01*
X28900333Y-122832761D01*
X29043190Y-122880380D01*
X29281285Y-122880380D01*
X28376523Y-121880380D02*
X27757476Y-121880380D01*
X28090809Y-122261333D01*
X27947952Y-122261333D01*
X27852714Y-122308952D01*
X27805095Y-122356571D01*
X27757476Y-122451809D01*
X27757476Y-122689904D01*
X27805095Y-122785142D01*
X27852714Y-122832761D01*
X27947952Y-122880380D01*
X28233666Y-122880380D01*
X28328904Y-122832761D01*
X28376523Y-122785142D01*
X26900333Y-122213714D02*
X26900333Y-122880380D01*
X27138428Y-121832761D02*
X27376523Y-122547047D01*
X26757476Y-122547047D01*
X10231285Y-122753380D02*
X10231285Y-121753380D01*
X9993190Y-121753380D01*
X9850333Y-121801000D01*
X9755095Y-121896238D01*
X9707476Y-121991476D01*
X9659857Y-122181952D01*
X9659857Y-122324809D01*
X9707476Y-122515285D01*
X9755095Y-122610523D01*
X9850333Y-122705761D01*
X9993190Y-122753380D01*
X10231285Y-122753380D01*
X9326523Y-121753380D02*
X8707476Y-121753380D01*
X9040809Y-122134333D01*
X8897952Y-122134333D01*
X8802714Y-122181952D01*
X8755095Y-122229571D01*
X8707476Y-122324809D01*
X8707476Y-122562904D01*
X8755095Y-122658142D01*
X8802714Y-122705761D01*
X8897952Y-122753380D01*
X9183666Y-122753380D01*
X9278904Y-122705761D01*
X9326523Y-122658142D01*
X8374142Y-121753380D02*
X7755095Y-121753380D01*
X8088428Y-122134333D01*
X7945571Y-122134333D01*
X7850333Y-122181952D01*
X7802714Y-122229571D01*
X7755095Y-122324809D01*
X7755095Y-122562904D01*
X7802714Y-122658142D01*
X7850333Y-122705761D01*
X7945571Y-122753380D01*
X8231285Y-122753380D01*
X8326523Y-122705761D01*
X8374142Y-122658142D01*
X317444285Y-103830380D02*
X317444285Y-102830380D01*
X317206190Y-102830380D01*
X317063333Y-102878000D01*
X316968095Y-102973238D01*
X316920476Y-103068476D01*
X316872857Y-103258952D01*
X316872857Y-103401809D01*
X316920476Y-103592285D01*
X316968095Y-103687523D01*
X317063333Y-103782761D01*
X317206190Y-103830380D01*
X317444285Y-103830380D01*
X316539523Y-102830380D02*
X315920476Y-102830380D01*
X316253809Y-103211333D01*
X316110952Y-103211333D01*
X316015714Y-103258952D01*
X315968095Y-103306571D01*
X315920476Y-103401809D01*
X315920476Y-103639904D01*
X315968095Y-103735142D01*
X316015714Y-103782761D01*
X316110952Y-103830380D01*
X316396666Y-103830380D01*
X316491904Y-103782761D01*
X316539523Y-103735142D01*
X315539523Y-102925619D02*
X315491904Y-102878000D01*
X315396666Y-102830380D01*
X315158571Y-102830380D01*
X315063333Y-102878000D01*
X315015714Y-102925619D01*
X314968095Y-103020857D01*
X314968095Y-103116095D01*
X315015714Y-103258952D01*
X315587142Y-103830380D01*
X314968095Y-103830380D01*
X291282285Y-103830380D02*
X291282285Y-102830380D01*
X291044190Y-102830380D01*
X290901333Y-102878000D01*
X290806095Y-102973238D01*
X290758476Y-103068476D01*
X290710857Y-103258952D01*
X290710857Y-103401809D01*
X290758476Y-103592285D01*
X290806095Y-103687523D01*
X290901333Y-103782761D01*
X291044190Y-103830380D01*
X291282285Y-103830380D01*
X290377523Y-102830380D02*
X289758476Y-102830380D01*
X290091809Y-103211333D01*
X289948952Y-103211333D01*
X289853714Y-103258952D01*
X289806095Y-103306571D01*
X289758476Y-103401809D01*
X289758476Y-103639904D01*
X289806095Y-103735142D01*
X289853714Y-103782761D01*
X289948952Y-103830380D01*
X290234666Y-103830380D01*
X290329904Y-103782761D01*
X290377523Y-103735142D01*
X288806095Y-103830380D02*
X289377523Y-103830380D01*
X289091809Y-103830380D02*
X289091809Y-102830380D01*
X289187047Y-102973238D01*
X289282285Y-103068476D01*
X289377523Y-103116095D01*
X272105285Y-103830380D02*
X272105285Y-102830380D01*
X271867190Y-102830380D01*
X271724333Y-102878000D01*
X271629095Y-102973238D01*
X271581476Y-103068476D01*
X271533857Y-103258952D01*
X271533857Y-103401809D01*
X271581476Y-103592285D01*
X271629095Y-103687523D01*
X271724333Y-103782761D01*
X271867190Y-103830380D01*
X272105285Y-103830380D01*
X271200523Y-102830380D02*
X270581476Y-102830380D01*
X270914809Y-103211333D01*
X270771952Y-103211333D01*
X270676714Y-103258952D01*
X270629095Y-103306571D01*
X270581476Y-103401809D01*
X270581476Y-103639904D01*
X270629095Y-103735142D01*
X270676714Y-103782761D01*
X270771952Y-103830380D01*
X271057666Y-103830380D01*
X271152904Y-103782761D01*
X271200523Y-103735142D01*
X269962428Y-102830380D02*
X269867190Y-102830380D01*
X269771952Y-102878000D01*
X269724333Y-102925619D01*
X269676714Y-103020857D01*
X269629095Y-103211333D01*
X269629095Y-103449428D01*
X269676714Y-103639904D01*
X269724333Y-103735142D01*
X269771952Y-103782761D01*
X269867190Y-103830380D01*
X269962428Y-103830380D01*
X270057666Y-103782761D01*
X270105285Y-103735142D01*
X270152904Y-103639904D01*
X270200523Y-103449428D01*
X270200523Y-103211333D01*
X270152904Y-103020857D01*
X270105285Y-102925619D01*
X270057666Y-102878000D01*
X269962428Y-102830380D01*
X253182285Y-103830380D02*
X253182285Y-102830380D01*
X252944190Y-102830380D01*
X252801333Y-102878000D01*
X252706095Y-102973238D01*
X252658476Y-103068476D01*
X252610857Y-103258952D01*
X252610857Y-103401809D01*
X252658476Y-103592285D01*
X252706095Y-103687523D01*
X252801333Y-103782761D01*
X252944190Y-103830380D01*
X253182285Y-103830380D01*
X252229904Y-102925619D02*
X252182285Y-102878000D01*
X252087047Y-102830380D01*
X251848952Y-102830380D01*
X251753714Y-102878000D01*
X251706095Y-102925619D01*
X251658476Y-103020857D01*
X251658476Y-103116095D01*
X251706095Y-103258952D01*
X252277523Y-103830380D01*
X251658476Y-103830380D01*
X251182285Y-103830380D02*
X250991809Y-103830380D01*
X250896571Y-103782761D01*
X250848952Y-103735142D01*
X250753714Y-103592285D01*
X250706095Y-103401809D01*
X250706095Y-103020857D01*
X250753714Y-102925619D01*
X250801333Y-102878000D01*
X250896571Y-102830380D01*
X251087047Y-102830380D01*
X251182285Y-102878000D01*
X251229904Y-102925619D01*
X251277523Y-103020857D01*
X251277523Y-103258952D01*
X251229904Y-103354190D01*
X251182285Y-103401809D01*
X251087047Y-103449428D01*
X250896571Y-103449428D01*
X250801333Y-103401809D01*
X250753714Y-103354190D01*
X250706095Y-103258952D01*
X234132285Y-103830380D02*
X234132285Y-102830380D01*
X233894190Y-102830380D01*
X233751333Y-102878000D01*
X233656095Y-102973238D01*
X233608476Y-103068476D01*
X233560857Y-103258952D01*
X233560857Y-103401809D01*
X233608476Y-103592285D01*
X233656095Y-103687523D01*
X233751333Y-103782761D01*
X233894190Y-103830380D01*
X234132285Y-103830380D01*
X233179904Y-102925619D02*
X233132285Y-102878000D01*
X233037047Y-102830380D01*
X232798952Y-102830380D01*
X232703714Y-102878000D01*
X232656095Y-102925619D01*
X232608476Y-103020857D01*
X232608476Y-103116095D01*
X232656095Y-103258952D01*
X233227523Y-103830380D01*
X232608476Y-103830380D01*
X232037047Y-103258952D02*
X232132285Y-103211333D01*
X232179904Y-103163714D01*
X232227523Y-103068476D01*
X232227523Y-103020857D01*
X232179904Y-102925619D01*
X232132285Y-102878000D01*
X232037047Y-102830380D01*
X231846571Y-102830380D01*
X231751333Y-102878000D01*
X231703714Y-102925619D01*
X231656095Y-103020857D01*
X231656095Y-103068476D01*
X231703714Y-103163714D01*
X231751333Y-103211333D01*
X231846571Y-103258952D01*
X232037047Y-103258952D01*
X232132285Y-103306571D01*
X232179904Y-103354190D01*
X232227523Y-103449428D01*
X232227523Y-103639904D01*
X232179904Y-103735142D01*
X232132285Y-103782761D01*
X232037047Y-103830380D01*
X231846571Y-103830380D01*
X231751333Y-103782761D01*
X231703714Y-103735142D01*
X231656095Y-103639904D01*
X231656095Y-103449428D01*
X231703714Y-103354190D01*
X231751333Y-103306571D01*
X231846571Y-103258952D01*
X214955285Y-103830380D02*
X214955285Y-102830380D01*
X214717190Y-102830380D01*
X214574333Y-102878000D01*
X214479095Y-102973238D01*
X214431476Y-103068476D01*
X214383857Y-103258952D01*
X214383857Y-103401809D01*
X214431476Y-103592285D01*
X214479095Y-103687523D01*
X214574333Y-103782761D01*
X214717190Y-103830380D01*
X214955285Y-103830380D01*
X214002904Y-102925619D02*
X213955285Y-102878000D01*
X213860047Y-102830380D01*
X213621952Y-102830380D01*
X213526714Y-102878000D01*
X213479095Y-102925619D01*
X213431476Y-103020857D01*
X213431476Y-103116095D01*
X213479095Y-103258952D01*
X214050523Y-103830380D01*
X213431476Y-103830380D01*
X213098142Y-102830380D02*
X212431476Y-102830380D01*
X212860047Y-103830380D01*
X195905285Y-103830380D02*
X195905285Y-102830380D01*
X195667190Y-102830380D01*
X195524333Y-102878000D01*
X195429095Y-102973238D01*
X195381476Y-103068476D01*
X195333857Y-103258952D01*
X195333857Y-103401809D01*
X195381476Y-103592285D01*
X195429095Y-103687523D01*
X195524333Y-103782761D01*
X195667190Y-103830380D01*
X195905285Y-103830380D01*
X194952904Y-102925619D02*
X194905285Y-102878000D01*
X194810047Y-102830380D01*
X194571952Y-102830380D01*
X194476714Y-102878000D01*
X194429095Y-102925619D01*
X194381476Y-103020857D01*
X194381476Y-103116095D01*
X194429095Y-103258952D01*
X195000523Y-103830380D01*
X194381476Y-103830380D01*
X193524333Y-102830380D02*
X193714809Y-102830380D01*
X193810047Y-102878000D01*
X193857666Y-102925619D01*
X193952904Y-103068476D01*
X194000523Y-103258952D01*
X194000523Y-103639904D01*
X193952904Y-103735142D01*
X193905285Y-103782761D01*
X193810047Y-103830380D01*
X193619571Y-103830380D01*
X193524333Y-103782761D01*
X193476714Y-103735142D01*
X193429095Y-103639904D01*
X193429095Y-103401809D01*
X193476714Y-103306571D01*
X193524333Y-103258952D01*
X193619571Y-103211333D01*
X193810047Y-103211333D01*
X193905285Y-103258952D01*
X193952904Y-103306571D01*
X194000523Y-103401809D01*
X176855285Y-103830380D02*
X176855285Y-102830380D01*
X176617190Y-102830380D01*
X176474333Y-102878000D01*
X176379095Y-102973238D01*
X176331476Y-103068476D01*
X176283857Y-103258952D01*
X176283857Y-103401809D01*
X176331476Y-103592285D01*
X176379095Y-103687523D01*
X176474333Y-103782761D01*
X176617190Y-103830380D01*
X176855285Y-103830380D01*
X175902904Y-102925619D02*
X175855285Y-102878000D01*
X175760047Y-102830380D01*
X175521952Y-102830380D01*
X175426714Y-102878000D01*
X175379095Y-102925619D01*
X175331476Y-103020857D01*
X175331476Y-103116095D01*
X175379095Y-103258952D01*
X175950523Y-103830380D01*
X175331476Y-103830380D01*
X174426714Y-102830380D02*
X174902904Y-102830380D01*
X174950523Y-103306571D01*
X174902904Y-103258952D01*
X174807666Y-103211333D01*
X174569571Y-103211333D01*
X174474333Y-103258952D01*
X174426714Y-103306571D01*
X174379095Y-103401809D01*
X174379095Y-103639904D01*
X174426714Y-103735142D01*
X174474333Y-103782761D01*
X174569571Y-103830380D01*
X174807666Y-103830380D01*
X174902904Y-103782761D01*
X174950523Y-103735142D01*
X157932285Y-103830380D02*
X157932285Y-102830380D01*
X157694190Y-102830380D01*
X157551333Y-102878000D01*
X157456095Y-102973238D01*
X157408476Y-103068476D01*
X157360857Y-103258952D01*
X157360857Y-103401809D01*
X157408476Y-103592285D01*
X157456095Y-103687523D01*
X157551333Y-103782761D01*
X157694190Y-103830380D01*
X157932285Y-103830380D01*
X156979904Y-102925619D02*
X156932285Y-102878000D01*
X156837047Y-102830380D01*
X156598952Y-102830380D01*
X156503714Y-102878000D01*
X156456095Y-102925619D01*
X156408476Y-103020857D01*
X156408476Y-103116095D01*
X156456095Y-103258952D01*
X157027523Y-103830380D01*
X156408476Y-103830380D01*
X155551333Y-103163714D02*
X155551333Y-103830380D01*
X155789428Y-102782761D02*
X156027523Y-103497047D01*
X155408476Y-103497047D01*
X138882285Y-103703380D02*
X138882285Y-102703380D01*
X138644190Y-102703380D01*
X138501333Y-102751000D01*
X138406095Y-102846238D01*
X138358476Y-102941476D01*
X138310857Y-103131952D01*
X138310857Y-103274809D01*
X138358476Y-103465285D01*
X138406095Y-103560523D01*
X138501333Y-103655761D01*
X138644190Y-103703380D01*
X138882285Y-103703380D01*
X137929904Y-102798619D02*
X137882285Y-102751000D01*
X137787047Y-102703380D01*
X137548952Y-102703380D01*
X137453714Y-102751000D01*
X137406095Y-102798619D01*
X137358476Y-102893857D01*
X137358476Y-102989095D01*
X137406095Y-103131952D01*
X137977523Y-103703380D01*
X137358476Y-103703380D01*
X137025142Y-102703380D02*
X136406095Y-102703380D01*
X136739428Y-103084333D01*
X136596571Y-103084333D01*
X136501333Y-103131952D01*
X136453714Y-103179571D01*
X136406095Y-103274809D01*
X136406095Y-103512904D01*
X136453714Y-103608142D01*
X136501333Y-103655761D01*
X136596571Y-103703380D01*
X136882285Y-103703380D01*
X136977523Y-103655761D01*
X137025142Y-103608142D01*
X119832285Y-103830380D02*
X119832285Y-102830380D01*
X119594190Y-102830380D01*
X119451333Y-102878000D01*
X119356095Y-102973238D01*
X119308476Y-103068476D01*
X119260857Y-103258952D01*
X119260857Y-103401809D01*
X119308476Y-103592285D01*
X119356095Y-103687523D01*
X119451333Y-103782761D01*
X119594190Y-103830380D01*
X119832285Y-103830380D01*
X118879904Y-102925619D02*
X118832285Y-102878000D01*
X118737047Y-102830380D01*
X118498952Y-102830380D01*
X118403714Y-102878000D01*
X118356095Y-102925619D01*
X118308476Y-103020857D01*
X118308476Y-103116095D01*
X118356095Y-103258952D01*
X118927523Y-103830380D01*
X118308476Y-103830380D01*
X117927523Y-102925619D02*
X117879904Y-102878000D01*
X117784666Y-102830380D01*
X117546571Y-102830380D01*
X117451333Y-102878000D01*
X117403714Y-102925619D01*
X117356095Y-103020857D01*
X117356095Y-103116095D01*
X117403714Y-103258952D01*
X117975142Y-103830380D01*
X117356095Y-103830380D01*
X98242285Y-103703380D02*
X98242285Y-102703380D01*
X98004190Y-102703380D01*
X97861333Y-102751000D01*
X97766095Y-102846238D01*
X97718476Y-102941476D01*
X97670857Y-103131952D01*
X97670857Y-103274809D01*
X97718476Y-103465285D01*
X97766095Y-103560523D01*
X97861333Y-103655761D01*
X98004190Y-103703380D01*
X98242285Y-103703380D01*
X97289904Y-102798619D02*
X97242285Y-102751000D01*
X97147047Y-102703380D01*
X96908952Y-102703380D01*
X96813714Y-102751000D01*
X96766095Y-102798619D01*
X96718476Y-102893857D01*
X96718476Y-102989095D01*
X96766095Y-103131952D01*
X97337523Y-103703380D01*
X96718476Y-103703380D01*
X95766095Y-103703380D02*
X96337523Y-103703380D01*
X96051809Y-103703380D02*
X96051809Y-102703380D01*
X96147047Y-102846238D01*
X96242285Y-102941476D01*
X96337523Y-102989095D01*
X45791285Y-103830380D02*
X45791285Y-102830380D01*
X45553190Y-102830380D01*
X45410333Y-102878000D01*
X45315095Y-102973238D01*
X45267476Y-103068476D01*
X45219857Y-103258952D01*
X45219857Y-103401809D01*
X45267476Y-103592285D01*
X45315095Y-103687523D01*
X45410333Y-103782761D01*
X45553190Y-103830380D01*
X45791285Y-103830380D01*
X44838904Y-102925619D02*
X44791285Y-102878000D01*
X44696047Y-102830380D01*
X44457952Y-102830380D01*
X44362714Y-102878000D01*
X44315095Y-102925619D01*
X44267476Y-103020857D01*
X44267476Y-103116095D01*
X44315095Y-103258952D01*
X44886523Y-103830380D01*
X44267476Y-103830380D01*
X43648428Y-102830380D02*
X43553190Y-102830380D01*
X43457952Y-102878000D01*
X43410333Y-102925619D01*
X43362714Y-103020857D01*
X43315095Y-103211333D01*
X43315095Y-103449428D01*
X43362714Y-103639904D01*
X43410333Y-103735142D01*
X43457952Y-103782761D01*
X43553190Y-103830380D01*
X43648428Y-103830380D01*
X43743666Y-103782761D01*
X43791285Y-103735142D01*
X43838904Y-103639904D01*
X43886523Y-103449428D01*
X43886523Y-103211333D01*
X43838904Y-103020857D01*
X43791285Y-102925619D01*
X43743666Y-102878000D01*
X43648428Y-102830380D01*
X28900285Y-103830380D02*
X28900285Y-102830380D01*
X28662190Y-102830380D01*
X28519333Y-102878000D01*
X28424095Y-102973238D01*
X28376476Y-103068476D01*
X28328857Y-103258952D01*
X28328857Y-103401809D01*
X28376476Y-103592285D01*
X28424095Y-103687523D01*
X28519333Y-103782761D01*
X28662190Y-103830380D01*
X28900285Y-103830380D01*
X27376476Y-103830380D02*
X27947904Y-103830380D01*
X27662190Y-103830380D02*
X27662190Y-102830380D01*
X27757428Y-102973238D01*
X27852666Y-103068476D01*
X27947904Y-103116095D01*
X26900285Y-103830380D02*
X26709809Y-103830380D01*
X26614571Y-103782761D01*
X26566952Y-103735142D01*
X26471714Y-103592285D01*
X26424095Y-103401809D01*
X26424095Y-103020857D01*
X26471714Y-102925619D01*
X26519333Y-102878000D01*
X26614571Y-102830380D01*
X26805047Y-102830380D01*
X26900285Y-102878000D01*
X26947904Y-102925619D01*
X26995523Y-103020857D01*
X26995523Y-103258952D01*
X26947904Y-103354190D01*
X26900285Y-103401809D01*
X26805047Y-103449428D01*
X26614571Y-103449428D01*
X26519333Y-103401809D01*
X26471714Y-103354190D01*
X26424095Y-103258952D01*
X10104285Y-103703380D02*
X10104285Y-102703380D01*
X9866190Y-102703380D01*
X9723333Y-102751000D01*
X9628095Y-102846238D01*
X9580476Y-102941476D01*
X9532857Y-103131952D01*
X9532857Y-103274809D01*
X9580476Y-103465285D01*
X9628095Y-103560523D01*
X9723333Y-103655761D01*
X9866190Y-103703380D01*
X10104285Y-103703380D01*
X8580476Y-103703380D02*
X9151904Y-103703380D01*
X8866190Y-103703380D02*
X8866190Y-102703380D01*
X8961428Y-102846238D01*
X9056666Y-102941476D01*
X9151904Y-102989095D01*
X8009047Y-103131952D02*
X8104285Y-103084333D01*
X8151904Y-103036714D01*
X8199523Y-102941476D01*
X8199523Y-102893857D01*
X8151904Y-102798619D01*
X8104285Y-102751000D01*
X8009047Y-102703380D01*
X7818571Y-102703380D01*
X7723333Y-102751000D01*
X7675714Y-102798619D01*
X7628095Y-102893857D01*
X7628095Y-102941476D01*
X7675714Y-103036714D01*
X7723333Y-103084333D01*
X7818571Y-103131952D01*
X8009047Y-103131952D01*
X8104285Y-103179571D01*
X8151904Y-103227190D01*
X8199523Y-103322428D01*
X8199523Y-103512904D01*
X8151904Y-103608142D01*
X8104285Y-103655761D01*
X8009047Y-103703380D01*
X7818571Y-103703380D01*
X7723333Y-103655761D01*
X7675714Y-103608142D01*
X7628095Y-103512904D01*
X7628095Y-103322428D01*
X7675714Y-103227190D01*
X7723333Y-103179571D01*
X7818571Y-103131952D01*
X321508285Y-84907380D02*
X321508285Y-83907380D01*
X321270190Y-83907380D01*
X321127333Y-83955000D01*
X321032095Y-84050238D01*
X320984476Y-84145476D01*
X320936857Y-84335952D01*
X320936857Y-84478809D01*
X320984476Y-84669285D01*
X321032095Y-84764523D01*
X321127333Y-84859761D01*
X321270190Y-84907380D01*
X321508285Y-84907380D01*
X319984476Y-84907380D02*
X320555904Y-84907380D01*
X320270190Y-84907380D02*
X320270190Y-83907380D01*
X320365428Y-84050238D01*
X320460666Y-84145476D01*
X320555904Y-84193095D01*
X319651142Y-83907380D02*
X318984476Y-83907380D01*
X319413047Y-84907380D01*
X305633285Y-84780380D02*
X305633285Y-83780380D01*
X305395190Y-83780380D01*
X305252333Y-83828000D01*
X305157095Y-83923238D01*
X305109476Y-84018476D01*
X305061857Y-84208952D01*
X305061857Y-84351809D01*
X305109476Y-84542285D01*
X305157095Y-84637523D01*
X305252333Y-84732761D01*
X305395190Y-84780380D01*
X305633285Y-84780380D01*
X304109476Y-84780380D02*
X304680904Y-84780380D01*
X304395190Y-84780380D02*
X304395190Y-83780380D01*
X304490428Y-83923238D01*
X304585666Y-84018476D01*
X304680904Y-84066095D01*
X303252333Y-83780380D02*
X303442809Y-83780380D01*
X303538047Y-83828000D01*
X303585666Y-83875619D01*
X303680904Y-84018476D01*
X303728523Y-84208952D01*
X303728523Y-84589904D01*
X303680904Y-84685142D01*
X303633285Y-84732761D01*
X303538047Y-84780380D01*
X303347571Y-84780380D01*
X303252333Y-84732761D01*
X303204714Y-84685142D01*
X303157095Y-84589904D01*
X303157095Y-84351809D01*
X303204714Y-84256571D01*
X303252333Y-84208952D01*
X303347571Y-84161333D01*
X303538047Y-84161333D01*
X303633285Y-84208952D01*
X303680904Y-84256571D01*
X303728523Y-84351809D01*
X286583285Y-84780380D02*
X286583285Y-83780380D01*
X286345190Y-83780380D01*
X286202333Y-83828000D01*
X286107095Y-83923238D01*
X286059476Y-84018476D01*
X286011857Y-84208952D01*
X286011857Y-84351809D01*
X286059476Y-84542285D01*
X286107095Y-84637523D01*
X286202333Y-84732761D01*
X286345190Y-84780380D01*
X286583285Y-84780380D01*
X285059476Y-84780380D02*
X285630904Y-84780380D01*
X285345190Y-84780380D02*
X285345190Y-83780380D01*
X285440428Y-83923238D01*
X285535666Y-84018476D01*
X285630904Y-84066095D01*
X284154714Y-83780380D02*
X284630904Y-83780380D01*
X284678523Y-84256571D01*
X284630904Y-84208952D01*
X284535666Y-84161333D01*
X284297571Y-84161333D01*
X284202333Y-84208952D01*
X284154714Y-84256571D01*
X284107095Y-84351809D01*
X284107095Y-84589904D01*
X284154714Y-84685142D01*
X284202333Y-84732761D01*
X284297571Y-84780380D01*
X284535666Y-84780380D01*
X284630904Y-84732761D01*
X284678523Y-84685142D01*
X267406285Y-84780380D02*
X267406285Y-83780380D01*
X267168190Y-83780380D01*
X267025333Y-83828000D01*
X266930095Y-83923238D01*
X266882476Y-84018476D01*
X266834857Y-84208952D01*
X266834857Y-84351809D01*
X266882476Y-84542285D01*
X266930095Y-84637523D01*
X267025333Y-84732761D01*
X267168190Y-84780380D01*
X267406285Y-84780380D01*
X265882476Y-84780380D02*
X266453904Y-84780380D01*
X266168190Y-84780380D02*
X266168190Y-83780380D01*
X266263428Y-83923238D01*
X266358666Y-84018476D01*
X266453904Y-84066095D01*
X265025333Y-84113714D02*
X265025333Y-84780380D01*
X265263428Y-83732761D02*
X265501523Y-84447047D01*
X264882476Y-84447047D01*
X248483285Y-84780380D02*
X248483285Y-83780380D01*
X248245190Y-83780380D01*
X248102333Y-83828000D01*
X248007095Y-83923238D01*
X247959476Y-84018476D01*
X247911857Y-84208952D01*
X247911857Y-84351809D01*
X247959476Y-84542285D01*
X248007095Y-84637523D01*
X248102333Y-84732761D01*
X248245190Y-84780380D01*
X248483285Y-84780380D01*
X246959476Y-84780380D02*
X247530904Y-84780380D01*
X247245190Y-84780380D02*
X247245190Y-83780380D01*
X247340428Y-83923238D01*
X247435666Y-84018476D01*
X247530904Y-84066095D01*
X246626142Y-83780380D02*
X246007095Y-83780380D01*
X246340428Y-84161333D01*
X246197571Y-84161333D01*
X246102333Y-84208952D01*
X246054714Y-84256571D01*
X246007095Y-84351809D01*
X246007095Y-84589904D01*
X246054714Y-84685142D01*
X246102333Y-84732761D01*
X246197571Y-84780380D01*
X246483285Y-84780380D01*
X246578523Y-84732761D01*
X246626142Y-84685142D01*
X229433285Y-84780380D02*
X229433285Y-83780380D01*
X229195190Y-83780380D01*
X229052333Y-83828000D01*
X228957095Y-83923238D01*
X228909476Y-84018476D01*
X228861857Y-84208952D01*
X228861857Y-84351809D01*
X228909476Y-84542285D01*
X228957095Y-84637523D01*
X229052333Y-84732761D01*
X229195190Y-84780380D01*
X229433285Y-84780380D01*
X227909476Y-84780380D02*
X228480904Y-84780380D01*
X228195190Y-84780380D02*
X228195190Y-83780380D01*
X228290428Y-83923238D01*
X228385666Y-84018476D01*
X228480904Y-84066095D01*
X227528523Y-83875619D02*
X227480904Y-83828000D01*
X227385666Y-83780380D01*
X227147571Y-83780380D01*
X227052333Y-83828000D01*
X227004714Y-83875619D01*
X226957095Y-83970857D01*
X226957095Y-84066095D01*
X227004714Y-84208952D01*
X227576142Y-84780380D01*
X226957095Y-84780380D01*
X210256285Y-84780380D02*
X210256285Y-83780380D01*
X210018190Y-83780380D01*
X209875333Y-83828000D01*
X209780095Y-83923238D01*
X209732476Y-84018476D01*
X209684857Y-84208952D01*
X209684857Y-84351809D01*
X209732476Y-84542285D01*
X209780095Y-84637523D01*
X209875333Y-84732761D01*
X210018190Y-84780380D01*
X210256285Y-84780380D01*
X208732476Y-84780380D02*
X209303904Y-84780380D01*
X209018190Y-84780380D02*
X209018190Y-83780380D01*
X209113428Y-83923238D01*
X209208666Y-84018476D01*
X209303904Y-84066095D01*
X207780095Y-84780380D02*
X208351523Y-84780380D01*
X208065809Y-84780380D02*
X208065809Y-83780380D01*
X208161047Y-83923238D01*
X208256285Y-84018476D01*
X208351523Y-84066095D01*
X191206285Y-84653380D02*
X191206285Y-83653380D01*
X190968190Y-83653380D01*
X190825333Y-83701000D01*
X190730095Y-83796238D01*
X190682476Y-83891476D01*
X190634857Y-84081952D01*
X190634857Y-84224809D01*
X190682476Y-84415285D01*
X190730095Y-84510523D01*
X190825333Y-84605761D01*
X190968190Y-84653380D01*
X191206285Y-84653380D01*
X189682476Y-84653380D02*
X190253904Y-84653380D01*
X189968190Y-84653380D02*
X189968190Y-83653380D01*
X190063428Y-83796238D01*
X190158666Y-83891476D01*
X190253904Y-83939095D01*
X189063428Y-83653380D02*
X188968190Y-83653380D01*
X188872952Y-83701000D01*
X188825333Y-83748619D01*
X188777714Y-83843857D01*
X188730095Y-84034333D01*
X188730095Y-84272428D01*
X188777714Y-84462904D01*
X188825333Y-84558142D01*
X188872952Y-84605761D01*
X188968190Y-84653380D01*
X189063428Y-84653380D01*
X189158666Y-84605761D01*
X189206285Y-84558142D01*
X189253904Y-84462904D01*
X189301523Y-84272428D01*
X189301523Y-84034333D01*
X189253904Y-83843857D01*
X189206285Y-83748619D01*
X189158666Y-83701000D01*
X189063428Y-83653380D01*
X171807095Y-84780380D02*
X171807095Y-83780380D01*
X171569000Y-83780380D01*
X171426142Y-83828000D01*
X171330904Y-83923238D01*
X171283285Y-84018476D01*
X171235666Y-84208952D01*
X171235666Y-84351809D01*
X171283285Y-84542285D01*
X171330904Y-84637523D01*
X171426142Y-84732761D01*
X171569000Y-84780380D01*
X171807095Y-84780380D01*
X170759476Y-84780380D02*
X170569000Y-84780380D01*
X170473761Y-84732761D01*
X170426142Y-84685142D01*
X170330904Y-84542285D01*
X170283285Y-84351809D01*
X170283285Y-83970857D01*
X170330904Y-83875619D01*
X170378523Y-83828000D01*
X170473761Y-83780380D01*
X170664238Y-83780380D01*
X170759476Y-83828000D01*
X170807095Y-83875619D01*
X170854714Y-83970857D01*
X170854714Y-84208952D01*
X170807095Y-84304190D01*
X170759476Y-84351809D01*
X170664238Y-84399428D01*
X170473761Y-84399428D01*
X170378523Y-84351809D01*
X170330904Y-84304190D01*
X170283285Y-84208952D01*
X152757095Y-84780380D02*
X152757095Y-83780380D01*
X152519000Y-83780380D01*
X152376142Y-83828000D01*
X152280904Y-83923238D01*
X152233285Y-84018476D01*
X152185666Y-84208952D01*
X152185666Y-84351809D01*
X152233285Y-84542285D01*
X152280904Y-84637523D01*
X152376142Y-84732761D01*
X152519000Y-84780380D01*
X152757095Y-84780380D01*
X151614238Y-84208952D02*
X151709476Y-84161333D01*
X151757095Y-84113714D01*
X151804714Y-84018476D01*
X151804714Y-83970857D01*
X151757095Y-83875619D01*
X151709476Y-83828000D01*
X151614238Y-83780380D01*
X151423761Y-83780380D01*
X151328523Y-83828000D01*
X151280904Y-83875619D01*
X151233285Y-83970857D01*
X151233285Y-84018476D01*
X151280904Y-84113714D01*
X151328523Y-84161333D01*
X151423761Y-84208952D01*
X151614238Y-84208952D01*
X151709476Y-84256571D01*
X151757095Y-84304190D01*
X151804714Y-84399428D01*
X151804714Y-84589904D01*
X151757095Y-84685142D01*
X151709476Y-84732761D01*
X151614238Y-84780380D01*
X151423761Y-84780380D01*
X151328523Y-84732761D01*
X151280904Y-84685142D01*
X151233285Y-84589904D01*
X151233285Y-84399428D01*
X151280904Y-84304190D01*
X151328523Y-84256571D01*
X151423761Y-84208952D01*
X133707095Y-84780380D02*
X133707095Y-83780380D01*
X133469000Y-83780380D01*
X133326142Y-83828000D01*
X133230904Y-83923238D01*
X133183285Y-84018476D01*
X133135666Y-84208952D01*
X133135666Y-84351809D01*
X133183285Y-84542285D01*
X133230904Y-84637523D01*
X133326142Y-84732761D01*
X133469000Y-84780380D01*
X133707095Y-84780380D01*
X132802333Y-83780380D02*
X132135666Y-83780380D01*
X132564238Y-84780380D01*
X114530095Y-84780380D02*
X114530095Y-83780380D01*
X114292000Y-83780380D01*
X114149142Y-83828000D01*
X114053904Y-83923238D01*
X114006285Y-84018476D01*
X113958666Y-84208952D01*
X113958666Y-84351809D01*
X114006285Y-84542285D01*
X114053904Y-84637523D01*
X114149142Y-84732761D01*
X114292000Y-84780380D01*
X114530095Y-84780380D01*
X113101523Y-83780380D02*
X113292000Y-83780380D01*
X113387238Y-83828000D01*
X113434857Y-83875619D01*
X113530095Y-84018476D01*
X113577714Y-84208952D01*
X113577714Y-84589904D01*
X113530095Y-84685142D01*
X113482476Y-84732761D01*
X113387238Y-84780380D01*
X113196761Y-84780380D01*
X113101523Y-84732761D01*
X113053904Y-84685142D01*
X113006285Y-84589904D01*
X113006285Y-84351809D01*
X113053904Y-84256571D01*
X113101523Y-84208952D01*
X113196761Y-84161333D01*
X113387238Y-84161333D01*
X113482476Y-84208952D01*
X113530095Y-84256571D01*
X113577714Y-84351809D01*
X95607095Y-84780380D02*
X95607095Y-83780380D01*
X95369000Y-83780380D01*
X95226142Y-83828000D01*
X95130904Y-83923238D01*
X95083285Y-84018476D01*
X95035666Y-84208952D01*
X95035666Y-84351809D01*
X95083285Y-84542285D01*
X95130904Y-84637523D01*
X95226142Y-84732761D01*
X95369000Y-84780380D01*
X95607095Y-84780380D01*
X94130904Y-83780380D02*
X94607095Y-83780380D01*
X94654714Y-84256571D01*
X94607095Y-84208952D01*
X94511857Y-84161333D01*
X94273761Y-84161333D01*
X94178523Y-84208952D01*
X94130904Y-84256571D01*
X94083285Y-84351809D01*
X94083285Y-84589904D01*
X94130904Y-84685142D01*
X94178523Y-84732761D01*
X94273761Y-84780380D01*
X94511857Y-84780380D01*
X94607095Y-84732761D01*
X94654714Y-84685142D01*
X71350095Y-84907380D02*
X71350095Y-83907380D01*
X71112000Y-83907380D01*
X70969142Y-83955000D01*
X70873904Y-84050238D01*
X70826285Y-84145476D01*
X70778666Y-84335952D01*
X70778666Y-84478809D01*
X70826285Y-84669285D01*
X70873904Y-84764523D01*
X70969142Y-84859761D01*
X71112000Y-84907380D01*
X71350095Y-84907380D01*
X69921523Y-84240714D02*
X69921523Y-84907380D01*
X70159619Y-83859761D02*
X70397714Y-84574047D01*
X69778666Y-84574047D01*
X31218095Y-84780380D02*
X31218095Y-83780380D01*
X30980000Y-83780380D01*
X30837142Y-83828000D01*
X30741904Y-83923238D01*
X30694285Y-84018476D01*
X30646666Y-84208952D01*
X30646666Y-84351809D01*
X30694285Y-84542285D01*
X30741904Y-84637523D01*
X30837142Y-84732761D01*
X30980000Y-84780380D01*
X31218095Y-84780380D01*
X30313333Y-83780380D02*
X29694285Y-83780380D01*
X30027619Y-84161333D01*
X29884761Y-84161333D01*
X29789523Y-84208952D01*
X29741904Y-84256571D01*
X29694285Y-84351809D01*
X29694285Y-84589904D01*
X29741904Y-84685142D01*
X29789523Y-84732761D01*
X29884761Y-84780380D01*
X30170476Y-84780380D01*
X30265714Y-84732761D01*
X30313333Y-84685142D01*
X28424095Y-84526380D02*
X28424095Y-83526380D01*
X28186000Y-83526380D01*
X28043142Y-83574000D01*
X27947904Y-83669238D01*
X27900285Y-83764476D01*
X27852666Y-83954952D01*
X27852666Y-84097809D01*
X27900285Y-84288285D01*
X27947904Y-84383523D01*
X28043142Y-84478761D01*
X28186000Y-84526380D01*
X28424095Y-84526380D01*
X27471714Y-83621619D02*
X27424095Y-83574000D01*
X27328857Y-83526380D01*
X27090761Y-83526380D01*
X26995523Y-83574000D01*
X26947904Y-83621619D01*
X26900285Y-83716857D01*
X26900285Y-83812095D01*
X26947904Y-83954952D01*
X27519333Y-84526380D01*
X26900285Y-84526380D01*
X9755095Y-84526380D02*
X9755095Y-83526380D01*
X9517000Y-83526380D01*
X9374142Y-83574000D01*
X9278904Y-83669238D01*
X9231285Y-83764476D01*
X9183666Y-83954952D01*
X9183666Y-84097809D01*
X9231285Y-84288285D01*
X9278904Y-84383523D01*
X9374142Y-84478761D01*
X9517000Y-84526380D01*
X9755095Y-84526380D01*
X8231285Y-84526380D02*
X8802714Y-84526380D01*
X8517000Y-84526380D02*
X8517000Y-83526380D01*
X8612238Y-83669238D01*
X8707476Y-83764476D01*
X8802714Y-83812095D01*
X54586142Y-115149333D02*
X54633761Y-115101714D01*
X54681380Y-114958857D01*
X54681380Y-114863619D01*
X54633761Y-114720761D01*
X54538523Y-114625523D01*
X54443285Y-114577904D01*
X54252809Y-114530285D01*
X54109952Y-114530285D01*
X53919476Y-114577904D01*
X53824238Y-114625523D01*
X53729000Y-114720761D01*
X53681380Y-114863619D01*
X53681380Y-114958857D01*
X53729000Y-115101714D01*
X53776619Y-115149333D01*
X53681380Y-115482666D02*
X53681380Y-116149333D01*
X54681380Y-115720761D01*
X50966666Y-99545142D02*
X51014285Y-99592761D01*
X51157142Y-99640380D01*
X51252380Y-99640380D01*
X51395238Y-99592761D01*
X51490476Y-99497523D01*
X51538095Y-99402285D01*
X51585714Y-99211809D01*
X51585714Y-99068952D01*
X51538095Y-98878476D01*
X51490476Y-98783238D01*
X51395238Y-98688000D01*
X51252380Y-98640380D01*
X51157142Y-98640380D01*
X51014285Y-98688000D01*
X50966666Y-98735619D01*
X50109523Y-98640380D02*
X50300000Y-98640380D01*
X50395238Y-98688000D01*
X50442857Y-98735619D01*
X50538095Y-98878476D01*
X50585714Y-99068952D01*
X50585714Y-99449904D01*
X50538095Y-99545142D01*
X50490476Y-99592761D01*
X50395238Y-99640380D01*
X50204761Y-99640380D01*
X50109523Y-99592761D01*
X50061904Y-99545142D01*
X50014285Y-99449904D01*
X50014285Y-99211809D01*
X50061904Y-99116571D01*
X50109523Y-99068952D01*
X50204761Y-99021333D01*
X50395238Y-99021333D01*
X50490476Y-99068952D01*
X50538095Y-99116571D01*
X50585714Y-99211809D01*
X67603666Y-113388142D02*
X67651285Y-113435761D01*
X67794142Y-113483380D01*
X67889380Y-113483380D01*
X68032238Y-113435761D01*
X68127476Y-113340523D01*
X68175095Y-113245285D01*
X68222714Y-113054809D01*
X68222714Y-112911952D01*
X68175095Y-112721476D01*
X68127476Y-112626238D01*
X68032238Y-112531000D01*
X67889380Y-112483380D01*
X67794142Y-112483380D01*
X67651285Y-112531000D01*
X67603666Y-112578619D01*
X66698904Y-112483380D02*
X67175095Y-112483380D01*
X67222714Y-112959571D01*
X67175095Y-112911952D01*
X67079857Y-112864333D01*
X66841761Y-112864333D01*
X66746523Y-112911952D01*
X66698904Y-112959571D01*
X66651285Y-113054809D01*
X66651285Y-113292904D01*
X66698904Y-113388142D01*
X66746523Y-113435761D01*
X66841761Y-113483380D01*
X67079857Y-113483380D01*
X67175095Y-113435761D01*
X67222714Y-113388142D01*
X47664666Y-106529142D02*
X47712285Y-106576761D01*
X47855142Y-106624380D01*
X47950380Y-106624380D01*
X48093238Y-106576761D01*
X48188476Y-106481523D01*
X48236095Y-106386285D01*
X48283714Y-106195809D01*
X48283714Y-106052952D01*
X48236095Y-105862476D01*
X48188476Y-105767238D01*
X48093238Y-105672000D01*
X47950380Y-105624380D01*
X47855142Y-105624380D01*
X47712285Y-105672000D01*
X47664666Y-105719619D01*
X47331333Y-105624380D02*
X46712285Y-105624380D01*
X47045619Y-106005333D01*
X46902761Y-106005333D01*
X46807523Y-106052952D01*
X46759904Y-106100571D01*
X46712285Y-106195809D01*
X46712285Y-106433904D01*
X46759904Y-106529142D01*
X46807523Y-106576761D01*
X46902761Y-106624380D01*
X47188476Y-106624380D01*
X47283714Y-106576761D01*
X47331333Y-106529142D01*
X66079666Y-97639142D02*
X66127285Y-97686761D01*
X66270142Y-97734380D01*
X66365380Y-97734380D01*
X66508238Y-97686761D01*
X66603476Y-97591523D01*
X66651095Y-97496285D01*
X66698714Y-97305809D01*
X66698714Y-97162952D01*
X66651095Y-96972476D01*
X66603476Y-96877238D01*
X66508238Y-96782000D01*
X66365380Y-96734380D01*
X66270142Y-96734380D01*
X66127285Y-96782000D01*
X66079666Y-96829619D01*
X65698714Y-96829619D02*
X65651095Y-96782000D01*
X65555857Y-96734380D01*
X65317761Y-96734380D01*
X65222523Y-96782000D01*
X65174904Y-96829619D01*
X65127285Y-96924857D01*
X65127285Y-97020095D01*
X65174904Y-97162952D01*
X65746333Y-97734380D01*
X65127285Y-97734380D01*
M02*
