G04 #@! TF.GenerationSoftware,KiCad,Pcbnew,(5.1.4-0-10_14)*
G04 #@! TF.CreationDate,2020-05-23T22:27:51-05:00*
G04 #@! TF.ProjectId,reverie,72657665-7269-4652-9e6b-696361645f70,rev?*
G04 #@! TF.SameCoordinates,Original*
G04 #@! TF.FileFunction,Legend,Top*
G04 #@! TF.FilePolarity,Positive*
%FSLAX46Y46*%
G04 Gerber Fmt 4.6, Leading zero omitted, Abs format (unit mm)*
G04 Created by KiCad (PCBNEW (5.1.4-0-10_14)) date 2020-05-23 22:27:51*
%MOMM*%
%LPD*%
G04 APERTURE LIST*
%ADD10C,0.300000*%
%ADD11C,0.120000*%
%ADD12C,0.150000*%
G04 APERTURE END LIST*
D10*
X52746000Y-109206142D02*
X51746000Y-107777571D01*
X51031714Y-109206142D02*
X51031714Y-106206142D01*
X52174571Y-106206142D01*
X52460285Y-106349000D01*
X52603142Y-106491857D01*
X52746000Y-106777571D01*
X52746000Y-107206142D01*
X52603142Y-107491857D01*
X52460285Y-107634714D01*
X52174571Y-107777571D01*
X51031714Y-107777571D01*
X54031714Y-107634714D02*
X55031714Y-107634714D01*
X55460285Y-109206142D02*
X54031714Y-109206142D01*
X54031714Y-106206142D01*
X55460285Y-106206142D01*
X56317428Y-106206142D02*
X57317428Y-109206142D01*
X58317428Y-106206142D01*
X59317428Y-107634714D02*
X60317428Y-107634714D01*
X60746000Y-109206142D02*
X59317428Y-109206142D01*
X59317428Y-106206142D01*
X60746000Y-106206142D01*
X63746000Y-109206142D02*
X62746000Y-107777571D01*
X62031714Y-109206142D02*
X62031714Y-106206142D01*
X63174571Y-106206142D01*
X63460285Y-106349000D01*
X63603142Y-106491857D01*
X63746000Y-106777571D01*
X63746000Y-107206142D01*
X63603142Y-107491857D01*
X63460285Y-107634714D01*
X63174571Y-107777571D01*
X62031714Y-107777571D01*
X65031714Y-109206142D02*
X65031714Y-106206142D01*
X66460285Y-107634714D02*
X67460285Y-107634714D01*
X67888857Y-109206142D02*
X66460285Y-109206142D01*
X66460285Y-106206142D01*
X67888857Y-106206142D01*
X68460285Y-109491857D02*
X70746000Y-109491857D01*
X71031714Y-106206142D02*
X72031714Y-109206142D01*
X73031714Y-106206142D01*
X74603142Y-106206142D02*
X74888857Y-106206142D01*
X75174571Y-106349000D01*
X75317428Y-106491857D01*
X75460285Y-106777571D01*
X75603142Y-107349000D01*
X75603142Y-108063285D01*
X75460285Y-108634714D01*
X75317428Y-108920428D01*
X75174571Y-109063285D01*
X74888857Y-109206142D01*
X74603142Y-109206142D01*
X74317428Y-109063285D01*
X74174571Y-108920428D01*
X74031714Y-108634714D01*
X73888857Y-108063285D01*
X73888857Y-107349000D01*
X74031714Y-106777571D01*
X74174571Y-106491857D01*
X74317428Y-106349000D01*
X74603142Y-106206142D01*
X49460285Y-117234714D02*
X49888857Y-117377571D01*
X50031714Y-117520428D01*
X50174571Y-117806142D01*
X50174571Y-118234714D01*
X50031714Y-118520428D01*
X49888857Y-118663285D01*
X49603142Y-118806142D01*
X48460285Y-118806142D01*
X48460285Y-115806142D01*
X49460285Y-115806142D01*
X49746000Y-115949000D01*
X49888857Y-116091857D01*
X50031714Y-116377571D01*
X50031714Y-116663285D01*
X49888857Y-116949000D01*
X49746000Y-117091857D01*
X49460285Y-117234714D01*
X48460285Y-117234714D01*
X52031714Y-117377571D02*
X52031714Y-118806142D01*
X51031714Y-115806142D02*
X52031714Y-117377571D01*
X53031714Y-115806142D01*
X56317428Y-118806142D02*
X56317428Y-115806142D01*
X57317428Y-117949000D01*
X58317428Y-115806142D01*
X58317428Y-118806142D01*
X59603142Y-117949000D02*
X61031714Y-117949000D01*
X59317428Y-118806142D02*
X60317428Y-115806142D01*
X61317428Y-118806142D01*
X62317428Y-118806142D02*
X62317428Y-115806142D01*
X64031714Y-118806142D02*
X62746000Y-117091857D01*
X64031714Y-115806142D02*
X62317428Y-117520428D01*
X65317428Y-117234714D02*
X66317428Y-117234714D01*
X66746000Y-118806142D02*
X65317428Y-118806142D01*
X65317428Y-115806142D01*
X66746000Y-115806142D01*
X68031714Y-118806142D02*
X68031714Y-115806142D01*
X69746000Y-118806142D01*
X69746000Y-115806142D01*
X71746000Y-115806142D02*
X72317428Y-115806142D01*
X72603142Y-115949000D01*
X72888857Y-116234714D01*
X73031714Y-116806142D01*
X73031714Y-117806142D01*
X72888857Y-118377571D01*
X72603142Y-118663285D01*
X72317428Y-118806142D01*
X71746000Y-118806142D01*
X71460285Y-118663285D01*
X71174571Y-118377571D01*
X71031714Y-117806142D01*
X71031714Y-116806142D01*
X71174571Y-116234714D01*
X71460285Y-115949000D01*
X71746000Y-115806142D01*
X73888857Y-115806142D02*
X74888857Y-118806142D01*
X75888857Y-115806142D01*
X76746000Y-117949000D02*
X78174571Y-117949000D01*
X76460285Y-118806142D02*
X77460285Y-115806142D01*
X78460285Y-118806142D01*
D11*
X43672000Y-90321000D02*
X59452000Y-90321000D01*
X59452000Y-90321000D02*
X59452000Y-99671000D01*
X59452000Y-99671000D02*
X43672000Y-99671000D01*
X43672000Y-99671000D02*
X43672000Y-90321000D01*
X43422000Y-99921000D02*
X45962000Y-99921000D01*
X43422000Y-99921000D02*
X43422000Y-97381000D01*
D12*
X41870380Y-95329333D02*
X42584666Y-95329333D01*
X42727523Y-95376952D01*
X42822761Y-95472190D01*
X42870380Y-95615047D01*
X42870380Y-95710285D01*
X42870380Y-94329333D02*
X42870380Y-94900761D01*
X42870380Y-94615047D02*
X41870380Y-94615047D01*
X42013238Y-94710285D01*
X42108476Y-94805523D01*
X42156095Y-94900761D01*
M02*
