G04 #@! TF.GenerationSoftware,KiCad,Pcbnew,(5.1.4-0-10_14)*
G04 #@! TF.CreationDate,2020-06-01T23:50:26-05:00*
G04 #@! TF.ProjectId,reverie,72657665-7269-4652-9e6b-696361645f70,rev?*
G04 #@! TF.SameCoordinates,Original*
G04 #@! TF.FileFunction,Profile,NP*
%FSLAX46Y46*%
G04 Gerber Fmt 4.6, Leading zero omitted, Abs format (unit mm)*
G04 Created by KiCad (PCBNEW (5.1.4-0-10_14)) date 2020-06-01 23:50:26*
%MOMM*%
%LPD*%
G04 APERTURE LIST*
%ADD10C,0.200000*%
G04 APERTURE END LIST*
D10*
X91059000Y-153162000D02*
G75*
G02X90170000Y-154051000I-889000J0D01*
G01*
X34925000Y-154051000D02*
G75*
G02X34036000Y-153162000I0J889000D01*
G01*
X324485000Y-149987000D02*
G75*
G02X323596000Y-150876000I-889000J0D01*
G01*
X323596000Y-73152000D02*
G75*
G02X324485000Y-74041000I0J-889000D01*
G01*
X68580000Y-73152000D02*
G75*
G02X67691000Y-72263000I0J889000D01*
G01*
X66802000Y-65405000D02*
G75*
G02X67691000Y-66294000I0J-889000D01*
G01*
X57277000Y-66294000D02*
G75*
G02X58166000Y-65405000I889000J0D01*
G01*
X57277000Y-72263000D02*
G75*
G02X56388000Y-73152000I-889000J0D01*
G01*
X-8890000Y-74041000D02*
G75*
G02X-8001000Y-73152000I889000J0D01*
G01*
X-8001000Y-151003000D02*
G75*
G02X-8890000Y-150114000I0J889000D01*
G01*
X91059000Y-151892000D02*
G75*
G02X91948000Y-151003000I889000J0D01*
G01*
X33147000Y-151003000D02*
G75*
G02X34036000Y-151892000I0J-889000D01*
G01*
X-8001000Y-151003000D02*
X33147000Y-151003000D01*
X91059000Y-151892000D02*
X91059000Y-153162000D01*
X34036000Y-151892000D02*
X34036000Y-153162000D01*
X324485000Y-149987000D02*
X324485000Y-74041000D01*
X-8890000Y-150114000D02*
X-8890000Y-74041000D01*
X323596000Y-150876000D02*
X91948000Y-151003000D01*
X34925000Y-154051000D02*
X90170000Y-154051000D01*
X323596000Y-73152000D02*
X68580000Y-73152000D01*
X-8001000Y-73152000D02*
X56388000Y-73152000D01*
X57277000Y-66294000D02*
X57277000Y-72263000D01*
X67691000Y-72263000D02*
X67691000Y-66294000D01*
X58166000Y-65405000D02*
X66802000Y-65405000D01*
M02*
