M48
; DRILL file {KiCad (5.1.4-0-10_14)} date Sunday, May 24, 2020 at 03:52:31 PM
; FORMAT={-:-/ absolute / metric / decimal}
; #@! TF.CreationDate,2020-05-24T15:52:31-05:00
; #@! TF.GenerationSoftware,Kicad,Pcbnew,(5.1.4-0-10_14)
FMAT,2
METRIC
T1C0.400
T2C0.600
T3C1.016
T4C0.650
T5C1.750
T6C3.000
T7C3.048
T8C3.988
%
G90
G05
T1
X-7.493Y-94.361
X-7.493Y-105.029
X-7.493Y-125.476
X-5.334Y-92.456
X-1.397Y-148.463
X8.89Y-109.474
X9.144Y-128.905
X9.271Y-91.059
X10.795Y-129.032
X14.859Y-92.548
X27.94Y-109.982
X27.94Y-130.048
X30.48Y-91.059
X33.909Y-93.002
X40.132Y-126.492
X44.577Y-109.982
X46.99Y-130.048
X49.657Y-103.505
X51.816Y-103.632
X51.816Y-120.396
X52.324Y-98.171
X52.959Y-92.583
X52.975Y-99.85
X54.102Y-101.854
X54.102Y-109.982
X54.229Y-103.378
X54.356Y-90.043
X54.356Y-99.215
X54.991Y-105.029
X56.134Y-97.409
X56.169Y-90.043
X56.896Y-100.584
X59.69Y-103.378
X60.154Y-75.917
X60.325Y-90.043
X60.833Y-115.824
X61.051Y-75.021
X61.722Y-115.189
X62.484Y-116.078
X63.246Y-98.679
X63.373Y-114.427
X64.008Y-115.443
X64.086Y-97.741
X64.262Y-74.295
X64.897Y-98.679
X64.897Y-114.427
X65.659Y-97.79
X66.421Y-98.679
X69.977Y-114.681
X70.612Y-90.678
X70.866Y-133.731
X72.263Y-93.98
X72.644Y-109.855
X73.152Y-78.867
X73.466Y-109.093
X73.66Y-104.267
X74.295Y-106.68
X74.295Y-108.331
X74.295Y-111.506
X74.803Y-105.156
X75.184Y-107.442
X75.917Y-105.918
X76.581Y-74.93
X78.74Y-92.167
X94.615Y-90.678
X97.282Y-110.109
X98.552Y-94.869
X99.06Y-91.405
X101.727Y-129.413
X113.665Y-90.678
X118.491Y-110.109
X121.539Y-104.175
X127.889Y-129.413
X132.715Y-90.678
X137.541Y-110.109
X144.907Y-109.277
X147.066Y-129.413
X151.765Y-90.678
X156.591Y-110.109
X161.544Y-108.823
X166.116Y-129.413
X170.815Y-90.678
X175.514Y-110.109
X181.229Y-108.369
X185.166Y-128.397
X189.865Y-90.678
X193.675Y-146.812
X194.564Y-110.109
X199.136Y-136.779
X201.041Y-107.915
X204.089Y-129.413
X208.915Y-90.678
X213.614Y-110.109
X218.821Y-107.445
X221.107Y-147.066
X223.266Y-129.413
X227.965Y-90.678
X232.791Y-110.109
X235.966Y-106.991
X242.316Y-129.413
X247.015Y-90.678
X251.841Y-110.109
X256.413Y-106.537
X261.366Y-129.413
X266.065Y-90.678
X270.891Y-110.109
X274.447Y-106.083
X280.416Y-129.413
X285.115Y-90.678
X289.941Y-110.109
X299.339Y-129.413
X299.847Y-105.629
X304.165Y-90.678
X307.975Y-92.329
X313.563Y-110.109
X318.77Y-90.678
X319.024Y-129.413
T3
X49.022Y-93.726
X49.022Y-96.266
X51.562Y-93.726
X51.562Y-96.266
X54.102Y-93.726
X54.102Y-96.266
T4
X59.594Y-70.385
X65.374Y-70.385
T5
X57.531Y-144.526
X5.715Y-82.677
X67.691Y-144.526
X33.655Y-82.677
X43.815Y-82.677
X-4.445Y-82.677
X238.506Y-101.727
X248.666Y-101.727
X307.467Y-120.777
X317.627Y-120.777
X290.83Y-82.677
X119.38Y-82.677
X129.54Y-82.677
X-4.445Y-120.777
X5.715Y-120.777
X300.99Y-82.677
X302.768Y-101.727
X134.366Y-101.727
X243.84Y-82.677
X293.878Y-139.827
X233.68Y-82.677
X186.69Y-82.677
X283.718Y-139.827
X176.53Y-82.677
X286.131Y-120.777
X239.141Y-120.777
X124.206Y-101.727
X312.928Y-101.727
X14.605Y-101.727
X24.765Y-101.727
X57.404Y-125.603
X67.564Y-125.603
X190.881Y-120.777
X201.041Y-120.777
X228.981Y-120.777
X152.781Y-120.777
X162.941Y-120.777
X296.291Y-120.777
X38.481Y-144.526
X48.641Y-144.526
X157.48Y-82.677
X167.64Y-82.677
X217.043Y-139.827
X143.891Y-120.777
X83.693Y-101.727
X93.853Y-101.727
X133.731Y-120.777
X88.392Y-120.777
X98.552Y-120.777
X33.655Y-120.777
X43.815Y-120.777
X219.329Y-101.727
X229.489Y-101.727
X100.33Y-82.677
X110.49Y-82.677
X276.606Y-101.727
X286.766Y-101.727
X-4.445Y-101.727
X5.715Y-101.727
X227.203Y-139.827
X105.029Y-139.827
X115.189Y-139.827
X14.605Y-139.827
X271.78Y-82.677
X281.94Y-82.677
X214.63Y-82.677
X224.79Y-82.677
X162.179Y-101.727
X172.339Y-101.727
X105.156Y-101.727
X115.316Y-101.727
X220.091Y-120.777
X200.279Y-101.727
X210.439Y-101.727
X76.454Y-144.526
X86.614Y-144.526
X267.081Y-120.777
X277.241Y-120.777
X209.931Y-120.777
X81.28Y-82.677
X91.44Y-82.677
X257.556Y-101.727
X267.716Y-101.727
X57.404Y-82.677
X67.564Y-82.677
X24.765Y-139.827
X114.554Y-120.777
X14.605Y-82.677
X14.605Y-120.777
X24.765Y-120.777
X179.578Y-139.827
X148.59Y-82.677
X205.74Y-82.677
X124.714Y-120.777
X257.556Y-139.827
X267.716Y-139.827
X169.418Y-139.827
X191.389Y-101.727
X-4.445Y-139.827
X5.715Y-139.827
X181.229Y-101.727
X153.416Y-101.727
X252.73Y-82.677
X262.89Y-82.677
X143.256Y-101.727
X195.58Y-82.677
X24.765Y-82.677
X171.831Y-120.777
X181.991Y-120.777
X307.467Y-139.827
X317.627Y-139.827
X138.43Y-82.677
X309.88Y-82.677
X320.04Y-82.677
X133.731Y-139.827
X143.891Y-139.827
X248.031Y-120.777
X258.191Y-120.777
X33.655Y-101.727
X43.815Y-101.727
T6
X215.9Y-80.137
X222.25Y-77.597
X265.176Y-134.747
X211.201Y-118.237
X15.875Y-137.287
X273.05Y-80.137
X41.275Y-115.697
X217.551Y-115.697
X-3.175Y-99.187
X3.175Y-96.647
X34.925Y-118.237
X22.225Y-134.747
X106.426Y-99.187
X112.776Y-96.647
X96.012Y-115.697
X279.4Y-77.597
X89.662Y-118.237
X274.701Y-115.697
X58.674Y-80.137
X258.826Y-137.287
X163.449Y-99.187
X169.799Y-96.647
X268.351Y-118.237
X65.024Y-77.597
X254.0Y-80.137
X260.35Y-77.597
X115.824Y-118.237
X122.174Y-115.697
X196.85Y-80.137
X201.549Y-99.187
X207.899Y-96.647
X77.724Y-141.986
X315.087Y-134.747
X146.05Y-77.597
X82.55Y-80.137
X170.688Y-137.287
X139.7Y-80.137
X88.9Y-77.597
X308.737Y-137.287
X15.875Y-118.237
X22.225Y-115.697
X203.2Y-77.597
X15.875Y-80.137
X22.225Y-77.597
X84.074Y-139.446
X258.826Y-99.187
X265.176Y-96.647
X177.038Y-134.747
X182.499Y-99.187
X188.849Y-96.647
X249.301Y-118.237
X255.651Y-115.697
X-3.175Y-80.137
X3.175Y-77.597
X179.451Y-115.697
X34.925Y-99.187
X41.275Y-96.647
X311.15Y-80.137
X317.5Y-77.597
X173.101Y-118.237
X239.776Y-99.187
X144.526Y-99.187
X150.876Y-96.647
X-3.175Y-137.287
X3.175Y-134.747
X58.801Y-141.986
X65.151Y-139.446
X34.925Y-80.137
X41.275Y-77.597
X234.95Y-80.137
X241.3Y-77.597
X177.8Y-80.137
X184.15Y-77.597
X58.674Y-123.063
X284.988Y-137.287
X304.038Y-99.187
X310.388Y-96.647
X65.024Y-120.523
X127.0Y-77.597
X292.1Y-80.137
X298.45Y-77.597
X315.087Y-115.697
X291.338Y-134.747
X135.001Y-137.287
X-3.175Y-118.237
X287.401Y-118.237
X293.751Y-115.697
X192.151Y-118.237
X198.501Y-115.697
X308.737Y-118.237
X125.476Y-99.187
X3.175Y-115.697
X160.401Y-115.697
X141.351Y-134.747
X246.126Y-96.647
X154.051Y-118.237
X131.826Y-96.647
X120.65Y-80.137
X91.313Y-96.647
X15.875Y-99.187
X165.1Y-77.597
X220.599Y-99.187
X158.75Y-80.137
X277.876Y-99.187
X106.299Y-137.287
X22.225Y-96.647
X84.963Y-99.187
X101.6Y-80.137
X107.95Y-77.597
X135.001Y-118.237
X112.649Y-134.747
X39.751Y-141.986
X236.601Y-115.697
X46.101Y-139.446
X224.663Y-134.747
X141.351Y-115.697
X218.313Y-137.287
X226.949Y-96.647
X230.251Y-118.237
X284.226Y-96.647
T7
X162.56Y-146.812
X186.436Y-146.812
X210.185Y-146.812
X234.061Y-146.812
T8
X262.636Y-139.827
X110.236Y-101.727
X272.161Y-120.777
X312.547Y-139.827
X186.436Y-131.572
X19.685Y-120.777
X257.81Y-82.677
X205.359Y-101.727
X86.36Y-82.677
X62.484Y-82.677
X19.685Y-139.827
X81.534Y-144.526
X215.011Y-120.777
X119.634Y-120.777
X174.498Y-139.827
X186.309Y-101.727
X314.96Y-82.677
X162.56Y-131.572
X143.51Y-82.677
X148.336Y-101.727
X200.66Y-82.677
X19.685Y-82.677
X262.636Y-101.727
X176.911Y-120.777
X0.635Y-139.827
X62.611Y-144.526
X167.259Y-101.727
X0.635Y-82.677
X138.811Y-139.827
X38.735Y-101.727
X253.111Y-120.777
X243.586Y-101.727
X124.46Y-82.677
X0.635Y-120.777
X295.91Y-82.677
X181.61Y-82.677
X288.798Y-139.827
X238.76Y-82.677
X43.561Y-144.526
X291.211Y-120.777
X195.961Y-120.777
X110.109Y-139.827
X19.685Y-101.727
X38.735Y-82.677
X234.061Y-120.777
X157.861Y-120.777
X62.484Y-125.603
X312.547Y-120.777
X129.286Y-101.727
X307.848Y-101.727
X162.56Y-82.677
X222.123Y-139.827
X276.86Y-82.677
X219.71Y-82.677
X105.41Y-82.677
X0.635Y-101.727
X88.773Y-101.727
X138.811Y-120.777
X93.472Y-120.777
X38.735Y-120.777
X210.185Y-131.572
X234.061Y-131.572
X224.409Y-101.727
X281.686Y-101.727
T2
G00X58.164Y-66.435
M15
G01X58.164Y-67.035
M16
G05
G00X58.164Y-70.365
M15
G01X58.164Y-71.465
M16
G05
G00X66.804Y-66.435
M15
G01X66.804Y-67.035
M16
G05
G00X66.804Y-70.365
M15
G01X66.804Y-71.465
M16
G05
T0
M30
