<svg version="1.1" xmlns="http://www.w3.org/2000/svg" xmlns:xlink="http://www.w3.org/1999/xlink" stroke-linecap="round" stroke-linejoin="round" stroke-width="0" fill-rule="evenodd" width="328.608mm" height="82.528mm" viewBox="-7693 -148663 328608 82528" id="JXeEOORYlFplyq6arNrr"><defs><circle cx="0" cy="0" r="200" id="JXeEOORYlFplyq6arNrr_pad-1"/><circle cx="0" cy="0" r="500" id="JXeEOORYlFplyq6arNrr_pad-3"/><circle cx="0" cy="0" r="325" id="JXeEOORYlFplyq6arNrr_pad-4"/><circle cx="0" cy="0" r="875" id="JXeEOORYlFplyq6arNrr_pad-5"/><circle cx="0" cy="0" r="1500" id="JXeEOORYlFplyq6arNrr_pad-6"/><circle cx="0" cy="0" r="1524" id="JXeEOORYlFplyq6arNrr_pad-7"/><circle cx="0" cy="0" r="1994" id="JXeEOORYlFplyq6arNrr_pad-8"/></defs><g transform="translate(0,-214798) scale(1,-1)" fill="currentColor" stroke="currentColor"><use xlink:href="#JXeEOORYlFplyq6arNrr_pad-1" x="-7493" y="-94361"/><use xlink:href="#JXeEOORYlFplyq6arNrr_pad-1" x="-7493" y="-105029"/><use xlink:href="#JXeEOORYlFplyq6arNrr_pad-1" x="-7493" y="-125476"/><use xlink:href="#JXeEOORYlFplyq6arNrr_pad-1" x="-5334" y="-92456"/><use xlink:href="#JXeEOORYlFplyq6arNrr_pad-1" x="-1397" y="-148463"/><use xlink:href="#JXeEOORYlFplyq6arNrr_pad-1" x="8890" y="-109474"/><use xlink:href="#JXeEOORYlFplyq6arNrr_pad-1" x="9144" y="-128905"/><use xlink:href="#JXeEOORYlFplyq6arNrr_pad-1" x="9271" y="-91059"/><use xlink:href="#JXeEOORYlFplyq6arNrr_pad-1" x="10795" y="-129032"/><use xlink:href="#JXeEOORYlFplyq6arNrr_pad-1" x="14859" y="-92548"/><use xlink:href="#JXeEOORYlFplyq6arNrr_pad-1" x="27940" y="-109982"/><use xlink:href="#JXeEOORYlFplyq6arNrr_pad-1" x="27940" y="-130048"/><use xlink:href="#JXeEOORYlFplyq6arNrr_pad-1" x="30480" y="-91059"/><use xlink:href="#JXeEOORYlFplyq6arNrr_pad-1" x="33909" y="-93002"/><use xlink:href="#JXeEOORYlFplyq6arNrr_pad-1" x="40132" y="-126492"/><use xlink:href="#JXeEOORYlFplyq6arNrr_pad-1" x="44577" y="-109982"/><use xlink:href="#JXeEOORYlFplyq6arNrr_pad-1" x="46990" y="-130048"/><use xlink:href="#JXeEOORYlFplyq6arNrr_pad-1" x="49657" y="-103505"/><use xlink:href="#JXeEOORYlFplyq6arNrr_pad-1" x="51816" y="-103632"/><use xlink:href="#JXeEOORYlFplyq6arNrr_pad-1" x="51816" y="-120396"/><use xlink:href="#JXeEOORYlFplyq6arNrr_pad-1" x="52324" y="-98171"/><use xlink:href="#JXeEOORYlFplyq6arNrr_pad-1" x="52959" y="-92583"/><use xlink:href="#JXeEOORYlFplyq6arNrr_pad-1" x="52975" y="-99850"/><use xlink:href="#JXeEOORYlFplyq6arNrr_pad-1" x="54102" y="-101854"/><use xlink:href="#JXeEOORYlFplyq6arNrr_pad-1" x="54102" y="-109982"/><use xlink:href="#JXeEOORYlFplyq6arNrr_pad-1" x="54229" y="-103378"/><use xlink:href="#JXeEOORYlFplyq6arNrr_pad-1" x="54356" y="-90043"/><use xlink:href="#JXeEOORYlFplyq6arNrr_pad-1" x="54356" y="-99215"/><use xlink:href="#JXeEOORYlFplyq6arNrr_pad-1" x="54991" y="-105029"/><use xlink:href="#JXeEOORYlFplyq6arNrr_pad-1" x="56134" y="-97409"/><use xlink:href="#JXeEOORYlFplyq6arNrr_pad-1" x="56169" y="-90043"/><use xlink:href="#JXeEOORYlFplyq6arNrr_pad-1" x="56896" y="-100584"/><use xlink:href="#JXeEOORYlFplyq6arNrr_pad-1" x="59690" y="-103378"/><use xlink:href="#JXeEOORYlFplyq6arNrr_pad-1" x="60154" y="-75917"/><use xlink:href="#JXeEOORYlFplyq6arNrr_pad-1" x="60325" y="-90043"/><use xlink:href="#JXeEOORYlFplyq6arNrr_pad-1" x="60833" y="-115824"/><use xlink:href="#JXeEOORYlFplyq6arNrr_pad-1" x="61051" y="-75021"/><use xlink:href="#JXeEOORYlFplyq6arNrr_pad-1" x="61722" y="-115189"/><use xlink:href="#JXeEOORYlFplyq6arNrr_pad-1" x="62484" y="-116078"/><use xlink:href="#JXeEOORYlFplyq6arNrr_pad-1" x="63246" y="-98679"/><use xlink:href="#JXeEOORYlFplyq6arNrr_pad-1" x="63373" y="-114427"/><use xlink:href="#JXeEOORYlFplyq6arNrr_pad-1" x="64008" y="-115443"/><use xlink:href="#JXeEOORYlFplyq6arNrr_pad-1" x="64086" y="-97741"/><use xlink:href="#JXeEOORYlFplyq6arNrr_pad-1" x="64262" y="-74295"/><use xlink:href="#JXeEOORYlFplyq6arNrr_pad-1" x="64897" y="-98679"/><use xlink:href="#JXeEOORYlFplyq6arNrr_pad-1" x="64897" y="-114427"/><use xlink:href="#JXeEOORYlFplyq6arNrr_pad-1" x="65659" y="-97790"/><use xlink:href="#JXeEOORYlFplyq6arNrr_pad-1" x="66421" y="-98679"/><use xlink:href="#JXeEOORYlFplyq6arNrr_pad-1" x="69977" y="-114681"/><use xlink:href="#JXeEOORYlFplyq6arNrr_pad-1" x="70612" y="-90678"/><use xlink:href="#JXeEOORYlFplyq6arNrr_pad-1" x="70866" y="-133731"/><use xlink:href="#JXeEOORYlFplyq6arNrr_pad-1" x="72263" y="-93980"/><use xlink:href="#JXeEOORYlFplyq6arNrr_pad-1" x="72644" y="-109855"/><use xlink:href="#JXeEOORYlFplyq6arNrr_pad-1" x="73152" y="-78867"/><use xlink:href="#JXeEOORYlFplyq6arNrr_pad-1" x="73466" y="-109093"/><use xlink:href="#JXeEOORYlFplyq6arNrr_pad-1" x="73660" y="-104267"/><use xlink:href="#JXeEOORYlFplyq6arNrr_pad-1" x="74295" y="-106680"/><use xlink:href="#JXeEOORYlFplyq6arNrr_pad-1" x="74295" y="-108331"/><use xlink:href="#JXeEOORYlFplyq6arNrr_pad-1" x="74295" y="-111506"/><use xlink:href="#JXeEOORYlFplyq6arNrr_pad-1" x="74803" y="-105156"/><use xlink:href="#JXeEOORYlFplyq6arNrr_pad-1" x="75184" y="-107442"/><use xlink:href="#JXeEOORYlFplyq6arNrr_pad-1" x="75917" y="-105918"/><use xlink:href="#JXeEOORYlFplyq6arNrr_pad-1" x="76581" y="-74930"/><use xlink:href="#JXeEOORYlFplyq6arNrr_pad-1" x="78740" y="-92167"/><use xlink:href="#JXeEOORYlFplyq6arNrr_pad-1" x="94615" y="-90678"/><use xlink:href="#JXeEOORYlFplyq6arNrr_pad-1" x="97282" y="-110109"/><use xlink:href="#JXeEOORYlFplyq6arNrr_pad-1" x="98552" y="-94869"/><use xlink:href="#JXeEOORYlFplyq6arNrr_pad-1" x="99060" y="-91405"/><use xlink:href="#JXeEOORYlFplyq6arNrr_pad-1" x="101727" y="-129413"/><use xlink:href="#JXeEOORYlFplyq6arNrr_pad-1" x="113665" y="-90678"/><use xlink:href="#JXeEOORYlFplyq6arNrr_pad-1" x="118491" y="-110109"/><use xlink:href="#JXeEOORYlFplyq6arNrr_pad-1" x="121539" y="-104175"/><use xlink:href="#JXeEOORYlFplyq6arNrr_pad-1" x="127889" y="-129413"/><use xlink:href="#JXeEOORYlFplyq6arNrr_pad-1" x="132715" y="-90678"/><use xlink:href="#JXeEOORYlFplyq6arNrr_pad-1" x="137541" y="-110109"/><use xlink:href="#JXeEOORYlFplyq6arNrr_pad-1" x="144907" y="-109277"/><use xlink:href="#JXeEOORYlFplyq6arNrr_pad-1" x="147066" y="-129413"/><use xlink:href="#JXeEOORYlFplyq6arNrr_pad-1" x="151765" y="-90678"/><use xlink:href="#JXeEOORYlFplyq6arNrr_pad-1" x="156591" y="-110109"/><use xlink:href="#JXeEOORYlFplyq6arNrr_pad-1" x="161544" y="-108823"/><use xlink:href="#JXeEOORYlFplyq6arNrr_pad-1" x="166116" y="-129413"/><use xlink:href="#JXeEOORYlFplyq6arNrr_pad-1" x="170815" y="-90678"/><use xlink:href="#JXeEOORYlFplyq6arNrr_pad-1" x="175514" y="-110109"/><use xlink:href="#JXeEOORYlFplyq6arNrr_pad-1" x="181229" y="-108369"/><use xlink:href="#JXeEOORYlFplyq6arNrr_pad-1" x="185166" y="-128397"/><use xlink:href="#JXeEOORYlFplyq6arNrr_pad-1" x="189865" y="-90678"/><use xlink:href="#JXeEOORYlFplyq6arNrr_pad-1" x="193675" y="-146812"/><use xlink:href="#JXeEOORYlFplyq6arNrr_pad-1" x="194564" y="-110109"/><use xlink:href="#JXeEOORYlFplyq6arNrr_pad-1" x="199136" y="-136779"/><use xlink:href="#JXeEOORYlFplyq6arNrr_pad-1" x="201041" y="-107915"/><use xlink:href="#JXeEOORYlFplyq6arNrr_pad-1" x="204089" y="-129413"/><use xlink:href="#JXeEOORYlFplyq6arNrr_pad-1" x="208915" y="-90678"/><use xlink:href="#JXeEOORYlFplyq6arNrr_pad-1" x="213614" y="-110109"/><use xlink:href="#JXeEOORYlFplyq6arNrr_pad-1" x="218821" y="-107445"/><use xlink:href="#JXeEOORYlFplyq6arNrr_pad-1" x="221107" y="-147066"/><use xlink:href="#JXeEOORYlFplyq6arNrr_pad-1" x="223266" y="-129413"/><use xlink:href="#JXeEOORYlFplyq6arNrr_pad-1" x="227965" y="-90678"/><use xlink:href="#JXeEOORYlFplyq6arNrr_pad-1" x="232791" y="-110109"/><use xlink:href="#JXeEOORYlFplyq6arNrr_pad-1" x="235966" y="-106991"/><use xlink:href="#JXeEOORYlFplyq6arNrr_pad-1" x="242316" y="-129413"/><use xlink:href="#JXeEOORYlFplyq6arNrr_pad-1" x="247015" y="-90678"/><use xlink:href="#JXeEOORYlFplyq6arNrr_pad-1" x="251841" y="-110109"/><use xlink:href="#JXeEOORYlFplyq6arNrr_pad-1" x="256413" y="-106537"/><use xlink:href="#JXeEOORYlFplyq6arNrr_pad-1" x="261366" y="-129413"/><use xlink:href="#JXeEOORYlFplyq6arNrr_pad-1" x="266065" y="-90678"/><use xlink:href="#JXeEOORYlFplyq6arNrr_pad-1" x="270891" y="-110109"/><use xlink:href="#JXeEOORYlFplyq6arNrr_pad-1" x="274447" y="-106083"/><use xlink:href="#JXeEOORYlFplyq6arNrr_pad-1" x="280416" y="-129413"/><use xlink:href="#JXeEOORYlFplyq6arNrr_pad-1" x="285115" y="-90678"/><use xlink:href="#JXeEOORYlFplyq6arNrr_pad-1" x="289941" y="-110109"/><use xlink:href="#JXeEOORYlFplyq6arNrr_pad-1" x="299339" y="-129413"/><use xlink:href="#JXeEOORYlFplyq6arNrr_pad-1" x="299847" y="-105629"/><use xlink:href="#JXeEOORYlFplyq6arNrr_pad-1" x="304165" y="-90678"/><use xlink:href="#JXeEOORYlFplyq6arNrr_pad-1" x="307975" y="-92329"/><use xlink:href="#JXeEOORYlFplyq6arNrr_pad-1" x="313563" y="-110109"/><use xlink:href="#JXeEOORYlFplyq6arNrr_pad-1" x="318770" y="-90678"/><use xlink:href="#JXeEOORYlFplyq6arNrr_pad-1" x="319024" y="-129413"/><use xlink:href="#JXeEOORYlFplyq6arNrr_pad-3" x="49022" y="-94107"/><use xlink:href="#JXeEOORYlFplyq6arNrr_pad-3" x="49022" y="-96647"/><use xlink:href="#JXeEOORYlFplyq6arNrr_pad-3" x="51562" y="-94107"/><use xlink:href="#JXeEOORYlFplyq6arNrr_pad-3" x="51562" y="-96647"/><use xlink:href="#JXeEOORYlFplyq6arNrr_pad-3" x="54102" y="-94107"/><use xlink:href="#JXeEOORYlFplyq6arNrr_pad-3" x="54102" y="-96647"/><use xlink:href="#JXeEOORYlFplyq6arNrr_pad-4" x="59594" y="-70385"/><use xlink:href="#JXeEOORYlFplyq6arNrr_pad-4" x="65374" y="-70385"/><use xlink:href="#JXeEOORYlFplyq6arNrr_pad-5" x="57531" y="-144526"/><use xlink:href="#JXeEOORYlFplyq6arNrr_pad-5" x="67691" y="-144526"/><use xlink:href="#JXeEOORYlFplyq6arNrr_pad-5" x="114554" y="-120777"/><use xlink:href="#JXeEOORYlFplyq6arNrr_pad-5" x="124714" y="-120777"/><use xlink:href="#JXeEOORYlFplyq6arNrr_pad-5" x="169418" y="-139827"/><use xlink:href="#JXeEOORYlFplyq6arNrr_pad-5" x="309880" y="-82677"/><use xlink:href="#JXeEOORYlFplyq6arNrr_pad-5" x="179578" y="-139827"/><use xlink:href="#JXeEOORYlFplyq6arNrr_pad-5" x="320040" y="-82677"/><use xlink:href="#JXeEOORYlFplyq6arNrr_pad-5" x="138430" y="-82677"/><use xlink:href="#JXeEOORYlFplyq6arNrr_pad-5" x="148590" y="-82677"/><use xlink:href="#JXeEOORYlFplyq6arNrr_pad-5" x="33655" y="-101727"/><use xlink:href="#JXeEOORYlFplyq6arNrr_pad-5" x="43815" y="-101727"/><use xlink:href="#JXeEOORYlFplyq6arNrr_pad-5" x="162179" y="-101727"/><use xlink:href="#JXeEOORYlFplyq6arNrr_pad-5" x="172339" y="-101727"/><use xlink:href="#JXeEOORYlFplyq6arNrr_pad-5" x="219329" y="-101727"/><use xlink:href="#JXeEOORYlFplyq6arNrr_pad-5" x="229489" y="-101727"/><use xlink:href="#JXeEOORYlFplyq6arNrr_pad-5" x="276606" y="-101727"/><use xlink:href="#JXeEOORYlFplyq6arNrr_pad-5" x="286766" y="-101727"/><use xlink:href="#JXeEOORYlFplyq6arNrr_pad-5" x="105029" y="-139827"/><use xlink:href="#JXeEOORYlFplyq6arNrr_pad-5" x="115189" y="-139827"/><use xlink:href="#JXeEOORYlFplyq6arNrr_pad-5" x="195580" y="-82677"/><use xlink:href="#JXeEOORYlFplyq6arNrr_pad-5" x="-4445" y="-120777"/><use xlink:href="#JXeEOORYlFplyq6arNrr_pad-5" x="5715" y="-120777"/><use xlink:href="#JXeEOORYlFplyq6arNrr_pad-5" x="205740" y="-82677"/><use xlink:href="#JXeEOORYlFplyq6arNrr_pad-5" x="296291" y="-120777"/><use xlink:href="#JXeEOORYlFplyq6arNrr_pad-5" x="243840" y="-82677"/><use xlink:href="#JXeEOORYlFplyq6arNrr_pad-5" x="286131" y="-120777"/><use xlink:href="#JXeEOORYlFplyq6arNrr_pad-5" x="201041" y="-120777"/><use xlink:href="#JXeEOORYlFplyq6arNrr_pad-5" x="233680" y="-82677"/><use xlink:href="#JXeEOORYlFplyq6arNrr_pad-5" x="190881" y="-120777"/><use xlink:href="#JXeEOORYlFplyq6arNrr_pad-5" x="152781" y="-120777"/><use xlink:href="#JXeEOORYlFplyq6arNrr_pad-5" x="162941" y="-120777"/><use xlink:href="#JXeEOORYlFplyq6arNrr_pad-5" x="290830" y="-82677"/><use xlink:href="#JXeEOORYlFplyq6arNrr_pad-5" x="300990" y="-82677"/><use xlink:href="#JXeEOORYlFplyq6arNrr_pad-5" x="143891" y="-120777"/><use xlink:href="#JXeEOORYlFplyq6arNrr_pad-5" x="302768" y="-101727"/><use xlink:href="#JXeEOORYlFplyq6arNrr_pad-5" x="209931" y="-120777"/><use xlink:href="#JXeEOORYlFplyq6arNrr_pad-5" x="220091" y="-120777"/><use xlink:href="#JXeEOORYlFplyq6arNrr_pad-5" x="228981" y="-120777"/><use xlink:href="#JXeEOORYlFplyq6arNrr_pad-5" x="239141" y="-120777"/><use xlink:href="#JXeEOORYlFplyq6arNrr_pad-5" x="312928" y="-101727"/><use xlink:href="#JXeEOORYlFplyq6arNrr_pad-5" x="57404" y="-125603"/><use xlink:href="#JXeEOORYlFplyq6arNrr_pad-5" x="67564" y="-125603"/><use xlink:href="#JXeEOORYlFplyq6arNrr_pad-5" x="134366" y="-101727"/><use xlink:href="#JXeEOORYlFplyq6arNrr_pad-5" x="217043" y="-139827"/><use xlink:href="#JXeEOORYlFplyq6arNrr_pad-5" x="227203" y="-139827"/><use xlink:href="#JXeEOORYlFplyq6arNrr_pad-5" x="124206" y="-101727"/><use xlink:href="#JXeEOORYlFplyq6arNrr_pad-5" x="38481" y="-144526"/><use xlink:href="#JXeEOORYlFplyq6arNrr_pad-5" x="48641" y="-144526"/><use xlink:href="#JXeEOORYlFplyq6arNrr_pad-5" x="33655" y="-82677"/><use xlink:href="#JXeEOORYlFplyq6arNrr_pad-5" x="43815" y="-82677"/><use xlink:href="#JXeEOORYlFplyq6arNrr_pad-5" x="283718" y="-139827"/><use xlink:href="#JXeEOORYlFplyq6arNrr_pad-5" x="293878" y="-139827"/><use xlink:href="#JXeEOORYlFplyq6arNrr_pad-5" x="133731" y="-120777"/><use xlink:href="#JXeEOORYlFplyq6arNrr_pad-5" x="14605" y="-101727"/><use xlink:href="#JXeEOORYlFplyq6arNrr_pad-5" x="24765" y="-101727"/><use xlink:href="#JXeEOORYlFplyq6arNrr_pad-5" x="14605" y="-139827"/><use xlink:href="#JXeEOORYlFplyq6arNrr_pad-5" x="88392" y="-120777"/><use xlink:href="#JXeEOORYlFplyq6arNrr_pad-5" x="98552" y="-120777"/><use xlink:href="#JXeEOORYlFplyq6arNrr_pad-5" x="-4445" y="-82677"/><use xlink:href="#JXeEOORYlFplyq6arNrr_pad-5" x="5715" y="-82677"/><use xlink:href="#JXeEOORYlFplyq6arNrr_pad-5" x="238506" y="-101727"/><use xlink:href="#JXeEOORYlFplyq6arNrr_pad-5" x="248666" y="-101727"/><use xlink:href="#JXeEOORYlFplyq6arNrr_pad-5" x="83693" y="-101727"/><use xlink:href="#JXeEOORYlFplyq6arNrr_pad-5" x="93853" y="-101727"/><use xlink:href="#JXeEOORYlFplyq6arNrr_pad-5" x="271780" y="-82677"/><use xlink:href="#JXeEOORYlFplyq6arNrr_pad-5" x="281940" y="-82677"/><use xlink:href="#JXeEOORYlFplyq6arNrr_pad-5" x="257556" y="-139827"/><use xlink:href="#JXeEOORYlFplyq6arNrr_pad-5" x="267716" y="-139827"/><use xlink:href="#JXeEOORYlFplyq6arNrr_pad-5" x="267081" y="-120777"/><use xlink:href="#JXeEOORYlFplyq6arNrr_pad-5" x="277241" y="-120777"/><use xlink:href="#JXeEOORYlFplyq6arNrr_pad-5" x="33655" y="-120777"/><use xlink:href="#JXeEOORYlFplyq6arNrr_pad-5" x="43815" y="-120777"/><use xlink:href="#JXeEOORYlFplyq6arNrr_pad-5" x="176530" y="-82677"/><use xlink:href="#JXeEOORYlFplyq6arNrr_pad-5" x="186690" y="-82677"/><use xlink:href="#JXeEOORYlFplyq6arNrr_pad-5" x="119380" y="-82677"/><use xlink:href="#JXeEOORYlFplyq6arNrr_pad-5" x="129540" y="-82677"/><use xlink:href="#JXeEOORYlFplyq6arNrr_pad-5" x="24765" y="-139827"/><use xlink:href="#JXeEOORYlFplyq6arNrr_pad-5" x="57404" y="-82677"/><use xlink:href="#JXeEOORYlFplyq6arNrr_pad-5" x="67564" y="-82677"/><use xlink:href="#JXeEOORYlFplyq6arNrr_pad-5" x="-4445" y="-101727"/><use xlink:href="#JXeEOORYlFplyq6arNrr_pad-5" x="5715" y="-101727"/><use xlink:href="#JXeEOORYlFplyq6arNrr_pad-5" x="76454" y="-144526"/><use xlink:href="#JXeEOORYlFplyq6arNrr_pad-5" x="86614" y="-144526"/><use xlink:href="#JXeEOORYlFplyq6arNrr_pad-5" x="181229" y="-101727"/><use xlink:href="#JXeEOORYlFplyq6arNrr_pad-5" x="191389" y="-101727"/><use xlink:href="#JXeEOORYlFplyq6arNrr_pad-5" x="307467" y="-120777"/><use xlink:href="#JXeEOORYlFplyq6arNrr_pad-5" x="317627" y="-120777"/><use xlink:href="#JXeEOORYlFplyq6arNrr_pad-5" x="14605" y="-82677"/><use xlink:href="#JXeEOORYlFplyq6arNrr_pad-5" x="24765" y="-82677"/><use xlink:href="#JXeEOORYlFplyq6arNrr_pad-5" x="-4445" y="-139827"/><use xlink:href="#JXeEOORYlFplyq6arNrr_pad-5" x="5715" y="-139827"/><use xlink:href="#JXeEOORYlFplyq6arNrr_pad-5" x="81280" y="-82677"/><use xlink:href="#JXeEOORYlFplyq6arNrr_pad-5" x="91440" y="-82677"/><use xlink:href="#JXeEOORYlFplyq6arNrr_pad-5" x="157480" y="-82677"/><use xlink:href="#JXeEOORYlFplyq6arNrr_pad-5" x="167640" y="-82677"/><use xlink:href="#JXeEOORYlFplyq6arNrr_pad-5" x="200279" y="-101727"/><use xlink:href="#JXeEOORYlFplyq6arNrr_pad-5" x="210439" y="-101727"/><use xlink:href="#JXeEOORYlFplyq6arNrr_pad-5" x="143256" y="-101727"/><use xlink:href="#JXeEOORYlFplyq6arNrr_pad-5" x="153416" y="-101727"/><use xlink:href="#JXeEOORYlFplyq6arNrr_pad-5" x="100330" y="-82677"/><use xlink:href="#JXeEOORYlFplyq6arNrr_pad-5" x="105156" y="-101727"/><use xlink:href="#JXeEOORYlFplyq6arNrr_pad-5" x="224790" y="-82677"/><use xlink:href="#JXeEOORYlFplyq6arNrr_pad-5" x="257556" y="-101727"/><use xlink:href="#JXeEOORYlFplyq6arNrr_pad-5" x="248031" y="-120777"/><use xlink:href="#JXeEOORYlFplyq6arNrr_pad-5" x="258191" y="-120777"/><use xlink:href="#JXeEOORYlFplyq6arNrr_pad-5" x="262890" y="-82677"/><use xlink:href="#JXeEOORYlFplyq6arNrr_pad-5" x="115316" y="-101727"/><use xlink:href="#JXeEOORYlFplyq6arNrr_pad-5" x="267716" y="-101727"/><use xlink:href="#JXeEOORYlFplyq6arNrr_pad-5" x="110490" y="-82677"/><use xlink:href="#JXeEOORYlFplyq6arNrr_pad-5" x="307467" y="-139827"/><use xlink:href="#JXeEOORYlFplyq6arNrr_pad-5" x="317627" y="-139827"/><use xlink:href="#JXeEOORYlFplyq6arNrr_pad-5" x="214630" y="-82677"/><use xlink:href="#JXeEOORYlFplyq6arNrr_pad-5" x="133731" y="-139827"/><use xlink:href="#JXeEOORYlFplyq6arNrr_pad-5" x="14605" y="-120777"/><use xlink:href="#JXeEOORYlFplyq6arNrr_pad-5" x="143891" y="-139827"/><use xlink:href="#JXeEOORYlFplyq6arNrr_pad-5" x="24765" y="-120777"/><use xlink:href="#JXeEOORYlFplyq6arNrr_pad-5" x="171831" y="-120777"/><use xlink:href="#JXeEOORYlFplyq6arNrr_pad-5" x="181991" y="-120777"/><use xlink:href="#JXeEOORYlFplyq6arNrr_pad-5" x="252730" y="-82677"/><use xlink:href="#JXeEOORYlFplyq6arNrr_pad-6" x="115824" y="-118237"/><use xlink:href="#JXeEOORYlFplyq6arNrr_pad-6" x="226949" y="-96647"/><use xlink:href="#JXeEOORYlFplyq6arNrr_pad-6" x="58801" y="-141986"/><use xlink:href="#JXeEOORYlFplyq6arNrr_pad-6" x="122174" y="-115697"/><use xlink:href="#JXeEOORYlFplyq6arNrr_pad-6" x="177038" y="-134747"/><use xlink:href="#JXeEOORYlFplyq6arNrr_pad-6" x="220599" y="-99187"/><use xlink:href="#JXeEOORYlFplyq6arNrr_pad-6" x="65151" y="-139446"/><use xlink:href="#JXeEOORYlFplyq6arNrr_pad-6" x="277876" y="-99187"/><use xlink:href="#JXeEOORYlFplyq6arNrr_pad-6" x="284226" y="-96647"/><use xlink:href="#JXeEOORYlFplyq6arNrr_pad-6" x="311150" y="-80137"/><use xlink:href="#JXeEOORYlFplyq6arNrr_pad-6" x="317500" y="-77597"/><use xlink:href="#JXeEOORYlFplyq6arNrr_pad-6" x="170688" y="-137287"/><use xlink:href="#JXeEOORYlFplyq6arNrr_pad-6" x="198501" y="-115697"/><use xlink:href="#JXeEOORYlFplyq6arNrr_pad-6" x="169799" y="-96647"/><use xlink:href="#JXeEOORYlFplyq6arNrr_pad-6" x="192151" y="-118237"/><use xlink:href="#JXeEOORYlFplyq6arNrr_pad-6" x="154051" y="-118237"/><use xlink:href="#JXeEOORYlFplyq6arNrr_pad-6" x="163449" y="-99187"/><use xlink:href="#JXeEOORYlFplyq6arNrr_pad-6" x="160401" y="-115697"/><use xlink:href="#JXeEOORYlFplyq6arNrr_pad-6" x="310388" y="-96647"/><use xlink:href="#JXeEOORYlFplyq6arNrr_pad-6" x="234950" y="-80137"/><use xlink:href="#JXeEOORYlFplyq6arNrr_pad-6" x="41275" y="-96647"/><use xlink:href="#JXeEOORYlFplyq6arNrr_pad-6" x="293751" y="-115697"/><use xlink:href="#JXeEOORYlFplyq6arNrr_pad-6" x="241300" y="-77597"/><use xlink:href="#JXeEOORYlFplyq6arNrr_pad-6" x="304038" y="-99187"/><use xlink:href="#JXeEOORYlFplyq6arNrr_pad-6" x="139700" y="-80137"/><use xlink:href="#JXeEOORYlFplyq6arNrr_pad-6" x="146050" y="-77597"/><use xlink:href="#JXeEOORYlFplyq6arNrr_pad-6" x="34925" y="-99187"/><use xlink:href="#JXeEOORYlFplyq6arNrr_pad-6" x="287401" y="-118237"/><use xlink:href="#JXeEOORYlFplyq6arNrr_pad-6" x="39751" y="-141986"/><use xlink:href="#JXeEOORYlFplyq6arNrr_pad-6" x="46101" y="-139446"/><use xlink:href="#JXeEOORYlFplyq6arNrr_pad-6" x="58674" y="-123063"/><use xlink:href="#JXeEOORYlFplyq6arNrr_pad-6" x="65024" y="-120523"/><use xlink:href="#JXeEOORYlFplyq6arNrr_pad-6" x="284988" y="-137287"/><use xlink:href="#JXeEOORYlFplyq6arNrr_pad-6" x="141351" y="-115697"/><use xlink:href="#JXeEOORYlFplyq6arNrr_pad-6" x="135001" y="-118237"/><use xlink:href="#JXeEOORYlFplyq6arNrr_pad-6" x="125476" y="-99187"/><use xlink:href="#JXeEOORYlFplyq6arNrr_pad-6" x="131826" y="-96647"/><use xlink:href="#JXeEOORYlFplyq6arNrr_pad-6" x="15875" y="-99187"/><use xlink:href="#JXeEOORYlFplyq6arNrr_pad-6" x="22225" y="-96647"/><use xlink:href="#JXeEOORYlFplyq6arNrr_pad-6" x="89662" y="-118237"/><use xlink:href="#JXeEOORYlFplyq6arNrr_pad-6" x="211201" y="-118237"/><use xlink:href="#JXeEOORYlFplyq6arNrr_pad-6" x="217551" y="-115697"/><use xlink:href="#JXeEOORYlFplyq6arNrr_pad-6" x="291338" y="-134747"/><use xlink:href="#JXeEOORYlFplyq6arNrr_pad-6" x="236601" y="-115697"/><use xlink:href="#JXeEOORYlFplyq6arNrr_pad-6" x="-3175" y="-118237"/><use xlink:href="#JXeEOORYlFplyq6arNrr_pad-6" x="292100" y="-80137"/><use xlink:href="#JXeEOORYlFplyq6arNrr_pad-6" x="230251" y="-118237"/><use xlink:href="#JXeEOORYlFplyq6arNrr_pad-6" x="3175" y="-115697"/><use xlink:href="#JXeEOORYlFplyq6arNrr_pad-6" x="196850" y="-80137"/><use xlink:href="#JXeEOORYlFplyq6arNrr_pad-6" x="203200" y="-77597"/><use xlink:href="#JXeEOORYlFplyq6arNrr_pad-6" x="106299" y="-137287"/><use xlink:href="#JXeEOORYlFplyq6arNrr_pad-6" x="112649" y="-134747"/><use xlink:href="#JXeEOORYlFplyq6arNrr_pad-6" x="298450" y="-77597"/><use xlink:href="#JXeEOORYlFplyq6arNrr_pad-6" x="218313" y="-137287"/><use xlink:href="#JXeEOORYlFplyq6arNrr_pad-6" x="224663" y="-134747"/><use xlink:href="#JXeEOORYlFplyq6arNrr_pad-6" x="34925" y="-80137"/><use xlink:href="#JXeEOORYlFplyq6arNrr_pad-6" x="41275" y="-77597"/><use xlink:href="#JXeEOORYlFplyq6arNrr_pad-6" x="15875" y="-137287"/><use xlink:href="#JXeEOORYlFplyq6arNrr_pad-6" x="22225" y="-134747"/><use xlink:href="#JXeEOORYlFplyq6arNrr_pad-6" x="96012" y="-115697"/><use xlink:href="#JXeEOORYlFplyq6arNrr_pad-6" x="-3175" y="-80137"/><use xlink:href="#JXeEOORYlFplyq6arNrr_pad-6" x="3175" y="-77597"/><use xlink:href="#JXeEOORYlFplyq6arNrr_pad-6" x="273050" y="-80137"/><use xlink:href="#JXeEOORYlFplyq6arNrr_pad-6" x="279400" y="-77597"/><use xlink:href="#JXeEOORYlFplyq6arNrr_pad-6" x="239776" y="-99187"/><use xlink:href="#JXeEOORYlFplyq6arNrr_pad-6" x="246126" y="-96647"/><use xlink:href="#JXeEOORYlFplyq6arNrr_pad-6" x="177800" y="-80137"/><use xlink:href="#JXeEOORYlFplyq6arNrr_pad-6" x="184150" y="-77597"/><use xlink:href="#JXeEOORYlFplyq6arNrr_pad-6" x="91313" y="-96647"/><use xlink:href="#JXeEOORYlFplyq6arNrr_pad-6" x="258826" y="-137287"/><use xlink:href="#JXeEOORYlFplyq6arNrr_pad-6" x="268351" y="-118237"/><use xlink:href="#JXeEOORYlFplyq6arNrr_pad-6" x="265176" y="-134747"/><use xlink:href="#JXeEOORYlFplyq6arNrr_pad-6" x="274701" y="-115697"/><use xlink:href="#JXeEOORYlFplyq6arNrr_pad-6" x="84963" y="-99187"/><use xlink:href="#JXeEOORYlFplyq6arNrr_pad-6" x="120650" y="-80137"/><use xlink:href="#JXeEOORYlFplyq6arNrr_pad-6" x="127000" y="-77597"/><use xlink:href="#JXeEOORYlFplyq6arNrr_pad-6" x="34925" y="-118237"/><use xlink:href="#JXeEOORYlFplyq6arNrr_pad-6" x="41275" y="-115697"/><use xlink:href="#JXeEOORYlFplyq6arNrr_pad-6" x="58674" y="-80137"/><use xlink:href="#JXeEOORYlFplyq6arNrr_pad-6" x="65024" y="-77597"/><use xlink:href="#JXeEOORYlFplyq6arNrr_pad-6" x="-3175" y="-99187"/><use xlink:href="#JXeEOORYlFplyq6arNrr_pad-6" x="77724" y="-141986"/><use xlink:href="#JXeEOORYlFplyq6arNrr_pad-6" x="84074" y="-139446"/><use xlink:href="#JXeEOORYlFplyq6arNrr_pad-6" x="182499" y="-99187"/><use xlink:href="#JXeEOORYlFplyq6arNrr_pad-6" x="201549" y="-99187"/><use xlink:href="#JXeEOORYlFplyq6arNrr_pad-6" x="207899" y="-96647"/><use xlink:href="#JXeEOORYlFplyq6arNrr_pad-6" x="188849" y="-96647"/><use xlink:href="#JXeEOORYlFplyq6arNrr_pad-6" x="308737" y="-118237"/><use xlink:href="#JXeEOORYlFplyq6arNrr_pad-6" x="315087" y="-115697"/><use xlink:href="#JXeEOORYlFplyq6arNrr_pad-6" x="88900" y="-77597"/><use xlink:href="#JXeEOORYlFplyq6arNrr_pad-6" x="3175" y="-96647"/><use xlink:href="#JXeEOORYlFplyq6arNrr_pad-6" x="158750" y="-80137"/><use xlink:href="#JXeEOORYlFplyq6arNrr_pad-6" x="165100" y="-77597"/><use xlink:href="#JXeEOORYlFplyq6arNrr_pad-6" x="144526" y="-99187"/><use xlink:href="#JXeEOORYlFplyq6arNrr_pad-6" x="150876" y="-96647"/><use xlink:href="#JXeEOORYlFplyq6arNrr_pad-6" x="101600" y="-80137"/><use xlink:href="#JXeEOORYlFplyq6arNrr_pad-6" x="107950" y="-77597"/><use xlink:href="#JXeEOORYlFplyq6arNrr_pad-6" x="215900" y="-80137"/><use xlink:href="#JXeEOORYlFplyq6arNrr_pad-6" x="315087" y="-134747"/><use xlink:href="#JXeEOORYlFplyq6arNrr_pad-6" x="112776" y="-96647"/><use xlink:href="#JXeEOORYlFplyq6arNrr_pad-6" x="141351" y="-134747"/><use xlink:href="#JXeEOORYlFplyq6arNrr_pad-6" x="173101" y="-118237"/><use xlink:href="#JXeEOORYlFplyq6arNrr_pad-6" x="260350" y="-77597"/><use xlink:href="#JXeEOORYlFplyq6arNrr_pad-6" x="3175" y="-134747"/><use xlink:href="#JXeEOORYlFplyq6arNrr_pad-6" x="106426" y="-99187"/><use xlink:href="#JXeEOORYlFplyq6arNrr_pad-6" x="135001" y="-137287"/><use xlink:href="#JXeEOORYlFplyq6arNrr_pad-6" x="222250" y="-77597"/><use xlink:href="#JXeEOORYlFplyq6arNrr_pad-6" x="179451" y="-115697"/><use xlink:href="#JXeEOORYlFplyq6arNrr_pad-6" x="254000" y="-80137"/><use xlink:href="#JXeEOORYlFplyq6arNrr_pad-6" x="15875" y="-80137"/><use xlink:href="#JXeEOORYlFplyq6arNrr_pad-6" x="22225" y="-77597"/><use xlink:href="#JXeEOORYlFplyq6arNrr_pad-6" x="308737" y="-137287"/><use xlink:href="#JXeEOORYlFplyq6arNrr_pad-6" x="15875" y="-118237"/><use xlink:href="#JXeEOORYlFplyq6arNrr_pad-6" x="22225" y="-115697"/><use xlink:href="#JXeEOORYlFplyq6arNrr_pad-6" x="-3175" y="-137287"/><use xlink:href="#JXeEOORYlFplyq6arNrr_pad-6" x="249301" y="-118237"/><use xlink:href="#JXeEOORYlFplyq6arNrr_pad-6" x="255651" y="-115697"/><use xlink:href="#JXeEOORYlFplyq6arNrr_pad-6" x="82550" y="-80137"/><use xlink:href="#JXeEOORYlFplyq6arNrr_pad-6" x="258826" y="-99187"/><use xlink:href="#JXeEOORYlFplyq6arNrr_pad-6" x="265176" y="-96647"/><use xlink:href="#JXeEOORYlFplyq6arNrr_pad-7" x="162560" y="-146812"/><use xlink:href="#JXeEOORYlFplyq6arNrr_pad-7" x="186436" y="-146812"/><use xlink:href="#JXeEOORYlFplyq6arNrr_pad-7" x="210185" y="-146812"/><use xlink:href="#JXeEOORYlFplyq6arNrr_pad-7" x="234061" y="-146812"/><use xlink:href="#JXeEOORYlFplyq6arNrr_pad-8" x="162560" y="-131572"/><use xlink:href="#JXeEOORYlFplyq6arNrr_pad-8" x="174498" y="-139827"/><use xlink:href="#JXeEOORYlFplyq6arNrr_pad-8" x="186436" y="-131572"/><use xlink:href="#JXeEOORYlFplyq6arNrr_pad-8" x="167259" y="-101727"/><use xlink:href="#JXeEOORYlFplyq6arNrr_pad-8" x="195961" y="-120777"/><use xlink:href="#JXeEOORYlFplyq6arNrr_pad-8" x="143510" y="-82677"/><use xlink:href="#JXeEOORYlFplyq6arNrr_pad-8" x="38735" y="-101727"/><use xlink:href="#JXeEOORYlFplyq6arNrr_pad-8" x="110109" y="-139827"/><use xlink:href="#JXeEOORYlFplyq6arNrr_pad-8" x="200660" y="-82677"/><use xlink:href="#JXeEOORYlFplyq6arNrr_pad-8" x="238760" y="-82677"/><use xlink:href="#JXeEOORYlFplyq6arNrr_pad-8" x="635" y="-120777"/><use xlink:href="#JXeEOORYlFplyq6arNrr_pad-8" x="291211" y="-120777"/><use xlink:href="#JXeEOORYlFplyq6arNrr_pad-8" x="295910" y="-82677"/><use xlink:href="#JXeEOORYlFplyq6arNrr_pad-8" x="138811" y="-120777"/><use xlink:href="#JXeEOORYlFplyq6arNrr_pad-8" x="215011" y="-120777"/><use xlink:href="#JXeEOORYlFplyq6arNrr_pad-8" x="234061" y="-120777"/><use xlink:href="#JXeEOORYlFplyq6arNrr_pad-8" x="93472" y="-120777"/><use xlink:href="#JXeEOORYlFplyq6arNrr_pad-8" x="222123" y="-139827"/><use xlink:href="#JXeEOORYlFplyq6arNrr_pad-8" x="307848" y="-101727"/><use xlink:href="#JXeEOORYlFplyq6arNrr_pad-8" x="62484" y="-125603"/><use xlink:href="#JXeEOORYlFplyq6arNrr_pad-8" x="129286" y="-101727"/><use xlink:href="#JXeEOORYlFplyq6arNrr_pad-8" x="38735" y="-82677"/><use xlink:href="#JXeEOORYlFplyq6arNrr_pad-8" x="288798" y="-139827"/><use xlink:href="#JXeEOORYlFplyq6arNrr_pad-8" x="210185" y="-131572"/><use xlink:href="#JXeEOORYlFplyq6arNrr_pad-8" x="234061" y="-131572"/><use xlink:href="#JXeEOORYlFplyq6arNrr_pad-8" x="43561" y="-144526"/><use xlink:href="#JXeEOORYlFplyq6arNrr_pad-8" x="19685" y="-101727"/><use xlink:href="#JXeEOORYlFplyq6arNrr_pad-8" x="19685" y="-139827"/><use xlink:href="#JXeEOORYlFplyq6arNrr_pad-8" x="635" y="-82677"/><use xlink:href="#JXeEOORYlFplyq6arNrr_pad-8" x="276860" y="-82677"/><use xlink:href="#JXeEOORYlFplyq6arNrr_pad-8" x="243586" y="-101727"/><use xlink:href="#JXeEOORYlFplyq6arNrr_pad-8" x="181610" y="-82677"/><use xlink:href="#JXeEOORYlFplyq6arNrr_pad-8" x="88773" y="-101727"/><use xlink:href="#JXeEOORYlFplyq6arNrr_pad-8" x="262636" y="-139827"/><use xlink:href="#JXeEOORYlFplyq6arNrr_pad-8" x="272161" y="-120777"/><use xlink:href="#JXeEOORYlFplyq6arNrr_pad-8" x="162560" y="-82677"/><use xlink:href="#JXeEOORYlFplyq6arNrr_pad-8" x="205359" y="-101727"/><use xlink:href="#JXeEOORYlFplyq6arNrr_pad-8" x="186309" y="-101727"/><use xlink:href="#JXeEOORYlFplyq6arNrr_pad-8" x="62484" y="-82677"/><use xlink:href="#JXeEOORYlFplyq6arNrr_pad-8" x="81534" y="-144526"/><use xlink:href="#JXeEOORYlFplyq6arNrr_pad-8" x="38735" y="-120777"/><use xlink:href="#JXeEOORYlFplyq6arNrr_pad-8" x="124460" y="-82677"/><use xlink:href="#JXeEOORYlFplyq6arNrr_pad-8" x="312547" y="-120777"/><use xlink:href="#JXeEOORYlFplyq6arNrr_pad-8" x="635" y="-101727"/><use xlink:href="#JXeEOORYlFplyq6arNrr_pad-8" x="148336" y="-101727"/><use xlink:href="#JXeEOORYlFplyq6arNrr_pad-8" x="176911" y="-120777"/><use xlink:href="#JXeEOORYlFplyq6arNrr_pad-8" x="105410" y="-82677"/><use xlink:href="#JXeEOORYlFplyq6arNrr_pad-8" x="157861" y="-120777"/><use xlink:href="#JXeEOORYlFplyq6arNrr_pad-8" x="119634" y="-120777"/><use xlink:href="#JXeEOORYlFplyq6arNrr_pad-8" x="110236" y="-101727"/><use xlink:href="#JXeEOORYlFplyq6arNrr_pad-8" x="253111" y="-120777"/><use xlink:href="#JXeEOORYlFplyq6arNrr_pad-8" x="314960" y="-82677"/><use xlink:href="#JXeEOORYlFplyq6arNrr_pad-8" x="86360" y="-82677"/><use xlink:href="#JXeEOORYlFplyq6arNrr_pad-8" x="62611" y="-144526"/><use xlink:href="#JXeEOORYlFplyq6arNrr_pad-8" x="312547" y="-139827"/><use xlink:href="#JXeEOORYlFplyq6arNrr_pad-8" x="19685" y="-120777"/><use xlink:href="#JXeEOORYlFplyq6arNrr_pad-8" x="138811" y="-139827"/><use xlink:href="#JXeEOORYlFplyq6arNrr_pad-8" x="257810" y="-82677"/><use xlink:href="#JXeEOORYlFplyq6arNrr_pad-8" x="19685" y="-82677"/><use xlink:href="#JXeEOORYlFplyq6arNrr_pad-8" x="219710" y="-82677"/><use xlink:href="#JXeEOORYlFplyq6arNrr_pad-8" x="635" y="-139827"/><use xlink:href="#JXeEOORYlFplyq6arNrr_pad-8" x="281686" y="-101727"/><use xlink:href="#JXeEOORYlFplyq6arNrr_pad-8" x="262636" y="-101727"/><use xlink:href="#JXeEOORYlFplyq6arNrr_pad-8" x="224409" y="-101727"/><path d="M 58164 -66435 58164 -67035 M 58164 -70365 58164 -71465 M 66804 -66435 66804 -67035 M 66804 -70365 66804 -71465" fill="none" stroke-width="600"/></g></svg>