<svg version="1.1" xmlns="http://www.w3.org/2000/svg" xmlns:xlink="http://www.w3.org/1999/xlink" stroke-linecap="round" stroke-linejoin="round" stroke-width="0" fill-rule="evenodd" width="333.375mm" height="88.646mm" viewBox="-8890 -154051 333375 88646" id="HznvRRvRkoW_NmIy__I4"><g transform="translate(0,-219456) scale(1,-1)" fill="currentColor" stroke="currentColor"><path d="M 91059 -153162 A 889 889 0 0 0 90170 -154051 L 34925 -154051 A 889 889 0 0 0 34036 -153162 L 34036 -151892 A 889 889 0 0 1 33147 -151003 L -8001 -151003 A 889 889 0 0 0 -8890 -150114 L -8890 -74041 A 889 889 0 0 0 -8001 -73152 L 56388 -73152 A 889 889 0 0 1 57277 -72263 L 57277 -66294 A 889 889 0 0 0 58166 -65405 L 66802 -65405 A 889 889 0 0 0 67691 -66294 L 67691 -72263 A 889 889 0 0 1 68580 -73152 L 323596 -73152 A 889 889 0 0 0 324485 -74041 L 324485 -149987 A 889 889 0 0 0 323596 -150876 L 91948 -151003 A 889 889 0 0 1 91059 -151892 L 91059 -153162" fill="none" stroke-width="200"/></g></svg>