<svg version="1.1" xmlns="http://www.w3.org/2000/svg" xmlns:xlink="http://www.w3.org/1999/xlink" stroke-linecap="round" stroke-linejoin="round" stroke-width="0" fill-rule="evenodd" width="30.3mm" height="29.475571mm" viewBox="48310.285 -118956.142 30300 29475.571" id="Y5zW7DOPuJErjevpoq0R"><g transform="translate(0,-208436.71300000002) scale(1,-1)" fill="currentColor" stroke="currentColor"><path d="M 52746 -109206.142 51746 -107777.571 M 51031.714 -109206.142 51031.714 -106206.142 52174.571 -106206.142 52460.285 -106349 52603.142 -106491.857 52746 -106777.571 52746 -107206.142 52603.142 -107491.857 52460.285 -107634.714 52174.571 -107777.571 51031.714 -107777.571 M 54031.714 -107634.714 55031.714 -107634.714 M 55460.285 -109206.142 54031.714 -109206.142 54031.714 -106206.142 55460.285 -106206.142 M 56317.428 -106206.142 57317.428 -109206.142 58317.428 -106206.142 M 59317.428 -107634.714 60317.428 -107634.714 M 60746 -109206.142 59317.428 -109206.142 59317.428 -106206.142 60746 -106206.142 M 63746 -109206.142 62746 -107777.571 M 62031.714 -109206.142 62031.714 -106206.142 63174.571 -106206.142 63460.285 -106349 63603.142 -106491.857 63746 -106777.571 63746 -107206.142 63603.142 -107491.857 63460.285 -107634.714 63174.571 -107777.571 62031.714 -107777.571 M 65031.714 -109206.142 65031.714 -106206.142 M 66460.285 -107634.714 67460.285 -107634.714 M 67888.857 -109206.142 66460.285 -109206.142 66460.285 -106206.142 67888.857 -106206.142 M 68460.285 -109491.857 70746 -109491.857 M 71031.714 -106206.142 72031.714 -109206.142 73031.714 -106206.142 M 74603.142 -106206.142 74888.857 -106206.142 75174.571 -106349 75317.428 -106491.857 75460.285 -106777.571 75603.142 -107349 75603.142 -108063.285 75460.285 -108634.714 75317.428 -108920.428 75174.571 -109063.285 74888.857 -109206.142 74603.142 -109206.142 74317.428 -109063.285 74174.571 -108920.428 74031.714 -108634.714 73888.857 -108063.285 73888.857 -107349 74031.714 -106777.571 74174.571 -106491.857 74317.428 -106349 74603.142 -106206.142 M 49460.285 -117234.714 49888.857 -117377.571 50031.714 -117520.428 50174.571 -117806.142 50174.571 -118234.714 50031.714 -118520.428 49888.857 -118663.285 49603.142 -118806.142 48460.285 -118806.142 48460.285 -115806.142 49460.285 -115806.142 49746 -115949 49888.857 -116091.857 50031.714 -116377.571 50031.714 -116663.285 49888.857 -116949 49746 -117091.857 49460.285 -117234.714 48460.285 -117234.714 M 52031.714 -117377.571 52031.714 -118806.142 M 51031.714 -115806.142 52031.714 -117377.571 53031.714 -115806.142 M 56317.428 -118806.142 56317.428 -115806.142 57317.428 -117949 58317.428 -115806.142 58317.428 -118806.142 M 59603.142 -117949 61031.714 -117949 M 59317.428 -118806.142 60317.428 -115806.142 61317.428 -118806.142 M 62317.428 -118806.142 62317.428 -115806.142 M 64031.714 -118806.142 62746 -117091.857 M 64031.714 -115806.142 62317.428 -117520.428 M 65317.428 -117234.714 66317.428 -117234.714 M 66746 -118806.142 65317.428 -118806.142 65317.428 -115806.142 66746 -115806.142 M 68031.714 -118806.142 68031.714 -115806.142 69746 -118806.142 69746 -115806.142 M 71746 -115806.142 72317.428 -115806.142 72603.142 -115949 72888.857 -116234.714 73031.714 -116806.142 73031.714 -117806.142 72888.857 -118377.571 72603.142 -118663.285 72317.428 -118806.142 71746 -118806.142 71460.285 -118663.285 71174.571 -118377.571 71031.714 -117806.142 71031.714 -116806.142 71174.571 -116234.714 71460.285 -115949 71746 -115806.142 M 73888.857 -115806.142 74888.857 -118806.142 75888.857 -115806.142 M 76746 -117949 78174.571 -117949 M 76460.285 -118806.142 77460.285 -115806.142 78460.285 -118806.142" fill="none" stroke-width="300"/><path d="M 52812 -97877 52812 -92877 55312 -92877 55312 -97877 52812 -97877" fill="none" stroke-width="250"/><path d="M 49514.38 -101198.428 48514.38 -101198.428 49228.666 -100865.095 48514.38 -100531.761 49514.38 -100531.761 M 49514.38 -100055.571 48514.38 -100055.571 M 49466.761 -99627 49514.38 -99484.142 49514.38 -99246.047 49466.761 -99150.809 49419.142 -99103.19 49323.904 -99055.571 49228.666 -99055.571 49133.428 -99103.19 49085.809 -99150.809 49038.19 -99246.047 48990.571 -99436.523 48942.952 -99531.761 48895.333 -99579.38 48800.095 -99627 48704.857 -99627 48609.619 -99579.38 48562 -99531.761 48514.38 -99436.523 48514.38 -99198.428 48562 -99055.571 M 48514.38 -98436.523 48514.38 -98246.047 48562 -98150.809 48657.238 -98055.571 48847.714 -98007.952 49181.047 -98007.952 49371.523 -98055.571 49466.761 -98150.809 49514.38 -98246.047 49514.38 -98436.523 49466.761 -98531.761 49371.523 -98627 49181.047 -98674.619 48847.714 -98674.619 48657.238 -98627 48562 -98531.761 48514.38 -98436.523 M 48514.38 -92710.333 49514.38 -92377 48514.38 -92043.666 M 49419.142 -91138.904 49466.761 -91186.523 49514.38 -91329.38 49514.38 -91424.619 49466.761 -91567.476 49371.523 -91662.714 49276.285 -91710.333 49085.809 -91757.952 48942.952 -91757.952 48752.476 -91710.333 48657.238 -91662.714 48562 -91567.476 48514.38 -91424.619 48514.38 -91329.38 48562 -91186.523 48609.619 -91138.904 M 49419.142 -90138.904 49466.761 -90186.523 49514.38 -90329.38 49514.38 -90424.619 49466.761 -90567.476 49371.523 -90662.714 49276.285 -90710.333 49085.809 -90757.952 48942.952 -90757.952 48752.476 -90710.333 48657.238 -90662.714 48562 -90567.476 48514.38 -90424.619 48514.38 -90329.38 48562 -90186.523 48609.619 -90138.904 M 51966.761 -100662.714 52014.38 -100519.857 52014.38 -100281.761 51966.761 -100186.523 51919.142 -100138.904 51823.904 -100091.285 51728.666 -100091.285 51633.428 -100138.904 51585.809 -100186.523 51538.19 -100281.761 51490.571 -100472.238 51442.952 -100567.476 51395.333 -100615.095 51300.095 -100662.714 51204.857 -100662.714 51109.619 -100615.095 51062 -100567.476 51014.38 -100472.238 51014.38 -100234.142 51062 -100091.285 M 51919.142 -99091.285 51966.761 -99138.904 52014.38 -99281.761 52014.38 -99377 51966.761 -99519.857 51871.523 -99615.095 51776.285 -99662.714 51585.809 -99710.333 51442.952 -99710.333 51252.476 -99662.714 51157.238 -99615.095 51062 -99519.857 51014.38 -99377 51014.38 -99281.761 51062 -99138.904 51109.619 -99091.285 M 52014.38 -98662.714 51014.38 -98662.714 M 52014.38 -98091.285 51442.952 -98519.857 M 51014.38 -98091.285 51585.809 -98662.714 M 52014.38 -92698.428 51014.38 -92698.428 51728.666 -92365.095 51014.38 -92031.761 52014.38 -92031.761 M 51014.38 -91365.095 51014.38 -91174.619 51062 -91079.38 51157.238 -90984.142 51347.714 -90936.523 51681.047 -90936.523 51871.523 -90984.142 51966.761 -91079.38 52014.38 -91174.619 52014.38 -91365.095 51966.761 -91460.333 51871.523 -91555.571 51681.047 -91603.19 51347.714 -91603.19 51157.238 -91555.571 51062 -91460.333 51014.38 -91365.095 M 51966.761 -90555.571 52014.38 -90412.714 52014.38 -90174.619 51966.761 -90079.38 51919.142 -90031.761 51823.904 -89984.142 51728.666 -89984.142 51633.428 -90031.761 51585.809 -90079.38 51538.19 -90174.619 51490.571 -90365.095 51442.952 -90460.333 51395.333 -90507.952 51300.095 -90555.571 51204.857 -90555.571 51109.619 -90507.952 51062 -90460.333 51014.38 -90365.095 51014.38 -90127 51062 -89984.142 M 52014.38 -89555.571 51014.38 -89555.571 M 54514.38 -100174.619 54038.19 -100507.952 M 54514.38 -100746.047 53514.38 -100746.047 53514.38 -100365.095 53562 -100269.857 53609.619 -100222.238 53704.857 -100174.619 53847.714 -100174.619 53942.952 -100222.238 53990.571 -100269.857 54038.19 -100365.095 54038.19 -100746.047 M 54466.761 -99793.666 54514.38 -99650.809 54514.38 -99412.714 54466.761 -99317.476 54419.142 -99269.857 54323.904 -99222.238 54228.666 -99222.238 54133.428 -99269.857 54085.809 -99317.476 54038.19 -99412.714 53990.571 -99603.19 53942.952 -99698.428 53895.333 -99746.047 53800.095 -99793.666 53704.857 -99793.666 53609.619 -99746.047 53562 -99698.428 53514.38 -99603.19 53514.38 -99365.095 53562 -99222.238 M 53514.38 -98936.523 53514.38 -98365.095 M 54514.38 -98650.809 53514.38 -98650.809 M 53562 -91888.904 53514.38 -91984.142 53514.38 -92127 53562 -92269.857 53657.238 -92365.095 53752.476 -92412.714 53942.952 -92460.333 54085.809 -92460.333 54276.285 -92412.714 54371.523 -92365.095 54466.761 -92269.857 54514.38 -92127 54514.38 -92031.761 54466.761 -91888.904 54419.142 -91841.285 54085.809 -91841.285 54085.809 -92031.761 M 54514.38 -91412.714 53514.38 -91412.714 54514.38 -90841.285 53514.38 -90841.285 M 54514.38 -90365.095 53514.38 -90365.095 53514.38 -90127 53562 -89984.142 53657.238 -89888.904 53752.476 -89841.285 53942.952 -89793.666 54085.809 -89793.666 54276.285 -89841.285 54371.523 -89888.904 54466.761 -89984.142 54514.38 -90127 54514.38 -90365.095" fill="none" stroke-width="150"/></g></svg>