<svg version="1.1" xmlns="http://www.w3.org/2000/svg" xmlns:xlink="http://www.w3.org/1999/xlink" stroke-linecap="round" stroke-linejoin="round" stroke-width="0" fill-rule="evenodd" width="36.814904999999996mm" height="28.695142mm" viewBox="41795.38 -118956.142 36814.905 28695.142" id="nJV7_pz3YxBssUXdbt8a"><g transform="translate(0,-209217.14200000002) scale(1,-1)" fill="currentColor" stroke="currentColor"><path d="M 52746 -109206.142 51746 -107777.571 M 51031.714 -109206.142 51031.714 -106206.142 52174.571 -106206.142 52460.285 -106349 52603.142 -106491.857 52746 -106777.571 52746 -107206.142 52603.142 -107491.857 52460.285 -107634.714 52174.571 -107777.571 51031.714 -107777.571 M 54031.714 -107634.714 55031.714 -107634.714 M 55460.285 -109206.142 54031.714 -109206.142 54031.714 -106206.142 55460.285 -106206.142 M 56317.428 -106206.142 57317.428 -109206.142 58317.428 -106206.142 M 59317.428 -107634.714 60317.428 -107634.714 M 60746 -109206.142 59317.428 -109206.142 59317.428 -106206.142 60746 -106206.142 M 63746 -109206.142 62746 -107777.571 M 62031.714 -109206.142 62031.714 -106206.142 63174.571 -106206.142 63460.285 -106349 63603.142 -106491.857 63746 -106777.571 63746 -107206.142 63603.142 -107491.857 63460.285 -107634.714 63174.571 -107777.571 62031.714 -107777.571 M 65031.714 -109206.142 65031.714 -106206.142 M 66460.285 -107634.714 67460.285 -107634.714 M 67888.857 -109206.142 66460.285 -109206.142 66460.285 -106206.142 67888.857 -106206.142 M 68460.285 -109491.857 70746 -109491.857 M 71031.714 -106206.142 72031.714 -109206.142 73031.714 -106206.142 M 74603.142 -106206.142 74888.857 -106206.142 75174.571 -106349 75317.428 -106491.857 75460.285 -106777.571 75603.142 -107349 75603.142 -108063.285 75460.285 -108634.714 75317.428 -108920.428 75174.571 -109063.285 74888.857 -109206.142 74603.142 -109206.142 74317.428 -109063.285 74174.571 -108920.428 74031.714 -108634.714 73888.857 -108063.285 73888.857 -107349 74031.714 -106777.571 74174.571 -106491.857 74317.428 -106349 74603.142 -106206.142 M 49460.285 -117234.714 49888.857 -117377.571 50031.714 -117520.428 50174.571 -117806.142 50174.571 -118234.714 50031.714 -118520.428 49888.857 -118663.285 49603.142 -118806.142 48460.285 -118806.142 48460.285 -115806.142 49460.285 -115806.142 49746 -115949 49888.857 -116091.857 50031.714 -116377.571 50031.714 -116663.285 49888.857 -116949 49746 -117091.857 49460.285 -117234.714 48460.285 -117234.714 M 52031.714 -117377.571 52031.714 -118806.142 M 51031.714 -115806.142 52031.714 -117377.571 53031.714 -115806.142 M 56317.428 -118806.142 56317.428 -115806.142 57317.428 -117949 58317.428 -115806.142 58317.428 -118806.142 M 59603.142 -117949 61031.714 -117949 M 59317.428 -118806.142 60317.428 -115806.142 61317.428 -118806.142 M 62317.428 -118806.142 62317.428 -115806.142 M 64031.714 -118806.142 62746 -117091.857 M 64031.714 -115806.142 62317.428 -117520.428 M 65317.428 -117234.714 66317.428 -117234.714 M 66746 -118806.142 65317.428 -118806.142 65317.428 -115806.142 66746 -115806.142 M 68031.714 -118806.142 68031.714 -115806.142 69746 -118806.142 69746 -115806.142 M 71746 -115806.142 72317.428 -115806.142 72603.142 -115949 72888.857 -116234.714 73031.714 -116806.142 73031.714 -117806.142 72888.857 -118377.571 72603.142 -118663.285 72317.428 -118806.142 71746 -118806.142 71460.285 -118663.285 71174.571 -118377.571 71031.714 -117806.142 71031.714 -116806.142 71174.571 -116234.714 71460.285 -115949 71746 -115806.142 M 73888.857 -115806.142 74888.857 -118806.142 75888.857 -115806.142 M 76746 -117949 78174.571 -117949 M 76460.285 -118806.142 77460.285 -115806.142 78460.285 -118806.142" fill="none" stroke-width="300"/><path d="M 43672 -90321 59452 -90321 59452 -99671 43672 -99671 43672 -90321 M 43422 -99921 45962 -99921 M 43422 -99921 43422 -97381" fill="none" stroke-width="120"/><path d="M 41870.38 -95329.333 42584.666 -95329.333 42727.523 -95376.952 42822.761 -95472.19 42870.38 -95615.047 42870.38 -95710.285 M 42870.38 -94329.333 42870.38 -94900.761 M 42870.38 -94615.047 41870.38 -94615.047 42013.238 -94710.285 42108.476 -94805.523 42156.095 -94900.761" fill="none" stroke-width="150"/></g></svg>